<?xml version="1.0" encoding="utf-8"?>
<!-- Generator: Adobe Illustrator 16.0.0, SVG Export Plug-In . SVG Version: 6.00 Build 0)  -->
<!DOCTYPE svg PUBLIC "-//W3C//DTD SVG 1.1//EN" "http://www.w3.org/Graphics/SVG/1.1/DTD/svg11.dtd">
<svg version="1.1" id="Layer_1" xmlns="http://www.w3.org/2000/svg" xmlns:xlink="http://www.w3.org/1999/xlink" x="0px" y="0px"
	 width="1920px" height="1080px" viewBox="0 0 1920 1080" enable-background="new 0 0 1920 1080" xml:space="preserve">
<rect x="8" y="-4" fill-rule="evenodd" clip-rule="evenodd" fill="#FDB821" width="1920" height="1080"/>
<g>
	<path fill-rule="evenodd" clip-rule="evenodd" fill="#FFFFFF" d="M591.8,429.25c43.725,38.432,22.105,118.588-43.203,136.76
		c-45.054,12.539-90.702,11.45-136.534,4.922c-12.181-1.734-15.092-7.141-12.097-19.28c19.38-78.548,37.886-157.312,57.447-235.814
		c1.323-5.304,8.782-12.721,13.637-12.916c34.359-1.379,68.919-3.109,103.14-0.752c25.736,1.772,46.092,17.036,52.683,43.128
		c7.501,29.688-0.356,56.177-24.953,76.254C598.676,424.199,595.257,426.629,591.8,429.25z M503.205,451.543
		c-26.24,0.943-26.234,0.943-32.125,26.297c-1.282,5.518-2.676,11.012-3.957,16.531c-9.55,41.119-13.116,35.643,28.816,34.366
		c15.377-0.468,31.262-6.811,45.578-13.386c15.387-7.066,21.705-24.563,17.91-41.059c-3.432-14.919-15.737-17.4-28.225-19.194
		C521.891,453.76,512.539,452.719,503.205,451.543z M529.544,343.413c-9.498,3.854-22.901-5.881-27.469,9.051
		c-4.833,15.785-8.553,31.941-11.907,48.114c-0.515,2.486,3.567,8.539,5.478,8.52c23.106-0.244,47.469,1.103,66.383-14.286
		c7.532-6.127,12.369-18.946,13.165-29.13c1.013-12.956-11.034-17.351-22.341-19.311
		C544.989,345.008,537.008,344.336,529.544,343.413z"/>
	<path fill-rule="evenodd" clip-rule="evenodd" fill="#FFFFFF" d="M1223.647,438.01c-3.077,50.71-17.631,95.795-62.718,125.617
		c-28.736,19.006-88.531,23.078-112.649-9.082c-4.777-6.371-10.177-13.227-12.044-20.672
		c-12.812-51.14,3.038-125.444,57.401-159.838c30.078-19.03,82.226-20.252,105.839,1.207
		C1218.439,392.477,1224.409,413.536,1223.647,438.01z M1083.512,495.12c-0.439,13.211-0.531,26.298,12.999,33.804
		c12.32,6.836,23.888,2.129,35.164-3.441c1.671-0.826,3.155-2.107,4.596-3.332c27.045-23.002,35.847-53.615,35.672-87.563
		c-0.111-21.557-10.466-30.832-31.626-27.49c-8.381,1.324-17.331,5.453-23.871,10.893
		C1092.513,437.893,1085.065,465.426,1083.512,495.12z"/>
	<path fill-rule="evenodd" clip-rule="evenodd" fill="#FFFFFF" d="M1319.865,572.145c0.559-6.478,0.389-10.791,1.361-14.828
		c13.727-57.039,27.813-113.991,41.251-171.097c2.264-9.617,6.677-15.779,16.328-16.762c28.114-2.864,56.598-9.17,84.347-6.917
		c42.258,3.433,57.719,40.203,52.232,77.113c-6.098,41.044-17.911,81.228-26.897,121.86c-1.781,8.04-5.929,10.929-13.85,10.702
		c-12.67-0.367-25.357-0.099-40.436-0.099c6.382-27.472,12.205-52.644,18.081-77.802c3.981-17.037,8.263-34.007,11.979-51.102
		c2.671-12.275,1.959-26.781-9.871-31.26c-12.339-4.67-27.415-3.051-41.176-2.213c-2.802,0.173-6.135,8.844-7.417,14.043
		c-10.764,43.638-21.453,87.301-31.352,131.141c-2.81,12.436-7.128,19.422-21.461,17.482
		C1342.814,571.034,1332.312,572.145,1319.865,572.145z"/>
	<path fill-rule="evenodd" clip-rule="evenodd" fill="#FFFFFF" d="M828.793,302.917c-5.033,22.264-9.139,40.42-13.827,61.151
		c21.837,0,41.904,0,64.851,0c-3.738,15.049-6.058,27.511-10.273,39.295c-1.134,3.172-7.943,5.824-12.292,6.061
		c-14.202,0.771-28.502-0.207-42.694,0.657c-4.305,0.262-11.33,3.586-12.106,6.741c-7.572,30.757-15.159,61.592-20.478,92.791
		c-3.049,17.883,6.707,25.438,24.576,21.391c11.907-2.693,23.417-7.149,38.271-11.809c1.113,14.498,2.579,28.243,2.83,42.01
		c0.045,2.386-4.674,5.713-7.851,7.166c-24.641,11.244-50.461,13.133-76.323,6.15c-21.614-5.835-31.793-22.095-33.186-44.298
		c-1.975-31.477,6.954-60.958,14.2-90.848c9.373-38.662,18.802-77.314,27.702-116.087c1.981-8.633,5.572-13.014,14.812-13.876
		C799.543,308.245,811.947,305.621,828.793,302.917z"/>
	<path fill-rule="evenodd" clip-rule="evenodd" fill="#FFFFFF" d="M1048.302,370.028c-7.822,17.382-13.956,31.012-19.965,44.366
		c-10.762-2.793-19.692-6.244-28.896-7.31c-46.748-5.409-72.827,32.842-77.897,66.408c-1.391,9.212-2.767,18.991-1.17,27.981
		c4.284,24.114,20.376,34.082,44.485,29.1c7.4-1.529,14.911-2.949,21.996-5.47c6.567-2.339,12.632-6.084,22.319-10.9
		c1.244,16.104,2.551,30.263,3.205,44.456c0.094,2.098-2.421,5.217-4.543,6.383c-29.219,16.082-87.994,21.277-116.381-7.7
		c-19.358-19.763-24.226-43.905-22.663-70.47c1.921-32.641,11.111-62.516,32.797-87.48c27.991-32.219,63.974-44.358,105.771-39.012
		C1020.478,362.059,1033.256,366.397,1048.302,370.028z"/>
	<path fill-rule="evenodd" clip-rule="evenodd" fill="#FFFFFF" d="M1225.627,572.145c5.537-24.066,10.317-45.619,15.469-67.082
		c10.155-42.295,20.799-84.475,30.586-126.855c2.487-10.762,7.417-14.319,18.435-14.26c37.887,0.2,37.695-0.254,28.72,36.543
		c-12.208,50.056-24.054,100.199-36.12,150.291c-5.144,21.367-5.217,21.352-26.828,21.363
		C1246.563,572.148,1237.238,572.145,1225.627,572.145z"/>
	<path fill-rule="evenodd" clip-rule="evenodd" fill="#FFFFFF" d="M622.164,572.116c8.11-33.979,15.44-64.687,22.769-95.395
		c7.787-32.624,15.885-65.179,23.194-97.91c2.487-11.135,7.448-16.323,19.336-14.789c7.453,0.962,15.159,0.612,22.701,0.101
		c11.069-0.75,13.061,4.872,10.838,14.03c-14.816,61.063-29.755,122.098-44.324,183.218c-1.892,7.938-5.741,11.059-13.705,10.838
		C650.317,571.857,637.644,572.116,622.164,572.116z"/>
	<path fill-rule="evenodd" clip-rule="evenodd" fill="#FFFFFF" d="M1283.185,315.184c0.281-18.749,12.625-30.788,31.474-30.7
		c16.484,0.076,28.245,12.125,28.242,28.936c-0.006,17.533-15.163,33.177-32.708,32.401
		C1295.089,345.156,1280.831,336.549,1283.185,315.184z"/>
	<path fill-rule="evenodd" clip-rule="evenodd" fill="#FFFFFF" d="M679.233,317.337c-0.05-18.529,13.695-32.813,31.609-32.852
		c17.112-0.038,28.082,11.041,28.146,28.419c0.067,18.728-13.042,32.521-31.494,33.134
		C691.089,346.583,679.279,334.589,679.233,317.337z"/>
</g>
<text transform="matrix(1 0 0 1 400.6909 693.6963)" fill="#FFFFFF" font-family="'MyriadPro-Regular'" font-size="120.5925">BLOCKEXPLORER.COM</text>
</svg>
