<?xml version="1.0" encoding="utf-8"?>
<!-- Generator: Adobe Illustrator 16.0.0, SVG Export Plug-In . SVG Version: 6.00 Build 0)  -->
<!DOCTYPE svg PUBLIC "-//W3C//DTD SVG 1.1//EN" "http://www.w3.org/Graphics/SVG/1.1/DTD/svg11.dtd">
<svg version="1.1" id="Layer_1" xmlns="http://www.w3.org/2000/svg" xmlns:xlink="http://www.w3.org/1999/xlink" x="0px" y="0px"
	 width="1920px" height="1080px" viewBox="0 0 1920 1080" enable-background="new 0 0 1920 1080" xml:space="preserve">
<rect x="-14" y="-10.625" fill-rule="evenodd" clip-rule="evenodd" fill="#3874BA" width="1943.705" height="1098.221"/>
<g>
	<g>
		<path fill-rule="evenodd" clip-rule="evenodd" fill="#FFFFFF" d="M911.439,485.399c-0.998-10.684-6.806-13.862-15.389-11.813
			c-8.411,2.002-5.224,9.35-5.265,14.435c-0.325,29.929-0.106,59.857-0.207,89.789c-0.018,7.601-0.142,13.653,10.844,13.579
			c10.37-0.066,11.397-5.031,11.297-13.169c-0.266-21.881-0.235-43.77,0.065-65.651c0.064-4.285,0.803-9.234,3.063-12.69
			c6.15-9.415,20.104-14.077,29.879-10.493c10.837,3.983,13.033,13.292,13.357,23.453c0.118,3.537,0.083,7.081,0.089,10.618
			c0.006,18.668,0.266,37.338-0.095,55.995c-0.165,8.542,2.567,11.994,11.676,11.883c8.665-0.107,11.238-3.319,10.938-11.466
			c-0.455-12.211-0.248-24.456-0.065-36.681c0.178-11.883-0.413-23.92,1.328-35.59c1.989-13.443,12.124-19.992,25.859-19.107
			c11.569,0.748,18.818,8.479,19.526,22.179c0.632,12.196,0.318,24.449,0.378,36.677c0.064,11.906,0.118,23.811,0.1,35.719
			c-0.006,6.365,3.513,8.625,9.297,7.932c4.882-0.586,12.603,2.634,12.655-6.052c0.159-27.007,0.484-54.07-1.063-81.007
			c-0.861-15.102-9.704-26.867-25.127-30.951c-16.067-4.248-31.402-2.445-43.697,10.316c-2.16,2.246-3.565,5.226-5.619,8.327
			C958.07,465.857,936.248,465.267,911.439,485.399z M241.815,615.016c1.618,0.786,3.224,1.575,4.841,2.364
			c10.606-12.226,21.291-24.381,31.809-36.692c10.053-11.772,11.115-25.271,5.343-38.924
			c-10.631-25.148-21.516-50.216-33.268-74.852c-10.938-22.947-21.373-45.632-13.972-71.991c0.26-0.907,0.531-2.529,0.147-2.78
			c-2.343-1.476-5.767-4.393-7.207-3.659c-26.013,13.339-39.288,45.746-28.285,72.82c11.864,29.15,25.417,57.626,38.774,86.141
			c8.175,17.445,10.176,34.889,4.084,53.319C242.589,605.268,242.53,610.25,241.815,615.016z M480.075,592.998
			c1.765,0,2.733,0.007,3.695,0c27.482-0.184,47.888-16.341,52.669-41.73c4.764-25.267-5.867-41.277-34.524-52.02
			c-10.224-3.832-20.754-7.037-30.563-11.739c-10.873-5.215-14.692-13.056-13.099-23.349c1.665-10.792,8.541-16.851,18.6-19.878
			c14.154-4.252,26.674-0.118,38.355,7.66c5.424,3.607,9.84,4.197,13.782-2.061c3.79-6.015,4.374-10.654-2.408-15.427
			c-13.942-9.807-29.354-12.282-45.852-11.426c-22.317,1.161-41.082,17.057-44.813,38.359c-3.866,21.933,6.445,39.281,29.188,48.21
			c10.17,3.99,20.795,6.797,30.959,10.787c14.019,5.502,19.354,13.539,18.375,26.089c-1.016,12.971-9.262,22.065-22.583,25.524
			c-16.936,4.396-30.954-1.884-44.005-11.65c-5.689-4.267-10.152-4.374-14.591,1.862c-4.321,6.056-4.457,10.692,1.978,15.453
			C448.845,587.753,463.619,593.943,480.075,592.998z M1561.271,485.643c-1.086-1.523-1.988-2.219-2.112-3.035
			c-1.353-9.039-7.503-10.327-14.928-9.117c-7.774,1.265-5.514,7.724-5.543,12.351c-0.207,30.869,0.071,61.746-0.213,92.615
			c-0.082,8.419,1.464,12.864,11.546,12.933c10.726,0.078,11.133-5.528,11.05-13.395c-0.194-21.863-0.407-43.744,0.242-65.591
			c0.147-4.829,2.686-10.725,6.115-14.103c9.893-9.741,22.377-13.325,35.451-7.727c12.442,5.326,12.72,17.429,12.779,28.903
			c0.117,21.225,0.171,42.45,0.059,63.67c-0.029,6.62,3.589,8.306,9.249,7.888c5.39-0.398,12.845,2.081,12.88-7.11
			c0.089-25.071,1.435-50.294-0.803-75.181c-3.135-34.873-37.016-49.231-66.357-29.56
			C1567.569,481.276,1564.477,483.438,1561.271,485.643z M162.514,428.302c0-2.139,0.797-6.244-0.307-9.759
			c-0.607-1.933-5.247-4.646-6.623-3.995c-19.366,9.298-29.271,35.369-20.741,55.329c8.848,20.697,17.997,41.294,27.925,61.49
			c8.058,16.39,10.548,32.842,5.454,50.46c-0.619,2.135,0.283,4.706,0.473,7.073c2.544-0.818,5.92-0.877,7.496-2.588
			c7.626-8.243,15.252-16.578,21.946-25.573c5.684-7.653,6.688-16.673,2.839-25.713c-7.674-18.038-15.436-36.039-23.25-54.015
			C170.583,464.603,160.023,449.253,162.514,428.302z M315.947,590.438c2.632-0.292,4.167,0.007,4.976-0.624
			c13.942-10.802,25.204-23.798,31.674-40.392c0.944-2.416,0.472-5.834-0.426-8.416c-3.335-9.71-7.106-19.277-10.754-28.874
			c-11.693-30.732-35.451-57.497-30.346-93.809c0.756-5.374-3.128-6.259-7.673-3.337c-19.869,12.76-27.678,34.063-18.782,56.079
			c8.653,21.414,18.475,42.384,28.485,63.214c7.467,15.526,9.987,30.998,3.979,47.495
			C316.188,584.213,316.366,587.035,315.947,590.438z M1146.322,532.285c0.118,0,0.236,0,0.343,0
			c0,11.264-0.508,22.564,0.136,33.791c0.82,14.103,7.649,24.559,19.236,25.58c10.436,0.926,21.545-1.099,31.773-3.927
			c7.668-2.113,7.881-10.444,0.821-14.269c-2.415-1.309-6.67-0.21-9.728,0.836c-12.414,4.253-19.668-0.31-19.815-13.413
			c-0.236-19.96,0.053-39.923-0.089-59.883c-0.041-6.056,2.338-8.929,8.535-8.755c5.466,0.155,10.938-0.169,16.409-0.103
			c6.216,0.074,8.5-2.995,8.399-9.006c-0.088-5.772-2.638-8.11-8.281-7.944c-5.79,0.166-11.587-0.17-17.383-0.052
			c-5.241,0.107-7.662-2.22-7.62-7.49c0.059-8.048-0.118-16.094-0.101-24.146c0.006-4.998-0.832-8.836-7.267-8.888
			c-5.72-0.048-9.237,1.686-9.963,7.811c-0.868,7.346-2.532,14.63-2.97,21.992c-0.431,7.259-2.909,11.183-10.771,11.518
			c-4.669,0.199-9.828,1.195-9.516,8.243c0.283,6.617,4.51,8.022,9.769,7.978c6.487-0.059,8.205,3.515,8.122,9.22
			C1146.222,511.677,1146.322,521.981,1146.322,532.285z M597.903,594.528c7.237-2.275,14.65-4.152,21.634-7.055
			c2.267-0.947,5.094-4.931,4.692-6.904c-0.638-3.035-3.335-6.667-6.115-7.915c-2.249-1.006-5.985,0.904-8.925,1.911
			c-11.05,3.765-18.6-0.347-18.877-11.592c-0.525-20.889-0.171-41.804-0.194-62.704c0-5.605,2.756-8.143,8.376-8.025
			c5.778,0.118,11.568-0.173,17.359-0.118c5.85,0.055,7.909-3.069,7.88-8.497c-0.035-5.308-1.706-8.664-7.773-8.435
			c-5.142,0.192-10.33-0.383-15.43,0.056c-8.211,0.7-10.914-3.161-10.565-10.799c0.301-6.734,0-13.501-0.012-20.254
			c-0.013-5.208-0.579-9.512-7.621-9.604c-6.622-0.088-9.255,2.965-9.827,9.09c-0.531,5.758-1.636,11.463-2.137,17.219
			c-0.744,8.597-2.509,15.542-13.588,15.771c-2.491,0.051-6.947,5.156-6.771,7.671c0.188,2.733,4.704,7.288,7.39,7.328
			c9.179,0.14,10.389,5.134,10.342,12.488c-0.118,20.259-0.384,40.535,0.313,60.772
			C568.721,584.132,578.555,592.976,597.903,594.528z M1105.192,532.828c0-16.726-0.253-33.455,0.118-50.168
			c0.178-8.099-3.89-9.531-10.76-9.538c-7.001-0.007-11.835,0.863-11.776,9.652c0.23,32.798,0.236,65.606-0.006,98.407
			c-0.064,8.447,4.056,10.046,11.41,10.054c7.443,0.004,11.38-1.71,11.149-10.172
			C1104.886,564.995,1105.199,548.908,1105.192,532.828z M1094.02,421.18c-8.229,0.085-14.964,6.557-14.981,14.394
			c-0.023,7.804,6.741,14.291,14.981,14.373c8.906,0.088,15.677-6.45,15.358-14.852
			C1109.089,427.044,1102.513,421.095,1094.02,421.18z"/>
		<path fill-rule="evenodd" clip-rule="evenodd" fill="#FFFFFF" d="M911.439,485.399c24.809-20.133,46.631-19.542,63.825,6.233
			c2.054-3.102,3.459-6.081,5.619-8.327c12.295-12.761,27.63-14.564,43.697-10.316c15.423,4.083,24.266,15.849,25.127,30.951
			c1.547,26.938,1.222,54,1.063,81.007c-0.053,8.686-7.773,5.466-12.655,6.052c-5.784,0.693-9.303-1.567-9.297-7.932
			c0.019-11.909-0.035-23.813-0.1-35.719c-0.06-12.229,0.254-24.481-0.378-36.677c-0.708-13.701-7.957-21.431-19.526-22.179
			c-13.735-0.885-23.87,5.664-25.859,19.107c-1.741,11.669-1.15,23.707-1.328,35.59c-0.183,12.226-0.39,24.47,0.065,36.681
			c0.301,8.147-2.272,11.359-10.938,11.466c-9.108,0.111-11.841-3.341-11.676-11.883c0.36-18.657,0.101-37.327,0.095-55.995
			c-0.006-3.537,0.029-7.081-0.089-10.618c-0.324-10.161-2.521-19.47-13.357-23.453c-9.774-3.584-23.729,1.078-29.879,10.493
			c-2.261,3.456-2.999,8.405-3.063,12.69c-0.301,21.881-0.331,43.771-0.065,65.651c0.101,8.139-0.927,13.103-11.297,13.169
			c-10.985,0.074-10.861-5.978-10.844-13.579c0.101-29.932-0.118-59.86,0.207-89.789c0.041-5.085-3.146-12.433,5.265-14.435
			C904.634,471.537,910.441,474.715,911.439,485.399z"/>
		<path fill-rule="evenodd" clip-rule="evenodd" fill="#FFFFFF" d="M241.815,615.016c0.715-4.765,0.773-9.748,2.267-14.254
			c6.092-18.43,4.091-35.874-4.084-53.319c-13.357-28.515-26.91-56.991-38.774-86.141c-11.003-27.074,2.272-59.481,28.285-72.82
			c1.44-0.734,4.864,2.183,7.207,3.659c0.384,0.251,0.112,1.874-0.147,2.78c-7.401,26.359,3.034,49.043,13.972,71.991
			c11.752,24.636,22.637,49.704,33.268,74.852c5.772,13.654,4.71,27.152-5.343,38.924c-10.518,12.311-21.202,24.466-31.809,36.692
			C245.039,616.591,243.434,615.801,241.815,615.016z"/>
		<path fill-rule="evenodd" clip-rule="evenodd" fill="#FFFFFF" d="M1741.968,578.932c-3.429,2.63-6.162,4.716-8.865,6.808
			c-20.275,15.626-59.971,15.25-70.743-23.74c-5.377-19.426-5.584-38.886,2.278-57.785c12.295-29.544,43.302-39.801,71.091-23.791
			c1.081,0.623,2.279,1.043,5.702,2.585c0-6.993-0.018-12.846,0-18.695c0.018-11.587,0.225-23.183,0.018-34.767
			c-0.159-8.826,5.661-8.394,11.74-8.52c6.239-0.133,10.679,0.845,10.654,8.652c-0.117,51.506,0.06,103.017-0.318,154.525
			c-0.018,2.906-3.583,7.564-6.327,8.294c-5.041,1.347-11.274,1.593-12.998-6.03
			C1743.721,584.332,1742.966,582.255,1741.968,578.932z M1741.413,532.976c0-6.743,0.054-13.48-0.012-20.218
			c-0.112-11.05-4.421-17.042-14.845-20.79c-17.685-6.37-35.056,1.585-41.142,19.406c-5.454,15.973-5.277,32.296-0.142,48.28
			c4.775,14.848,16.179,20.671,32.854,17.769c13.854-2.412,23.203-13.288,23.286-27.117
			C1741.448,544.526,1741.413,538.751,1741.413,532.976z"/>
		<path fill-rule="evenodd" clip-rule="evenodd" fill="#FFFFFF" d="M1277.024,508.623c0-23.813,0.277-47.631-0.147-71.437
			c-0.166-8.948,2.42-12.801,11.988-12.403c15.423,0.648,30.888-0.042,46.335,0.235c32.843,0.59,53.743,20.288,53.997,50.56
			c0.26,30.902-21.361,52.507-53.808,53.583c-8.364,0.279-16.758,0.486-25.099,0.003c-7.803-0.458-10.069,2.987-9.916,10.246
			c0.313,14.472-0.277,28.969,0.177,43.438c0.266,8.526-3.843,10.264-11.215,10.149c-7.147-0.114-12.555-0.501-12.419-10.039
			c0.384-24.773,0.136-49.557,0.136-74.336C1277.048,508.623,1277.03,508.623,1277.024,508.623z M1300.546,476.575
			c0,9.304-0.396,18.642,0.26,27.899c0.178,2.526,3.618,6.937,5.454,6.886c12.407-0.358,25.169-0.137,37.098-3.076
			c15.607-3.846,22.702-17.352,21.533-35.349c-1.045-15.918-9.774-26.23-25.966-28.697c-10.075-1.534-20.423-1.265-30.641-1.866
			c-5.914-0.35-7.909,2.718-7.803,8.207C1300.629,459.245,1300.517,467.908,1300.546,476.575z"/>
		<path fill-rule="evenodd" clip-rule="evenodd" fill="#FFFFFF" d="M480.075,592.998c-16.456,0.945-31.23-5.245-44.836-15.335
			c-6.435-4.761-6.299-9.397-1.978-15.453c4.438-6.236,8.901-6.129,14.591-1.862c13.051,9.766,27.069,16.046,44.005,11.65
			c13.321-3.459,21.567-12.553,22.583-25.524c0.979-12.55-4.356-20.587-18.375-26.089c-10.164-3.99-20.789-6.797-30.959-10.787
			c-22.743-8.929-33.055-26.277-29.188-48.21c3.73-21.302,22.495-37.198,44.813-38.359c16.498-0.856,31.909,1.619,45.852,11.426
			c6.782,4.772,6.198,9.412,2.408,15.427c-3.942,6.258-8.358,5.668-13.782,2.061c-11.682-7.778-24.201-11.912-38.355-7.66
			c-10.059,3.028-16.935,9.087-18.6,19.878c-1.594,10.293,2.226,18.134,13.099,23.349c9.81,4.702,20.34,7.907,30.563,11.739
			c28.657,10.743,39.288,26.753,34.524,52.02c-4.781,25.389-25.187,41.546-52.669,41.73
			C482.809,593.005,481.84,592.998,480.075,592.998z"/>
		<path fill-rule="evenodd" clip-rule="evenodd" fill="#FFFFFF" d="M1401.286,532.012c-0.095-31.241,14.314-53.103,40.646-59.004
			c37.836-8.472,66.54,10.614,71.274,46.458c1.157,8.785,1.157,18.038-0.201,26.786c-5.034,32.51-27.523,48.855-62.951,46.661
			c-26.703-1.657-47.209-24.013-48.75-53.189C1401.168,537.158,1401.286,534.583,1401.286,532.012z M1423.161,532.765
			c1.14,6.772,1.706,13.878,3.624,20.598c4.209,14.76,14.615,22.327,29.738,22.56c16.491,0.255,26.585-6.276,31.566-21.309
			c4.669-14.074,4.64-28.49,0.644-42.719c-4.58-16.331-14.851-23.677-31.868-23.497c-15.913,0.167-26.337,8.128-30.493,24.097
			C1424.69,518.961,1424.235,525.744,1423.161,532.765z"/>
		<path fill-rule="evenodd" clip-rule="evenodd" fill="#FFFFFF" d="M701.56,533.141c-10.3,0-20.595,0.258-30.871-0.084
			c-7.644-0.258-10.294,2.312-8.96,10.259c4.397,26.295,24.986,39.067,50.408,30.559c4.835-1.622,9.462-4,14.013-6.354
			c5.62-2.906,9.764-1.523,13.234,3.511c3.967,5.75-0.597,8.417-4.191,10.729c-20.328,13.073-42.221,15.685-64.38,6.276
			c-20.83-8.844-29.146-27.048-31.201-48.53c-1.328-13.963-0.218-27.616,6.439-40.388c11.369-21.822,36.727-32.856,61.57-26.683
			c22.171,5.506,36.261,25.045,36.366,49.733c0.03,7.626-2.467,11.326-10.595,11.02c-10.607-0.397-21.22-0.1-31.833-0.1
			C701.56,533.104,701.56,533.124,701.56,533.141z M663.9,519.333c18.051,0,36.207,0.221,54.34-0.384
			c1.611-0.052,4.593-5.675,4.285-8.423c-1.67-15.31-15.376-23.914-33.733-21.889C673.676,490.304,662.449,503.57,663.9,519.333z"/>
		<path fill-rule="evenodd" clip-rule="evenodd" fill="#FFFFFF" d="M823.189,533.16c-10.607,0-21.227,0.181-31.833-0.066
			c-6.842-0.159-9.002,2.489-8.058,9.345c3.637,26.288,24.343,39.75,49.7,31.694c5.165-1.637,10.076-4.185,14.939-6.652
			c5.655-2.88,9.77-1.413,13.192,3.614c3.949,5.778-0.714,8.416-4.285,10.706c-20.341,13.034-42.233,15.656-64.386,6.204
			c-20.813-8.88-29.105-27.092-31.143-48.571c-1.422-14.992,0.03-29.541,7.88-42.911c11.947-20.391,37.205-30.26,61.134-23.791
			c21.38,5.787,34.695,24.407,35.375,48.542c0.235,8.63-2.687,12.399-11.658,11.946c-10.265-0.516-20.559-0.118-30.858-0.118
			C823.189,533.119,823.189,533.141,823.189,533.16z M785.141,519.584c17.1,0,33.681,0.113,50.261-0.044
			c9.231-0.088,11.038-2.925,8.323-12.063c-4.292-14.435-16.905-21.298-34.419-18.72C795.316,490.813,785.2,502.87,785.141,519.584z
			"/>
		<path fill-rule="evenodd" clip-rule="evenodd" fill="#FFFFFF" d="M1561.271,485.643c3.206-2.205,6.299-4.366,9.415-6.458
			c29.342-19.672,63.223-5.313,66.357,29.56c2.237,24.887,0.892,50.11,0.803,75.181c-0.035,9.19-7.49,6.712-12.88,7.11
			c-5.66,0.417-9.278-1.269-9.249-7.888c0.112-21.221,0.059-42.446-0.059-63.67c-0.06-11.474-0.337-23.577-12.779-28.903
			c-13.074-5.599-25.559-2.014-35.451,7.727c-3.43,3.378-5.968,9.274-6.115,14.103c-0.649,21.848-0.437,43.729-0.242,65.591
			c0.083,7.867-0.324,13.473-11.05,13.395c-10.082-0.069-11.628-4.514-11.546-12.933c0.284-30.869,0.006-61.746,0.213-92.615
			c0.029-4.627-2.231-11.086,5.543-12.351c7.425-1.209,13.575,0.078,14.928,9.117
			C1559.282,483.423,1560.185,484.12,1561.271,485.643z"/>
		<path fill-rule="evenodd" clip-rule="evenodd" fill="#FFFFFF" d="M162.514,428.302c-2.49,20.951,8.069,36.301,15.212,52.709
			c7.814,17.976,15.576,35.977,23.25,54.015c3.849,9.04,2.845,18.061-2.839,25.713c-6.694,8.996-14.32,17.33-21.946,25.573
			c-1.576,1.711-4.952,1.77-7.496,2.588c-0.189-2.367-1.092-4.938-0.473-7.073c5.094-17.618,2.604-34.07-5.454-50.46
			c-9.928-20.196-19.077-40.793-27.925-61.49c-8.529-19.96,1.375-46.03,20.741-55.329c1.376-0.652,6.016,2.062,6.623,3.995
			C163.311,422.058,162.514,426.163,162.514,428.302z"/>
		<path fill-rule="evenodd" clip-rule="evenodd" fill="#FFFFFF" d="M315.947,590.438c0.419-3.403,0.241-6.225,1.133-8.663
			c6.009-16.497,3.488-31.969-3.979-47.495c-10.011-20.83-19.832-41.8-28.485-63.214c-8.896-22.017-1.087-43.319,18.782-56.079
			c4.545-2.922,8.429-2.037,7.673,3.337c-5.105,36.312,18.652,63.076,30.346,93.809c3.647,9.596,7.419,19.163,10.754,28.874
			c0.897,2.582,1.37,6,0.426,8.416c-6.47,16.593-17.731,29.59-31.674,40.392C320.114,590.446,318.579,590.147,315.947,590.438z"/>
		<path fill-rule="evenodd" clip-rule="evenodd" fill="#FFFFFF" d="M1146.322,532.285c0-10.304-0.101-20.608,0.041-30.909
			c0.083-5.705-1.635-9.279-8.122-9.22c-5.259,0.044-9.485-1.36-9.769-7.978c-0.313-7.048,4.847-8.043,9.516-8.243
			c7.862-0.335,10.341-4.259,10.771-11.518c0.438-7.361,2.102-14.646,2.97-21.992c0.726-6.125,4.243-7.859,9.963-7.811
			c6.435,0.052,7.272,3.89,7.267,8.888c-0.018,8.051,0.159,16.098,0.101,24.146c-0.042,5.27,2.379,7.597,7.62,7.49
			c5.796-0.118,11.593,0.218,17.383,0.052c5.644-0.166,8.193,2.172,8.281,7.944c0.101,6.011-2.184,9.08-8.399,9.006
			c-5.472-0.066-10.943,0.258-16.409,0.103c-6.197-0.173-8.576,2.7-8.535,8.755c0.142,19.959-0.147,39.923,0.089,59.883
			c0.147,13.103,7.401,17.666,19.815,13.413c3.058-1.047,7.313-2.146,9.728-0.836c7.06,3.825,6.847,12.156-0.821,14.269
			c-10.229,2.829-21.338,4.854-31.773,3.927c-11.587-1.021-18.416-11.477-19.236-25.58c-0.644-11.226-0.136-22.527-0.136-33.791
			C1146.559,532.285,1146.44,532.285,1146.322,532.285z"/>
		<path fill-rule="evenodd" clip-rule="evenodd" fill="#FFFFFF" d="M597.903,594.528c-19.349-1.552-29.183-10.396-29.85-29.596
			c-0.696-20.237-0.431-40.513-0.313-60.772c0.047-7.354-1.163-12.348-10.342-12.488c-2.686-0.041-7.201-4.595-7.39-7.328
			c-0.177-2.515,4.279-7.62,6.771-7.671c11.079-0.229,12.844-7.173,13.588-15.771c0.501-5.756,1.605-11.461,2.137-17.219
			c0.572-6.125,3.205-9.179,9.827-9.09c7.042,0.092,7.608,4.396,7.621,9.604c0.012,6.753,0.313,13.52,0.012,20.254
			c-0.349,7.638,2.354,11.499,10.565,10.799c5.1-0.439,10.288,0.136,15.43-0.056c6.067-0.229,7.738,3.127,7.773,8.435
			c0.029,5.428-2.03,8.552-7.88,8.497c-5.791-0.056-11.581,0.236-17.359,0.118c-5.62-0.118-8.376,2.419-8.376,8.025
			c0.023,20.9-0.331,41.815,0.194,62.704c0.277,11.246,7.827,15.357,18.877,11.592c2.939-1.007,6.676-2.917,8.925-1.911
			c2.78,1.247,5.478,4.879,6.115,7.915c0.401,1.973-2.426,5.957-4.692,6.904C612.554,590.376,605.141,592.253,597.903,594.528z"/>
		<path fill-rule="evenodd" clip-rule="evenodd" fill="#FFFFFF" d="M1105.199,532.828c0,16.08-0.313,32.167,0.129,48.235
			c0.23,8.461-3.706,10.176-11.149,10.172c-7.354-0.007-11.475-1.607-11.41-10.054c0.242-32.801,0.236-65.609,0.006-98.407
			c-0.059-8.789,4.775-9.66,11.776-9.652c6.87,0.007,10.938,1.439,10.76,9.538C1104.939,499.374,1105.192,516.103,1105.199,532.828z
			"/>
		<path fill-rule="evenodd" clip-rule="evenodd" fill="#FFFFFF" d="M1094.02,421.18c8.493-0.085,15.069,5.864,15.358,13.915
			c0.318,8.402-6.452,14.94-15.358,14.852c-8.24-0.082-15.005-6.568-14.981-14.373
			C1079.056,427.737,1085.791,421.265,1094.02,421.18z"/>
	</g>
</g>
</svg>
