<?xml version="1.0" encoding="utf-8"?>
<!-- Generator: Adobe Illustrator 16.0.0, SVG Export Plug-In . SVG Version: 6.00 Build 0)  -->
<!DOCTYPE svg PUBLIC "-//W3C//DTD SVG 1.1//EN" "http://www.w3.org/Graphics/SVG/1.1/DTD/svg11.dtd">
<svg version="1.1" id="Layer_1" xmlns="http://www.w3.org/2000/svg" xmlns:xlink="http://www.w3.org/1999/xlink" x="0px" y="0px"
	 width="50px" height="50px" viewBox="0 0 50 50" enable-background="new 0 0 50 50" xml:space="preserve">
<g>
	<path fill-rule="evenodd" clip-rule="evenodd" fill="none" d="M-0.734,49.75c0-16.928,0-33.856,0-50.784
		c17.171,0,34.342,0,51.513,0c0,16.928,0,33.856,0,50.784C33.607,49.75,16.437,49.75-0.734,49.75z M25.27,0.915
		c-3.886,0-7.779,0.161-11.652-0.05c-3.297-0.18-4.322,1.679-2.529,4.07c0.434,0.579,0.338,1.024-0.29,1.509
		c-4.372,3.378-7.222,7.818-8.749,13.081C-1.41,31.435,3.615,43.225,14.418,48.617c0.763,0.38,1.684,0.606,2.534,0.614
		c5.503,0.055,11.008,0.044,16.511,0.008c0.699-0.005,1.454-0.165,2.087-0.459c4.696-2.187,8.298-5.597,10.797-10.11
		c5.908-10.68,2.64-24.134-5.982-31.555c-1.531-1.317-1.543-1.302-0.674-3.157c0.841-1.792,0.063-3.039-1.916-3.042
		C33.606,0.909,29.438,0.915,25.27,0.915z"/>
	<path fill-rule="evenodd" clip-rule="evenodd" fill="#58A1D8" d="M25.27,0.915c4.168,0,8.337-0.005,12.505,0.002
		c1.979,0.003,2.757,1.25,1.916,3.042c-0.869,1.855-0.857,1.84,0.674,3.157c8.622,7.42,11.891,20.875,5.982,31.555
		c-2.499,4.514-6.101,7.924-10.797,10.11c-0.633,0.294-1.388,0.454-2.087,0.459c-5.503,0.036-11.008,0.047-16.511-0.008
		c-0.851-0.008-1.771-0.234-2.534-0.614C3.615,43.225-1.41,31.435,2.049,19.525c1.527-5.263,4.377-9.703,8.749-13.081
		c0.628-0.485,0.724-0.93,0.29-1.509c-1.793-2.391-0.768-4.25,2.529-4.07C17.49,1.076,21.384,0.915,25.27,0.915z M39.272,11.363
		c-1.606,2.189-5.78,1.153-8.358,1.454c-2.184,0.254-5.923,0.135-8.1-0.162c-2.222-0.304-5.073,0.279-7.289,0.101
		c-3.194-0.257-2.441,0.205-5.66,0.213c-0.986,0.002-1.229,1.212-1.69,2.013c-2.531,4.377-3.948,9.033-3.313,14.125
		c0.912,7.309,4.694,12.678,11.22,16.091c0.441,0.231,0.998,0.336,1.503,0.337c5.057,0.024,10.115,0.021,15.173,0.005
		c0.431-0.002,0.906-0.06,1.283-0.245c3.848-1.888,6.854-4.685,8.932-8.442c3.225-5.83,3.366-11.867,1.046-18.008
		C42.971,16.072,41.478,13.548,39.272,11.363z M9.363,12.813c0.512,0.13,0.556,0.158,0.58,0.146
		c0.322-0.167,0.647-0.328,0.962-0.511c2.63-1.524,26.614-0.568,28.392-1.18c-1.065-0.854-1.979-1.744-2.736-2.257
		c-2.308-1.569-2.337-1.6-1.666-4.245c-6.518,0-13.022,0-19.571,0c0.819,2.335,0.638,2.644-1.253,4.05
		C12.5,9.984,11.074,11.348,9.363,12.813z"/>
	<path fill-rule="evenodd" clip-rule="evenodd" fill="none" d="M39.272,11.363c2.205,2.185,3.698,4.709,4.745,7.481
		c2.32,6.141,2.179,12.178-1.046,18.008c-2.077,3.758-5.084,6.555-8.932,8.442c-0.377,0.186-0.853,0.243-1.283,0.245
		c-5.058,0.017-10.116,0.02-15.173-0.005c-0.505-0.001-1.062-0.105-1.503-0.337c-6.525-3.413-10.308-8.782-11.22-16.091
		c-0.635-5.093,0.782-9.748,3.313-14.125c0.462-0.801,0.856-1.889,1.843-1.892c3.219-0.008,6.619,0.321,9.813,0.578
		c2.217,0.178,7.259,0.071,9.442-0.184C31.852,13.184,37.666,13.552,39.272,11.363z M39.695,37.932
		c-0.496-1.766-1.404-3.568-1.398-5.368c0.007-1.83,0.914-3.656,1.427-5.483c-2.514,0.084-4.09,1.764-5.457,3.789
		c-3.099-1.788-5.925-4.065-9.715-3.771c-3.857,0.3-6.521,2.495-8.741,5.447c1.888,2.509,4.097,4.402,7.09,5.186
		c4.463,1.167,7.817-1.403,11.282-3.482C36.858,37.357,37.648,37.87,39.695,37.932z M13.883,27.833
		c-0.021-1.499-1.232-2.66-2.74-2.625c-1.53,0.036-2.635,1.19-2.616,2.735c0.017,1.506,1.189,2.625,2.731,2.605
		C12.779,30.53,13.903,29.367,13.883,27.833z M21.443,20.458c0.002-1.499-1.156-2.69-2.655-2.728
		c-1.453-0.036-2.66,1.173-2.677,2.681c-0.017,1.564,1.058,2.658,2.632,2.682C20.276,23.114,21.439,21.979,21.443,20.458z"/>
	<path fill-rule="evenodd" clip-rule="evenodd" fill="none" d="M9.363,12.813c1.711-1.465,3.137-2.829,4.707-3.998
		c1.891-1.406,2.072-1.715,1.253-4.05c6.549,0,13.054,0,19.571,0C34.224,7.41,34.253,7.44,36.561,9.01
		c0.757,0.514,1.439,1.138,2.506,1.991c-1.777,0.613-3.206,1.224-4.693,1.591c-3.222,0.797-6.419,0.414-9.596-0.413
		c-1.797-0.468-3.612-0.885-5.442-1.198c-2.966-0.509-5.8-0.058-8.43,1.466c-0.314,0.183-0.64,0.344-0.962,0.511
		C9.919,12.97,9.875,12.943,9.363,12.813z"/>
	<path fill-rule="evenodd" clip-rule="evenodd" fill="#58A1D8" d="M39.695,37.932c-2.047-0.062-2.837-0.574-5.513-3.683
		c-3.465,2.079-6.819,4.649-11.282,3.482c-2.993-0.783-5.202-2.677-7.09-5.186c2.221-2.952,4.884-5.147,8.741-5.447
		c3.79-0.295,6.616,1.982,9.715,3.771c1.367-2.025,2.943-3.705,5.457-3.789c-0.513,1.827-1.42,3.653-1.427,5.483
		C38.291,34.363,39.199,36.166,39.695,37.932z M22.469,33.072c0.837-0.094,1.371-0.556,1.363-1.473
		c-0.008-0.93-0.612-1.375-1.463-1.439c-0.834-0.063-1.541,0.703-1.475,1.549C20.967,32.625,21.524,33.044,22.469,33.072z"/>
	<path fill-rule="evenodd" clip-rule="evenodd" fill="#58A1D8" d="M13.883,27.833c0.021,1.534-1.104,2.697-2.625,2.716
		c-1.542,0.02-2.715-1.1-2.731-2.605c-0.019-1.545,1.086-2.699,2.616-2.735C12.65,25.173,13.862,26.334,13.883,27.833z"/>
	<path fill-rule="evenodd" clip-rule="evenodd" fill="#58A1D8" d="M21.443,20.458c-0.004,1.521-1.167,2.656-2.7,2.635
		c-1.574-0.023-2.648-1.117-2.632-2.682c0.017-1.508,1.224-2.717,2.677-2.681C20.287,17.768,21.445,18.959,21.443,20.458z"/>
	<path fill-rule="evenodd" clip-rule="evenodd" fill="none" d="M22.469,33.072c-0.944-0.028-1.502-0.447-1.574-1.363
		c-0.066-0.846,0.641-1.612,1.475-1.549c0.851,0.064,1.455,0.51,1.463,1.439C23.84,32.517,23.306,32.979,22.469,33.072z"/>
</g>
<rect x="8.681" y="11.237" fill-rule="evenodd" clip-rule="evenodd" fill="#58A1D8" width="32.925" height="1.924"/>
</svg>
