<?xml version="1.0" encoding="utf-8"?>
<!-- Generator: Adobe Illustrator 16.0.0, SVG Export Plug-In . SVG Version: 6.00 Build 0)  -->
<!DOCTYPE svg PUBLIC "-//W3C//DTD SVG 1.1//EN" "http://www.w3.org/Graphics/SVG/1.1/DTD/svg11.dtd">
<svg version="1.1" id="Layer_1" xmlns="http://www.w3.org/2000/svg" xmlns:xlink="http://www.w3.org/1999/xlink" x="0px" y="0px"
	 width="50px" height="50px" viewBox="0 0 50 50" enable-background="new 0 0 50 50" xml:space="preserve">
<path fill-rule="evenodd" clip-rule="evenodd" fill="#3874BA" d="M5.271,14.625c0,0,5.824,9.85-5.271,7.027
	c0.464,1.273,1.544,6.08,9.751,3.911c0.697-0.33,3.063-2.402,7.902,1.041c4.839,3.442,28.105,16.032,31.474-0.755
	c-4.026,1.274-3.678,1.887-5.227,1.462c-1.549-0.424-2.98-1.084-4.645-0.896c-1.897,0.095,0.077-0.472,0.077-0.472
	s2.941-0.095,4.297,0.377c1.355,0.472,4.143-2.028,4.143-2.028s-3.523-9.949-16.104-7.403c-13.009,3.301-10.104,2.688-13.705,4.244
	c-3.6,1.556-5.516,1.023-6.483,0.033C10.512,20.176,8.408,13.965,5.271,14.625z"/>
<ellipse fill-rule="evenodd" clip-rule="evenodd" fill="#FFFFFF" cx="39.118" cy="22.966" rx="1.028" ry="0.884"/>
<path fill-rule="evenodd" clip-rule="evenodd" fill="none" stroke="#FFFFFF" stroke-width="0.5" stroke-miterlimit="10" d="
	M39.487,27.028c0,0-2.865,3.536-13.24,4.621"/>
<path fill-rule="evenodd" clip-rule="evenodd" fill="none" stroke="#FFFFFF" stroke-width="0.5" stroke-miterlimit="10" d="
	M42.043,27.405c0,0-3.059,4.149-13.434,4.999"/>
<path fill-rule="evenodd" clip-rule="evenodd" fill="none" stroke="#FFFFFF" stroke-width="0.5" stroke-miterlimit="10" d="
	M45.565,27.641c0,0-3.252,4.432-11.537,6.271"/>
<path fill-rule="evenodd" clip-rule="evenodd" fill="none" stroke="#FFFFFF" stroke-width="0.5" stroke-miterlimit="10" d="
	M47.927,26.934c0,0-0.696,3.961-9.717,7.309"/>
</svg>
