<?xml version="1.0" encoding="utf-8"?>
<!-- Generator: Adobe Illustrator 16.0.0, SVG Export Plug-In . SVG Version: 6.00 Build 0)  -->
<!DOCTYPE svg PUBLIC "-//W3C//DTD SVG 1.1//EN" "http://www.w3.org/Graphics/SVG/1.1/DTD/svg11.dtd">
<svg version="1.1" id="Layer_1" xmlns="http://www.w3.org/2000/svg" xmlns:xlink="http://www.w3.org/1999/xlink" x="0px" y="0px"
	 width="1920px" height="1080px" viewBox="0 0 1920 1080" enable-background="new 0 0 1920 1080" xml:space="preserve">
<rect x="-4.333" y="-7" fill-rule="evenodd" clip-rule="evenodd" fill="#3A3A3A" width="1937.833" height="1095"/>
<path fill-rule="evenodd" clip-rule="evenodd" fill="#FFFFFF" d="M1262.854,565.136c-7.164-3.14-14.328-6.28-22.278-9.764
	c16.866-13.255,32.918-25.885,48.982-38.496c13.286-10.429,26.422-21.075,39.964-31.139c5.305-3.941,8.448-7.945,5.611-15.412
	c-7.116,5.605-14.33,11.236-21.492,16.934c-25.548,20.326-51.123,40.621-76.572,61.082c-3.442,2.767-6.327,4.045-10.316,1.24
	c-3.174-2.231-7.239-2.873-10.25-5.556c-0.263-1.034,0.581-1.169,1.137-1.608c33.482-26.45,66.959-52.906,100.396-79.422
	c1.306-1.037,4.263-1.81,2.839-4.123c-1.76-2.857-3.278,0.411-4.371,1.271c-32.958,25.891-65.792,51.946-98.769,77.81
	c-2.637,2.067-2.716,3.714-1.229,6.176c-6.801-3.078-13.601-6.158-21.311-9.647c12.325-9.691,23.872-18.787,35.435-27.858
	c22.861-17.934,45.83-35.724,68.513-53.896c4.391-3.519,7.797-4.513,12.779-1.457c2.836,1.743,6.702,5.96,10.046-0.371
	c0.646-1.226,3.785-1.217,5.809-1.465c3.341-0.411,6.709-0.566,10.421-1.82c-6.045-2.865-12.091-5.731-18.966-8.99
	c8.907-7.25,17.324-14.131,25.775-20.97c25.706-20.799,51.484-41.507,77.08-62.45c3.83-3.133,6.953-4.246,11.436-1.432
	c3.632,2.28,7.847,3.573,12.665,5.68c-7.323,5.803-14.214,11.303-21.144,16.75c-27.624,21.71-55.26,43.404-82.889,65.106
	c-0.747,0.587-1.475,1.201-2.195,1.823c-0.929,0.8-2.578,1.285-1.083,3.069c1.497,1.791,2.391-0.036,3.199-0.662
	c8.118-6.264,16.162-12.626,24.219-18.974c27.142-21.395,54.32-42.743,81.344-64.298c1.9-1.515,2.902-0.844,4.386-0.201
	c4.651,2.018,9.255,4.164,13.965,6.021c3.918,1.542,3.35,2.627,0.354,4.976c-27.358,21.433-54.6,43.025-81.877,64.569
	c-7.144,5.641-14.289,11.276-21.607,17.05c4.044,3.681,7.296,3.327,11.446,0.061c31.933-25.134,64.144-49.893,95.998-75.127
	c4.92-3.898,9.095-5.108,14.518-2.19c1.975,1.062,4.17,1.687,7.095,2.837c-6.019,4.816-11.669,9.386-17.37,13.888
	c-28.172,22.244-56.357,44.47-84.539,66.702c-0.596,0.47-1.212,0.914-1.78,1.42c-1.095,0.979-2.766,1.88-1.241,3.683
	c1.43,1.691,2.339-0.166,3.219-0.851c8.979-7.011,17.921-14.075,26.849-21.154c25.299-20.066,50.608-40.118,75.839-60.274
	c1.998-1.597,3.518-2.075,5.959-1.051c5.316,2.231,10.801,4.038,17.089,6.337c-36.92,28.634-73.102,56.697-109.918,85.251
	c11.179,4.868,21.554,9.388,32.613,14.205c0-3.312,0.217-5.81-0.044-8.253c-0.577-5.359,2.021-6.925,6.255-5.035
	c3.537,1.578,5.644,0.333,7.771-2.13c8.529-9.876,20.926-15.065,29.034-25.523c1.401-1.807,4.076-2.651,6.272-3.698
	c3.618-1.723,7.304-3.551,9.473-7.035c6.019-9.67,16.325-13.029,25.393-19.454c0.588,12.416,1.141,24.093,1.734,36.639
	c4.265-3.316,8.261-6.061,11.836-9.3c3.771-3.418,7.19-4.086,11.966-1.708c8.233,4.101,16.964,7.13,25.281,11.065
	c3.736,1.769,6.087,0.944,8.792-1.828c4.333-4.442,7.968-9.924,14.521-11.462c0.744-0.175,1.967-0.55,1.565-1.907
	c-0.48-1.618-1.816-2.403-3.186-3.062c-8.469-4.066-16.949-8.109-25.422-12.167c-6.236-2.988-6.234-2.992-1.229-7.771
	c7.311-6.976,7.322-7.002,16.439-2.478c8.596,4.266,17.228,8.464,25.712,12.955c3.175,1.682,5.604,1.65,7.837-1.301
	c5.217-6.888,12.59-10.876,19.584-15.345c4.893-3.125,11.2-1.624,14.275,3.22c3.707,5.836,2.986,12.167-1.819,15.931
	c-3.546,2.778-7.098,5.55-11.201,8.756c10.784,4.619,20.938,9.008,31.129,13.308c2.925,1.234,4.205,1.539,1.08,5.059
	c-6.189,6.966-11.914,7.704-19.807,3.016c-7.408-4.402-15.722-7.149-23.482-10.958c-2.891-1.418-4.614-0.714-7.433,0.643
	c-7.956,3.839-9.67,13.964-18.213,16.846c3.888,4.422,6.036,0.816,8.487-0.721c2.357-1.477,4.726-5.162,6.817-4.271
	c2.534,1.078,1.01,5.193,1.08,7.934c0.093,3.591,1.204,5.463,4.707,6.666c6.174,2.118,12.111,4.959,18.024,7.447
	c-0.038,0.755,0.083,1.279-0.096,1.436c-20.008,17.465-38.317,36.976-60.003,52.436c-6.998,4.992-5.41,11.197,1.67,15.616
	c10.25,6.4,17.441,3.963,26.389-3.574c29.802-25.098,60.512-49.049,90.724-73.637c3.019-2.458,5.274-2.633,8.454-0.963
	c4.13,2.167,8.454,3.933,13.198,6.103c-36.304,28.516-72.078,56.614-107.989,84.818c3.654,3.081,5.625-0.047,7.604-1.599
	c26.009-20.384,51.935-40.876,77.889-61.332c7.606-5.994,15.303-11.873,22.814-17.991c2.188-1.783,3.921-2.251,6.565-0.93
	c5.49,2.744,11.184,5.057,17.463,7.843c-35.916,28.581-71.256,56.7-106.785,84.976c2.96,2.851,5.266,3.022,8.627,0.297
	c31.88-25.841,64.039-51.314,95.793-77.315c5.43-4.444,9.823-5.797,15.746-1.954c2.647,1.718,5.782,2.635,9.329,4.195
	c-35.576,28.002-70.686,55.641-105.875,83.341c3.051,2.655,4.9,0.323,6.756-1.129c31.847-24.938,63.783-49.756,95.375-75.034
	c5.439-4.351,9.805-5.698,15.798-1.959c3.584,2.236,7.731,3.517,12.327,5.534c-13.897,11.122-27.205,21.79-40.53,32.435
	c-21.371,17.068-42.809,34.049-64.072,51.26c-3.396,2.749-6.186,3.818-9.865,0.934c-1.458-1.142-3.456-1.528-5.004-2.58
	c-3.278-2.225-6.226-2.559-9.711-0.099c-4.723,3.334-10.599,3.425-16.795,5.301c6.194,2.867,11.756,5.444,17.779,8.232
	c-3.71,4.283-8.27,7.257-12.52,10.535c-2.532,1.949-3.569,3.999-3.329,7.277c0.634,8.688,1.518,17.375,1.065,26.337
	c-9.736-2.64-16.576-7.353-12.927-21.384c-11.168,8.841-20.499,16.193-29.798,23.591c-15.76,12.537-31.582,24.992-47.177,37.741
	c-3.208,2.624-5.562,2.669-8.944,0.651c-4.85-2.889-10.037-5.177-15.748-8.06c36.126-28.45,71.838-56.573,107.769-84.863
	c-3.332-1.78-5.262-0.053-7.376,1.608c-32.551,25.584-65.226,50.999-97.606,76.807c-4.652,3.707-8.217,4.964-13.138,1.297
	c-2.351-1.751-5.218-2.765-8.528-4.458c10.278-8.3,20.122-16.288,30.006-24.224c12.442-9.99,24.855-20.021,37.425-29.84
	c2.88-2.249,3.483-4.735,2.557-8.728c-10.878,8.655-21.514,17.086-32.117,25.561c-13.95,11.148-27.917,22.272-41.771,33.542
	c-2.696,2.194-4.937,2.585-8.019,0.805c-5.175-2.987-10.592-5.528-16.533-8.581c36.032-28.284,71.638-56.232,107.439-84.333
	c-3.255-2.592-4.923-0.501-6.825,0.991c-32.568,25.558-65.24,50.976-97.646,76.753c-4.761,3.786-8.56,5.214-13.654,1.356
	c-2.197-1.665-4.888-2.638-8.035-4.281c19.789-15.994,39.201-31.682,58.692-47.435c-2.311-2.318-4.34-1.814-6.477-0.583
	c-7.383,4.255-13.515-0.813-19.943-3.107c-1.165-0.415-1.71-2.786-0.786-4.194c2.609-3.981-0.09-4.336-2.872-5.525
	c-8.632-3.693-17.181-7.613-25.629-11.733c-6.503-3.169-12.631-4.667-18.718,0.927c-2.173,1.995-4.171,0.452-5.799-1.371
	c-1.701-1.906-1.057-3.433,0.709-4.846c1.027-0.826,1.949-1.789,3.516-3.244c-6.364-2.482-11.959-4.858-17.685-6.826
	c-3.704-1.274-4.885-3.693-4.687-7.445c0.254-4.872,2.187-8.971,5.232-12.515c2.443-2.843,5.331-3.973,9.014-2.007
	c2.607,1.391,5.474,2.268,8.665,3.551c-0.191-4.378-0.747-8.264-0.454-12.08c0.623-8.124-1.399-13.949-10.284-15.072
	c-3.15-0.398-3.89-2.737-3.435-5.534c0.835-5.124-1.521-7.415-6.021-9.237c-10.411-4.214-20.573-9.083-31.448-13.961
	c0,17.234,0,33.941,0,50.524c-0.84,0.22-1.232,0.474-1.507,0.375c-10.152-3.703-10.15-3.706-10.15-14.759
	c0-12.175,0-24.348,0-37.707c-9.027,6.975-17.335,13.389-25.638,19.809c-1.501,1.16-2.92,2.454-4.496,3.493
	c-5.426,3.575-10.305,7.411-7.82,16.167c-6.944-6.41-11.246-1.332-15.953,2.364c-17.174,13.484-34.416,26.877-51.602,40.346
	c-1.686,1.321-3.052,2.493-5.438,1.241c-5.3-2.779-10.758-5.243-16.162-7.85c0.589-2.288,2.746-2.937,4.262-4.148
	c33.526-26.776,67.118-53.464,100.627-80.264c1.147-0.917,4.267-1.464,2.321-4.169c-1.776-2.47-3.012,0.341-3.968,1.098
	c-33.907,26.9-67.7,53.952-101.636,80.814C1261.693,560.526,1261.131,562.308,1262.854,565.136z M1517.382,516.577
	c5.54-5.539,11.441-9.241,12.784-16.826c0.17-0.958,1.267-1.853,2.108-2.555c7.146-5.964,14.316-11.896,21.521-17.788
	c1.435-1.173,2.919-2.71,5.019-1.538c1.941,1.084,3.809,2.125,4.854-0.983c1.131-3.361-1.451-3.732-3.524-4.566
	c-9.563-3.844-19.065-7.865-28.706-11.493c-2.422-0.911-6.679-5.904-7.261,1.978c-0.041,0.548-1.473,1.034-2.299,1.464
	c-3.422,1.777-6.225,4.374-8.575,7.396c-3.018,3.885-6.519,6.845-11.302,8.044c-2.844,0.715-4.917,2.71-6.832,4.848
	c-3.706,4.137-7.551,7.911-12.928,9.886c-3.145,1.155-5.646,3.692-7.791,6.476c-1.394,1.811-1.421,2.67,0.909,3.633
	c7.549,3.124,14.999,6.493,22.93,9.959c-0.125-1.696,0.219-3.377-0.361-3.847c-4.259-3.446-1.37-4.488,1.479-6.328
	c4.595-2.968,8.286-0.396,12.107,1.438c2.735,1.312,4.769,0.42,6.506-1.615c1.853-2.173,0.194-3.187-1.425-4.439
	c-1.816-1.405-2.052-3.269,0.053-4.751c2.366-1.668,4.872-2.087,7.25-0.027c1.955,1.696,0.604,2.855-0.277,4.746
	C1521.27,504.715,1517.009,509.036,1517.382,516.577z M1522.888,556.068c-0.804,1.178-1.498,1.749-1.611,2.426
	c-1.035,6.143-0.693,12.711-6.157,17.342c-0.554,0.468-2.417,4.98,0.831,5.534c4.309,0.732,6.972,3.405,9.827,6.148
	c2.15,2.063,3.947,3.188,7.328,1.415c3.359-1.762,7.694-2.044,10.539,1.972c1.322,1.868,2.362,1.034,3.578,0.05
	c9.118-7.382,18.242-14.759,27.733-22.436c-12.517-5.594-24.622-11.005-36.861-16.476c-0.813,3.158,0.871,7.755-4.094,7.683
	C1530.25,559.672,1525.388,562.799,1522.888,556.068z M1474.907,523.837c0,6.935,0,13.044,0,19.997
	c5.305-4.555,10.059-8.638,15.342-13.175C1484.7,528.191,1479.988,526.096,1474.907,523.837z M1600.314,607.188
	c4.273-3.363,7.666-5.985,11.006-8.675c3.511-2.83,6.976-5.722,10.56-8.67c-2.619-1.896-4.99-3.053-7.225-0.35
	C1610.083,595.028,1600.582,596.275,1600.314,607.188z M1583.148,481.533c0.271-1.533,2.567-2.115,2.029-4.067
	c-0.11-0.398-1.256-0.913-1.307-0.848c-2.339,2.92-5.84,3.38-8.918,4.792c-1.208,0.555-2.483,2.492-0.436,4.24
	c2.15,1.836,1.65,4.738,2.067,7.774c3.78-3.196,7.049-5.96,10.336-8.738C1586.399,482.706,1583.833,483.365,1583.148,481.533z
	 M1660.686,586.924c-2.843-1.399-5.038-2.479-7.516-3.697C1654.923,590.717,1654.923,590.717,1660.686,586.924z"/>
<g>
	<path fill="#FFFFFF" stroke="#FFFFFF" stroke-width="0.5" stroke-miterlimit="10" d="M211.587,482.272v2.243H176.69v-2.243h2.871
		c1.436,0,2.706-0.104,3.813-0.314c1.106-0.209,2.018-0.718,2.736-1.525c0.718-0.807,1.27-2.032,1.66-3.678
		c0.388-1.645,0.583-3.872,0.583-6.684v-52.661c0-1.853-0.044-3.394-0.134-4.62c-0.09-1.225-0.24-2.227-0.449-3.005
		c-0.21-0.776-0.524-1.39-0.942-1.839c-0.419-0.449-0.987-0.882-1.705-1.301c-1.794-0.956-3.648-1.436-5.562-1.436h-2.871v-2.243
		h34.897v2.243h-2.871c-1.436,0-2.707,0.121-3.813,0.359c-1.107,0.24-2.019,0.763-2.736,1.57c-0.718,0.808-1.271,2.034-1.66,3.678
		c-0.39,1.646-0.583,3.844-0.583,6.594v52.661c0,1.915,0.03,3.469,0.09,4.665c0.059,1.197,0.209,2.184,0.449,2.96
		c0.238,0.778,0.583,1.39,1.032,1.839c0.448,0.449,1.031,0.883,1.749,1.301c1.674,0.958,3.499,1.436,5.473,1.436H211.587z"/>
	<path fill="#FFFFFF" stroke="#FFFFFF" stroke-width="0.5" stroke-miterlimit="10" d="M213.023,402.967h22.069l49.879,61.183
		v-47.009c0-2.75-0.195-4.934-0.583-6.549c-0.39-1.615-0.958-2.811-1.705-3.588c-0.749-0.777-1.66-1.27-2.736-1.48
		c-1.077-0.208-2.303-0.314-3.678-0.314h-2.871v-2.243h28.438v2.243h-2.96c-1.436,0-2.691,0.121-3.768,0.359
		c-1.077,0.24-1.974,0.778-2.691,1.615c-0.717,0.838-1.256,2.034-1.615,3.588c-0.359,1.556-0.538,3.678-0.538,6.37v68.719h-2.153
		l-53.737-65.668v50.238c0,2.812,0.193,5.01,0.583,6.594c0.389,1.585,0.942,2.767,1.66,3.543c0.718,0.778,1.615,1.256,2.691,1.436
		c1.077,0.179,2.302,0.269,3.678,0.269h2.871v2.243h-28.349v-2.243h2.871c1.435,0,2.691-0.119,3.768-0.359
		c1.077-0.238,1.988-0.763,2.736-1.57c0.747-0.808,1.301-1.988,1.66-3.544c0.359-1.554,0.538-3.678,0.538-6.369v-56.698
		c-1.197-1.435-2.198-2.57-3.005-3.409c-0.807-0.837-1.57-1.525-2.288-2.063s-1.496-0.987-2.333-1.346
		c-0.838-0.359-1.884-0.747-3.14-1.166c-1.197-0.359-2.96-0.539-5.293-0.539V402.967z"/>
	<path fill="#FFFFFF" stroke="#FFFFFF" stroke-width="0.5" stroke-miterlimit="10" d="M374.772,402.967v19.198h-1.346
		c-0.659-5.143-2.168-8.776-4.53-10.9c-2.363-2.122-5.847-3.185-10.451-3.185h-11.483v62.349c0,2.751,0.194,4.92,0.583,6.504
		c0.388,1.585,0.942,2.767,1.66,3.543c0.717,0.778,1.615,1.271,2.691,1.48c1.076,0.21,2.332,0.314,3.768,0.314h2.781v2.243h-34.539
		v-2.243h2.871c1.435,0,2.691-0.119,3.768-0.359c1.077-0.238,1.974-0.763,2.691-1.57c0.718-0.808,1.27-1.988,1.66-3.544
		c0.388-1.554,0.583-3.678,0.583-6.369v-62.349H325.7c-2.453,0-4.62,0.195-6.504,0.583c-1.884,0.39-3.514,1.107-4.89,2.153
		c-1.376,1.047-2.467,2.482-3.274,4.306c-0.807,1.825-1.301,4.172-1.48,7.042h-2.243v-19.198H374.772z"/>
	<path fill="#FFFFFF" stroke="#FFFFFF" stroke-width="0.5" stroke-miterlimit="10" d="M404.466,407.453v32.207h17.853
		c2.631,0,4.755-0.238,6.37-0.718c1.615-0.478,2.885-1.196,3.813-2.153c0.927-0.956,1.57-2.183,1.929-3.678
		c0.359-1.494,0.597-3.259,0.718-5.293h2.243v28.349h-2.243c-0.3-2.333-0.644-4.275-1.032-5.831
		c-0.39-1.555-1.018-2.795-1.884-3.723c-0.868-0.927-2.079-1.584-3.633-1.974c-1.556-0.388-3.649-0.583-6.28-0.583h-17.853v26.913
		c0,2.034,0.029,3.649,0.09,4.844c0.059,1.197,0.298,2.108,0.718,2.736c0.417,0.628,1.076,1.032,1.974,1.211
		c0.897,0.18,2.212,0.27,3.947,0.27h13.815c2.333,0,4.306-0.059,5.921-0.18c1.615-0.119,3.005-0.359,4.171-0.718
		c1.167-0.359,2.198-0.852,3.095-1.48s1.853-1.42,2.871-2.377c2.392-2.333,4.934-6.069,7.625-11.214h2.422l-7.087,20.454h-62.798
		v-2.243h2.871c0.776,0,1.584-0.09,2.422-0.269c0.837-0.18,1.629-0.433,2.377-0.763c0.747-0.328,1.42-0.763,2.019-1.301
		c0.597-0.539,1.016-1.167,1.256-1.884c0.478-1.315,0.718-3.947,0.718-7.895v-52.929c0-5.203-0.509-8.402-1.525-9.599
		c-1.436-1.615-3.858-2.422-7.267-2.422h-2.871v-2.243h62.798v17.853h-1.436c-0.598-2.93-1.242-5.277-1.929-7.042
		c-0.688-1.763-1.601-3.125-2.736-4.082c-1.137-0.956-2.588-1.57-4.351-1.839c-1.765-0.269-4.023-0.404-6.773-0.404H404.466z"/>
	<path fill="#FFFFFF" stroke="#FFFFFF" stroke-width="0.5" stroke-miterlimit="10" d="M537.059,484.515h-21.71l-27.631-38.127
		c-1.018,0.06-1.929,0.105-2.736,0.134c-0.808,0.031-1.541,0.045-2.198,0.045c-0.538,0-1.107-0.014-1.704-0.045
		c-0.599-0.029-1.227-0.074-1.884-0.134v23.684c0,2.871,0.194,5.129,0.583,6.773c0.388,1.646,0.956,2.871,1.704,3.678
		c0.748,0.808,1.645,1.301,2.691,1.48c1.046,0.179,2.228,0.269,3.544,0.269h3.229v2.243H455.96v-2.243h3.14
		c3.349,0,5.8-1.106,7.356-3.319c0.837-1.315,1.256-4.275,1.256-8.881v-52.661c0-5.023-0.569-8.193-1.705-9.509
		c-1.556-1.794-3.857-2.691-6.908-2.691h-3.14v-2.243h29.694c4.365,0,8.133,0.166,11.304,0.494c3.169,0.329,5.771,0.823,7.805,1.48
		c2.032,0.659,3.947,1.57,5.741,2.736c1.794,1.166,3.364,2.572,4.71,4.216c1.346,1.646,2.407,3.485,3.185,5.517
		c0.776,2.034,1.166,4.217,1.166,6.549c0,5.084-1.615,9.451-4.844,13.098c-3.229,3.648-8.284,6.25-15.161,7.805l16.776,23.325
		c1.974,2.691,3.723,4.905,5.248,6.639c1.525,1.735,3.05,3.111,4.575,4.127c1.525,1.018,3.14,1.765,4.844,2.243
		c1.705,0.479,3.723,0.838,6.056,1.077V484.515z M479.195,442.62c0.777,0,1.45,0.016,2.019,0.045
		c0.568,0.031,1.032,0.045,1.391,0.045c3.887,0,7.296-0.449,10.227-1.346c2.93-0.897,5.383-2.153,7.356-3.768
		s3.454-3.513,4.44-5.697c0.987-2.182,1.48-4.56,1.48-7.132c0-2.512-0.419-4.829-1.256-6.953c-0.838-2.122-2.034-3.947-3.589-5.472
		c-1.556-1.525-3.409-2.706-5.562-3.544c-2.153-0.836-4.516-1.256-7.087-1.256c-2.453,0-5.593,0.39-9.42,1.167V442.62z"/>
	<path fill="#FFFFFF" stroke="#FFFFFF" stroke-width="0.5" stroke-miterlimit="10" d="M534.368,402.967h22.069l49.879,61.183
		v-47.009c0-2.75-0.195-4.934-0.583-6.549c-0.39-1.615-0.958-2.811-1.705-3.588c-0.749-0.777-1.66-1.27-2.736-1.48
		c-1.077-0.208-2.303-0.314-3.678-0.314h-2.871v-2.243h28.438v2.243h-2.96c-1.436,0-2.691,0.121-3.768,0.359
		c-1.077,0.24-1.974,0.778-2.691,1.615c-0.717,0.838-1.256,2.034-1.615,3.588c-0.359,1.556-0.538,3.678-0.538,6.37v68.719h-2.153
		l-53.737-65.668v50.238c0,2.812,0.193,5.01,0.583,6.594c0.389,1.585,0.942,2.767,1.66,3.543c0.718,0.778,1.615,1.256,2.691,1.436
		c1.077,0.179,2.302,0.269,3.678,0.269h2.871v2.243h-28.349v-2.243h2.871c1.435,0,2.691-0.119,3.768-0.359
		c1.077-0.238,1.988-0.763,2.736-1.57c0.747-0.808,1.301-1.988,1.66-3.544c0.359-1.554,0.538-3.678,0.538-6.369v-56.698
		c-1.197-1.435-2.198-2.57-3.005-3.409c-0.807-0.837-1.57-1.525-2.288-2.063s-1.496-0.987-2.333-1.346
		c-0.838-0.359-1.884-0.747-3.14-1.166c-1.197-0.359-2.96-0.539-5.293-0.539V402.967z"/>
	<path fill="#FFFFFF" stroke="#FFFFFF" stroke-width="0.5" stroke-miterlimit="10" d="M681.225,457.243h-31.578l-5.562,12.829
		c-1.316,3.17-1.974,5.533-1.974,7.087c0,0.659,0.104,1.256,0.314,1.794c0.209,0.538,0.657,1.032,1.346,1.48
		c0.687,0.449,1.644,0.838,2.871,1.167c1.225,0.329,2.855,0.554,4.889,0.673v2.243h-25.657v-2.243
		c2.033-0.299,3.678-0.747,4.934-1.346c1.256-0.597,2.333-1.42,3.229-2.467c0.897-1.045,1.719-2.407,2.467-4.082
		c0.747-1.674,1.66-3.737,2.736-6.19l28.708-67.014h2.063l28.349,67.732c1.136,2.812,2.198,5.069,3.185,6.773
		s2.003,3.036,3.05,3.992c1.046,0.957,2.183,1.615,3.409,1.974c1.225,0.359,2.706,0.569,4.441,0.628v2.243h-32.207v-2.243
		c3.23-0.119,5.428-0.642,6.594-1.57c1.167-0.927,1.75-2.048,1.75-3.364c-0.06-1.734-0.868-4.544-2.422-8.433L681.225,457.243z
		 M679.52,452.757l-13.815-32.924l-14.174,32.924H679.52z"/>
	<path fill="#FFFFFF" stroke="#FFFFFF" stroke-width="0.5" stroke-miterlimit="10" d="M771.384,402.967v19.198h-1.346
		c-0.659-5.143-2.168-8.776-4.53-10.9c-2.363-2.122-5.847-3.185-10.451-3.185h-11.483v62.349c0,2.751,0.194,4.92,0.583,6.504
		c0.388,1.585,0.942,2.767,1.66,3.543c0.717,0.778,1.615,1.271,2.691,1.48c1.076,0.21,2.332,0.314,3.768,0.314h2.781v2.243h-34.539
		v-2.243h2.871c1.435,0,2.691-0.119,3.768-0.359c1.077-0.238,1.974-0.763,2.691-1.57c0.718-0.808,1.27-1.988,1.66-3.544
		c0.388-1.554,0.583-3.678,0.583-6.369v-62.349h-9.778c-2.453,0-4.62,0.195-6.504,0.583c-1.884,0.39-3.514,1.107-4.89,2.153
		c-1.376,1.047-2.467,2.482-3.274,4.306c-0.807,1.825-1.301,4.172-1.48,7.042h-2.243v-19.198H771.384z"/>
	<path fill="#FFFFFF" stroke="#FFFFFF" stroke-width="0.5" stroke-miterlimit="10" d="M813.279,482.272v2.243h-34.897v-2.243h2.871
		c1.436,0,2.706-0.104,3.813-0.314c1.106-0.209,2.018-0.718,2.736-1.525c0.718-0.807,1.27-2.032,1.66-3.678
		c0.388-1.645,0.583-3.872,0.583-6.684v-52.661c0-1.853-0.044-3.394-0.134-4.62c-0.09-1.225-0.24-2.227-0.449-3.005
		c-0.21-0.776-0.524-1.39-0.942-1.839c-0.419-0.449-0.987-0.882-1.705-1.301c-1.794-0.956-3.648-1.436-5.562-1.436h-2.871v-2.243
		h34.897v2.243h-2.871c-1.436,0-2.707,0.121-3.813,0.359c-1.107,0.24-2.019,0.763-2.736,1.57c-0.718,0.808-1.271,2.034-1.66,3.678
		c-0.39,1.646-0.583,3.844-0.583,6.594v52.661c0,1.915,0.03,3.469,0.09,4.665c0.059,1.197,0.209,2.184,0.449,2.96
		c0.238,0.778,0.583,1.39,1.032,1.839c0.448,0.449,1.031,0.883,1.749,1.301c1.674,0.958,3.499,1.436,5.473,1.436H813.279z"/>
	<path fill="#FFFFFF" stroke="#FFFFFF" stroke-width="0.5" stroke-miterlimit="10" d="M861.365,401.173
		c5.203,0,10.167,1.077,14.892,3.23c4.724,2.153,8.882,5.113,12.47,8.881c3.588,3.768,6.444,8.208,8.567,13.322
		c2.122,5.114,3.185,10.662,3.185,16.642c0,6.161-1.063,11.873-3.185,17.135c-2.124,5.264-4.995,9.823-8.612,13.681
		c-3.62,3.857-7.865,6.878-12.739,9.061c-4.875,2.183-10.063,3.274-15.564,3.274c-5.563,0-10.766-1.047-15.61-3.14
		s-9.047-5.038-12.604-8.836c-3.559-3.797-6.37-8.328-8.433-13.591c-2.063-5.262-3.095-11.064-3.095-17.404
		c0-5.86,1.032-11.362,3.095-16.507c2.063-5.143,4.903-9.613,8.522-13.412c3.618-3.797,7.909-6.803,12.874-9.016
		C850.09,402.28,855.502,401.173,861.365,401.173z M860.198,405.569c-4.126,0-7.791,0.883-10.99,2.646
		c-3.2,1.765-5.891,4.277-8.074,7.536c-2.184,3.261-3.844,7.208-4.979,11.842c-1.137,4.636-1.705,9.854-1.705,15.655
		c0,5.742,0.552,10.99,1.66,15.744c1.106,4.755,2.75,8.852,4.934,12.291c2.183,3.44,4.889,6.101,8.119,7.984
		c3.229,1.884,6.937,2.826,11.124,2.826c3.768,0,7.251-0.717,10.451-2.153c3.199-1.436,5.995-3.663,8.388-6.684
		c2.391-3.019,4.261-6.877,5.607-11.573c1.346-4.694,2.019-10.301,2.019-16.821c0-6.159-0.554-11.676-1.66-16.552
		c-1.107-4.874-2.781-9-5.024-12.38c-2.243-3.378-5.024-5.951-8.343-7.715C868.407,406.452,864.563,405.569,860.198,405.569z"/>
	<path fill="#FFFFFF" stroke="#FFFFFF" stroke-width="0.5" stroke-miterlimit="10" d="M903.619,402.967h22.069l49.879,61.183
		v-47.009c0-2.75-0.195-4.934-0.583-6.549c-0.39-1.615-0.958-2.811-1.705-3.588c-0.749-0.777-1.66-1.27-2.736-1.48
		c-1.077-0.208-2.303-0.314-3.678-0.314h-2.871v-2.243h28.438v2.243h-2.96c-1.436,0-2.691,0.121-3.768,0.359
		c-1.077,0.24-1.974,0.778-2.691,1.615c-0.717,0.838-1.256,2.034-1.615,3.588c-0.359,1.556-0.538,3.678-0.538,6.37v68.719h-2.153
		l-53.737-65.668v50.238c0,2.812,0.193,5.01,0.583,6.594c0.389,1.585,0.942,2.767,1.66,3.543c0.718,0.778,1.615,1.256,2.691,1.436
		c1.077,0.179,2.302,0.269,3.678,0.269h2.871v2.243h-28.349v-2.243h2.871c1.435,0,2.691-0.119,3.768-0.359
		c1.077-0.238,1.988-0.763,2.736-1.57c0.747-0.808,1.301-1.988,1.66-3.544c0.359-1.554,0.538-3.678,0.538-6.369v-56.698
		c-1.197-1.435-2.198-2.57-3.005-3.409c-0.807-0.837-1.57-1.525-2.288-2.063s-1.496-0.987-2.333-1.346
		c-0.838-0.359-1.884-0.747-3.14-1.166c-1.197-0.359-2.96-0.539-5.293-0.539V402.967z"/>
	<path fill="#FFFFFF" stroke="#FFFFFF" stroke-width="0.5" stroke-miterlimit="10" d="M1050.476,457.243h-31.578l-5.562,12.829
		c-1.316,3.17-1.974,5.533-1.974,7.087c0,0.659,0.104,1.256,0.314,1.794c0.209,0.538,0.657,1.032,1.346,1.48
		c0.687,0.449,1.644,0.838,2.871,1.167c1.225,0.329,2.855,0.554,4.889,0.673v2.243h-25.657v-2.243
		c2.033-0.299,3.678-0.747,4.934-1.346c1.256-0.597,2.333-1.42,3.229-2.467c0.897-1.045,1.719-2.407,2.467-4.082
		c0.747-1.674,1.66-3.737,2.736-6.19l28.708-67.014h2.063l28.349,67.732c1.136,2.812,2.198,5.069,3.185,6.773
		s2.003,3.036,3.05,3.992c1.046,0.957,2.183,1.615,3.409,1.974c1.225,0.359,2.706,0.569,4.441,0.628v2.243h-32.207v-2.243
		c3.23-0.119,5.428-0.642,6.594-1.57c1.167-0.927,1.75-2.048,1.75-3.364c-0.06-1.734-0.868-4.544-2.422-8.433L1050.476,457.243z
		 M1048.771,452.757l-13.815-32.924l-14.174,32.924H1048.771z"/>
	<path fill="#FFFFFF" stroke="#FFFFFF" stroke-width="0.5" stroke-miterlimit="10" d="M1153.644,461.997l1.974,0.359l-6.998,22.159
		h-63.156v-2.243h3.14c3.349,0,5.8-1.106,7.356-3.319c0.837-1.315,1.256-4.275,1.256-8.881v-52.661c0-5.023-0.569-8.193-1.705-9.509
		c-1.556-1.794-3.857-2.691-6.908-2.691h-3.14v-2.243h36.961v2.243c-2.213,0-4.053,0.105-5.518,0.314
		c-1.466,0.21-2.677,0.509-3.633,0.897c-0.957,0.39-1.704,0.852-2.243,1.39c-0.538,0.539-0.987,1.137-1.346,1.794
		c-0.599,1.197-0.897,4.277-0.897,9.24v51.225c0,2.812,0.209,4.844,0.628,6.1c0.418,1.256,1.256,2.124,2.512,2.602
		c1.077,0.359,4.217,0.539,9.42,0.539h5.921c6.28,0,10.676-0.449,13.188-1.346c1.256-0.418,2.452-1.016,3.588-1.794
		c1.135-0.776,2.243-1.794,3.319-3.05c1.077-1.256,2.122-2.781,3.14-4.576C1151.52,466.752,1152.567,464.569,1153.644,461.997z"/>
	<path fill="#FFFFFF" stroke="#FFFFFF" stroke-width="5" stroke-miterlimit="10" d="M248.994,514.725v37.617h-2.995
		c-1.359-10.142-4.672-17.89-9.943-23.241c-5.271-5.35-11.98-8.027-20.126-8.027c-2.796,0-5.352,0.479-7.667,1.438
		c-2.317,0.958-4.354,2.216-6.11,3.774c-1.758,1.558-3.115,3.336-4.073,5.331c-0.958,1.998-1.438,4.073-1.438,6.229
		c0,1.998,0.399,3.894,1.198,5.691c0.797,1.797,3.274,4.612,7.428,8.446c6.948,4.393,13.137,8.026,18.569,10.902
		c5.11,2.796,12.02,7.029,20.726,12.699c3.753,2.875,6.628,6.29,8.625,10.243c1.996,3.953,2.995,8.086,2.995,12.399
		c0,4.073-0.838,7.948-2.516,11.621c-1.677,3.674-4.014,6.888-7.008,9.644c-2.995,2.755-6.61,4.953-10.842,6.589
		c-4.234,1.636-8.865,2.456-13.896,2.456c-3.195,0-6.151-0.239-8.865-0.719c-0.479-0.081-1.737-0.419-3.774-1.018
		s-4.213-1.217-6.529-1.857c-2.317-0.638-4.474-1.237-6.469-1.797c-1.997-0.558-3.156-0.839-3.474-0.839
		c-1.359,0-2.417,0.401-3.175,1.198c-0.76,0.799-1.338,2.476-1.737,5.031h-2.995v-37.377h2.995c1.438,7.667,3.313,13.537,5.63,17.61
		c1.118,1.917,2.615,3.695,4.493,5.332c1.875,1.638,3.993,3.075,6.35,4.313c2.354,1.239,4.891,2.198,7.607,2.875
		c2.714,0.679,5.47,1.018,8.267,1.018c3.354,0,6.368-0.479,9.045-1.438c2.675-0.958,4.951-2.256,6.829-3.894
		c1.875-1.636,3.313-3.534,4.313-5.69c0.998-2.157,1.498-4.433,1.498-6.829c0-2.714-0.739-5.431-2.216-8.146
		c-1.479-2.714-3.974-5.391-7.487-8.027c-3.435-2.076-7.508-4.511-12.22-7.308c-9.026-5.191-17.053-10.183-24.08-14.975
		c-3.914-3.115-6.888-6.529-8.925-10.243c-2.037-3.713-3.055-7.847-3.055-12.399c0-3.834,0.797-7.488,2.396-10.962
		c1.597-3.474,3.813-6.529,6.649-9.165c2.834-2.636,6.209-4.712,10.123-6.23c3.913-1.516,8.146-2.276,12.699-2.276
		c5.75,0,11.86,1.398,18.329,4.193c1.517,0.64,2.795,1.159,3.834,1.557c1.037,0.401,1.875,0.56,2.516,0.479
		c1.438,0,2.594-0.399,3.474-1.198c0.878-0.797,1.558-2.475,2.037-5.031H248.994z"/>
	<path fill="#FFFFFF" stroke="#FFFFFF" stroke-width="5" stroke-miterlimit="10" d="M291.666,585.761v25.007
		c0,5.494,0.599,8.873,1.8,10.136c1.641,1.833,4.073,2.747,7.294,2.747h3.315v2.368h-36.848v-2.368h3.221
		c3.6,0,6.188-1.168,7.768-3.505c0.883-1.388,1.326-4.514,1.326-9.378v-55.604c0-5.367-0.568-8.715-1.705-10.041
		c-1.705-1.895-4.168-2.842-7.389-2.842h-3.221v-2.368h31.544c7.578,0,13.64,0.822,18.187,2.463c2.21,0.758,4.278,1.816,6.205,3.173
		c1.926,1.359,3.6,2.969,5.021,4.831c1.421,1.863,2.542,3.917,3.363,6.157c0.82,2.242,1.231,4.658,1.231,7.247
		c0,3.474-0.601,6.663-1.8,9.567c-1.2,2.905-2.937,5.399-5.21,7.483s-5.053,3.71-8.336,4.878c-3.284,1.169-7.042,1.752-11.272,1.752
		C302.053,587.466,297.222,586.898,291.666,585.761z M291.666,582.067c2.273,0.442,4.263,0.774,5.968,0.995
		c1.705,0.222,3.188,0.332,4.452,0.332c2.21,0,4.294-0.458,6.252-1.374c1.957-0.915,3.678-2.179,5.163-3.789
		c1.483-1.61,2.652-3.552,3.505-5.826s1.279-4.736,1.279-7.389c0-3.157-0.474-5.968-1.421-8.431s-2.242-4.547-3.884-6.252
		c-1.643-1.705-3.568-2.999-5.778-3.884c-2.211-0.884-4.61-1.326-7.199-1.326c-2.148,0-4.926,0.379-8.336,1.137V582.067z"/>
	<path fill="#FFFFFF" stroke="#FFFFFF" stroke-width="5" stroke-miterlimit="10" d="M384.875,597.223h-33.343l-5.873,13.546
		c-1.39,3.348-2.084,5.842-2.084,7.483c0,0.696,0.109,1.326,0.332,1.895c0.22,0.568,0.694,1.089,1.421,1.563
		c0.725,0.474,1.736,0.885,3.031,1.231c1.293,0.348,3.015,0.584,5.163,0.71v2.368H326.43v-2.368c2.146-0.315,3.884-0.789,5.21-1.421
		c1.326-0.63,2.463-1.5,3.41-2.605c0.947-1.104,1.814-2.542,2.605-4.31c0.789-1.767,1.752-3.946,2.889-6.536l30.312-70.76h2.179
		l29.934,71.518c1.199,2.969,2.321,5.352,3.363,7.152s2.115,3.206,3.221,4.215c1.104,1.011,2.304,1.705,3.6,2.084
		c1.293,0.379,2.856,0.601,4.689,0.663v2.368h-34.007v-2.368c3.41-0.126,5.731-0.678,6.962-1.658
		c1.231-0.979,1.847-2.163,1.847-3.552c-0.063-1.831-0.916-4.798-2.558-8.904L384.875,597.223z M383.076,592.486l-14.588-34.764
		l-14.966,34.764H383.076z"/>
	<path fill="#FFFFFF" stroke="#FFFFFF" stroke-width="5" stroke-miterlimit="10" d="M497.505,538.019l1.989,29.271h-1.989
		c-2.652-8.777-6.394-15.093-11.225-18.945c-4.831-3.851-10.657-5.778-17.477-5.778c-4.421,0-8.494,0.838-12.22,2.51
		c-3.727,1.674-6.931,4.248-9.614,7.72c-2.685,3.474-4.784,7.831-6.299,13.072c-1.516,5.242-2.273,11.431-2.273,18.566
		c0,5.747,0.71,10.957,2.131,15.629c1.421,4.674,3.505,8.667,6.252,11.983s6.11,5.873,10.088,7.673c3.979,1.8,8.557,2.7,13.735,2.7
		c5.431,0,10.356-1.199,14.777-3.6c4.23-2.21,8.936-6.946,14.114-14.209l1.989,1.231c-4.357,7.642-9.394,13.247-15.109,16.814
		c-5.716,3.567-12.551,5.352-20.508,5.352c-6.126,0-11.746-1.075-16.861-3.221s-9.52-5.163-13.214-9.046s-6.583-8.493-8.667-13.83
		c-2.084-5.335-3.126-11.192-3.126-17.571c0-8.651,1.926-16.545,5.778-23.682c3.789-7.199,9.061-12.755,15.819-16.672
		c6.82-3.979,14.208-5.968,22.166-5.968c6.252,0,12.376,1.516,18.377,4.547c1.767,0.947,3.031,1.421,3.789,1.421
		c1.388,0,2.542-0.568,3.458-1.705c0.915-1.137,1.563-2.558,1.942-4.263H497.505z"/>
	<path fill="#FFFFFF" stroke="#FFFFFF" stroke-width="5" stroke-miterlimit="10" d="M533.122,544.65v34.007h18.85
		c2.778,0,5.021-0.252,6.726-0.758c1.705-0.505,3.046-1.263,4.026-2.273c0.979-1.01,1.658-2.305,2.037-3.884
		c0.379-1.578,0.63-3.441,0.758-5.589h2.368v29.933h-2.368c-0.317-2.463-0.679-4.514-1.089-6.157
		c-0.411-1.641-1.074-2.951-1.989-3.931c-0.916-0.979-2.195-1.673-3.836-2.084c-1.643-0.41-3.853-0.616-6.631-0.616h-18.85v28.417
		c0,2.148,0.031,3.853,0.095,5.115c0.062,1.264,0.315,2.226,0.758,2.889c0.441,0.663,1.137,1.089,2.084,1.279
		s2.335,0.284,4.168,0.284h14.587c2.463,0,4.547-0.062,6.252-0.189c1.705-0.126,3.173-0.379,4.405-0.758s2.321-0.9,3.268-1.563
		s1.957-1.5,3.031-2.51c2.525-2.463,5.21-6.409,8.052-11.841h2.558l-7.483,21.598h-66.308v-2.368h3.031
		c0.82,0,1.672-0.095,2.558-0.284c0.884-0.189,1.72-0.458,2.51-0.805c0.789-0.346,1.499-0.805,2.131-1.374
		c0.63-0.568,1.073-1.231,1.326-1.989c0.504-1.388,0.758-4.168,0.758-8.336v-55.888c0-5.494-0.538-8.872-1.61-10.136
		c-1.516-1.705-4.073-2.558-7.673-2.558h-3.031v-2.368h66.308v18.851h-1.516c-0.632-3.093-1.312-5.573-2.037-7.436
		c-0.727-1.862-1.69-3.299-2.889-4.31c-1.2-1.009-2.732-1.658-4.594-1.942c-1.863-0.284-4.248-0.426-7.152-0.426H533.122z"/>
	<path fill="#FFFFFF" stroke="#FFFFFF" stroke-width="5" stroke-miterlimit="10" d="M677.39,538.019v29.744h-2.368
		c-1.074-8.019-3.694-14.146-7.862-18.377c-4.168-4.23-9.473-6.347-15.914-6.347c-2.211,0-4.232,0.379-6.063,1.137
		c-1.833,0.758-3.443,1.752-4.831,2.984c-1.39,1.231-2.463,2.638-3.221,4.215c-0.758,1.579-1.137,3.221-1.137,4.926
		c0,1.579,0.315,3.079,0.947,4.5c0.63,1.421,2.588,3.647,5.873,6.678c5.494,3.474,10.387,6.347,14.682,8.62
		c4.041,2.211,9.504,5.558,16.388,10.041c2.968,2.273,5.241,4.973,6.82,8.099c1.578,3.126,2.368,6.394,2.368,9.804
		c0,3.221-0.663,6.285-1.989,9.188c-1.326,2.905-3.173,5.447-5.542,7.625s-5.226,3.917-8.573,5.21
		c-3.348,1.293-7.01,1.942-10.988,1.942c-2.526,0-4.863-0.189-7.009-0.568c-0.379-0.063-1.374-0.332-2.984-0.805
		s-3.332-0.962-5.163-1.468c-1.833-0.505-3.538-0.979-5.115-1.421c-1.58-0.441-2.496-0.663-2.747-0.663
		c-1.075,0-1.911,0.317-2.51,0.947c-0.601,0.632-1.059,1.958-1.374,3.979h-2.368v-29.555h2.368
		c1.137,6.063,2.62,10.704,4.452,13.925c0.883,1.516,2.067,2.922,3.552,4.215c1.483,1.295,3.157,2.432,5.021,3.41
		c1.862,0.98,3.867,1.738,6.015,2.273c2.146,0.537,4.325,0.805,6.536,0.805c2.652,0,5.036-0.379,7.152-1.137
		c2.115-0.758,3.915-1.784,5.399-3.079c1.483-1.293,2.62-2.794,3.41-4.5c0.789-1.705,1.184-3.505,1.184-5.399
		c0-2.146-0.584-4.293-1.752-6.441c-1.169-2.146-3.142-4.263-5.92-6.347c-2.716-1.641-5.937-3.567-9.662-5.778
		c-7.137-4.104-13.484-8.051-19.04-11.84c-3.095-2.463-5.447-5.163-7.057-8.099s-2.416-6.205-2.416-9.804
		c0-3.031,0.63-5.92,1.895-8.667c1.263-2.747,3.015-5.163,5.257-7.247c2.241-2.084,4.909-3.725,8.004-4.926
		c3.093-1.199,6.441-1.8,10.041-1.8c4.546,0,9.377,1.106,14.493,3.315c1.199,0.506,2.21,0.916,3.031,1.231
		c0.82,0.317,1.483,0.442,1.989,0.379c1.137,0,2.052-0.315,2.747-0.947c0.694-0.63,1.231-1.957,1.61-3.979H677.39z"/>
	<path fill="#FFFFFF" stroke="#FFFFFF" stroke-width="5" stroke-miterlimit="10" d="M765.295,539.914v20.271h-1.421
		c-0.696-5.431-2.29-9.267-4.784-11.509c-2.496-2.241-6.173-3.363-11.036-3.363H735.93v65.834c0,2.906,0.205,5.195,0.616,6.868
		c0.41,1.674,0.995,2.922,1.752,3.742c0.758,0.821,1.705,1.342,2.842,1.563c1.137,0.222,2.463,0.332,3.979,0.332h2.937v2.368
		h-36.469v-2.368h3.031c1.516,0,2.842-0.126,3.979-0.379c1.137-0.251,2.084-0.805,2.842-1.658s1.341-2.099,1.752-3.742
		c0.41-1.642,0.616-3.884,0.616-6.726v-65.834H713.48c-2.59,0-4.878,0.206-6.868,0.616c-1.989,0.412-3.711,1.169-5.163,2.273
		c-1.454,1.105-2.605,2.621-3.458,4.547c-0.853,1.927-1.374,4.405-1.563,7.436h-2.368v-20.271H765.295z"/>
	<path fill="#FFFFFF" stroke="#FFFFFF" stroke-width="5" stroke-miterlimit="10" d="M818.531,597.223h-33.343l-5.873,13.546
		c-1.39,3.348-2.084,5.842-2.084,7.483c0,0.696,0.109,1.326,0.332,1.895c0.22,0.568,0.694,1.089,1.421,1.563
		c0.725,0.474,1.736,0.885,3.031,1.231c1.293,0.348,3.015,0.584,5.163,0.71v2.368h-27.092v-2.368
		c2.146-0.315,3.884-0.789,5.21-1.421c1.326-0.63,2.463-1.5,3.41-2.605c0.947-1.104,1.814-2.542,2.605-4.31
		c0.789-1.767,1.752-3.946,2.889-6.536l30.312-70.76h2.179l29.934,71.518c1.199,2.969,2.321,5.352,3.363,7.152
		s2.115,3.206,3.221,4.215c1.104,1.011,2.304,1.705,3.6,2.084c1.293,0.379,2.856,0.601,4.689,0.663v2.368h-34.007v-2.368
		c3.41-0.126,5.731-0.678,6.962-1.658c1.231-0.979,1.847-2.163,1.847-3.552c-0.063-1.831-0.916-4.798-2.558-8.904L818.531,597.223z
		 M816.731,592.486l-14.588-34.764l-14.966,34.764H816.731z"/>
	<path fill="#FFFFFF" stroke="#FFFFFF" stroke-width="5" stroke-miterlimit="10" d="M913.731,539.914v20.271h-1.421
		c-0.696-5.431-2.29-9.267-4.784-11.509c-2.496-2.241-6.173-3.363-11.036-3.363h-12.125v65.834c0,2.906,0.205,5.195,0.616,6.868
		c0.41,1.674,0.995,2.922,1.752,3.742c0.758,0.821,1.705,1.342,2.842,1.563c1.137,0.222,2.463,0.332,3.979,0.332h2.937v2.368
		h-36.469v-2.368h3.031c1.516,0,2.842-0.126,3.979-0.379c1.137-0.251,2.084-0.805,2.842-1.658s1.341-2.099,1.752-3.742
		c0.41-1.642,0.616-3.884,0.616-6.726v-65.834h-10.325c-2.59,0-4.878,0.206-6.868,0.616c-1.989,0.412-3.711,1.169-5.163,2.273
		c-1.454,1.105-2.605,2.621-3.458,4.547c-0.853,1.927-1.374,4.405-1.563,7.436h-2.368v-20.271H913.731z"/>
	<path fill="#FFFFFF" stroke="#FFFFFF" stroke-width="5" stroke-miterlimit="10" d="M957.968,623.651v2.368H921.12v-2.368h3.031
		c1.516,0,2.856-0.109,4.026-0.332c1.167-0.221,2.131-0.758,2.889-1.61s1.341-2.146,1.752-3.884c0.41-1.736,0.616-4.088,0.616-7.057
		v-55.604c0-1.957-0.047-3.583-0.142-4.878c-0.095-1.293-0.253-2.352-0.474-3.173c-0.222-0.82-0.554-1.468-0.995-1.942
		c-0.443-0.474-1.042-0.931-1.8-1.374c-1.895-1.009-3.853-1.516-5.873-1.516h-3.031v-2.368h36.848v2.368h-3.031
		c-1.515,0-2.858,0.127-4.025,0.379c-1.169,0.253-2.131,0.805-2.889,1.658s-1.343,2.147-1.752,3.884
		c-0.412,1.738-0.616,4.059-0.616,6.962v55.604c0,2.022,0.031,3.664,0.095,4.926c0.062,1.264,0.22,2.306,0.474,3.126
		c0.251,0.821,0.616,1.468,1.089,1.942s1.089,0.933,1.847,1.374c1.767,1.011,3.694,1.516,5.778,1.516H957.968z"/>
	<path fill="#FFFFFF" stroke="#FFFFFF" stroke-width="5" stroke-miterlimit="10" d="M1008.741,538.019
		c5.494,0,10.735,1.137,15.725,3.41c4.988,2.273,9.378,5.399,13.167,9.378s6.804,8.667,9.046,14.067
		c2.241,5.399,3.363,11.257,3.363,17.572c0,6.505-1.122,12.536-3.363,18.092c-2.242,5.558-5.273,10.373-9.094,14.446
		c-3.822,4.073-8.305,7.263-13.451,9.567c-5.147,2.305-10.625,3.458-16.435,3.458c-5.873,0-11.367-1.105-16.482-3.315
		s-9.553-5.319-13.309-9.331c-3.758-4.009-6.726-8.793-8.904-14.351c-2.179-5.556-3.268-11.682-3.268-18.376
		c0-6.188,1.089-11.998,3.268-17.43c2.179-5.431,5.177-10.15,8.999-14.162c3.82-4.01,8.351-7.183,13.593-9.52
		C996.837,539.188,1002.552,538.019,1008.741,538.019z M1007.51,542.661c-4.357,0-8.226,0.933-11.604,2.794
		c-3.379,1.863-6.221,4.516-8.525,7.957c-2.306,3.443-4.059,7.611-5.257,12.504c-1.201,4.895-1.8,10.405-1.8,16.53
		c0,6.063,0.583,11.604,1.752,16.624c1.167,5.021,2.904,9.347,5.21,12.978c2.304,3.632,5.163,6.441,8.573,8.431
		c3.41,1.989,7.325,2.984,11.746,2.984c3.979,0,7.657-0.758,11.036-2.273c3.377-1.516,6.331-3.868,8.857-7.057
		c2.525-3.188,4.5-7.261,5.92-12.22c1.421-4.957,2.131-10.877,2.131-17.761c0-6.504-0.584-12.33-1.752-17.477
		c-1.169-5.146-2.937-9.504-5.305-13.072c-2.368-3.567-5.305-6.283-8.81-8.146C1016.177,543.593,1012.119,542.661,1007.51,542.661z"
		/>
	<path fill="#FFFFFF" stroke="#FFFFFF" stroke-width="5" stroke-miterlimit="10" d="M1053.357,539.914h23.303l52.667,64.603V554.88
		c0-2.904-0.206-5.21-0.616-6.915c-0.412-1.705-1.011-2.968-1.8-3.789c-0.791-0.82-1.752-1.341-2.889-1.563
		c-1.137-0.221-2.432-0.332-3.884-0.332h-3.031v-2.368h30.028v2.368h-3.126c-1.516,0-2.842,0.127-3.979,0.379
		c-1.137,0.253-2.084,0.821-2.842,1.705c-0.758,0.885-1.326,2.147-1.705,3.789c-0.379,1.643-0.568,3.884-0.568,6.726v72.56h-2.273
		l-56.741-69.339v53.046c0,2.969,0.204,5.29,0.616,6.962c0.41,1.674,0.995,2.922,1.752,3.742c0.758,0.821,1.705,1.326,2.842,1.516
		s2.43,0.284,3.884,0.284h3.031v2.368h-29.934v-2.368h3.031c1.516,0,2.842-0.126,3.979-0.379c1.137-0.251,2.099-0.805,2.889-1.658
		c0.789-0.853,1.374-2.099,1.752-3.742c0.379-1.642,0.568-3.884,0.568-6.726v-59.867c-1.264-1.516-2.321-2.714-3.173-3.6
		c-0.853-0.884-1.658-1.61-2.416-2.179s-1.579-1.042-2.463-1.421c-0.885-0.379-1.989-0.789-3.315-1.231
		c-1.264-0.379-3.126-0.568-5.589-0.568V539.914z"/>
</g>
</svg>
