<?xml version="1.0" encoding="utf-8"?>
<!-- Generator: Adobe Illustrator 16.0.0, SVG Export Plug-In . SVG Version: 6.00 Build 0)  -->
<!DOCTYPE svg PUBLIC "-//W3C//DTD SVG 1.1//EN" "http://www.w3.org/Graphics/SVG/1.1/DTD/svg11.dtd">
<svg version="1.1" id="Layer_1" xmlns="http://www.w3.org/2000/svg" xmlns:xlink="http://www.w3.org/1999/xlink" x="0px" y="0px"
	 width="50px" height="50px" viewBox="0 0 50 50" enable-background="new 0 0 50 50" xml:space="preserve">
<g>
	<path fill-rule="evenodd" clip-rule="evenodd" fill="#162E55" d="M4.619,34.36c0.257,0,0.412,0.001,0.565,0
		c1.567-0.001,3.134-0.005,4.701,0.001c0.248,0.001,0.419-0.026,0.506-0.313c1.908-6.33,3.824-12.656,5.739-18.983
		c0.02-0.066,0.035-0.134,0.058-0.222c-0.133-0.008-0.245-0.019-0.355-0.019c-1.809-0.001-3.619,0.004-5.428-0.006
		c-0.267-0.001-0.383,0.063-0.468,0.346c-1.83,6.07-3.675,12.135-5.518,18.203C4.379,33.5,4.336,33.634,4.27,33.845
		c-0.166-0.24-0.305-0.43-0.432-0.627c-1.694-2.655-2.881-5.517-3.339-8.642c-1.06-7.228,2.016-14.012,8.646-17.845
		c1.004-0.58,2.097-1.006,3.152-1.494c0.229-0.105,0.476-0.175,0.826-0.302c-0.388,1.299-0.75,2.507-1.121,3.749
		c0.142,0.012,0.25,0.029,0.358,0.029c1.795,0.002,3.59-0.006,5.385,0.009c0.31,0.002,0.441-0.099,0.528-0.393
		c0.451-1.535,0.923-3.063,1.385-4.584C28.555,3.16,38.709,7.492,44.444,14.81c-0.168,0.01-0.299,0.023-0.43,0.023
		c-1.723,0.002-3.447-0.003-5.171,0.002c-2.926,0.01-5.986,2.023-7.017,4.633c-0.625,1.583-0.47,3.043,0.683,4.371
		c0.952,1.097,1.844,2.244,2.771,3.362c0.375,0.453,0.545,0.937,0.287,1.495c-0.279,0.602-0.787,0.899-1.43,0.91
		c-1.21,0.021-2.422,0.007-3.632,0.007c-0.156,0-0.312,0-0.497,0c-0.472,1.553-0.94,3.094-1.425,4.691
		c0.183,0.009,0.33,0.021,0.477,0.021c1.952,0.001,3.904,0.004,5.855,0.001c3.023-0.006,6.207-2.287,7.049-5.044
		c0.431-1.412,0.214-2.687-0.75-3.832c-0.961-1.143-1.893-2.313-2.854-3.46c-0.361-0.43-0.505-0.898-0.315-1.423
		c0.201-0.553,0.643-0.896,1.214-0.944c0.764-0.065,1.536-0.042,2.305-0.051c0.555-0.006,1.112-0.023,1.666,0.005
		c0.326,0.017,0.433-0.112,0.517-0.405c0.361-1.25,0.751-2.49,1.161-3.832c0.323,0.454,0.605,0.838,0.872,1.232
		c1.833,2.703,3.107,5.641,3.664,8.868c1.24,7.169-1.854,14.032-8.039,17.861c-2.837,1.758-5.928,2.805-9.235,3.153
		c-8.722,0.921-16.359-1.684-23.063-7.219c-1.509-1.246-2.833-2.679-4.02-4.236C4.951,34.823,4.822,34.639,4.619,34.36z
		 M14.404,34.326c0.181,0,0.319,0,0.457,0c1.938,0,3.877,0.053,5.813-0.011c2.87-0.095,5.109-1.404,6.593-3.85
		c1.065-1.755,1.067-3.591-0.398-5.235c-0.938-1.052-1.799-2.17-2.694-3.259c-0.698-0.85-0.396-1.935,0.652-2.286
		c0.25-0.084,0.53-0.106,0.796-0.108c1.154-0.011,2.308-0.013,3.461,0.001c0.273,0.003,0.393-0.076,0.472-0.348
		c0.348-1.199,0.725-2.39,1.087-3.584c0.078-0.252,0.137-0.51,0.216-0.812c-0.203,0-0.343,0-0.484,0
		c-1.895,0-3.792-0.056-5.684,0.014c-2.836,0.103-5.084,1.356-6.61,3.763c-1.065,1.68-1.16,3.715,0.344,5.353
		c0.961,1.046,1.818,2.19,2.724,3.287c0.668,0.811,0.341,1.944-0.669,2.261c-0.238,0.075-0.503,0.095-0.756,0.097
		c-1.293,0.01-2.587,0.005-3.892,0.005C15.354,31.189,14.887,32.732,14.404,34.326z"/>
</g>
</svg>
