<?xml version="1.0" encoding="utf-8"?>
<!-- Generator: Adobe Illustrator 16.0.0, SVG Export Plug-In . SVG Version: 6.00 Build 0)  -->
<!DOCTYPE svg PUBLIC "-//W3C//DTD SVG 1.1//EN" "http://www.w3.org/Graphics/SVG/1.1/DTD/svg11.dtd">
<svg version="1.1" id="Layer_1" xmlns="http://www.w3.org/2000/svg" xmlns:xlink="http://www.w3.org/1999/xlink" x="0px" y="0px"
	 width="50px" height="50px" viewBox="0 0 50 50" enable-background="new 0 0 50 50" xml:space="preserve">
<path fill-rule="evenodd" clip-rule="evenodd" fill="#3A3A3A" d="M5.112,28.591c-0.617-0.271-1.234-0.542-1.919-0.842
	c1.453-1.142,2.836-2.229,4.219-3.316c1.146-0.899,2.277-1.815,3.444-2.683c0.457-0.34,0.727-0.685,0.481-1.328
	c-0.612,0.483-1.233,0.969-1.851,1.458c-2.201,1.752-4.403,3.501-6.596,5.264c-0.297,0.238-0.546,0.349-0.89,0.106
	c-0.272-0.192-0.624-0.248-0.883-0.478c-0.022-0.09,0.05-0.102,0.097-0.14c2.886-2.278,5.77-4.558,8.649-6.842
	c0.112-0.09,0.368-0.156,0.245-0.355c-0.151-0.246-0.283,0.036-0.376,0.108c-2.84,2.231-5.668,4.477-8.51,6.704
	c-0.228,0.179-0.233,0.321-0.105,0.532c-0.586-0.266-1.171-0.531-1.836-0.832c1.062-0.834,2.057-1.618,3.053-2.398
	c1.97-1.546,3.949-3.079,5.902-4.644c0.378-0.304,0.672-0.389,1.102-0.126c0.244,0.15,0.577,0.514,0.864-0.032
	c0.057-0.104,0.326-0.104,0.502-0.126c0.287-0.035,0.577-0.048,0.896-0.156c-0.521-0.247-1.041-0.494-1.634-0.775
	c0.767-0.624,1.493-1.217,2.221-1.807c2.215-1.791,4.435-3.575,6.641-5.38c0.331-0.27,0.6-0.366,0.985-0.123
	c0.313,0.196,0.676,0.308,1.091,0.49c-0.631,0.499-1.225,0.973-1.821,1.442c-2.38,1.869-4.76,3.739-7.142,5.608
	c-0.063,0.051-0.126,0.104-0.188,0.158c-0.08,0.067-0.222,0.11-0.093,0.264c0.128,0.154,0.205-0.003,0.274-0.058
	c0.7-0.539,1.393-1.088,2.088-1.634c2.337-1.843,4.68-3.684,7.007-5.54c0.164-0.13,0.251-0.072,0.377-0.017
	c0.402,0.174,0.798,0.358,1.204,0.518c0.338,0.134,0.289,0.227,0.031,0.43c-2.358,1.847-4.704,3.707-7.055,5.562
	c-0.614,0.487-1.231,0.973-1.861,1.471c0.349,0.315,0.628,0.286,0.986,0.005c2.751-2.165,5.525-4.3,8.271-6.473
	c0.424-0.335,0.783-0.44,1.251-0.188c0.17,0.091,0.359,0.146,0.61,0.244c-0.518,0.415-1.004,0.809-1.496,1.196
	c-2.428,1.917-4.854,3.831-7.283,5.746c-0.052,0.041-0.104,0.079-0.153,0.123c-0.095,0.084-0.238,0.162-0.107,0.317
	c0.124,0.146,0.202-0.015,0.277-0.074c0.774-0.604,1.544-1.212,2.313-1.821c2.18-1.729,4.36-3.456,6.534-5.193
	c0.172-0.138,0.303-0.179,0.513-0.09c0.458,0.191,0.931,0.347,1.473,0.545c-3.181,2.467-6.298,4.885-9.47,7.346
	c0.964,0.418,1.856,0.809,2.811,1.223c0-0.285,0.018-0.5-0.005-0.711c-0.05-0.461,0.174-0.597,0.539-0.433
	c0.305,0.135,0.486,0.027,0.671-0.185c0.733-0.851,1.801-1.298,2.5-2.198c0.121-0.156,0.351-0.229,0.54-0.319
	c0.312-0.148,0.629-0.306,0.816-0.605c0.519-0.834,1.406-1.122,2.188-1.676c0.05,1.069,0.098,2.075,0.149,3.155
	c0.366-0.284,0.712-0.521,1.02-0.801c0.323-0.294,0.618-0.352,1.029-0.146c0.71,0.354,1.462,0.614,2.18,0.952
	c0.321,0.152,0.524,0.082,0.757-0.157c0.373-0.382,0.686-0.854,1.251-0.986c0.064-0.016,0.169-0.048,0.135-0.165
	c-0.042-0.139-0.157-0.208-0.274-0.264c-0.729-0.352-1.46-0.699-2.19-1.049c-0.538-0.257-0.537-0.258-0.106-0.669
	c0.631-0.602,0.632-0.604,1.417-0.213c0.741,0.366,1.484,0.729,2.216,1.115c0.273,0.146,0.481,0.143,0.676-0.111
	c0.447-0.595,1.083-0.938,1.686-1.322c0.421-0.27,0.965-0.141,1.229,0.278c0.32,0.502,0.259,1.047-0.156,1.371
	c-0.306,0.239-0.611,0.479-0.965,0.755c0.93,0.397,1.804,0.775,2.681,1.146c0.253,0.106,0.364,0.133,0.094,0.437
	c-0.532,0.6-1.026,0.662-1.707,0.26c-0.638-0.38-1.353-0.617-2.021-0.944c-0.25-0.123-0.398-0.062-0.641,0.055
	c-0.686,0.331-0.833,1.203-1.569,1.452c0.335,0.381,0.521,0.068,0.731-0.063c0.203-0.127,0.407-0.445,0.588-0.368
	c0.218,0.093,0.085,0.447,0.092,0.683c0.009,0.311,0.104,0.472,0.405,0.575c0.533,0.182,1.044,0.428,1.554,0.642
	c-0.004,0.065,0.007,0.109-0.009,0.124c-1.723,1.505-3.3,3.185-5.17,4.517c-0.603,0.431-0.465,0.966,0.145,1.346
	c0.884,0.552,1.503,0.342,2.272-0.308c2.567-2.162,5.215-4.226,7.818-6.344c0.259-0.212,0.454-0.227,0.728-0.083
	c0.355,0.187,0.729,0.339,1.138,0.526c-3.129,2.456-6.211,4.877-9.305,7.307c0.315,0.265,0.484-0.004,0.655-0.138
	c2.241-1.757,4.474-3.522,6.711-5.284c0.654-0.517,1.318-1.023,1.965-1.549c0.188-0.155,0.338-0.195,0.566-0.081
	c0.473,0.237,0.963,0.436,1.504,0.675c-3.094,2.463-6.14,4.886-9.199,7.321c0.255,0.246,0.454,0.261,0.741,0.025
	c2.748-2.226,5.519-4.421,8.254-6.661c0.468-0.383,0.847-0.499,1.356-0.167c0.229,0.148,0.498,0.227,0.804,0.361
	c-3.065,2.412-6.09,4.794-9.121,7.18c0.263,0.229,0.423,0.028,0.582-0.099c2.744-2.147,5.496-4.285,8.217-6.464
	c0.468-0.374,0.845-0.49,1.361-0.167c0.309,0.192,0.666,0.303,1.062,0.476c-1.197,0.958-2.344,1.877-3.49,2.795
	c-1.842,1.47-3.689,2.933-5.521,4.415c-0.293,0.236-0.533,0.33-0.85,0.081c-0.126-0.098-0.298-0.132-0.432-0.223
	c-0.282-0.191-0.535-0.22-0.836-0.009c-0.407,0.288-0.913,0.296-1.447,0.456c0.534,0.248,1.013,0.471,1.532,0.711
	c-0.32,0.369-0.714,0.625-1.079,0.907c-0.218,0.169-0.308,0.344-0.286,0.627c0.055,0.749,0.131,1.497,0.091,2.269
	c-0.839-0.227-1.428-0.634-1.113-1.843c-0.962,0.763-1.767,1.396-2.567,2.033c-1.357,1.079-2.721,2.153-4.063,3.251
	c-0.277,0.227-0.479,0.23-0.771,0.058c-0.417-0.25-0.864-0.446-1.356-0.695c3.112-2.451,6.188-4.874,9.285-7.312
	c-0.288-0.153-0.453-0.005-0.636,0.139c-2.805,2.203-5.62,4.394-8.409,6.617c-0.401,0.319-0.708,0.428-1.132,0.111
	c-0.202-0.151-0.449-0.238-0.734-0.385c0.885-0.715,1.732-1.403,2.584-2.086c1.073-0.86,2.142-1.725,3.225-2.57
	c0.248-0.194,0.3-0.408,0.221-0.752c-0.938,0.746-1.854,1.472-2.768,2.202c-1.201,0.961-2.404,1.919-3.599,2.89
	c-0.231,0.189-0.425,0.223-0.689,0.069c-0.446-0.258-0.913-0.477-1.426-0.739c3.104-2.438,6.173-4.845,9.256-7.266
	c-0.279-0.223-0.423-0.043-0.587,0.085c-2.807,2.202-5.62,4.392-8.413,6.612c-0.41,0.327-0.737,0.449-1.176,0.117
	c-0.189-0.144-0.422-0.228-0.693-0.369c1.705-1.377,3.378-2.729,5.058-4.087c-0.199-0.199-0.375-0.155-0.559-0.05
	c-0.636,0.367-1.164-0.069-1.719-0.268c-0.101-0.035-0.146-0.24-0.067-0.36c0.226-0.344-0.007-0.375-0.247-0.478
	c-0.744-0.317-1.48-0.655-2.208-1.01c-0.561-0.273-1.088-0.402-1.613,0.08c-0.187,0.171-0.358,0.039-0.499-0.119
	c-0.146-0.164-0.09-0.295,0.062-0.417c0.088-0.07,0.168-0.154,0.304-0.279c-0.55-0.215-1.032-0.419-1.525-0.588
	c-0.318-0.109-0.42-0.318-0.402-0.642c0.021-0.42,0.188-0.773,0.45-1.078c0.21-0.245,0.459-0.343,0.776-0.174
	c0.225,0.121,0.472,0.196,0.747,0.307c-0.017-0.377-0.065-0.712-0.039-1.04c0.053-0.701-0.121-1.202-0.886-1.299
	c-0.272-0.035-0.335-0.237-0.297-0.477c0.073-0.442-0.131-0.64-0.519-0.796c-0.897-0.364-1.771-0.783-2.709-1.203
	c0,1.484,0,2.924,0,4.352c-0.072,0.021-0.106,0.041-0.13,0.033c-0.875-0.318-0.874-0.318-0.874-1.271c0-1.049,0-2.098,0-3.249
	c-0.778,0.602-1.493,1.154-2.21,1.707c-0.128,0.1-0.251,0.211-0.386,0.302c-0.469,0.308-0.889,0.638-0.675,1.392
	c-0.599-0.552-0.969-0.115-1.375,0.204c-1.479,1.162-2.964,2.315-4.444,3.477c-0.146,0.113-0.264,0.215-0.47,0.106
	c-0.456-0.24-0.926-0.451-1.392-0.677c0.052-0.196,0.236-0.254,0.367-0.358c2.889-2.307,5.782-4.605,8.669-6.914
	c0.099-0.079,0.369-0.125,0.2-0.358c-0.153-0.213-0.26,0.028-0.342,0.094c-2.921,2.318-5.833,4.648-8.757,6.963
	C5.012,28.193,4.964,28.347,5.112,28.591z M27.04,24.406c0.478-0.477,0.986-0.796,1.102-1.448c0.015-0.083,0.108-0.159,0.182-0.222
	c0.616-0.514,1.232-1.024,1.854-1.532c0.123-0.101,0.251-0.233,0.432-0.132c0.168,0.093,0.329,0.184,0.419-0.084
	c0.097-0.291-0.126-0.323-0.305-0.395c-0.824-0.332-1.643-0.678-2.474-0.99c-0.208-0.078-0.574-0.508-0.624,0.172
	c-0.004,0.046-0.127,0.088-0.198,0.125c-0.295,0.152-0.537,0.377-0.739,0.638c-0.26,0.334-0.562,0.588-0.974,0.691
	c-0.245,0.063-0.423,0.233-0.588,0.419c-0.32,0.356-0.652,0.681-1.114,0.852c-0.271,0.1-0.486,0.317-0.672,0.559
	c-0.12,0.155-0.122,0.229,0.078,0.313c0.651,0.269,1.293,0.56,1.977,0.858c-0.011-0.146,0.019-0.292-0.031-0.333
	c-0.367-0.296-0.118-0.385,0.127-0.545c0.396-0.255,0.714-0.034,1.043,0.125c0.236,0.112,0.411,0.036,0.561-0.141
	c0.16-0.186,0.017-0.273-0.122-0.381c-0.157-0.122-0.178-0.283,0.004-0.41c0.204-0.144,0.42-0.18,0.624-0.003
	c0.17,0.146,0.053,0.246-0.022,0.41C27.375,23.385,27.008,23.757,27.04,24.406z M27.514,27.809c-0.069,0.102-0.129,0.15-0.14,0.209
	c-0.089,0.529-0.059,1.096-0.53,1.495c-0.048,0.04-0.208,0.428,0.072,0.476c0.37,0.064,0.601,0.294,0.848,0.53
	c0.183,0.177,0.339,0.273,0.63,0.121c0.29-0.152,0.663-0.175,0.908,0.171c0.114,0.16,0.203,0.089,0.309,0.004
	c0.785-0.637,1.571-1.271,2.39-1.933c-1.08-0.482-2.121-0.947-3.176-1.42c-0.071,0.272,0.074,0.668-0.354,0.662
	C28.148,28.119,27.73,28.39,27.514,27.809z M23.38,25.032c0,0.598,0,1.124,0,1.723c0.458-0.393,0.866-0.744,1.321-1.136
	C24.224,25.407,23.818,25.227,23.38,25.032z M34.184,32.213c0.367-0.29,0.66-0.517,0.949-0.747c0.302-0.243,0.601-0.493,0.909-0.747
	c-0.226-0.163-0.429-0.263-0.623-0.03C35.026,31.165,34.208,31.272,34.184,32.213z M32.707,21.388
	c0.021-0.132,0.22-0.182,0.174-0.35c-0.01-0.035-0.108-0.08-0.113-0.074c-0.2,0.252-0.502,0.292-0.768,0.413
	c-0.104,0.047-0.214,0.215-0.037,0.366c0.186,0.157,0.143,0.408,0.179,0.668c0.324-0.274,0.607-0.512,0.89-0.751
	C32.985,21.489,32.765,21.545,32.707,21.388z M39.386,30.467c-0.245-0.119-0.435-0.213-0.648-0.318
	C38.889,30.794,38.889,30.794,39.386,30.467z"/>
</svg>
