<?xml version="1.0" encoding="utf-8"?>
<!-- Generator: Adobe Illustrator 16.0.0, SVG Export Plug-In . SVG Version: 6.00 Build 0)  -->
<!DOCTYPE svg PUBLIC "-//W3C//DTD SVG 1.1//EN" "http://www.w3.org/Graphics/SVG/1.1/DTD/svg11.dtd">
<svg version="1.1" id="Layer_1" xmlns="http://www.w3.org/2000/svg" xmlns:xlink="http://www.w3.org/1999/xlink" x="0px" y="0px"
	 width="1920px" height="1080px" viewBox="0 0 1920 1080" enable-background="new 0 0 1920 1080" xml:space="preserve">
<rect x="-7.66" y="-13.959" fill="#C4204B" width="1942.647" height="1102"/>
<g>
	<path fill-rule="evenodd" clip-rule="evenodd" fill="#FFFFFF" d="M356.723,463.772c-5.797-1.551-10.638-3.23-12.476-8.888
		c-0.16-0.492-0.93-0.924-1.506-1.12c-5.437-1.847-9.862-4.624-11.322-10.762c-0.252-1.06-1.829-1.827-2.837-2.677
		c-1.017-0.856-2.595-1.429-3.054-2.5c-3.273-7.638-10.361-13.507-10.554-22.542c-0.028-1.314-0.602-2.172-1.362-3.067
		c-2.818-3.315-4.461-7.009-3.447-11.462c0.244-1.067,0.076-1.935-0.545-2.796c-3.012-4.175-3.691-8.497-0.516-12.876
		c1.159-1.597,0.05-2.865-0.313-4.181c-1.98-7.169,1.376-12.499,8.621-12.925c3.11-0.183,5.792-0.604,7.917-3.091
		c0.611-0.716,1.651-1.439,2.533-1.491c8.027-0.467,15.249-4.487,23.203-5.157c1.192-0.101,2.257-0.125,3.241-0.919
		c0.634-0.512,1.438-1.135,2.175-1.148c8.635-0.15,17.294-2.077,25.882-0.16c2.443,0.545,4.728,1.407,7.255,0.866
		c0.162-0.035,0.352-0.099,0.494-0.049c8.561,3.006,18.849,0.696,25.89,8.412c0.541,0.592,1.295,1.396,1.96,1.407
		c10.984,0.168,15.129,9.008,20.438,16.206c3.326,4.509,5.175,9.857,7.169,15.349c1.816-1.569,1.847-3.686,2.612-5.435
		c3.84-8.772,8.737-16.782,16.314-22.896c2.223-1.793,4.401-3.605,7.555-3.074c2.167,0.365,3.375-1.123,4.601-2.465
		c3.261-3.57,7.198-5.293,12.054-4.479c1.572,0.263,2.977,0.006,4.26-0.883c3.204-2.221,6.745-2.752,10.47-1.942
		c2.304,0.501,4.232-0.401,6.224-1.207c3.692-1.494,7.366-1.834,11.031,0.091c0.586,0.308,1.445,0.962,1.774,0.769
		c7.37-4.329,14.25,0.378,20.958,1.803c6.747,1.433,13.741,2.711,20.183,5.042c4.438,1.607,8.339,4.29,13.404,4.952
		c5.188,0.679,7.675,5.822,6.223,11.136c-0.77,2.815-1.164,5.208,0.667,7.843c1.357,1.954,1.504,4.451,0.209,6.655
		c-1.864,3.174-1.508,6.903-2.448,10.065c-1.962,6.597-4.201,13.288-7.183,19.515c-1.338,2.794-3.865,4.977-4.514,8.428
		c-0.645,3.427-15.563,19.734-18.633,20.719c-2.36,0.757-3.88,1.822-4.929,4.269c-1.881,4.389-6.531,5.129-11.12,6.775
		c4.178,2.953,7.963,5.464,11.573,8.206c14.667,11.137,21.379,26.412,22.019,44.383c0.232,6.519,2.161,10.976,7.509,15.063
		c24.86,18.998,29.056,56.503,9.406,81.132c-2.014,2.525-3.273,5.109-4.136,8.285c-3.158,11.639-6.795,23.166-10.506,34.623
		c-5.891,18.186-18.564,30.744-36.045,38.393c-1.713,0.75-3.16,1.778-4.634,2.852c-10.505,7.648-21.552,14.336-33.842,18.748
		c-1.969,0.707-3.436,1.911-4.857,3.328c-24.924,24.846-66.487,24.875-91.317,0.331c-1.931-1.908-4.095-3.258-6.643-4.204
		c-8.588-3.189-16.632-7.47-24.243-12.555c-5.917-3.953-11.951-7.639-18.203-11.102c-18.25-10.106-29.662-25.375-33.655-46.27
		c-1.823-9.539-6.486-18.393-8.627-27.961c-0.365-1.635-1.941-3.041-3.083-4.452c-21.047-26.012-13.705-64.419,11.405-82.728
		c3.01-2.195,4.869-4.9,5.245-8.582C325.924,489.238,329.279,483.488,356.723,463.772z M364.142,365.833
		c-0.354-0.617-0.869-0.707-1.489-0.458c0.299,0.381,0.598,0.762,0.897,1.144c0.556,1.487,3.175,2.446,2.035,4.134
		c-1.328,1.969-3.225-0.008-4.864-0.383c-3.376-0.771-6.752-1.546-10.176-2.33c-0.368,2.307,3.232,3.561,1.292,5.516
		c-1.684,1.697-3.792-0.214-5.602-0.644c-4.396-1.043-8.708-1.107-13.027-0.649c-0.318,2.397,2.475,2.723,1.869,5.455
		c-5.025,0-10.228,0-16.164,0c1.633,2.743,2.806,4.537,3.807,6.422c3.719,7.01,3.382,7.591-4.452,7.582
		c1.051,3.021,3.237,4.991,5.361,7.071c1.551,1.519,5.029,2.439,3.985,4.921c-0.974,2.314-4.196,0.517-6.772,0.8
		c2.779,5.042,7.665,7.886,10.774,11.975c-1.467,1.836-3.719,0.596-5.274,2.076c3.354,4.188,8.323,6.394,11.914,10.027
		c-1.481,1.719-3.658,0.765-5.347,2.007c4.485,4.757,10.722,6.232,15.441,9.922c-1.403,1.812-3.534,1.102-5.313,2.274
		c5.015,3.641,11.086,4.316,16.279,6.738c-0.626,2.108-2.552,2.014-3.621,3.265c4.383,2.644,9.348,1.927,13.959,2.876
		c1.517,0.313,3.651-0.486,4.434,1.408c0.743,1.797-2.377,2.008-2.168,3.88c7.475,0.708,14.742-0.272,21.839-2.125
		c9.619-2.511,17.903-7.093,22.892-16.294c1.996-3.683,1.872-6.418-1.498-9.526c-11.337-10.457-23.963-19.062-37.168-26.88
		c-6.748-3.995-13.627-7.766-20.6-11.724c2-0.76,3.51-0.025,5.072,0.579c20.26,7.831,39.473,17.593,56.893,30.69
		c6.452,4.851,9.218,4.385,14.383-2.218c2.88-3.683,4.489-7.84,4.237-12.498c-0.744-13.752-7.962-24.229-16.957-34.045
		c-1.463,1.647-1.154,3.623-2.95,4.78c-3.917-3.626-6.869-8.396-11.585-11.467c-0.852,1.843,0.021,4.412-1.925,5.078
		c-2.133,0.73-2.666-1.954-3.998-3.007c-2.277-1.801-4.339-3.894-7.24-5.065c-0.351,2.164,0.379,4.499-1.61,5.366
		c-1.837,0.801-2.745-1.403-4.015-2.312c-2.796-2.002-5.512-4.104-9.077-5.088c-0.033,1.966,2.374,3.514,0.652,5.167
		c-1.953,1.876-3.236-0.651-4.745-1.23C371.122,367.739,367.955,365.78,364.142,365.833z M528.909,365.893
		c-3.846-0.278-6.986,1.806-10.396,3.029c-1.58,0.567-2.786,3.063-4.786,1.492c-2.099-1.65,0.677-3.436,0.516-5.456
		c-4.09,1.52-7.375,3.723-10.363,6.39c-2.501,2.232-3.688,1.323-4.254-1.606c-0.155-0.803,0.816-1.992-0.791-2.479
		c-3.005,1.773-5.733,3.943-8.012,6.621c-2.039,2.396-3.187,1.908-3.824-0.958c-0.199-0.896,0.385-1.973-0.801-2.854
		c-4.713,2.913-7.267,8.255-11.601,11.334c-1.923-1.036-0.853-3.508-3.03-4.246c-7.777,8.214-13.825,17.42-16.267,28.631
		c-2.049,9.404,1.893,18.115,9.754,22.697c2.012,1.172,3.348,1.138,5.248-0.373c18.536-14.74,39.38-25.339,61.407-33.737
		c1.438-0.548,2.953-1.94,5.357-0.735c-2.622,1.408-4.802,2.563-6.968,3.744c-16.972,9.257-33.538,19.125-48.264,31.802
		c-8.933,7.69-9.14,11.472-0.776,19.938c1.987,2.012,4.248,3.705,6.758,5.081c10.376,5.685,21.577,7.05,33.336,6.781
		c-0.385-1.988-3.323-2.34-2.511-4.152c0.731-1.632,2.933-1.071,4.471-1.326c4.542-0.751,9.313-0.282,13.776-2.65
		c-0.844-1.506-3.262-1.387-3.276-3.437c5.21-2.556,11.406-2.927,16.446-7.154c-2.219-0.462-4.21-0.117-5.561-2.034
		c4.963-3.506,11.194-5.048,15.386-9.799c-1.752-1.177-4.131-0.167-5.454-2.274c4.345-3.095,8.82-5.911,12.417-10.13
		c-2.032-0.796-4.044-0.067-5.71-1.542c3.103-4.3,8.323-6.852,10.679-12.158c-2.678-0.252-5.288,1.507-7.36-1.169
		c3.025-4.086,8.321-6.238,10.065-11.496c-7.744-0.135-8.117-0.855-4.232-7.955c0.479-0.875,0.994-1.741,1.591-2.537
		c1.93-2.577,1.435-3.639-1.898-3.747c-4.188-0.135-8.476,0.523-12.601-0.766c0.489-1.95,2.879-2.313,2.558-4.485
		c-5.372-0.706-10.613-0.307-15.754,1.343c-1.107,0.355-2.349,0.979-3.257-0.06c-1.183-1.353,0.123-2.406,0.794-3.487
		c0.321-0.518,0.628-1.044,1.143-1.902c-4.563,0.511-8.53,1.643-12.497,2.849c-0.945,0.287-2.209,1.464-3.111,0.007
		c-0.769-1.243,0.244-2.141,0.979-3.059c0.396-0.493,0.612-1.128,0.908-1.703c0.404-0.198,0.807-0.396,1.21-0.594
		c-0.121-0.101-0.292-0.312-0.355-0.283C529.622,365.459,529.27,365.686,528.909,365.893z M539.151,560.203
		c0.09-20.896-14.406-41.312-34.166-48.117c-24.335-8.382-46.681,5.474-49.179,30.832c-1.731,17.573,5.397,31.779,18.392,43.113
		c8.929,7.787,19.496,12.518,31.486,11.437C526.77,595.565,539.061,581.469,539.151,560.203z M438.1,549.361
		c0.031-22.064-14.78-37.509-35.88-37.416c-30.193,0.134-54.941,33.823-46.145,62.814c4.775,15.736,20.286,26.544,36.017,25.098
		C417.545,597.516,438.063,574.996,438.1,549.361z M448.333,672.247c4.692,0.21,10.481-1.013,16.154-3.154
		c26.922-10.163,35.293-43.014,16.045-63.136c-13.578-14.193-36.044-18.26-53.843-9.742c-19.716,9.434-28.627,29.789-21.596,49.336
		C410.759,661.307,427.998,672.302,448.333,672.247z M561.145,635.795c0.196-5.115-0.315-10.57-2.036-15.839
		c-4.132-12.655-12.548-16.679-24.231-10.294c-22.771,12.441-37.473,31.125-40.759,57.479c-1.77,14.192,6.151,21.105,20.422,20.416
		C535.775,686.529,562.976,662.229,561.145,635.795z M330.625,634.455c0.318,11.848,3.616,23.449,11.795,32.993
		c10.505,12.257,23.337,20.2,40.395,18.63c7.056-0.65,10.675-4.086,12.298-10.893c1.454-6.1,0.499-11.997-1.22-17.68
		c-6.794-22.451-21.201-37.641-44.032-43.967c-8.94-2.477-15.565,1.998-18.215,10.887
		C330.72,627.534,330.919,630.672,330.625,634.455z M447.617,508.063c13.806-0.052,24.278-2.647,31.92-7.936
		c8.75-6.056,9.842-14.467,2.797-22.49c-4.466-5.085-10.03-8.649-16.234-11.311c-19.195-8.234-41.5-3.803-54.992,10.987
		c-5.729,6.279-5.652,12.343,0.194,18.466c2.085,2.184,4.42,3.977,7.073,5.458C427.486,506.329,437.35,508.028,447.617,508.063z
		 M449.589,684.932c-13.238,0.136-26.168,1.939-38.11,8.03c-9.13,4.656-9.755,9.201-2.736,16.492
		c20.77,21.579,55.023,21.308,75.653-0.599c7.989-8.482,6.977-13.623-3.632-18.367c-0.755-0.337-1.56-0.563-2.342-0.836
		C469.091,686.387,459.484,684.824,449.589,684.932z M341.3,560.409c0.016-5.821,0.209-11.672-1.544-17.321
		c-1.854-5.976-5.8-7.741-10.496-4.824c-21.008,13.054-27.77,41.382-14.858,62.682c2.46,4.06,4.821,9.72,9.953,9.478
		c5.714-0.27,7.703-6.294,9.552-11.073C338.746,586.846,341.196,573.84,341.3,560.409z M550.673,558.408
		c-0.033,5.83,0.339,11.637,1.362,17.373c1.722,9.659,3.647,19.305,8.74,27.875c4.503,7.578,8.109,7.748,13.496,0.999
		c16.798-21.044,11.492-52.706-11.258-67.187c-4.71-2.998-7.908-1.902-10.148,3.279
		C550.402,546.442,550.796,552.449,550.673,558.408z M338.086,517.342c-0.106,6.019,1.51,7.086,7.168,4.6
		c1.819-0.799,3.581-1.761,5.283-2.792c13.295-8.047,24.926-18.207,36.209-28.78c4.73-4.433,9.275-9.095,12.743-14.626
		c2.437-3.886,1.737-5.268-2.885-5.619c-3.804-0.289-7.643-0.292-11.461-0.191C358.22,470.646,338.562,490.479,338.086,517.342z
		 M505.37,471.001c-1.829,0-3.666-0.111-5.483,0.027c-2.394,0.183-5.568-0.607-6.704,1.986c-1.096,2.499,1.334,4.542,2.768,6.54
		c0.193,0.269,0.43,0.507,0.646,0.76c13.841,16.163,29.98,29.634,48.029,40.838c1.945,1.208,4.135,2.16,6.339,2.775
		c2.357,0.658,4.406,0.152,4.21-3.057c-0.222-3.64-0.017-7.37-0.749-10.906C549.3,485.204,531.131,470.82,505.37,471.001z"/>
	<path fill-rule="evenodd" clip-rule="evenodd" fill="#FFFFFF" d="M711.52,533.66c15.415,5.165,20.863,16.254,20.695,31.006
		c-0.077,6.814-0.118,13.613,1.583,20.32c0.71,2.804,1.802,5.303,3.48,7.604c0.642,0.879,2.162,1.539,1.36,2.867
		c-0.688,1.141-2.12,0.531-3.205,0.539c-6.494,0.055-13.019-0.357-19.473,0.155c-4.81,0.382-6.74-2.188-7.769-5.876
		c-1.657-5.945-2.063-12.094-2.117-18.268c-0.039-4.483,0.535-9.025-0.493-13.439c-2.063-8.869-8.126-13.886-17.92-14.345
		c-7.81-0.366-15.653,0.024-23.474-0.187c-3.563-0.096-3.037,2.117-3.037,4.246c-0.004,14.653-0.103,29.309,0.068,43.96
		c0.035,3.053-0.667,3.991-3.802,3.858c-6.316-0.269-12.654-0.184-18.979-0.039c-2.462,0.057-3.455-0.432-3.449-3.223
		c0.093-41.13,0.083-82.261,0.017-123.391c-0.004-2.531,0.592-3.524,3.317-3.445c19.125,0.552,38.285-0.938,57.391,0.973
		c17.104,1.711,30.562,12.127,34.325,26.591c4.509,17.325-0.732,29.694-16.331,38.567C713.142,532.458,712.632,532.88,711.52,533.66
		z M661.145,504.999c0,5.328,0.047,10.655-0.025,15.982c-0.026,1.913,0.204,3.109,2.626,3.065
		c8.155-0.147,16.342,0.312,24.463-0.243c11.122-0.759,16.852-7,17.061-17.495c0.222-11.152-5.363-17.872-16.281-19.514
		c-8.281-1.246-16.624-0.229-24.927-0.625c-2.641-0.126-2.98,1.195-2.941,3.348C661.213,494.676,661.149,499.838,661.145,504.999z"
		/>
	<path fill-rule="evenodd" clip-rule="evenodd" fill="#FFFFFF" d="M1075.016,509.51c13.72-18.283,45.71-15.13,55.467,9.122
		c7.34,18.244,7.812,36.882,1.794,55.528c-9.061,28.076-45.167,31.225-58.73,10.75c-0.473,2.005-1.281,3.658-1.162,5.242
		c0.439,5.836-2.858,6.305-7.439,5.945c-4.305-0.337-8.664-0.213-12.986-0.018c-2.493,0.112-3.005-0.812-3.001-3.129
		c0.062-44.314,0.062-88.627-0.006-132.941c-0.003-2.383,0.631-3.144,3.05-3.084c6.327,0.158,12.667,0.224,18.987-0.02
		c3.188-0.123,4.169,0.701,4.121,4.042c-0.207,14.157-0.092,28.319-0.095,42.479C1075.015,505.049,1075.016,506.67,1075.016,509.51z
		 M1075.019,548.172c0,5.823,0.028,11.646-0.017,17.468c-0.015,1.862,0.077,3.61,1.328,5.159c4.738,5.87,11.076,7.631,18.229,6.91
		c7.038-0.709,11.61-4.704,13.402-11.501c3.242-12.301,3.321-24.66-0.816-36.751c-4.396-12.849-20.004-15.832-29.219-5.845
		c-2.007,2.175-3.073,4.513-2.961,7.594C1075.17,536.855,1075.023,542.516,1075.019,548.172z"/>
	<path fill-rule="evenodd" clip-rule="evenodd" fill="#FFFFFF" d="M971.104,510.014c14.777-15.159,35.263-16.226,48.334-2.767
		c6.541,6.735,10.146,15.042,11.902,24.205c2.603,13.575,2.83,27.115-1.41,40.39c-6.334,19.831-23.001,29.567-42.508,25.192
		c-5.877-1.318-10.591-4.527-15.418-9.676c0,4.352,0,7.889,0,11.426c0,10.158-0.104,20.319,0.065,30.476
		c0.048,2.901-0.425,4.096-3.727,3.925c-6.146-0.317-12.333-0.332-18.477,0.004c-3.545,0.193-3.932-1.23-3.926-4.228
		c0.084-41.802,0.104-83.603-0.031-125.404c-0.011-3.45,1.085-4.162,4.204-4.014c4.985,0.236,10.002,0.281,14.981-0.007
		c3.581-0.208,5.296,0.714,5.029,4.602C970.002,505.904,970.693,507.728,971.104,510.014z M1007.022,551.702
		c-0.043-9.659-0.761-16.878-3.89-23.662c-5.354-11.605-20.348-13.782-28.783-4.216c-1.602,1.817-2.43,3.699-2.403,6.236
		c0.129,12.143,0.098,24.288,0.02,36.43c-0.014,2.109,0.465,3.824,1.828,5.452c7.931,9.476,24.595,7.529,29.809-3.618
		C1006.395,562.354,1007.094,555.924,1007.022,551.702z"/>
	<path fill-rule="evenodd" clip-rule="evenodd" fill="#FFFFFF" d="M1519.996,531.52c0-20.481,0.077-40.963-0.077-61.443
		c-0.025-3.277,0.86-4.133,4.116-4.097c16.649,0.185,33.304-0.064,49.951,0.195c10.42,0.162,20.523,2.243,29.195,8.464
		c14.812,10.625,19.153,25.526,15.644,42.668c-3.288,16.063-14.263,25.33-29.651,29.636c-11.737,3.284-23.807,1.819-35.748,2.036
		c-7.399,0.135-7.401,0.024-7.401,7.668c0,11.656-0.199,23.317,0.111,34.965c0.104,3.922-1.135,4.682-4.706,4.495
		c-5.812-0.304-11.663-0.3-17.476,0.001c-3.382,0.176-4.052-0.986-4.03-4.145C1520.064,571.816,1519.995,551.668,1519.996,531.52z
		 M1546.021,507.379c0,6.166-0.005,12.331,0.003,18.496c0.002,1.467-0.32,3.175,2.058,3.071c10.131-0.443,20.342,1.091,30.398-0.925
		c9.704-1.945,15.772-10.373,15.394-20.893c-0.388-10.793-6.733-18.619-16.439-20.177c-9.608-1.542-19.294-0.36-28.935-0.766
		c-2.583-0.109-2.497,1.431-2.488,3.199C1546.044,495.382,1546.025,501.381,1546.021,507.379z"/>
	<path fill-rule="evenodd" clip-rule="evenodd" fill="#FFFFFF" d="M1415.581,560.363c5.78-19.115,11.525-37.743,16.967-56.458
		c0.959-3.299,2.137-4.583,5.702-4.404c6.645,0.333,13.322,0.231,19.978,0.045c2.883-0.08,3.801,0.39,2.711,3.455
		c-12.789,35.983-25.27,72.078-38.349,107.956c-3.542,9.717-8.975,18.64-19.853,22.291c-7.325,2.459-14.68,2.185-22.097,0.554
		c-2.081-0.458-3.12-1.346-2.67-3.749c0.856-4.563,1.509-9.166,2.124-13.77c0.268-2.006,1.347-2.193,3.097-2.198
		c11.292-0.034,18.568-6.382,20.289-17.487c0.247-1.591-0.544-2.87-1.029-4.236c-10.403-29.289-20.756-58.597-31.327-87.825
		c-1.541-4.259-0.775-5.279,3.669-5.028c6.308,0.356,12.66,0.282,18.977,0.013c3.063-0.13,4.327,0.976,5.115,3.792
		c5.127,18.307,10.382,36.578,15.615,54.854C1414.673,558.777,1415.063,559.327,1415.581,560.363z"/>
	<path fill-rule="evenodd" clip-rule="evenodd" fill="#FFFFFF" d="M836.465,596.016c-8.512,0-16.454-0.082-24.393,0.053
		c-2.181,0.037-2.44-1.543-2.846-2.783c-1.072-3.275-1.86-6.643-2.838-10.258c-2.137,1.06-2.96,3.367-4.422,5.002
		c-11.967,13.38-36.8,13.247-47.326-0.33c-13.686-17.652-4.481-41.326,18.105-46.695c9.663-2.298,19.477-2.197,29.279-1.917
		c3.333,0.095,4.427-0.921,4.013-4.132c-0.232-1.803,0.044-3.667-0.099-5.488c-0.55-6.987-4.92-11.727-11.373-12.445
		c-8.914-0.993-13.343,1.449-15.744,9.05c-0.585,1.852-1.425,2.283-3.148,2.258c-6.661-0.097-13.324-0.172-19.983-0.081
		c-2.284,0.031-2.868-0.865-2.669-2.944c0.437-4.565,1.819-8.759,4.596-12.435c3.476-4.6,7.793-8.34,13.07-10.548
		c14.229-5.956,28.719-6.585,43.027-0.421c12.006,5.173,18.069,14.679,18.311,27.748c0.15,8.158,0.043,16.322,0.074,24.482
		C832.15,568.058,831.146,582.083,836.465,596.016z M795.446,553.943c-3.652,0.112-8.012-0.445-12.154,1.254
		c-6.07,2.49-9.515,8.886-8.27,15.375c0.913,4.758,5.603,8.158,11.671,8.066c6.186-0.095,11.653-2.177,16.106-6.663
		c2.213-2.229,3.307-4.669,3.267-7.95C805.947,553.945,806.07,553.944,795.446,553.943z"/>
	<path fill-rule="evenodd" clip-rule="evenodd" fill="#FFFFFF" d="M1204.522,555.771c-8.333,0-16.671,0.164-24.997-0.078
		c-3.47-0.102-3.85,1.145-3.194,4.073c2.716,12.126,10.682,18.434,23.19,18.104c7.581-0.2,14.869-1.808,21.457-5.61
		c3.069-1.771,4.247-0.988,5.168,2.076c0.615,2.044,1.771,3.922,2.641,5.893c3.171,7.188,3.176,7.215-4.183,10.938
		c-13.398,6.778-27.569,8.681-42.136,5.444c-18.803-4.179-32.182-20.895-33.365-41.084c-0.861-14.683,0.535-28.887,9.616-41.338
		c10.335-14.171,28.74-20.003,47.368-14.816c15.405,4.29,25.201,16.935,27.105,34.478c0.65,5.996,0.433,11.979,0.715,17.962
		c0.143,3.018-0.741,4.095-3.887,4.023C1221.525,555.643,1213.022,555.771,1204.522,555.771z M1191.66,538.148
		c4.488,0,8.978,0.038,13.465-0.026c1.158-0.016,2.487,0.579,2.952-1.569c1.834-8.481-5.163-18.064-13.761-18.546
		c-9.765-0.546-18.287,8.087-18.228,18.268c0.013,2.262,1.378,1.845,2.606,1.856C1183.016,538.171,1187.338,538.146,1191.66,538.148
		z"/>
	<path fill-rule="evenodd" clip-rule="evenodd" fill="#FFFFFF" d="M915.604,528.976c-2,0-4.015-0.161-5.996,0.033
		c-4.089,0.4-6.841-0.023-7.777-5.222c-0.862-4.787-5.138-7.217-9.957-7.722c-5.774-0.605-11.479-0.366-15.263,5.038
		c-3.381,4.827-1.551,10.966,4.089,13.786c4.483,2.241,9.419,3.071,14.272,4.125c7.467,1.621,14.806,3.619,21.471,7.535
		c16.022,9.415,17.552,30.904,2.835,42.282c-11.372,8.792-24.609,10.176-38.364,8.667c-11.366-1.245-21.075-5.725-28.13-15.098
		c-3.081-4.092-4.83-8.632-5.168-13.771c-0.164-2.484,0.411-3.624,3.221-3.529c5.826,0.195,11.664,0.045,17.497,0.065
		c1.44,0.005,2.847-0.302,3.584,1.739c4.068,11.258,11.215,15.271,22.315,12.732c5.998-1.37,9.318-4.512,9.734-9.21
		c0.375-4.247-2.47-8.098-7.856-10.366c-6.909-2.91-14.412-3.727-21.515-5.982c-4.281-1.358-8.448-2.961-12.287-5.277
		c-14.824-8.951-16.746-28.099-4.083-40.43c5.67-5.521,12.56-8.638,20.313-9.753c11.894-1.711,23.659-1.325,34.452,4.58
		c8.731,4.777,14.794,11.729,15.279,22.382c0.114,2.495-0.347,3.676-3.172,3.456C921.952,528.787,918.771,528.977,915.604,528.976z"
		/>
	<path fill-rule="evenodd" clip-rule="evenodd" fill="#FFFFFF" d="M1274.336,512.975c5.45-10.057,12.23-16.034,23.506-15.099
		c3.542,0.294,4.638,1.534,4.154,4.923c-0.799,5.594-1.466,11.211-1.992,16.838c-0.194,2.065-1.194,2.41-2.931,2.371
		c-3.33-0.075-6.675-0.208-9.993,0.014c-7.338,0.49-12.179,5.729-12.179,12.944c0,18.996-0.066,37.993,0.085,56.987
		c0.026,3.227-0.789,4.293-4.114,4.15c-6.32-0.271-12.663-0.182-18.991-0.027c-2.406,0.059-3.091-0.686-3.084-3.081
		c0.075-29.993,0.076-59.986,0.007-89.979c-0.006-2.491,0.476-3.579,3.279-3.474c5.824,0.218,11.663,0.144,17.493,0.027
		c2.338-0.047,3.67,0.26,3.654,3.142C1273.213,505.807,1273.864,508.908,1274.336,512.975z"/>
	<path fill-rule="evenodd" clip-rule="evenodd" fill="#FFFFFF" d="M1338.194,512.529c1.587-2.326,2.635-3.95,3.771-5.511
		c5.028-6.906,11.739-9.925,20.312-9.092c2.971,0.289,4.133,1.307,3.708,4.352c-0.804,5.76-1.468,11.542-2.04,17.33
		c-0.198,2.003-1.163,2.451-2.942,2.404c-3.329-0.089-6.674-0.212-9.991,0.011c-7.389,0.497-12.165,5.681-12.165,12.947
		c0,18.993-0.077,37.987,0.078,56.979c0.027,3.251-0.803,4.291-4.116,4.152c-6.32-0.265-12.662-0.178-18.989-0.024
		c-2.412,0.059-3.08-0.694-3.074-3.092c0.074-29.988,0.072-59.978-0.002-89.967c-0.006-2.509,0.505-3.573,3.294-3.475
		c5.99,0.21,11.997,0.187,17.989,0.006c2.489-0.075,3.049,0.872,3.12,3.13C1337.241,505.663,1337.756,508.634,1338.194,512.529z"/>
	<path fill-rule="evenodd" clip-rule="evenodd" fill="#FFFFFF" d="M1664.102,547.992c0.007,14.653-0.076,29.307,0.074,43.958
		c0.032,3.103-0.591,4.329-4.005,4.159c-6.145-0.307-12.32-0.197-18.476-0.033c-2.622,0.07-3.752-0.369-3.74-3.428
		c0.121-29.805,0.104-59.611,0.015-89.416c-0.008-2.735,0.614-3.786,3.546-3.685c6.153,0.212,12.337,0.33,18.474-0.055
		c3.854-0.242,4.208,1.334,4.174,4.542C1664.007,518.686,1664.094,533.34,1664.102,547.992z"/>
	<path fill-rule="evenodd" clip-rule="evenodd" fill="#FFFFFF" d="M1650.952,456.837c4.43,0.653,10.104-1.822,12.543,1.075
		c2.066,2.454,0.573,7.935,0.592,12.077c0.031,6.537,0.009,6.541-6.577,6.551c-5.324,0.009-10.654-0.139-15.971,0.068
		c-2.918,0.114-3.905-0.967-3.536-3.73c0.131-0.98,0.001-1.994,0.025-2.992c0.1-4.126-1.363-9.64,0.73-12.019
		C1641.235,455.053,1646.892,457.51,1650.952,456.837z"/>
	<path fill-rule="evenodd" clip-rule="evenodd" fill="#FFFFFF" d="M363.55,366.519c-0.299-0.381-0.598-0.763-0.897-1.144
		c0.62-0.249,1.136-0.159,1.489,0.458C363.95,366.065,363.752,366.294,363.55,366.519z"/>
	<path fill-rule="evenodd" clip-rule="evenodd" fill="#FFFFFF" d="M528.909,365.893c0.36-0.208,0.712-0.434,1.089-0.604
		c0.063-0.028,0.234,0.183,0.355,0.283c-0.403,0.198-0.807,0.396-1.209,0.595C529.146,366.169,528.909,365.893,528.909,365.893z"/>
</g>
</svg>
