<?xml version="1.0" encoding="utf-8"?>
<!-- Generator: Adobe Illustrator 16.0.0, SVG Export Plug-In . SVG Version: 6.00 Build 0)  -->
<!DOCTYPE svg PUBLIC "-//W3C//DTD SVG 1.1//EN" "http://www.w3.org/Graphics/SVG/1.1/DTD/svg11.dtd">
<svg version="1.1" id="Layer_1" xmlns="http://www.w3.org/2000/svg" xmlns:xlink="http://www.w3.org/1999/xlink" x="0px" y="0px"
	 width="50px" height="50px" viewBox="0 0 50 50" enable-background="new 0 0 50 50" xml:space="preserve">
<path fill-rule="evenodd" clip-rule="evenodd" fill="#DD234F" d="M13.881,14.645c-0.138-0.039-0.269-0.077-0.398-0.113
	c-0.468-0.138-0.896-0.343-1.125-0.813c-0.008-0.011-0.015-0.022-0.019-0.035c-0.031-0.334-0.282-0.416-0.552-0.512
	c-0.598-0.209-1.025-0.595-1.225-1.218c-0.049-0.147-0.166-0.277-0.271-0.4c-0.26-0.314-0.553-0.602-0.791-0.93
	c-0.099-0.138-0.141-0.347-0.131-0.521c0.009-0.159-0.049-0.235-0.158-0.325C8.878,9.502,8.627,9.169,8.573,8.723
	C8.557,8.569,8.561,8.406,8.589,8.254c0.03-0.167-0.002-0.272-0.137-0.383C8.17,7.64,7.963,7.347,7.888,6.979
	C7.85,6.787,7.859,6.596,7.978,6.436c0.073-0.097,0.045-0.162,0-0.252c-0.144-0.279-0.296-0.557-0.399-0.85
	C7.459,4.993,7.58,4.672,7.775,4.389c0.073-0.108,0.062-0.191,0.029-0.31C7.734,3.828,7.65,3.562,7.668,3.308
	c0.039-0.64,0.503-1.072,1.178-1.146c0.199-0.019,0.401-0.003,0.604-0.017c0.06-0.002,0.141-0.026,0.174-0.066
	c0.344-0.467,0.845-0.612,1.383-0.671c0.231-0.026,0.467-0.007,0.701-0.014c0.064-0.003,0.147-0.009,0.188-0.051
	c0.39-0.378,0.856-0.409,1.358-0.345c0.054,0.007,0.13-0.004,0.17-0.038c0.572-0.495,1.2-0.479,1.854-0.199
	c0.103,0.044,0.195,0.077,0.296-0.006c0.562-0.461,1.141-0.307,1.716-0.036c0.162,0.079,0.303,0.1,0.48,0.049
	c0.414-0.123,0.811-0.071,1.17,0.183c0.247,0.178,0.499,0.274,0.822,0.234c0.432-0.057,0.817,0.107,1.149,0.392
	c0.08,0.068,0.17,0.134,0.232,0.219c0.213,0.283,0.476,0.431,0.839,0.366c0.064-0.011,0.145,0.031,0.21,0.065
	c0.875,0.472,1.537,1.17,1.999,2.036c0.315,0.592,0.554,1.222,0.827,1.836c0.022,0.052,0.041,0.101,0.076,0.19
	c0.112-0.259,0.205-0.483,0.308-0.703c0.448-0.98,0.973-1.91,1.742-2.677c0.204-0.203,0.44-0.376,0.665-0.562
	c0.183-0.147,0.388-0.231,0.625-0.189c0.184,0.029,0.309-0.047,0.426-0.178c0.125-0.145,0.266-0.271,0.407-0.395
	c0.342-0.307,0.748-0.463,1.201-0.4c0.29,0.039,0.513-0.058,0.734-0.207c0.217-0.145,0.447-0.273,0.715-0.264
	c0.182,0.004,0.365,0.02,0.539,0.063c0.152,0.04,0.279,0.034,0.416-0.032c0.111-0.058,0.229-0.104,0.343-0.157
	c0.499-0.226,0.966-0.167,1.41,0.146c0.062,0.042,0.171,0.064,0.229,0.039c0.716-0.325,1.414-0.251,2.089,0.109
	c0.188,0.103,0.363,0.117,0.57,0.093c0.227-0.025,0.471-0.025,0.691,0.021c0.152,0.034,0.315,0.143,0.417,0.266
	c0.096,0.118,0.184,0.139,0.314,0.129c0.479-0.025,0.955-0.003,1.387,0.213c0.215,0.106,0.406,0.272,0.58,0.437
	c0.084,0.078,0.142,0.11,0.255,0.104c0.533-0.034,1.027,0.063,1.354,0.536c0.296,0.429,0.261,0.896,0.078,1.355
	c-0.063,0.153-0.063,0.279-0.005,0.429c0.142,0.347,0.263,0.705,0.134,1.081c-0.076,0.228-0.211,0.438-0.318,0.658
	c-0.026,0.058-0.071,0.129-0.058,0.182c0.121,0.454-0.008,0.859-0.217,1.253c-0.019,0.033-0.032,0.068-0.058,0.099
	c-0.227,0.275-0.315,0.574-0.294,0.946c0.028,0.489-0.274,0.847-0.648,1.134c-0.093,0.07-0.133,0.14-0.144,0.262
	c-0.062,0.691-0.444,1.193-1.017,1.549c-0.21,0.131-0.345,0.278-0.427,0.514c-0.201,0.57-0.672,0.857-1.207,1.062
	c-0.083,0.031-0.174,0.045-0.25,0.087c-0.058,0.033-0.13,0.084-0.147,0.143c-0.149,0.595-0.578,0.889-1.121,1.063
	c-0.167,0.055-0.337,0.098-0.538,0.158c0.264,0.164,0.501,0.308,0.733,0.455c0.802,0.515,1.522,1.12,2.104,1.883
	c0.737,0.964,1.16,2.059,1.338,3.246c0.09,0.615,0.107,1.24,0.159,1.862c0.004,0.049,0.002,0.108,0.027,0.146
	c0.178,0.254,0.319,0.529,0.599,0.715c0.911,0.596,1.585,1.418,2.121,2.351c0.521,0.907,0.844,1.883,0.955,2.925
	c0.126,1.2-0.057,2.36-0.534,3.469c-0.363,0.838-0.866,1.578-1.475,2.253c-0.106,0.117-0.189,0.266-0.243,0.415
	c-0.344,1.006-0.688,2.011-1.006,3.025c-0.142,0.448-0.199,0.923-0.325,1.374c-0.514,1.838-1.573,3.307-3.084,4.458
	c-0.522,0.399-1.078,0.742-1.714,0.94c-0.051,0.014-0.103,0.047-0.143,0.085c-1.369,1.162-2.907,2.031-4.58,2.673
	c-0.191,0.074-0.367,0.212-0.522,0.354c-1.12,1.037-2.387,1.818-3.886,2.156c-2.583,0.583-4.921,0.041-7.01-1.583
	c-0.208-0.164-0.421-0.326-0.601-0.518c-0.229-0.241-0.502-0.389-0.808-0.504c-1.582-0.604-3.028-1.451-4.328-2.546
	c-0.058-0.045-0.118-0.098-0.185-0.12c-1.059-0.352-1.913-1.014-2.684-1.786c-0.893-0.897-1.565-1.94-1.966-3.146
	c-0.155-0.469-0.238-0.965-0.372-1.438c-0.146-0.514-0.326-1.017-0.467-1.533c-0.174-0.638-0.318-1.279-0.485-1.92
	c-0.033-0.127-0.091-0.261-0.173-0.362c-0.789-0.958-1.363-2.028-1.627-3.246c-0.323-1.493-0.189-2.951,0.365-4.377
	c0.476-1.22,1.174-2.282,2.165-3.145c0.069-0.062,0.141-0.129,0.222-0.175c0.318-0.174,0.502-0.473,0.68-0.768
	c0.039-0.064,0.044-0.154,0.044-0.235c0.009-0.839,0.099-1.669,0.295-2.488c0.413-1.729,1.354-3.101,2.807-4.124
	C13.059,15.153,13.464,14.912,13.881,14.645z M34.697,14.041c-0.088-0.069-0.185-0.132-0.262-0.21
	c-0.09-0.097-0.166-0.207-0.246-0.312c0.117-0.053,0.231-0.137,0.354-0.152c0.421-0.051,0.851-0.072,1.276-0.118
	c0.329-0.036,0.651-0.105,0.974-0.296c-0.305-0.045-0.532-0.153-0.71-0.393c0.756-0.216,1.474-0.47,2.155-0.888
	c-0.548-0.053-0.548-0.053-0.631-0.25c0.749-0.398,1.567-0.685,2.234-1.313c-0.352-0.01-0.656,0.016-0.945-0.196
	c0.56-0.49,1.103-0.964,1.683-1.472c-0.337,0.031-0.63,0.24-0.904-0.045c0.518-0.532,1.133-0.963,1.478-1.667
	c-0.206,0.039-0.389,0.075-0.573,0.105c-0.191,0.031-0.372,0.006-0.547-0.157c0.507-0.503,1.139-0.911,1.309-1.682
	c-0.303,0-0.604,0-0.961,0c0.155-0.324,0.275-0.618,0.433-0.894c0.156-0.274,0.354-0.527,0.551-0.818c-0.767,0-1.497,0-2.224,0
	c-0.014-0.021-0.03-0.042-0.044-0.063c0.182-0.155,0.365-0.312,0.547-0.467c-0.008-0.022-0.013-0.044-0.021-0.068
	c-0.237-0.037-0.476-0.095-0.716-0.112c-0.54-0.032-1.042,0.158-1.55,0.303c-0.114,0.033-0.232,0.049-0.271-0.071
	c-0.021-0.068,0.032-0.188,0.086-0.254c0.098-0.12,0.226-0.217,0.341-0.325c-0.012-0.018-0.022-0.031-0.033-0.047
	c-0.658,0.178-1.313,0.358-1.977,0.539c-0.098-0.227,0.037-0.358,0.165-0.491c0.122-0.126,0.246-0.254,0.371-0.378
	c-0.012-0.014-0.024-0.027-0.037-0.045c-0.765,0.221-1.527,0.454-2.192,0.922c-0.384-0.371,0.021-0.611,0.136-0.916
	c-0.699,0.251-1.262,0.698-1.838,1.1c-0.341-0.22-0.457-0.495-0.246-0.889c-0.654,0.278-1.09,0.736-1.461,1.261
	c-0.322-0.242-0.232-0.567-0.207-0.934c-0.517,0.591-0.995,1.14-1.497,1.711c-0.084-0.264-0.151-0.487-0.222-0.718
	c-0.012,0.005-0.031,0.013-0.042,0.023c-1.07,1.032-1.857,2.236-2.163,3.713c-0.263,1.281,0.221,2.33,1.32,2.945
	c0.123,0.067,0.194,0.052,0.296-0.034c0.836-0.712,1.739-1.334,2.687-1.894c1.762-1.041,3.624-1.865,5.524-2.61
	c0.363-0.143,0.729-0.276,1.093-0.413c-0.044,0.058-0.097,0.088-0.151,0.119c-1.782,0.941-3.543,1.925-5.209,3.063
	c-1.152,0.789-2.253,1.643-3.208,2.67c-0.087,0.095-0.109,0.173-0.072,0.295c0.314,1.03,1.009,1.714,1.956,2.159
	C31.833,14,33.251,14.064,34.697,14.041z M11.895,11.662c0.687,0.601,1.588,0.733,2.45,1.123c-0.255,0.146-0.468,0.269-0.675,0.387
	c0.093,0.026,0.199,0.073,0.311,0.084c0.531,0.065,1.063,0.119,1.594,0.184c0.081,0.008,0.161,0.039,0.251,0.063
	c-0.059,0.307-0.303,0.412-0.543,0.582c1.541,0.123,2.99-0.02,4.339-0.722c0.89-0.462,1.527-1.16,1.826-2.139
	c0.039-0.122,0.019-0.203-0.072-0.299c-0.958-1.031-2.064-1.888-3.222-2.677c-1.671-1.144-3.435-2.131-5.226-3.074
	c-0.061-0.032-0.122-0.069-0.183-0.105c1.767,0.536,3.463,1.23,5.093,2.088c1.532,0.805,2.985,1.733,4.31,2.854
	c0.046,0.039,0.146,0.067,0.191,0.045c0.709-0.351,1.242-0.857,1.459-1.645c0.163-0.608,0.082-1.211-0.089-1.805
	c-0.24-0.835-0.652-1.581-1.159-2.277c-0.255-0.349-0.542-0.67-0.813-1.006c-0.071,0.267-0.003,0.531-0.191,0.724
	c-0.51-0.565-1.012-1.117-1.512-1.671c0.021,0.71,0.035,0.747-0.211,0.884c-0.43-0.417-0.853-0.827-1.274-1.236
	c-0.015,0.01-0.03,0.017-0.044,0.025c0.075,0.331,0.075,0.639-0.236,0.859c-0.588-0.405-1.146-0.848-1.84-1.097
	c0.119,0.307,0.521,0.545,0.134,0.919c-0.637-0.51-1.344-0.841-2.16-0.899c0.063,0.077,0.134,0.138,0.204,0.198
	c0.112,0.101,0.249,0.188,0.325,0.311c0.048,0.074,0.027,0.21-0.002,0.308c-0.04,0.127-0.149,0.053-0.225,0.033
	c-0.239-0.065-0.472-0.145-0.707-0.209c-0.356-0.096-0.715-0.182-1.068-0.273c0.129,0.138,0.256,0.255,0.356,0.396
	c0.036,0.054,0.019,0.18-0.022,0.235c-0.03,0.047-0.141,0.064-0.208,0.053c-0.401-0.067-0.802-0.177-1.208-0.211
	c-0.361-0.033-0.73,0.012-1.099,0.023c-0.001,0.021-0.008,0.04-0.009,0.062c0.174,0.233,0.345,0.469,0.543,0.737
	c-0.778,0-1.512,0-2.234,0C9.303,4.053,9.55,4.6,9.818,5.185c-0.369,0-0.667,0-1.005,0c0.09,0.155,0.154,0.283,0.235,0.401
	C9.28,5.92,9.616,6.131,9.948,6.355c0.134,0.091,0.257,0.204,0.403,0.322C9.961,6.887,9.605,6.873,9.209,6.713
	c0.39,0.742,1.027,1.225,1.495,1.89c-0.321,0-0.6,0-0.902,0c0.563,0.448,1.105,0.882,1.688,1.347
	c-0.174,0.055-0.312,0.11-0.453,0.137c-0.149,0.026-0.302,0.023-0.452,0.03c-0.006,0.022-0.014,0.044-0.021,0.065
	c0.726,0.42,1.454,0.838,2.18,1.259c0.004,0.014,0.008,0.03,0.014,0.046C12.473,11.544,12.191,11.602,11.895,11.662z M32.495,31.705
	c0.176-0.014,0.441-0.02,0.703-0.063c0.767-0.116,1.469-0.387,2.048-0.929c1.048-0.983,1.498-2.229,1.494-3.631
	c-0.005-1.931-0.688-3.616-2.052-4.987c-1.179-1.183-2.606-1.811-4.305-1.698c-1.332,0.09-2.406,0.689-3.172,1.771
	c-1.009,1.421-1.209,3.008-0.777,4.669c0.377,1.439,1.186,2.62,2.35,3.547C29.839,31.228,31.049,31.675,32.495,31.705z
	 M18.076,32.008c1.415-0.073,2.637-0.622,3.632-1.603c1.522-1.504,2.26-3.34,2.141-5.491c-0.059-1.073-0.407-2.049-1.117-2.866
	c-0.991-1.141-2.263-1.587-3.742-1.405c-1.156,0.145-2.161,0.651-3.06,1.382c-0.566,0.459-1.079,0.975-1.465,1.595
	c-0.453,0.727-0.747,1.524-0.903,2.368c-0.238,1.294-0.144,2.545,0.471,3.731C14.823,31.238,16.385,32.091,18.076,32.008z
	 M25.001,30.927c-1.722,0.046-3.272,0.708-4.407,2.195c-0.783,1.022-1.102,2.201-0.943,3.484c0.151,1.233,0.73,2.271,1.683,3.054
	c1.923,1.586,4.074,1.938,6.375,0.944c2.033-0.877,3.374-2.998,2.989-5.341c-0.188-1.167-0.748-2.131-1.632-2.902
	C27.935,31.379,26.598,30.959,25.001,30.927z M31.305,40.856c0,0.103-0.008,0.204,0,0.303c0.095,1.138,0.509,1.729,1.671,1.96
	c1.02,0.203,1.978-0.014,2.898-0.444c0.934-0.438,1.701-1.097,2.37-1.873c0.585-0.68,1.061-1.421,1.298-2.3
	c0.216-0.789,0.299-1.592,0.253-2.411c-0.052-0.841-0.228-1.649-0.532-2.44c-0.339-0.884-0.979-1.101-1.742-0.991
	c-0.444,0.063-0.854,0.223-1.229,0.455c-1.755,1.093-3.129,2.556-4.092,4.382C31.651,38.541,31.323,39.662,31.305,40.856z
	 M10.383,36.573c0.014,0.155,0.026,0.399,0.058,0.645c0.129,1.073,0.464,2.089,1.049,2.985c0.829,1.271,1.957,2.218,3.414,2.713
	c0.774,0.264,1.566,0.349,2.38,0.168c0.531-0.117,0.915-0.399,1.074-0.92c0.107-0.347,0.199-0.708,0.213-1.066
	c0.042-1.066-0.222-2.078-0.688-3.027c-0.766-1.579-1.97-2.758-3.474-3.637c-0.643-0.373-1.338-0.623-2.098-0.592
	c-0.742,0.035-1.317,0.347-1.631,1.056C10.454,35.403,10.392,35.938,10.383,36.573z M24.98,20.354
	c0.552-0.046,1.106-0.071,1.656-0.144c0.854-0.113,1.674-0.341,2.416-0.801c0.48-0.298,0.888-0.675,1.065-1.233
	c0.22-0.693-0.014-1.3-0.462-1.818c-1.07-1.239-2.473-1.851-4.067-2.05c-0.983-0.12-1.933,0.076-2.844,0.445
	c-0.893,0.364-1.688,0.871-2.299,1.637c-0.609,0.762-0.604,1.469,0.018,2.222c0.373,0.458,0.858,0.773,1.385,1.026
	C22.835,20.114,23.89,20.299,24.98,20.354z M25.724,43.024c-1.391,0.005-2.749,0.196-4.073,0.619
	c-0.596,0.189-1.183,0.408-1.661,0.829c-0.476,0.419-0.473,0.696-0.179,1.13c0.1,0.143,0.211,0.284,0.331,0.411
	c0.666,0.719,1.466,1.246,2.358,1.639c1.236,0.541,2.515,0.647,3.822,0.325c1.088-0.265,2.05-0.792,2.933-1.469
	c0.437-0.333,0.847-0.698,1.153-1.159c0.231-0.346,0.231-0.622-0.05-0.925c-0.187-0.199-0.407-0.385-0.645-0.514
	C28.47,43.237,27.117,43.029,25.724,43.024z M42.271,28.767c-0.011-0.208-0.011-0.415-0.035-0.622
	c-0.219-1.931-1.171-3.384-2.858-4.353c-0.058-0.033-0.126-0.054-0.193-0.061c-0.432-0.044-0.68,0.205-0.857,0.556
	c-0.251,0.492-0.328,1.03-0.36,1.569c-0.078,1.334,0.054,2.655,0.339,3.959c0.186,0.85,0.412,1.686,0.816,2.466
	c0.17,0.318,0.355,0.623,0.663,0.836c0.277,0.188,0.54,0.175,0.786-0.057c0.573-0.543,0.972-1.201,1.255-1.931
	C42.116,30.37,42.268,29.581,42.271,28.767z M11.605,26.604c-0.026-0.303-0.048-0.78-0.105-1.254
	c-0.046-0.409-0.15-0.805-0.393-1.151c-0.2-0.286-0.591-0.423-0.923-0.179c-0.273,0.2-0.562,0.383-0.818,0.604
	c-1.178,1.013-1.844,2.299-1.985,3.842c-0.092,0.999,0.048,1.973,0.424,2.906c0.286,0.721,0.696,1.363,1.265,1.901
	c0.172,0.163,0.358,0.186,0.555,0.094c0.133-0.063,0.281-0.148,0.36-0.264c0.231-0.35,0.485-0.698,0.641-1.082
	C11.298,30.341,11.547,28.576,11.605,26.604z M32.038,15.468c-0.249,0.025-0.726,0.074-1.199,0.124
	c-0.214,0.024-0.284,0.12-0.196,0.324c0.09,0.206,0.202,0.406,0.337,0.587c0.615,0.828,1.349,1.548,2.104,2.247
	c1.203,1.115,2.452,2.177,3.857,3.034c0.334,0.206,0.705,0.367,1.076,0.494c0.346,0.12,0.531-0.035,0.511-0.396
	c-0.032-0.583-0.05-1.174-0.155-1.748c-0.213-1.168-0.741-2.189-1.608-3.014C35.506,15.923,33.965,15.481,32.038,15.468z
	 M11.087,21.412c0,0.091,0,0.178,0,0.266c0.002,0.379,0.159,0.52,0.522,0.414c0.264-0.078,0.524-0.185,0.762-0.317
	c1.021-0.564,1.935-1.279,2.821-2.027c1.24-1.049,2.444-2.134,3.441-3.429c0.138-0.179,0.25-0.39,0.346-0.599
	c0.082-0.193,0.016-0.283-0.187-0.317c-0.915-0.155-1.83-0.169-2.745,0.002c-1.301,0.241-2.438,0.798-3.354,1.767
	C11.572,18.36,11.121,19.808,11.087,21.412z"/>
</svg>
