<?xml version="1.0" encoding="utf-8"?>
<!-- Generator: Adobe Illustrator 16.0.0, SVG Export Plug-In . SVG Version: 6.00 Build 0)  -->
<!DOCTYPE svg PUBLIC "-//W3C//DTD SVG 1.1//EN" "http://www.w3.org/Graphics/SVG/1.1/DTD/svg11.dtd">
<svg version="1.1" id="Layer_1" xmlns="http://www.w3.org/2000/svg" xmlns:xlink="http://www.w3.org/1999/xlink" x="0px" y="0px"
	 width="1920px" height="1080px" viewBox="0 0 1920 1080" enable-background="new 0 0 1920 1080" xml:space="preserve">
<g>
	<line fill="none" stroke="#000000" stroke-miterlimit="10" x1="-8" y1="-9" x2="1912" y2="1071"/>
	<line fill="none" stroke="#000000" stroke-miterlimit="10" x1="1912" y1="-9" x2="-8" y2="1071"/>
</g>
<rect x="-10.295" y="-12.404" fill-rule="evenodd" clip-rule="evenodd" fill="#F6881F" width="1938" height="1098"/>
<g>
	<g>
		<path fill-rule="evenodd" clip-rule="evenodd" fill="#FFFFFF" d="M269.765,465.807c44.128-30.93,87.931-61.631,132.048-92.554
			c2.431,1.611,4.611,3.034,6.768,4.492c13.313,9.002,26.715,17.879,39.91,27.051c21.417,14.887,42.719,29.938,64.02,44.991
			c4.736,3.348,9.191,7.094,13.92,10.455c2.502,1.778,5.312,3.123,8.361,4.883c-7.88,11.521-15.501,22.664-23.314,34.088
			c-7.625-5.299-15.347-10.664-23.904-16.61c0,26.331,0,51.696,0,77.36c-13.98,0-27.389,0-41.272,0c0-35.188,0-70.274,0-105.453
			c-14.784-10.4-29.296-20.609-44.25-31.129c-14.28,10.215-28.538,20.413-42.558,30.441c0,22.938,0.238,45.104-0.083,67.261
			c-0.219,15.032,1.29,29.771,6.313,43.915c2.689,7.572,8.682,12.841,15.435,17.101c10.118,6.382,21.42,9.442,32.999,11.647
			c10.085,1.921,20.244,3.115,30.547,3.139c6.29,0.016,12.604,1.075,18.863,0.766c14.031-0.694,28.076-1.951,41.281-7.252
			c19.957-8.009,34.756-21.748,43.826-41.298c5.316-11.458,8.119-23.581,9.564-36.21c1.396-12.199-0.241-24.106-1.156-36.128
			c-1.326-17.425-5.634-34.142-12.18-50.279c-4.767-11.754-11.034-22.722-19.539-32.178c-16.289-18.111-36.501-29.998-60.049-35.895
			c-9.548-2.391-19.361-4.321-29.154-4.998c-15.07-1.041-30.27-1.669-45.34-0.941c-23.835,1.152-47.283,5.154-69.319,14.981
			c-11.61,5.177-21.922,12.333-31.505,20.751c-19.201,16.864-28.338,39.107-34.392,63.001c-3.083,12.17-5,24.57-5.19,37.198
			c-0.142,9.462-1.239,18.95-0.773,28.372c1.354,27.441,5.936,54.166,19.728,78.555c9.526,16.845,22.082,30.981,38.804,40.676
			c14.572,8.448,30.145,14.995,46.715,18.73c11.931,2.689,23.91,4.979,36.221,5.131c8.791,0.107,17.579,0.574,26.367,0.895
			c1.462,0.053,2.92,0.18,4.682,0.293c0,13.678,0,27.078,0,40.839c-1.568,0.132-3.009,0.353-4.45,0.358
			c-7.499,0.031-15.015,0.314-22.497-0.048c-37.486-1.817-73.361-9.689-105.922-29.282c-13.746-8.271-25.773-18.587-36.841-30.307
			c-17.91-18.969-28.841-41.474-35.634-66.226c-2.212-8.063-3.445-16.425-4.727-24.711c-2.641-17.085-3.352-34.294-3.145-51.583
			c0.229-19.104,3.154-37.81,6.391-56.588c2.478-14.374,6.884-27.935,13.273-40.818c10.851-21.879,26.18-40.1,45.261-55.563
			c21.694-17.58,46.691-26.818,73.479-32.411c16.085-3.358,32.311-5.211,48.778-5.027c6.787,0.076,13.597-0.97,20.371-0.746
			c30.078,0.997,59.685,4.819,87.229,17.899c9.078,4.311,18.19,9.158,26.026,15.355c16.702,13.208,31.413,28.346,42.774,46.767
			c10.86,17.608,17.481,36.603,21.891,56.519c2.854,12.891,5.104,25.908,5.168,39.217c0.036,7.458,1.111,14.932,0.841,22.366
			c-1.208,33.206-10.845,63.508-32.699,89.083c-13.542,15.848-30.647,26.807-50.199,33.973c-15.193,5.568-30.806,8.523-47.052,8.193
			c-11.662-0.236-23.347,0.322-34.996-0.125c-22.434-0.858-44.559-4.309-64.828-14.279c-26.822-13.193-44.127-34.344-49.714-64.348
			c-2.133-11.455-3.155-22.933-2.981-34.574c0.181-12.164,0.038-24.333,0.037-36.5c0-1.632,0-3.264,0-6.059
			c-8.487,5.895-16.176,11.233-24.522,17.031C285.547,488.214,277.688,477.055,269.765,465.807z"/>
		<path fill-rule="evenodd" clip-rule="evenodd" fill="#FFFFFF" d="M1554.293,582.25c-0.111-2.271-0.259-3.896-0.259-5.521
			c-0.013-51.809-0.093-103.617,0.132-155.425c0.02-4.618,1.152-9.7,3.328-13.725c3.025-5.6,9.002-7.552,15.245-7.719
			c6.659-0.178,13.325-0.042,19.989-0.043c16.326,0,32.656-0.238,48.975,0.091c9.574,0.193,19.093,1.388,28.205,4.804
			c13.149,4.929,22.063,13.699,25.72,27.484c3.107,11.713,3.224,23.242-2.362,34.289c-3.629,7.178-9.366,12.422-17.236,16.396
			c2.441,1.334,4.246,2.271,6.006,3.289c12.682,7.33,19.933,18.355,21.256,32.865c1.259,13.799-0.646,27.161-8.37,39.093
			c-7.562,11.682-18.931,18.058-32.07,20.95c-8.491,1.87-17.316,2.9-26.012,3.033c-25.315,0.39-50.641,0.139-75.962,0.139
			C1558.893,582.25,1556.908,582.25,1554.293,582.25z M1589.805,548.501c1.873,0.095,3.493,0.245,5.113,0.248
			c12.144,0.021,24.287,0.101,36.428-0.035c4.613-0.052,9.337-0.095,13.809-1.066c10.836-2.355,16.265-6.165,18.459-16.104
			c0.842-3.813,0.809-8.015,0.232-11.9c-1.021-6.888-4.299-12.808-11.281-15.118c-5.094-1.688-10.553-2.95-15.886-3.107
			c-14.293-0.42-28.606-0.153-42.911-0.125c-1.271,0.002-2.543,0.252-3.963,0.404
			C1589.805,517.403,1589.805,532.787,1589.805,548.501z M1589.813,469.396c1.144,0.164,1.788,0.335,2.433,0.336
			c14.63,0.018,29.263,0.172,43.889-0.082c3.884-0.068,7.946-0.882,11.571-2.277c5.5-2.118,9.816-5.502,11.07-12.105
			c1.925-10.135-3.301-19.462-13.152-21.713c-3.509-0.802-7.181-1.188-10.784-1.227c-13.132-0.141-26.267-0.057-39.4-0.057
			c-1.78,0-3.56,0-5.626,0C1589.813,444.895,1589.813,456.944,1589.813,469.396z"/>
		<path fill-rule="evenodd" clip-rule="evenodd" fill="#FFFFFF" d="M1365.163,400.207c0,60.86,0,121.115,0,181.706
			c-12.999,0-25.705,0-38.956,0c0-26.896,0-53.471,0-80.367c-24.755,0-48.966,0-73.638,0c0,26.783,0,53.366,0,80.325
			c-12.849,0-25.245,0-38.233,0c-0.091-1.562-0.264-3.152-0.265-4.743c-0.015-51.984-0.036-103.97,0.005-155.955
			c0.011-13.236,8.236-21.318,21.479-21.353c5.45-0.014,10.9-0.002,16.834-0.002c0,22.491,0,44.401,0,66.636
			c24.709,0,48.922,0,73.719,0c0-22.066,0-43.967,0-66.247C1339.389,400.207,1352.088,400.207,1365.163,400.207z"/>
		<path fill-rule="evenodd" clip-rule="evenodd" fill="#FFFFFF" d="M1546.506,582.031c-13.896,0-26.846,0-40.458,0
			c-4.115-12.449-8.276-25.037-12.409-37.544c-23.773,0-47.039,0-70.519,0c-3.974,12.639-7.908,25.148-11.812,37.563
			c-13.246,0-25.864,0-39.138,0c1.49-4.506,2.786-8.674,4.243-12.785c10.207-28.78,21.093-57.34,30.473-86.387
			c7.501-23.225,16.572-45.861,24.18-69.026c2.898-8.83,8.14-13.657,19.333-13.978c9.628-0.275,19.271-0.057,29.372-0.057
			C1502.015,460.551,1524.169,521.041,1546.506,582.031z M1458.387,437.837c-8.537,25.551-16.711,50.019-24.979,74.765
			c16.781,0,33.057,0,50.007,0C1475.107,487.785,1466.947,463.411,1458.387,437.837z"/>
		<path fill-rule="evenodd" clip-rule="evenodd" fill="#FFFFFF" d="M807.514,566.477c0,2.48,0,4.071,0,5.662
			c-0.001,14.662,0.026,29.326-0.011,43.988c-0.025,10.129-7.763,17.951-17.914,18.105c-5.63,0.086-11.263,0.016-17.592,0.016
			c0-2.215,0-3.979,0.001-5.743c0.001-43.823-0.083-87.646,0.068-131.468c0.035-10.027,2.572-19.615,7.494-28.445
			c3.42-6.137,8.883-10.23,14.709-13.75c14.059-8.491,29.131-12.844,45.814-12.258c11.689,0.411,22.566,2.881,32.811,8.286
			c12.944,6.829,20.275,18.074,24.607,31.677c4.304,13.515,4.896,27.451,3.787,41.333c-1.14,14.265-4.943,27.956-13.534,39.856
			c-7.984,11.061-18.279,18.968-31.902,21.162c-10.463,1.685-21.101,1.352-31.09-2.92c-5.499-2.35-10.677-5.364-13.651-11.041
			C810.387,569.553,809.129,568.445,807.514,566.477z M864.996,514.129c0.469-8.453-0.693-16.719-4.028-24.646
			c-6.505-15.459-23.275-20.975-37.558-14.375c-8.676,4.01-11.764,11.627-13.813,19.934c-2.685,10.883-3.038,21.98-0.911,32.959
			c0.986,5.088,2.654,10.322,5.248,14.77c8.487,14.545,32.541,17.325,43.966,0.32C863.769,534.354,865.543,524.549,864.996,514.129z
			"/>
		<path fill-rule="evenodd" clip-rule="evenodd" fill="#FFFFFF" d="M1043.291,523.182c-29.737,0-58.867,0-88.34,0
			c-1.409,7.096,0.746,13.223,3.624,19.181c4.398,9.108,11.866,12.646,21.795,12.546c8.946-0.091,16.646-2.051,22.173-9.779
			c2.443-3.417,6.49-4.93,10.453-5.082c9.288-0.354,18.598-0.113,28.318-0.113c-1.99,9.53-5.836,17.674-11.848,24.64
			c-11.566,13.402-26.42,19.952-44.055,20.773c-7.108,0.331-14.139,0.44-21.12-1.033c-20.897-4.412-34.716-17.086-42.206-36.775
			c-3.608-9.486-5.171-19.409-5.149-29.632c0.023-11.624,0.151-23.133,3.536-34.455c5.848-19.561,18.609-32.689,37.843-38.135
			c19.674-5.568,39.414-4.385,57.488,6.574c9.094,5.514,16.176,13.033,20.476,23.034
			C1042.853,490.209,1044.159,506.174,1043.291,523.182z M1005.105,499.532c-0.293-9.999-2.53-18.864-11.354-23.849
			c-9.765-5.518-20.432-5.81-29.557,1.007c-7.071,5.282-10.366,13.35-9.55,22.842C971.477,499.532,987.912,499.532,1005.105,499.532
			z"/>
		<path fill-rule="evenodd" clip-rule="evenodd" fill="#FFFFFF" d="M692.271,442.767c11.013-0.458,21.782,1.581,31.822,6.854
			c16.399,8.613,25.421,22.771,29.295,40.366c1.622,7.369,2.923,15.016,2.817,22.513c-0.188,13.187-1.521,26.353-7.077,38.662
			c-7.7,17.062-20.125,28.255-38.692,32.618c-19.599,4.604-37.976,2.577-55.12-8.328c-10.703-6.807-17.499-16.615-21.155-28.551
			c-3.748-12.234-5.643-24.844-5.056-37.647c0.507-11.069,2.423-21.94,6.44-32.376c4.703-12.215,13.838-20.314,24.542-27.063
			C667.382,445.213,678.547,442.313,692.271,442.767z M720.92,513.043c-0.602-9.725-1.699-19.037-6.851-27.365
			c-5.221-8.439-12.693-14.39-22.852-13.158c-12.806,1.552-19.939,5.357-24.636,20.219c-2.539,8.034-3.252,16.307-2.337,24.895
			c0.72,6.76,1.444,13.445,3.308,19.967c4.693,16.423,20.803,21.379,32.971,17.038c8.716-3.109,14.03-10.108,16.346-18.795
			C718.85,528.41,719.616,520.656,720.92,513.043z"/>
		<path fill-rule="evenodd" clip-rule="evenodd" fill="#FFFFFF" d="M1096.457,582.962c-12.649,0-24.705,0-37.115,0
			c-0.103-1.854-0.27-3.47-0.271-5.084c-0.017-25.659-0.214-51.32,0.097-76.976c0.112-9.212,1.243-18.403,4.218-27.309
			c2.55-7.631,7.363-13.417,13.753-17.783c15.514-10.6,32.895-14.762,51.475-12.885c11.455,1.158,22.155,5.227,31.892,11.518
			c9.612,6.212,15.25,15.174,16.896,26.352c1.177,7.998,1.934,16.124,2.02,24.202c0.259,23.989,0.093,47.984,0.093,71.977
			c0,1.819,0,3.638,0,6.297c-4.017,0-7.764,0.034-11.509-0.009c-3.66-0.043-7.415,0.338-10.957-0.35
			c-8.666-1.68-14.008-8.697-14.026-17.934c-0.05-23.66-0.009-47.318-0.021-70.979c-0.008-13.605-9.108-22.663-22.854-22.781
			c-12.002-0.104-20.424,5.76-23.096,16.215c-0.443,1.737-0.537,3.602-0.54,5.408c-0.043,27.992-0.044,55.982-0.054,83.975
			C1096.456,578.771,1096.457,580.725,1096.457,582.962z"/>
		<path fill-rule="evenodd" clip-rule="evenodd" fill="#FFFFFF" d="M1313.115,664.615c6.667-4.664,13.746-4.881,21.012-2.725
			c5.743,1.703,8.959,6.006,9.229,11.736c0.422,8.953,0.111,17.939,0.111,27.277c-2.396,0-4.468,0-7.389,0
			c-0.324-1.781-0.962-3.777-1.004-5.785c-0.135-6.497,0-12.999-0.069-19.498c-0.06-5.611-3.021-8.42-8.708-8.457
			c-5.85-0.037-8.761,2.619-8.813,8.295c-0.075,8.313-0.02,16.627-0.02,25.378c-2.859,0-5.372,0-8.465,0c0-4.896,0-9.683,0-14.47
			c-0.001-3.5,0.091-7.002-0.026-10.498c-0.165-4.941-2.882-8.082-7.256-8.634c-5.8-0.731-9.032,1.233-10.413,6.574
			c-0.49,1.896-0.723,3.904-0.747,5.866c-0.087,6.965-0.034,13.934-0.034,21.248c-2.814,0-5.209,0-8.413,0
			c0-2.006-0.058-3.935,0.011-5.859c0.251-7.119,0.658-14.236,0.795-21.359c0.176-9.18,7.285-11.985,13.778-12.807
			C1302.451,660.17,1308.373,660.3,1313.115,664.615z"/>
		<path fill-rule="evenodd" clip-rule="evenodd" fill="#FFFFFF" d="M1650.451,701.093c-2.693,0-4.657,0-7.367,0
			c-0.358-2.06-0.971-4.067-1.012-6.088c-0.131-6.487-0.011-12.979-0.065-19.47c-0.035-4.166-1.956-6.996-5.298-8.086
			c-3.809-1.24-8.93-0.043-10.842,2.961c-0.909,1.427-1.301,3.392-1.341,5.126c-0.152,6.653-0.067,13.312-0.069,19.968
			c-0.001,1.641,0,3.281,0,5.347c-2.754,0-5.148,0-8.249,0c-0.062-1.343-0.192-2.922-0.198-4.502
			c-0.023-6.823,0.018-13.646-0.025-20.468c-0.023-3.824-1.636-6.732-5.293-8.214c-3.422-1.386-8.931-0.68-10.517,2.14
			c-1.536,2.73-2.377,6.139-2.538,9.299c-0.361,7.115-0.113,14.26-0.113,21.779c-2.738,0-5.134,0-7.779,0
			c-0.182-0.668-0.588-1.439-0.567-2.197c0.229-8.441,0.452-16.885,0.818-25.32c0.388-8.904,6.345-11.262,13.032-12.385
			c5.837-0.98,12.006-0.907,17.035,3.66c6.513-4.535,13.522-4.876,20.838-2.838c5.834,1.627,9.105,5.824,9.417,11.479
			C1650.816,682.373,1650.451,691.51,1650.451,701.093z"/>
		<path fill-rule="evenodd" clip-rule="evenodd" fill="#FFFFFF" d="M1006.756,708.982c3.176,0,5.804,0,8.761,0
			c3.475,3.396,7.749,5.535,12.712,2.742c5.725-3.221,6.342-8.672,5.735-13.924c-3.638,1.517-7.061,3.773-10.735,4.313
			c-9.406,1.378-15.992-4.781-17.899-14.736c-1.114-5.819-0.883-11.912,1.706-17.581c2.666-5.834,7.058-9.012,13.591-9.046
			c4.306-0.023,8.479,0.07,12.614,1.886c6.047,2.655,9.084,7.147,9.215,13.496c0.197,9.491,0.234,18.993-0.018,28.481
			c-0.154,5.822-2.615,10.327-8.454,12.82c-5.862,2.502-11.798,3.432-17.81,1.578
			C1011.658,717.619,1007.941,714.822,1006.756,708.982z M1026.619,695.778c3.538-1.681,6.256-3.917,6.575-7.445
			c0.409-4.515,0.771-9.289-0.256-13.616c-1.321-5.563-4.825-7.578-9.749-7.441c-4.59,0.127-8.121,2.834-9.099,8.26
			c-0.754,4.182-0.843,8.658-0.243,12.862c0.711,4.979,4.411,7.349,9.664,7.38C1024.673,695.783,1025.834,695.778,1026.619,695.778z
			"/>
		<path fill-rule="evenodd" clip-rule="evenodd" fill="#FFFFFF" d="M642.184,664.555c7.642-4.523,14.892-5.334,22.609-1.668
			c4.264,2.025,6.408,5.561,6.576,9.798c0.369,9.285,0.115,18.595,0.115,28.237c-2.28,0-4.187,0-6.976,0
			c-0.435-2.095-1.28-4.406-1.332-6.734c-0.174-7.822-0.065-15.649-0.065-23.016c-2.819-4.762-6.952-4.395-10.896-3.722
			c-3.446,0.588-5.641,3.854-5.681,7.771c-0.07,6.83-0.021,13.661-0.021,20.492c0,1.63,0,3.259,0,5.224c-2.855,0-5.27,0-8.51,0
			c0-1.535,0.001-3.115,0-4.697c-0.001-6.998-0.009-13.994-0.001-20.992c0.003-3.779-1.875-6.654-5.287-7.622
			c-3.455-0.98-7.499-1.501-10.105,2.007c-1.184,1.592-1.997,3.845-2.05,5.822c-0.223,8.307-0.095,16.621-0.095,25.377
			c-2.85,0-5.363,0-8.468,0c0-4.873,0-9.656,0-14.438c0.001-3.499,0.177-7.008-0.032-10.494c-0.571-9.534,5.939-14.37,14.749-15.097
			C632.242,660.348,637.725,660.6,642.184,664.555z"/>
		<path fill-rule="evenodd" clip-rule="evenodd" fill="#FFFFFF" d="M462.242,661.221c0,13.521,0,26.925,0,40.689
			c-8.19,0-16.247,0-24.721,0c0-13.443,0-26.831,0-40.689C445.621,661.221,453.791,661.221,462.242,661.221z"/>
		<path fill-rule="evenodd" clip-rule="evenodd" fill="#FFFFFF" d="M517.294,661.034c8.468,0,16.529,0,24.894,0
			c0,13.663,0,27.05,0,40.837c-8.236,0-16.417,0-24.894,0C517.294,688.335,517.294,674.943,517.294,661.034z"/>
		<path fill-rule="evenodd" clip-rule="evenodd" fill="#FFFFFF" d="M502.198,702.027c-8.075,0-15.813,0-23.874,0
			c0-13.64,0-27.039,0-40.856c7.828,0,15.686,0,23.874,0C502.198,674.639,502.198,688.039,502.198,702.027z"/>
		<path fill-rule="evenodd" clip-rule="evenodd" fill="#FFFFFF" d="M825.9,689.809c1.07-4.567,2.105-9.145,3.22-13.701
			c1.124-4.597,2.327-9.174,3.556-13.993c2.771,0,5.146,0,8.249,0c-3.631,13.274-7.13,26.067-10.656,38.959c-3.157,0-5.94,0-9.391,0
			c-2.169-9.606-4.34-19.218-6.511-28.829c-0.479-0.002-0.957-0.004-1.437-0.006c-2.183,9.602-4.366,19.203-6.56,28.854
			c-3.158,0-5.79,0-9.295,0c-3.52-12.719-7.095-25.642-10.79-38.996c2.683,0,4.933,0,7.972,0c2.102,8.844,4.289,18.045,6.531,27.48
			c0.895,0.053,1.678,0.1,2.722,0.162c1.938-9.213,3.857-18.335,5.827-27.697c2.58,0,5.016,0,8.272,0
			c0.938,4.401,1.964,8.967,2.875,13.555c0.769,3.875,1.327,7.793,2.155,11.654c0.207,0.969,1.092,1.791,1.665,2.682
			C824.837,689.891,825.369,689.85,825.9,689.809z"/>
		<path fill-rule="evenodd" clip-rule="evenodd" fill="#FFFFFF" d="M694.799,696.481c-1.443,6.766,1.408,14.077-1.958,20.624
			c-2.521,0-4.317,0-6.838,0c0-1.756,0-3.354,0-4.952c0-11.321,0.108-22.644-0.03-33.963c-0.139-11.342,6.631-16.546,17.328-17.382
			c2.622-0.205,5.373-0.168,7.925,0.395c6.977,1.539,10.801,6.563,11.906,13.164c0.783,4.68,0.964,9.786-0.047,14.381
			C719.803,703.666,705.242,706.907,694.799,696.481z M715.489,681.686c-0.161-0.024-0.321-0.049-0.483-0.074
			c0-1.492,0.127-2.998-0.022-4.477c-0.515-5.069-4.43-9.305-8.976-9.84c-4.965-0.585-9.169,2.093-10.759,7.525
			c-1.456,4.976-1.538,10.148,0.661,14.991c1.786,3.937,4.951,6.101,9.462,5.952c4.364-0.145,7.077-2.693,8.544-6.425
			C714.855,686.951,714.992,684.248,715.489,681.686z"/>
		<path fill-rule="evenodd" clip-rule="evenodd" fill="#FFFFFF" d="M1116.233,649.146c4.354,5.031,1.04,11.246,2.633,17.083
			c3.877-3.658,8.222-5.833,13.722-5.54c6.47,0.343,12.235,4.385,13.819,10.725c0.714,2.855,0.974,5.878,1.038,8.833
			c0.146,6.784,0.047,13.575,0.047,20.692c-2.887,0-5.291,0-8.469,0c0-1.961,0.001-3.885,0-5.809
			c-0.004-5.494,0.057-10.99-0.028-16.484c-0.098-6.317-4.64-11.324-10.163-11.363c-5.613-0.041-10.202,4.787-10.315,11.167
			c-0.13,7.308-0.03,14.619-0.03,22.376c-2.86,0-5.372,0-8.191,0c0-17.161,0-34.232,0-51.68
			C1112.24,649.146,1114.127,649.146,1116.233,649.146z"/>
		<path fill-rule="evenodd" clip-rule="evenodd" fill="#FFFFFF" d="M1496.157,648.794c4.304,2.019,3.254,5.492,3.337,8.528
			c0.085,3.093,0.019,6.189,0.019,10.238c4.113-4.708,8.261-7.129,13.906-6.882c7.737,0.339,14.404,5.396,14.896,13.102
			c0.568,8.911,0.133,17.886,0.133,27.161c-2.46,0-4.543,0-7.455,0c0-2.346,0.091-4.765-0.019-7.176
			c-0.238-5.281-0.351-10.583-0.935-15.83c-0.745-6.709-4.883-10.787-10.23-10.655c-5.684,0.14-10.119,5.15-10.266,11.872
			c-0.131,5.987-0.021,11.979-0.04,17.969c-0.004,1.139-0.113,2.278-0.193,3.781c-2.577,0-4.986,0-7.844,0
			c0-17.065,0-34.243,0-51.873C1493.162,648.943,1494.906,648.856,1496.157,648.794z"/>
		<path fill-rule="evenodd" clip-rule="evenodd" fill="#FFFFFF" d="M1197.191,683.18c-10.268,0-19.196,0-28.027,0
			c-1.07,5.625,0.321,9.383,4.011,11.536c3.259,1.901,8.548,1.602,11.597-1.144c2.896-2.607,5.986-3.207,10.615-2.105
			c-1.677,2.46-2.737,4.939-4.568,6.532c-5.925,5.155-12.941,5.308-20.118,3.353c-4.655-1.268-7.728-4.623-9.421-8.936
			c-2.816-7.17-2.799-14.552-0.084-21.756c2.377-6.307,7.887-9.879,14.67-9.883c2.652-0.002,5.414-0.215,7.933,0.429
			c4.888,1.249,8.734,4.28,10.411,9.129C1195.531,674.16,1196.082,678.25,1197.191,683.18z M1186.778,678.563
			c0.831-4.958-0.696-8.489-4.695-10.47c-3.277-1.623-6.823-1.45-9.848,0.857c-3.111,2.375-4.644,5.453-3.307,9.612
			C1174.889,678.563,1180.666,678.563,1186.778,678.563z"/>
		<path fill-rule="evenodd" clip-rule="evenodd" fill="#FFFFFF" d="M598.506,683.227c-9.609,0-18.541,0-27.404,0
			c-0.715,5.205,1.059,9.469,4.524,11.469c3.46,1.996,8.577,1.586,12.048-1.393c2.828-2.428,5.824-2.881,9.515-1.998
			c-0.714,4.42-3.552,7.031-7.091,8.939c-5.414,2.917-11.229,2.801-16.894,1.137c-7.116-2.09-10.155-7.955-10.941-14.625
			c-0.551-4.676-0.105-9.662,0.915-14.285c1.644-7.447,7.607-11.679,15.224-11.689c2.646-0.004,5.396-0.156,7.916,0.482
			c7.155,1.811,11.771,7.98,12.175,15.739C598.586,678.813,598.506,680.633,598.506,683.227z M589.801,678.488
			c0.156-4.49-0.809-8.119-4.845-10.229c-3.526-1.845-7.222-1.679-10.306,0.699c-2.932,2.262-4.627,5.419-3.682,9.529
			C577.328,678.488,583.415,678.488,589.801,678.488z"/>
		<path fill-rule="evenodd" clip-rule="evenodd" fill="#FFFFFF" d="M890.878,683.107c-8.828,0-17.741,0-26.54,0
			c-1.229,5.08,0.062,8.76,3.416,11.211c2.562,1.869,9.123,2.109,12.124-0.586c3.422-3.073,4.372-3.053,9.536-2.486
			c-0.498,5.036-4.199,9.304-10.59,10.531c-3.938,0.757-8.26,0.408-12.265-0.281c-5.131-0.885-8.313-4.658-10.154-9.346
			c-2.382-6.066-2.138-12.556-0.87-18.636c1.446-6.931,6.678-12.822,17.466-12.983C885.045,660.351,893.018,670.037,890.878,683.107
			z M882.576,678.514c-0.068-9.088-5.154-12.047-11.592-11.201c-4.924,0.646-7.826,5.344-6.918,11.201
			C870.118,678.514,876.197,678.514,882.576,678.514z"/>
		<path fill-rule="evenodd" clip-rule="evenodd" fill="#FFFFFF" d="M1699.973,683.321c-9.196,0-18.137,0-27.314,0
			c-0.201,5.004,0.915,8.932,5.083,11.411c3.493,2.077,8.609,1.471,11.985-1.557c2.802-2.514,5.873-2.626,9.511-1.862
			c-0.976,4.807-4.194,7.57-8.116,9.464c-4.656,2.248-9.797,2.087-14.647,1.115c-5.374-1.075-9.219-4.811-10.912-9.971
			c-2.372-7.227-2.702-14.633,0.422-21.83c2.638-6.075,7.328-9.246,13.977-9.311c2.651-0.025,5.413-0.23,7.939,0.396
			C1696.951,663.422,1701.545,671.701,1699.973,683.321z M1691.615,678.436c0.049-7.83-3.759-11.734-10.568-11.164
			c-5.516,0.461-8.855,5.09-7.99,11.164C1679.241,678.436,1685.433,678.436,1691.615,678.436z"/>
		<path fill-rule="evenodd" clip-rule="evenodd" fill="#FFFFFF" d="M772.507,681.676c0.312,6.162-0.786,11.899-5.472,16.336
			c-5.395,5.107-11.915,5.043-18.575,3.543c-6.493-1.463-10.081-5.69-11.521-12.173c-1.401-6.302-1.461-12.417,0.87-18.49
			c2.534-6.6,7.385-10.094,14.351-10.106c2.802-0.005,5.696-0.106,8.388,0.525c6.531,1.533,10.891,7.032,11.938,15.882
			C772.658,678.668,772.509,680.182,772.507,681.676z M757.069,667.443c-7.452-0.381-11.839,2.633-12.477,8.959
			c-0.333,3.297-0.325,6.685,0.019,9.98c0.58,5.559,3.95,8.992,8.583,9.443c5.92,0.576,8.306-2.304,10.471-7.246
			c0.575-1.313,0.362-2.951,0.665-4.406C765.874,676.762,763.568,671.402,757.069,667.443z"/>
		<path fill-rule="evenodd" clip-rule="evenodd" fill="#FFFFFF" d="M1577.037,680.578c-0.648,3.883-0.845,6.877-1.676,9.685
			c-2.623,8.868-9.457,13.178-19.65,11.91c-9.386-1.167-13.441-6.383-14.521-15.483c-0.571-4.821-0.122-9.986,0.997-14.73
			c1.549-6.568,7.166-10.824,13.045-11.191c10.425-0.65,15.717,1.719,18.924,9.226
			C1575.676,673.549,1576.232,677.514,1577.037,680.578z M1562.398,695.559c1.416-2.016,4.003-4.192,4.531-6.788
			c0.898-4.419,1.148-9.2,0.475-13.647c-0.725-4.786-5.223-8.012-9.006-7.84c-4.491,0.204-7.388,3.275-8.982,8.549
			c-1.064,3.518-0.626,6.752-0.014,10.222C1550.733,693.602,1553.521,696.073,1562.398,695.559z"/>
		<path fill-rule="evenodd" clip-rule="evenodd" fill="#FFFFFF" d="M1373.454,666.186c-4.805,1.338-9.083,4.732-14.479,2.457
			c0.76-4.708,4.518-6.855,8.292-7.313c5.159-0.625,10.611-0.392,15.724,0.59c5.285,1.014,7.464,4.724,7.512,10.201
			c0.044,4.994,0.086,9.992-0.01,14.985c-0.194,10.14-6.931,14.769-14.924,15.14c-2.824,0.133-5.666,0.137-8.489-0.01
			c-4.809-0.249-9.202-3.943-10.009-8.223c-1.26-6.688,0.68-11.797,5.811-13.931c2.854-1.187,6.04-1.579,9.081-2.312
			c2.391-0.575,4.829-0.99,7.17-1.719c2.1-0.654,3.694-2.376,3.054-4.483c-0.493-1.62-2.108-3.163-3.615-4.132
			C1377.268,666.602,1375.415,666.622,1373.454,666.186z M1383.526,679.651c-5.118,1.416-9.07,2.472-12.995,3.62
			c-1.09,0.32-2.204,0.768-3.123,1.418c-4.195,2.966-3.861,8.512,0.604,11c4.617,2.572,11.703,0.1,13.636-5.242
			C1382.785,687.301,1382.854,683.768,1383.526,679.651z"/>
		<path fill-rule="evenodd" clip-rule="evenodd" fill="#FFFFFF" d="M1244.613,673.933c3.158,1.237,6.289,2.566,9.492,3.687
			c2.791,0.977,5.691,1.635,8.494,2.58c3.898,1.315,6.605,3.707,6.91,8.146c0.351,5.092-1.26,9.467-5.9,11.693
			c-7.173,3.442-14.738,3.371-22.104,0.424c-3.732-1.493-5.072-3.854-6.25-9.291c2.621,0,5.169,0,7.82,0
			c6.73,7.801,14.512,7.922,17.943,0.046c-0.656-3.864-3.733-5.026-7.013-5.88c-3.027-0.787-6.157-1.244-9.115-2.228
			c-6.245-2.075-9.013-5.514-8.883-10.516c0.138-5.327,3.604-10.106,9.497-11.271c5.793-1.145,11.859-1.76,17.282,1.992
			c2.917,2.02,4.669,4.549,4.541,8.285c-4.454,1.64-7.522,0.24-9.313-3.643C1249.325,664.75,1245.135,666.313,1244.613,673.933z"/>
		<path fill-rule="evenodd" clip-rule="evenodd" fill="#FFFFFF" d="M992.439,701.021c-2.471,0-4.395,0-6.916,0
			c-0.188-1.923-0.488-3.657-0.507-5.394c-0.062-5.988,0.077-11.979-0.054-17.965c-0.153-7.028-3.221-10.434-9.156-10.502
			c-5.942-0.066-9.163,2.998-9.265,9.092c-0.107,6.486-0.025,12.975-0.026,19.463c0,1.628,0,3.256,0,5.221c-2.508,0-4.582,0-6.678,0
			c-1.848-6.454-0.824-26.963,1.761-35.152c5.729-6.06,18.155-6.666,25.479-2.232c3.143,1.902,5.096,4.777,5.223,7.995
			C992.685,681.289,992.439,691.059,992.439,701.021z"/>
		<path fill-rule="evenodd" clip-rule="evenodd" fill="#FFFFFF" d="M1445.642,661.371c2.421,0.293,4.468,0.539,7.029,0.85
			c-0.893,1.593-1.507,2.689-2.073,3.699c-1.706,0.268-3.146,0.494-4.814,0.756c0,8.961,0,17.73,0,27.402
			c1.748,0.725,3.896,1.615,6.367,2.639c0,1.32,0,2.922,0,4.653c-4.314,2.161-8.408-0.601-13.252-0.198
			c-0.639-2.043-1.77-4.002-1.785-5.969c-0.115-14.973-0.015-29.947,0.038-44.922c0.001-0.295,0.241-0.588,0.532-1.25
			c2.766-0.355,5.678-1.026,7.958,3.053C1445.642,654.652,1445.642,657.929,1445.642,661.371z"/>
		<path fill-rule="evenodd" clip-rule="evenodd" fill="#FFFFFF" d="M1084.611,648.921c1.802,0,3.446,0,5.072,0
			c4.511,3.235,1.917,8.128,3.158,12.417c1.58,0.232,3.313,0.486,5.027,0.738c0.172,3.779,0.172,3.779-4.971,4.553
			c0,9.338,0,18.701,0,28.287c1.904,0.512,3.451,0.928,5.301,1.424c0,1.658,0,3.396,0,5.936c-4.131-0.414-7.977-0.801-12.471-1.251
			c-0.549-1.519-1.63-3.134-1.643-4.757c-0.121-15.157-0.064-30.316-0.024-45.474
			C1084.063,650.182,1084.412,649.57,1084.611,648.921z"/>
		<path fill-rule="evenodd" clip-rule="evenodd" fill="#FFFFFF" d="M912.051,700.965c-2.619,0-5.017,0-7.942,0
			c0.141-9.197-0.999-18.137,1.253-26.904c2.149-8.365,10.546-13.244,19.891-11.717c0.08,0.707,0.226,1.496,0.244,2.289
			c0.04,1.638,0.012,3.277,0.012,4.626c-0.619,0.468-0.871,0.823-1.119,0.821c-9.125-0.09-11.6,5.035-11.838,13.021
			c-0.164,5.479-0.073,10.965-0.113,16.447C912.436,699.861,912.273,700.172,912.051,700.965z"/>
		<path fill-rule="evenodd" clip-rule="evenodd" fill="#FFFFFF" d="M1423.244,662.174c0,2.729,0,5.152,0,7.338
			c-0.389,0.337-0.511,0.533-0.629,0.531c-9.242-0.175-12.352,4.924-12.127,13.714c0.145,5.624,0.027,11.256,0.027,17.196
			c-2.548,0-4.627,0-7.34,0c0.293-9.86-1.786-19.785,1.973-29.393C1408.055,664.13,1414.893,660.914,1423.244,662.174z"/>
		<path fill-rule="evenodd" clip-rule="evenodd" fill="#FFFFFF" d="M947.183,701.024c-2.696,0-5.103,0-7.846,0
			c0-13.048,0-25.89,0-38.923c2.469,0,4.694,0,6.761,0C947.794,665.766,948.354,687.439,947.183,701.024z"/>
		<path fill-rule="evenodd" clip-rule="evenodd" fill="#FFFFFF" d="M945.528,648.639c0.832,1.874,1.614,3.637,2.726,6.142
			c-3.516,0-6.015,0-8.989,0c-0.083-1.738-0.166-3.461-0.273-5.716C940.978,648.935,942.698,648.822,945.528,648.639z"/>
	</g>
</g>
</svg>
