<?xml version="1.0" encoding="utf-8"?>
<!-- Generator: Adobe Illustrator 16.0.0, SVG Export Plug-In . SVG Version: 6.00 Build 0)  -->
<!DOCTYPE svg PUBLIC "-//W3C//DTD SVG 1.1//EN" "http://www.w3.org/Graphics/SVG/1.1/DTD/svg11.dtd">
<svg version="1.1" id="Layer_1" xmlns="http://www.w3.org/2000/svg" xmlns:xlink="http://www.w3.org/1999/xlink" x="0px" y="0px"
	 width="50px" height="50px" viewBox="0 0 50 50" enable-background="new 0 0 50 50" xml:space="preserve">
<path fill-rule="evenodd" clip-rule="evenodd" fill="#F6881F" d="M8.982,20.171c5.313-3.725,10.589-7.422,15.903-11.146
	c0.291,0.194,0.555,0.366,0.813,0.541c1.604,1.083,3.219,2.154,4.806,3.258c2.58,1.792,5.146,3.605,7.711,5.418
	c0.571,0.404,1.107,0.854,1.677,1.26c0.302,0.213,0.64,0.375,1.007,0.587c-0.948,1.388-1.866,2.73-2.809,4.106
	c-0.917-0.639-1.848-1.285-2.878-2.001c0,3.171,0,6.226,0,9.316c-1.685,0-3.298,0-4.971,0c0-4.237,0-8.462,0-12.7
	c-1.781-1.252-3.526-2.481-5.329-3.749c-1.722,1.229-3.437,2.458-5.124,3.666c0,2.762,0.028,5.432-0.01,8.1
	c-0.027,1.811,0.154,3.586,0.758,5.289c0.326,0.912,1.047,1.547,1.86,2.06c1.219,0.769,2.579,1.137,3.974,1.402
	c1.215,0.231,2.438,0.375,3.68,0.378c0.757,0.002,1.517,0.129,2.271,0.092c1.688-0.083,3.382-0.235,4.972-0.874
	c2.403-0.964,4.186-2.62,5.278-4.974c0.639-1.379,0.976-2.84,1.15-4.361c0.17-1.469-0.028-2.903-0.14-4.351
	c-0.159-2.098-0.678-4.111-1.465-6.055c-0.575-1.415-1.329-2.736-2.353-3.875c-1.963-2.182-4.397-3.613-7.233-4.323
	c-1.149-0.288-2.331-0.52-3.511-0.602c-1.814-0.126-3.646-0.201-5.461-0.113c-2.871,0.138-5.693,0.62-8.347,1.803
	c-1.398,0.624-2.641,1.486-3.796,2.5c-2.312,2.03-3.411,4.709-4.141,7.587c-0.371,1.465-0.602,2.959-0.625,4.479
	c-0.017,1.14-0.149,2.283-0.093,3.418c0.163,3.305,0.715,6.523,2.375,9.46c1.147,2.028,2.659,3.731,4.673,4.898
	c1.756,1.017,3.631,1.807,5.628,2.255c1.436,0.325,2.879,0.601,4.359,0.619c1.06,0.013,2.119,0.068,3.177,0.108
	c0.176,0.005,0.352,0.021,0.564,0.035c0,1.647,0,3.261,0,4.918c-0.189,0.016-0.363,0.043-0.537,0.043
	c-0.903,0.004-1.809,0.038-2.709-0.006c-4.516-0.218-8.836-1.166-12.756-3.525c-1.656-0.997-3.104-2.239-4.438-3.651
	c-2.156-2.285-3.474-4.994-4.291-7.975c-0.267-0.971-0.414-1.978-0.569-2.976c-0.318-2.057-0.403-4.13-0.379-6.212
	c0.027-2.301,0.38-4.554,0.771-6.815c0.297-1.731,0.829-3.365,1.598-4.916c1.307-2.635,3.153-4.83,5.452-6.691
	c2.61-2.117,5.622-3.23,8.848-3.903c1.937-0.404,3.891-0.628,5.875-0.606c0.818,0.01,1.637-0.116,2.453-0.089
	c3.62,0.119,7.188,0.58,10.505,2.155c1.093,0.52,2.19,1.103,3.134,1.85c2.012,1.592,3.784,3.414,5.152,5.632
	c1.307,2.121,2.105,4.407,2.635,6.807c0.345,1.551,0.615,3.12,0.623,4.721c0.005,0.899,0.135,1.799,0.102,2.694
	c-0.146,4-1.304,7.648-3.937,10.729c-1.632,1.908-3.692,3.228-6.046,4.091c-1.83,0.67-3.711,1.026-5.668,0.987
	c-1.404-0.029-2.81,0.039-4.213-0.015c-2.703-0.104-5.366-0.52-7.808-1.72c-3.232-1.589-5.316-4.135-5.987-7.749
	c-0.258-1.38-0.38-2.762-0.36-4.165c0.022-1.465,0.006-2.931,0.006-4.395c0-0.197,0-0.394,0-0.73
	c-1.023,0.71-1.948,1.354-2.952,2.052C10.882,22.869,9.936,21.525,8.982,20.171z"/>
<path fill-rule="evenodd" clip-rule="evenodd" fill="#F6881F" d="M31.397,43.477c0,1.703,0,3.391,0,5.125c-1.031,0-2.046,0-3.113,0
	c0-1.693,0-3.379,0-5.125C29.304,43.477,30.333,43.477,31.397,43.477z"/>
<path fill-rule="evenodd" clip-rule="evenodd" fill="#F6881F" d="M38.333,43.453c1.065,0,2.082,0,3.134,0c0,1.721,0,3.408,0,5.143
	c-1.035,0-2.066,0-3.134,0C38.333,46.893,38.333,45.205,38.333,43.453z"/>
<path fill-rule="evenodd" clip-rule="evenodd" fill="#F6881F" d="M36.432,48.617c-1.018,0-1.993,0-3.007,0c0-1.718,0-3.406,0-5.147
	c0.985,0,1.975,0,3.007,0C36.432,45.167,36.432,46.854,36.432,48.617z"/>
</svg>
