<?xml version="1.0" encoding="utf-8"?>
<!-- Generator: Adobe Illustrator 16.0.0, SVG Export Plug-In . SVG Version: 6.00 Build 0)  -->
<!DOCTYPE svg PUBLIC "-//W3C//DTD SVG 1.1//EN" "http://www.w3.org/Graphics/SVG/1.1/DTD/svg11.dtd">
<svg version="1.1" id="Layer_1" xmlns="http://www.w3.org/2000/svg" xmlns:xlink="http://www.w3.org/1999/xlink" x="0px" y="0px"
	 width="1920px" height="1080px" viewBox="0 0 1920 1080" enable-background="new 0 0 1920 1080" xml:space="preserve">
<rect x="1.859" y="3.97" fill="#7788C4" width="1923.141" height="1074.031"/>
<g>
	<path fill="#FFFFFF" d="M418.57,520.051c-12.108,0-21.668,10.409-21.668,23.368c0,12.958,9.772,23.366,21.668,23.366
		c12.109,0,21.669-10.408,21.669-23.366C440.239,530.46,430.467,520.051,418.57,520.051z M341.031,520.051
		c-12.108,0-21.668,10.409-21.668,23.368c0,12.958,9.772,23.366,21.668,23.366c12.109,0,21.669-10.408,21.669-23.366
		C362.913,530.46,353.141,520.051,341.031,520.051z"/>
	<path fill="#FFFFFF" d="M521.814,343.304H237.15c-24.005,0-43.55,19.544-43.55,43.549v284.666c0,24.005,19.545,43.55,43.55,43.55
		h240.902l-11.259-38.878l27.191,25.069l25.705,23.579l45.886,39.726V386.853C565.364,362.848,545.82,343.304,521.814,343.304z
		 M439.814,618.409c0,0-7.647-9.136-14.021-16.995c27.828-7.86,38.45-25.068,38.45-25.068c-8.709,5.736-16.995,9.773-24.43,12.534
		c-10.622,4.46-20.818,7.224-30.804,9.134c-20.393,3.824-39.088,2.762-55.021-0.211c-12.108-2.338-22.519-5.525-31.228-9.135
		c-4.887-1.912-10.197-4.248-15.509-7.223c-0.637-0.426-1.274-0.638-1.911-1.063c-0.426-0.212-0.638-0.426-0.85-0.426
		c-3.825-2.124-5.949-3.611-5.949-3.611s10.197,16.783,37.177,24.855c-6.373,8.072-14.233,17.42-14.233,17.42
		c-46.948-1.488-64.793-32.077-64.793-32.077c0-67.768,30.591-122.789,30.591-122.789c30.591-22.731,59.482-22.093,59.482-22.093
		l2.124,2.548c-38.238,10.834-55.658,27.617-55.658,27.617s4.674-2.548,12.534-5.948c22.73-9.985,40.787-12.533,48.223-13.384
		c1.274-0.212,2.337-0.424,3.611-0.424c12.959-1.7,27.617-2.125,42.912-0.425c20.181,2.337,41.85,8.285,63.943,20.181
		c0,0-16.782-15.933-52.896-26.767l2.974-3.398c0,0,29.104-0.638,59.482,22.093c0,0,30.591,55.021,30.591,122.789
		C504.607,586.33,486.763,616.922,439.814,618.409L439.814,618.409z M760.593,434.227h-70.528v79.238l46.948,42.275v-76.902h25.067
		c15.933,0,23.793,7.647,23.793,19.969v58.844c0,12.321-7.435,20.606-23.793,20.606h-72.229v44.823h70.529
		c37.813,0.214,73.291-18.694,73.291-62.029v-63.307C833.883,453.558,798.407,434.227,760.593,434.227L760.593,434.227z
		 M1130.231,561.052v-65.007c0-23.368,42.063-28.679,54.809-5.311l38.877-15.72c-15.296-33.564-43.126-43.336-66.28-43.336
		c-37.813,0-75.203,21.88-75.203,64.368v65.007c0,42.91,37.39,64.368,74.353,64.368c23.793,0,52.261-11.685,67.979-42.276
		l-41.637-19.119C1172.933,590.154,1130.231,583.781,1130.231,561.052z M1001.708,504.968c-14.657-3.187-24.431-8.498-25.067-17.632
		c0.851-21.882,34.627-22.731,54.383-1.7l31.229-24.005c-19.545-23.793-41.637-30.167-64.368-30.167
		c-34.626,0-68.19,19.544-68.19,56.508c0,35.901,27.616,55.233,57.994,59.908c15.508,2.123,32.714,8.283,32.291,18.904
		c-1.276,20.182-42.912,19.119-61.82-3.822l-30.166,28.253c17.634,22.731,41.639,34.204,64.156,34.204
		c34.626,0,73.078-19.971,74.566-56.51C1068.839,522.812,1035.272,511.128,1001.708,504.968z M859.375,622.869h47.587V434.227
		h-47.587V622.869z M1661.747,434.227h-70.529v79.238l46.95,42.275v-76.902h25.066c15.934,0,23.794,7.647,23.794,19.969v58.844
		c0,12.321-7.436,20.606-23.794,20.606h-72.228v44.823h70.74c37.813,0.214,73.291-18.694,73.291-62.029v-63.307
		C1735.038,453.558,1699.561,434.227,1661.747,434.227z M1315.688,431.677c-39.087,0-77.962,21.244-77.962,64.793v64.368
		c0,43.124,39.087,64.793,78.388,64.793c39.089,0,77.965-21.669,77.965-64.793V496.47
		C1394.078,453.133,1354.777,431.677,1315.688,431.677z M1346.279,560.838c0,13.597-15.296,20.607-30.378,20.607
		c-15.296,0-30.592-6.586-30.592-20.607V496.47c0-13.809,14.871-21.244,29.741-21.244c15.508,0,31.229,6.586,31.229,21.244V560.838
		L1346.279,560.838z M1564.877,496.47c-1.062-44.187-31.229-62.032-70.104-62.032h-75.415v188.643h48.222v-59.905h8.497
		l43.764,59.905h59.481l-51.41-64.793C1550.644,551.066,1564.877,531.31,1564.877,496.47z M1495.622,521.962h-28.042v-43.124h28.042
		C1525.576,478.838,1525.576,521.962,1495.622,521.962z"/>
</g>
</svg>
