<?xml version="1.0" encoding="utf-8"?>
<!-- Generator: Adobe Illustrator 16.0.0, SVG Export Plug-In . SVG Version: 6.00 Build 0)  -->
<!DOCTYPE svg PUBLIC "-//W3C//DTD SVG 1.1//EN" "http://www.w3.org/Graphics/SVG/1.1/DTD/svg11.dtd">
<svg version="1.1" id="Layer_1" xmlns="http://www.w3.org/2000/svg" xmlns:xlink="http://www.w3.org/1999/xlink" x="0px" y="0px"
	 width="50px" height="50px" viewBox="0 0 50 50" enable-background="new 0 0 50 50" xml:space="preserve">
<g>
	<path fill="#7788C4" d="M29.262,21.029c-1.422,0-2.544,1.222-2.544,2.744c0,1.521,1.147,2.745,2.544,2.745
		c1.423,0,2.544-1.224,2.544-2.745C31.807,22.251,30.659,21.029,29.262,21.029z M20.154,21.029c-1.422,0-2.546,1.222-2.546,2.744
		c0,1.521,1.15,2.745,2.546,2.745c1.422,0,2.545-1.224,2.545-2.745C22.725,22.251,21.576,21.029,20.154,21.029z"/>
	<path fill="#7788C4" d="M41.389,0.268H7.952c-2.819,0-5.115,2.296-5.115,5.116V38.82c0,2.819,2.295,5.116,5.115,5.116h28.296
		l-1.322-4.567l3.194,2.945l3.019,2.769l5.391,4.667V5.383C46.505,2.564,44.209,0.268,41.389,0.268z M31.757,32.582
		c0,0-0.897-1.073-1.646-1.996c3.268-0.923,4.516-2.944,4.516-2.944c-1.022,0.674-1.996,1.147-2.87,1.472
		c-1.248,0.523-2.445,0.849-3.618,1.073c-2.396,0.448-4.591,0.324-6.462-0.025c-1.423-0.274-2.646-0.649-3.669-1.073
		c-0.573-0.226-1.197-0.5-1.821-0.85c-0.076-0.049-0.151-0.074-0.226-0.125c-0.048-0.024-0.075-0.049-0.099-0.049
		c-0.449-0.25-0.7-0.424-0.7-0.424s1.199,1.972,4.367,2.92c-0.748,0.947-1.671,2.046-1.671,2.046
		c-5.514-0.176-7.611-3.769-7.611-3.769c0-7.959,3.593-14.422,3.593-14.422c3.594-2.67,6.988-2.594,6.988-2.594l0.25,0.298
		c-4.493,1.271-6.539,3.244-6.539,3.244s0.549-0.298,1.471-0.698c2.671-1.174,4.792-1.473,5.666-1.573
		c0.15-0.024,0.275-0.05,0.424-0.05c1.521-0.2,3.243-0.249,5.041-0.05c2.37,0.274,4.916,0.974,7.51,2.371
		c0,0-1.97-1.872-6.213-3.144l0.349-0.398c0,0,3.419-0.076,6.988,2.594c0,0,3.593,6.463,3.593,14.422
		C39.368,28.814,37.273,32.407,31.757,32.582L31.757,32.582z"/>
</g>
</svg>
