<?xml version="1.0" encoding="utf-8"?>
<!-- Generator: Adobe Illustrator 16.0.0, SVG Export Plug-In . SVG Version: 6.00 Build 0)  -->
<!DOCTYPE svg PUBLIC "-//W3C//DTD SVG 1.1//EN" "http://www.w3.org/Graphics/SVG/1.1/DTD/svg11.dtd">
<svg version="1.1" id="Layer_1" xmlns="http://www.w3.org/2000/svg" xmlns:xlink="http://www.w3.org/1999/xlink" x="0px" y="0px"
	 width="1920px" height="1080px" viewBox="0 0 1920 1080" enable-background="new 0 0 1920 1080" xml:space="preserve">
<rect x="-21" y="1077" fill-rule="evenodd" clip-rule="evenodd" fill="#545454" width="1952" height="1112"/>
<rect x="-10" y="-13" fill-rule="evenodd" clip-rule="evenodd" fill="#EE3724" width="1933" height="1090"/>
<g>
	<path fill="#FFFFFF" d="M247.025,425.391h-77.368v-70.757h239.708v70.757h-77.34v205.309h-85V425.391z M422.575,354.634h232.691
		v70.757H507.63v34.402h147.636v65.75H507.63v34.402h147.675v70.754h-232.73V354.634L422.575,354.634z M669.582,354.634h139.581
		c92.005,0,124.519,68.053,124.519,137.628c0,84.701-44.85,138.438-141.13,138.438H669.582V354.634z M754.635,559.945h33.265
		c52.98,0,60.729-42.93,60.729-68.865c0-17.366-5.441-65.689-66.924-65.689h-27.069V559.945z"/>
</g>
<path fill="#FFFFFF" d="M987.102,359.886h6.653v108.04h-6.653V359.886z M1075.017,451.281h-0.3
	c-6.356,12.255-15.888,18.458-29.807,18.458c-23.454,0-33.593-19.065-33.593-40.553c0-22.998,11.199-40.853,34.648-40.853
	c12.713,0,24.669,6.961,28.751,19.216h0.3v-47.664h5.751v108.04h-5.751V451.281z M1074.864,429.187
	c0-18.156-8.928-35.86-28.903-35.86c-20.576,0-28.9,17.1-28.9,35.86c0,18.312,9.073,35.562,29.055,35.562
	C1065.79,464.748,1074.864,447.044,1074.864,429.187z M1104.526,429.794c-0.305,18.31,9.383,34.954,28.598,34.954
	c14.679,0,25.126-8.777,27.841-23.151h5.752c-3.026,18.157-15.131,28.143-33.593,28.143c-22.696,0-34.648-17.854-34.349-39.342
	c-0.3-21.337,10.893-42.064,34.349-42.064c24.36,0,35.256,19.216,34.197,41.46H1104.526z M1161.569,424.8
	c-0.299-16.343-10.588-31.474-28.448-31.474c-17.25,0-27.388,16.041-28.597,31.474H1161.569z M1241.314,453.55
	c0,4.54,0,9.382,5.142,9.382c1.059,0,2.424-0.153,4.237-0.456v4.843c-1.67,0.302-3.179,0.604-4.692,0.604
	c-9.071,0-10.441-4.992-10.441-11.349v-4.085h-0.3c-3.633,9.232-14.071,17.25-28.899,17.25c-14.679,0-26.03-5.599-26.03-21.941
	c0-18.157,15.738-21.942,28.599-22.999c25.719-1.816,26.781-3.48,26.781-16.19c0-3.48-3.935-15.283-21.64-15.283
	c-13.924,0-23.156,7.263-23.907,20.73h-5.749c0.754-17.1,11.348-25.722,29.656-25.722c13.617,0,27.236,4.238,27.236,20.278v44.938
	H1241.314L1241.314,453.55z M1235.563,423.74c-4.54,5.145-16.948,4.54-28.14,6.054c-13.62,1.512-21.333,6.354-21.333,18.007
	c0,9.382,6.809,16.947,20.426,16.947c26.174,0,29.052-22.394,29.052-26.481L1235.563,423.74z M1265.521,442.05
	c0.907,14.374,11.651,22.698,25.725,22.698c10.134,0,24.663-3.025,24.663-16.495c0-13.165-13.314-15.131-26.632-17.854
	c-13.464-2.723-26.781-6.203-26.781-22.091c0-15.434,14.978-19.974,28.14-19.974c16.495,0,28.75,7.111,28.75,24.815h-5.746
	c-0.155-14.072-9.989-19.82-23.004-19.82c-10.585,0-22.391,3.933-22.391,14.98c0,12.408,13.314,14.377,25.875,17.1
	c15.43,2.876,27.541,6.506,27.541,22.849c0,16.797-16.797,21.487-30.414,21.487c-17.707,0-31.021-9.535-31.479-27.691h5.751v-0.005
	H1265.521z M1403.369,461.268h0.302l21.185-71.12h7.718l21.332,71.12h0.303l21.787-71.12h6.353l-24.964,77.776h-7.114
	l-21.334-70.513h-0.297l-21.487,70.513h-7.264l-24.665-77.776h6.201L1403.369,461.268z M1525.788,388.332
	c22.846,0,35.709,18.611,35.709,40.703c0,22.092-12.863,40.703-35.709,40.703c-22.85,0-35.708-18.611-35.708-40.703
	C1490.08,406.943,1502.936,388.332,1525.788,388.332z M1525.788,464.748c19.519,0,29.959-17.1,29.959-35.711
	s-10.44-35.711-29.959-35.711c-19.521,0-29.965,17.1-29.965,35.711S1506.267,464.748,1525.788,464.748z M1583.893,407.397h0.45
	c3.027-10.139,15.74-18.312,29.81-17.704v5.751c-6.055-0.757-14.521,0.757-21.488,7.565c-5.746,5.901-8.167,10.744-8.772,22.394
	v42.52h-5.751v-77.776h5.751V407.397z M1657.203,395.14h-16.947v54.322c0,12.561,5.899,13.77,16.801,13.467v4.992
	c-11.806,0.757-23.157-0.91-22.552-18.461v-54.32h-14.374v-4.995h14.374v-24.21h5.751v24.21h16.947V395.14z M1679.326,359.886v46.91
	h0.303c3.932-11.653,15.735-18.462,27.84-18.462c27.389,0,27.688,21.942,27.688,31.474v48.119h-5.749v-49.181
	c0-8.021-0.907-25.423-22.092-25.423c-17.399,0-27.996,13.467-27.996,32.533v42.065h-5.746V359.886H1679.326z M988.765,598.582
	c0.907,14.377,11.651,22.702,25.722,22.702c10.134,0,24.666-3.028,24.666-16.49c0-13.167-13.314-15.134-26.631-17.854
	c-13.467-2.72-26.784-6.2-26.784-22.094c0-15.431,14.976-19.973,28.143-19.973c16.492,0,28.75,7.109,28.75,24.814h-5.751
	c-0.15-14.07-9.989-19.817-22.999-19.817c-10.588,0-22.391,3.933-22.391,14.976c0,12.41,13.314,14.377,25.872,17.1
	c15.433,2.873,27.543,6.512,27.543,22.849c0,16.796-16.803,21.484-30.417,21.484c-17.707,0-31.024-9.534-31.479-27.69
	L988.765,598.582L988.765,598.582z M1069.115,564.538h0.302c2.418-7.718,11.193-19.677,28.293-19.677
	c23.908,0,34.954,18.914,34.954,40.855c0,23.606-11.198,40.551-34.954,40.551c-12.859,0-23.753-5.449-28.293-18.006h-0.302v44.035
	h-5.749V546.682h5.749V564.538z M1126.918,585.723c0-17.707-8.32-35.863-29.203-35.863c-20.732,0-28.447,17.396-28.447,35.863
	c0,18.459,6.509,35.559,28.447,35.559C1117.987,621.281,1126.918,604.941,1126.918,585.723z M1155.063,563.934h0.452
	c3.028-10.139,15.736-18.31,29.809-17.705v5.75c-6.053-0.755-14.525,0.757-21.489,7.568c-5.749,5.904-8.168,10.743-8.772,22.394
	v42.52h-5.755v-77.778h5.755V563.934z M1196.825,586.328c-0.302,18.312,9.382,34.953,28.599,34.953
	c14.678,0,25.12-8.78,27.843-23.156h5.749c-3.028,18.162-15.134,28.143-33.592,28.143c-22.7,0-34.652-17.854-34.35-39.348
	c-0.302-21.334,10.896-42.063,34.35-42.063c24.359,0,35.256,19.219,34.199,41.459h-62.8v0.013H1196.825z M1253.869,581.335
	c-0.297-16.348-10.585-31.476-28.445-31.476c-17.253,0-27.389,16.035-28.599,31.476H1253.869z M1333.616,610.083
	c0,4.54,0,9.383,5.141,9.383c1.059,0,2.421-0.156,4.238-0.453v4.842c-1.669,0.298-3.179,0.605-4.689,0.605
	c-9.08,0-10.444-4.994-10.444-11.352v-4.085h-0.303c-3.63,9.229-14.068,17.25-28.899,17.25c-14.679,0-26.027-5.6-26.027-21.939
	c0-18.158,15.738-21.941,28.598-22.999c25.725-1.818,26.782-3.483,26.782-16.192c0-3.48-3.935-15.283-21.639-15.283
	c-13.925,0-23.154,7.263-23.909,20.729h-5.746c0.755-17.097,11.349-25.722,29.655-25.722c13.616,0,27.235,4.234,27.235,20.278
	L1333.616,610.083z M1327.864,580.273c-4.543,5.142-16.944,4.539-28.143,6.055c-13.617,1.514-21.334,6.355-21.334,18.006
	c0,9.382,6.811,16.947,20.427,16.947c26.177,0,29.056-22.396,29.056-26.482L1327.864,580.273L1327.864,580.273z M1415.174,607.814
	h-0.296c-6.356,12.255-15.891,18.459-29.813,18.459c-23.451,0-33.589-19.063-33.589-40.551c0-23.002,11.195-40.855,34.648-40.855
	c12.712,0,24.668,6.961,28.753,19.219h0.296v-47.667h5.75V624.46h-5.75V607.814L1415.174,607.814z M1415.021,585.723
	c0-18.162-8.927-35.863-28.902-35.863c-20.578,0-28.9,17.094-28.9,35.863c0,18.31,9.074,35.559,29.055,35.559
	C1405.945,621.281,1415.021,603.577,1415.021,585.723z M1443.774,532.002v-15.583h5.75v15.583H1443.774z M1443.774,624.46v-77.778
	h5.75v77.778H1443.774z M1471.014,546.682h5.746v16.645h0.302c3.935-11.65,15.735-18.459,27.843-18.459
	c27.389,0,27.686,21.942,27.686,31.479v48.118h-5.749v-49.186c0-8.021-0.904-25.42-22.092-25.42
	c-17.399,0-27.996,13.464-27.996,32.53v42.066h-5.748v-77.774H1471.014z M1617.028,546.682v73.69c0,6.054,0,34.804-33.59,33.745
	c-16.646,0-29.51-6.205-30.415-24.211h5.749c1.215,13.769,12.104,19.219,24.815,19.219c27.233,0,27.688-22.245,27.688-27.387
	v-17.854h-0.3c-5.45,11.498-14.98,17.705-28.146,17.705c-22.844,0-33.587-16.796-33.587-38.43c0-20.578,11.651-38.284,33.587-38.284
	c12.105,0,23.908,6.354,28.146,18.004h0.3v-16.196h5.751L1617.028,546.682z M1554.991,583.149c0,18.309,9.533,33.442,27.84,33.442
	c18.914,0,28.295-15.888,28.295-33.442c0-17.402-9.23-33.29-28.295-33.29C1564.07,549.859,1554.991,566.656,1554.991,583.149z"/>
</svg>
