<?xml version="1.0" encoding="utf-8"?>
<!-- Generator: Adobe Illustrator 16.0.0, SVG Export Plug-In . SVG Version: 6.00 Build 0)  -->
<!DOCTYPE svg PUBLIC "-//W3C//DTD SVG 1.1//EN" "http://www.w3.org/Graphics/SVG/1.1/DTD/svg11.dtd">
<svg version="1.1" id="Layer_1" xmlns="http://www.w3.org/2000/svg" xmlns:xlink="http://www.w3.org/1999/xlink" x="0px" y="0px"
	 width="1920px" height="1080px" viewBox="0 0 1920 1080" enable-background="new 0 0 1920 1080" xml:space="preserve">
<g>
	<path fill="#EE3724" d="M255.025,434.391h-77.368v-70.757h239.708v70.757h-77.34v205.309h-85V434.391z M430.575,363.634h232.691
		v70.757H515.63v34.402h147.636v65.75H515.63v34.402h147.675v70.754h-232.73V363.634L430.575,363.634z M677.582,363.634h139.581
		c92.005,0,124.519,68.053,124.519,137.628c0,84.701-44.85,138.438-141.13,138.438H677.582V363.634z M762.635,568.945h33.265
		c52.98,0,60.729-42.93,60.729-68.865c0-17.366-5.441-65.689-66.924-65.689h-27.069V568.945z"/>
</g>
<path fill="#010101" d="M995.102,368.886h6.653v108.04h-6.653V368.886z M1083.017,460.281h-0.3
	c-6.356,12.255-15.888,18.458-29.807,18.458c-23.454,0-33.593-19.065-33.593-40.553c0-22.998,11.199-40.853,34.648-40.853
	c12.713,0,24.669,6.961,28.751,19.216h0.3v-47.664h5.751v108.04h-5.751V460.281z M1082.864,438.187
	c0-18.156-8.928-35.86-28.903-35.86c-20.576,0-28.9,17.1-28.9,35.86c0,18.312,9.073,35.562,29.055,35.562
	C1073.79,473.748,1082.864,456.044,1082.864,438.187z M1112.526,438.794c-0.305,18.31,9.383,34.954,28.598,34.954
	c14.679,0,25.126-8.777,27.841-23.151h5.752c-3.026,18.157-15.131,28.143-33.593,28.143c-22.696,0-34.648-17.854-34.349-39.342
	c-0.3-21.337,10.893-42.064,34.349-42.064c24.36,0,35.256,19.216,34.197,41.46H1112.526z M1169.569,433.8
	c-0.299-16.343-10.588-31.474-28.448-31.474c-17.25,0-27.388,16.041-28.597,31.474H1169.569z M1249.314,462.55
	c0,4.54,0,9.382,5.142,9.382c1.059,0,2.424-0.153,4.237-0.456v4.843c-1.67,0.302-3.179,0.604-4.692,0.604
	c-9.071,0-10.441-4.992-10.441-11.349v-4.085h-0.3c-3.633,9.232-14.071,17.25-28.899,17.25c-14.679,0-26.03-5.599-26.03-21.941
	c0-18.157,15.738-21.942,28.599-22.999c25.719-1.816,26.781-3.48,26.781-16.19c0-3.48-3.935-15.283-21.64-15.283
	c-13.924,0-23.156,7.263-23.907,20.73h-5.749c0.754-17.1,11.348-25.722,29.656-25.722c13.617,0,27.236,4.238,27.236,20.278v44.938
	H1249.314L1249.314,462.55z M1243.563,432.74c-4.54,5.145-16.948,4.54-28.14,6.054c-13.62,1.512-21.333,6.354-21.333,18.007
	c0,9.382,6.809,16.947,20.426,16.947c26.174,0,29.052-22.394,29.052-26.481L1243.563,432.74z M1273.521,451.05
	c0.907,14.374,11.651,22.698,25.725,22.698c10.134,0,24.663-3.025,24.663-16.495c0-13.165-13.314-15.131-26.632-17.854
	c-13.464-2.723-26.781-6.203-26.781-22.091c0-15.434,14.978-19.974,28.14-19.974c16.495,0,28.75,7.111,28.75,24.815h-5.746
	c-0.155-14.072-9.989-19.82-23.004-19.82c-10.585,0-22.391,3.933-22.391,14.98c0,12.408,13.314,14.377,25.875,17.1
	c15.43,2.876,27.541,6.506,27.541,22.849c0,16.797-16.797,21.487-30.414,21.487c-17.707,0-31.021-9.535-31.479-27.691h5.751v-0.005
	H1273.521z M1411.369,470.268h0.302l21.185-71.12h7.718l21.332,71.12h0.303l21.787-71.12h6.353l-24.964,77.776h-7.114
	l-21.334-70.513h-0.297l-21.487,70.513h-7.264l-24.665-77.776h6.201L1411.369,470.268z M1533.788,397.332
	c22.846,0,35.709,18.611,35.709,40.703c0,22.092-12.863,40.703-35.709,40.703c-22.85,0-35.708-18.611-35.708-40.703
	C1498.08,415.943,1510.936,397.332,1533.788,397.332z M1533.788,473.748c19.519,0,29.959-17.1,29.959-35.711
	s-10.44-35.711-29.959-35.711c-19.521,0-29.965,17.1-29.965,35.711S1514.267,473.748,1533.788,473.748z M1591.893,416.397h0.45
	c3.027-10.139,15.74-18.312,29.81-17.704v5.751c-6.055-0.757-14.521,0.757-21.488,7.565c-5.746,5.901-8.167,10.744-8.772,22.394
	v42.52h-5.751v-77.776h5.751V416.397z M1665.203,404.14h-16.947v54.322c0,12.561,5.899,13.77,16.801,13.467v4.992
	c-11.806,0.757-23.157-0.91-22.552-18.461v-54.32h-14.374v-4.995h14.374v-24.21h5.751v24.21h16.947V404.14z M1687.326,368.886v46.91
	h0.303c3.932-11.653,15.735-18.462,27.84-18.462c27.389,0,27.688,21.942,27.688,31.474v48.119h-5.749v-49.181
	c0-8.021-0.907-25.423-22.092-25.423c-17.399,0-27.996,13.467-27.996,32.533v42.065h-5.746V368.886H1687.326z M996.765,607.582
	c0.907,14.377,11.651,22.702,25.722,22.702c10.134,0,24.666-3.029,24.666-16.49c0-13.167-13.314-15.134-26.631-17.854
	c-13.467-2.72-26.784-6.201-26.784-22.094c0-15.431,14.976-19.973,28.143-19.973c16.492,0,28.75,7.11,28.75,24.815h-5.751
	c-0.15-14.071-9.989-19.818-22.999-19.818c-10.588,0-22.391,3.933-22.391,14.976c0,12.41,13.314,14.377,25.872,17.1
	c15.433,2.873,27.543,6.512,27.543,22.848c0,16.795-16.803,21.484-30.417,21.484c-17.707,0-31.024-9.535-31.479-27.69
	L996.765,607.582L996.765,607.582z M1077.115,573.538h0.302c2.418-7.718,11.193-19.677,28.293-19.677
	c23.908,0,34.954,18.914,34.954,40.856c0,23.606-11.198,40.55-34.954,40.55c-12.859,0-23.753-5.449-28.293-18.006h-0.302v44.036
	h-5.749V555.681h5.749V573.538z M1134.918,594.723c0-17.707-8.32-35.863-29.203-35.863c-20.732,0-28.447,17.396-28.447,35.863
	c0,18.459,6.509,35.559,28.447,35.559C1125.987,630.281,1134.918,613.941,1134.918,594.723z M1163.063,572.934h0.452
	c3.028-10.139,15.736-18.31,29.809-17.705v5.75c-6.053-0.754-14.525,0.757-21.489,7.568c-5.749,5.904-8.168,10.744-8.772,22.394
	v42.52h-5.755v-77.779h5.755V572.934z M1204.825,595.328c-0.302,18.312,9.382,34.954,28.599,34.954
	c14.678,0,25.12-8.78,27.843-23.157h5.749c-3.028,18.162-15.134,28.143-33.592,28.143c-22.7,0-34.652-17.854-34.35-39.347
	c-0.302-21.334,10.896-42.064,34.35-42.064c24.359,0,35.256,19.219,34.199,41.459h-62.8v0.012H1204.825z M1261.869,590.335
	c-0.297-16.348-10.585-31.476-28.445-31.476c-17.253,0-27.389,16.035-28.599,31.476H1261.869z M1341.616,619.083
	c0,4.54,0,9.383,5.141,9.383c1.059,0,2.421-0.156,4.238-0.453v4.842c-1.669,0.298-3.179,0.605-4.689,0.605
	c-9.08,0-10.444-4.994-10.444-11.352v-4.085h-0.303c-3.63,9.229-14.068,17.25-28.899,17.25c-14.679,0-26.027-5.599-26.027-21.939
	c0-18.159,15.738-21.941,28.598-22.999c25.725-1.818,26.782-3.483,26.782-16.192c0-3.48-3.935-15.283-21.639-15.283
	c-13.925,0-23.154,7.263-23.909,20.729h-5.746c0.755-17.097,11.349-25.722,29.655-25.722c13.616,0,27.235,4.235,27.235,20.278
	L1341.616,619.083z M1335.864,589.273c-4.543,5.142-16.944,4.54-28.143,6.054c-13.617,1.514-21.334,6.355-21.334,18.006
	c0,9.382,6.811,16.947,20.427,16.947c26.177,0,29.056-22.397,29.056-26.482L1335.864,589.273L1335.864,589.273z M1423.174,616.814
	h-0.296c-6.356,12.255-15.891,18.459-29.813,18.459c-23.451,0-33.589-19.063-33.589-40.551c0-23.001,11.195-40.855,34.648-40.855
	c12.712,0,24.668,6.961,28.753,19.219h0.296v-47.667h5.75V633.46h-5.75V616.814L1423.174,616.814z M1423.021,594.723
	c0-18.162-8.927-35.863-28.902-35.863c-20.578,0-28.9,17.094-28.9,35.863c0,18.31,9.074,35.559,29.055,35.559
	C1413.945,630.281,1423.021,612.577,1423.021,594.723z M1451.774,541.002v-15.583h5.75v15.583H1451.774z M1451.774,633.46v-77.779
	h5.75v77.779H1451.774z M1479.014,555.681h5.746v16.645h0.302c3.935-11.65,15.735-18.459,27.843-18.459
	c27.389,0,27.686,21.942,27.686,31.479v48.118h-5.749v-49.186c0-8.02-0.904-25.419-22.092-25.419
	c-17.399,0-27.996,13.464-27.996,32.53v42.066h-5.748v-77.775H1479.014z M1625.028,555.681v73.691c0,6.053,0,34.804-33.59,33.745
	c-16.646,0-29.51-6.205-30.415-24.211h5.749c1.215,13.769,12.104,19.218,24.815,19.218c27.233,0,27.688-22.245,27.688-27.386
	v-17.854h-0.3c-5.45,11.498-14.98,17.705-28.146,17.705c-22.844,0-33.587-16.795-33.587-38.429
	c0-20.578,11.651-38.284,33.587-38.284c12.105,0,23.908,6.354,28.146,18.004h0.3v-16.196h5.751L1625.028,555.681z M1562.991,592.149
	c0,18.309,9.533,33.442,27.84,33.442c18.914,0,28.295-15.888,28.295-33.442c0-17.402-9.23-33.29-28.295-33.29
	C1572.07,558.859,1562.991,575.656,1562.991,592.149z"/>
</svg>
