<?xml version="1.0" encoding="utf-8"?>
<!-- Generator: Adobe Illustrator 16.0.0, SVG Export Plug-In . SVG Version: 6.00 Build 0)  -->
<!DOCTYPE svg PUBLIC "-//W3C//DTD SVG 1.1//EN" "http://www.w3.org/Graphics/SVG/1.1/DTD/svg11.dtd">
<svg version="1.1" id="Layer_1" xmlns="http://www.w3.org/2000/svg" xmlns:xlink="http://www.w3.org/1999/xlink" x="0px" y="0px"
	 width="50px" height="50px" viewBox="0 0 50 50" enable-background="new 0 0 50 50" xml:space="preserve">
<g>
	<path fill="#EE3724" d="M5.37,20.178H0.427v-4.521h15.317v4.521h-4.943v13.119H5.37V20.178z M16.587,15.657h14.868v4.521h-9.434
		v2.198h9.434v4.2h-9.434v2.199h9.437v4.521H16.587V15.657L16.587,15.657z M32.369,15.657h8.919c5.879,0,7.956,4.349,7.956,8.794
		c0,5.412-2.865,8.846-9.018,8.846h-7.857V15.657z M37.804,28.775h2.126c3.386,0,3.881-2.742,3.881-4.4
		c0-1.11-0.349-4.197-4.277-4.197h-1.729V28.775z"/>
</g>
</svg>
