<?xml version="1.0" encoding="utf-8"?>
<!-- Generator: Adobe Illustrator 16.0.0, SVG Export Plug-In . SVG Version: 6.00 Build 0)  -->
<!DOCTYPE svg PUBLIC "-//W3C//DTD SVG 1.1//EN" "http://www.w3.org/Graphics/SVG/1.1/DTD/svg11.dtd">
<svg version="1.1" id="Layer_1" xmlns="http://www.w3.org/2000/svg" xmlns:xlink="http://www.w3.org/1999/xlink" x="0px" y="0px"
	 width="1920px" height="1080px" viewBox="0 0 1920 1080" enable-background="new 0 0 1920 1080" xml:space="preserve">
<g>
	<path fill-rule="evenodd" clip-rule="evenodd" fill="#FFFFFF" d="M1871.087,17.01c0,1.32,0,2.492,0,3.752
		c-0.724,0.154-1.39,0.264-2.036,0.442c-1.289,0.357-1.568,1.113-0.83,2.188c0.35,0.508,0.723,0.998,1.223,1.688
		c-0.938,0.916-1.816,1.775-2.768,2.703c-0.617-0.443-1.104-0.814-1.611-1.153c-1.17-0.779-1.995-0.441-2.271,0.915
		c-0.123,0.611-0.245,1.222-0.391,1.945c-1.213,0-2.373,0-3.721,0c-0.125-0.619-0.26-1.271-0.391-1.926
		c-0.268-1.331-1.139-1.691-2.295-0.929c-0.469,0.309-0.908,0.659-1.563,1.138c-0.902-0.911-1.797-1.815-2.734-2.761
		c0.602-0.861,1.1-1.572,1.57-2.247c-0.152-2.081-1.898-1.643-3.242-1.979c0-1.289,0-2.502,0-3.689
		c1.025-0.813,3.016,0.08,3.255-2.097c-0.441-0.609-0.95-1.313-1.441-1.991c0.642-1.36,0.991-1.745,2.687-2.947
		c0.516,0.37,1.047,0.791,1.617,1.15c0.971,0.612,1.857,0.246,2.098-0.855c0.146-0.666,0.244-1.342,0.379-2.099
		c1.254,0,2.419,0,3.746,0c0.143,0.729,0.26,1.456,0.434,2.169c0.24,0.975,1.131,1.359,1.986,0.842
		c0.584-0.354,1.119-0.787,1.716-1.214c1.009,0.876,1.976,1.715,2.956,2.565c-0.586,0.791-0.978,1.277-1.322,1.795
		c-0.621,0.936-0.314,1.789,0.795,2.129C1869.578,16.742,1870.258,16.835,1871.087,17.01z M1860.64,14.549
		c-2.505-0.04-4.479,1.811-4.528,4.244c-0.049,2.379,1.969,4.418,4.385,4.431c2.349,0.013,4.34-1.872,4.433-4.193
		C1865.025,16.619,1863.08,14.587,1860.64,14.549z"/>
	<path fill-rule="evenodd" clip-rule="evenodd" fill="#FFFFFF" d="M1873.479,16.394c-0.78-0.458-1.413-0.829-2.109-1.237
		c0.224-0.645,0.424-1.163,0.586-1.693c0.297-0.962,0.092-1.309-0.918-1.587c-0.537-0.149-1.078-0.278-1.696-0.437
		c0-0.771,0-1.504,0-2.354c0.575-0.148,1.173-0.278,1.753-0.46c0.981-0.308,1.148-0.654,0.83-1.654
		c-0.149-0.474-0.327-0.938-0.564-1.609c0.693-0.393,1.365-0.772,1.994-1.128c2.306,2.082,2.306,2.082,4.428,0
		c0.631,0.339,1.315,0.707,1.969,1.058c-0.051,0.342-0.052,0.534-0.111,0.708c-0.8,2.338-0.803,2.336,1.631,2.896
		c0.176,0.041,0.344,0.115,0.601,0.203c0,0.727,0,1.457,0,2.306c-0.583,0.159-1.176,0.311-1.763,0.48
		c-0.997,0.29-1.174,0.622-0.857,1.626c0.164,0.526,0.355,1.044,0.561,1.643c-0.709,0.42-1.344,0.796-2.072,1.226
		c-0.398-0.454-0.748-0.879-1.125-1.277c-0.717-0.757-1.337-0.765-2.049-0.015C1874.224,15.445,1873.928,15.849,1873.479,16.394z
		 M1875.543,12.367c1.3,0.022,2.328-0.945,2.293-2.156c-0.031-1.136-1.016-2.08-2.193-2.104c-1.279-0.025-2.301,0.954-2.277,2.188
		C1873.389,11.486,1874.289,12.344,1875.543,12.367z"/>
	<path fill-rule="evenodd" clip-rule="evenodd" fill="#FFFFFF" d="M1869.33,28.75c-0.033-0.514-0.076-0.881-0.078-1.248
		c0-0.367,0.043-0.734,0.074-1.207c0.572-0.146,1.104-0.288,1.638-0.418c1.099-0.268,1.294-0.608,0.944-1.701
		c-0.15-0.473-0.32-0.939-0.539-1.571c0.695-0.415,1.369-0.818,2.021-1.208c2.478,2.626,2.146,2.355,4.392,0.003
		c0.644,0.37,1.32,0.759,2.044,1.176c-0.237,0.654-0.445,1.169-0.608,1.698c-0.291,0.95-0.047,1.364,0.92,1.597
		c0.541,0.13,1.088,0.239,1.719,0.378c0,0.854,0,1.632,0,2.384c-2.887,0.709-2.887,0.709-2.117,3.835
		c-0.594,0.332-1.23,0.687-2.125,1.186c-0.305-0.418-0.559-0.852-0.895-1.208c-0.909-0.968-1.33-0.946-2.287,0.044
		c-0.301,0.313-0.594,0.633-0.998,1.063c-0.65-0.356-1.288-0.705-2.047-1.12c0.188-0.593,0.352-1.111,0.516-1.631
		c0.348-1.097,0.166-1.476-0.924-1.771C1870.502,28.898,1870,28.859,1869.33,28.75z M1875.564,29.639
		c1.291,0.016,2.311-0.979,2.271-2.218c-0.035-1.122-1.079-2.144-2.208-2.157c-1.223-0.015-2.304,1.071-2.269,2.279
		C1873.395,28.714,1874.35,29.623,1875.564,29.639z"/>
</g>
<g>
	<path fill-rule="evenodd" clip-rule="evenodd" fill="#FFFFFF" d="M1814.326,28.956c-1.375,3.793-2.561,4.884-5.204,4.883
		c-2.644-0.002-3.837-1.104-5.186-4.884c-2.575,0-5.206,0.077-7.825-0.043c-0.868-0.04-1.822-0.433-2.539-0.942
		c-0.719-0.514-0.769-1.33,0-2.056c4.18-3.943,5.396-9.052,5.613-14.522c0.219-5.536,2.541-8.451,8.025-9.809
		c0.244-1.059,0.191-2.562,1.912-2.553c1.613,0.008,1.719,1.281,1.801,1.998c2.004,1.181,3.894,2.003,5.418,3.267
		c1.857,1.54,2.71,3.706,2.721,6.217c0.02,3.979,0.531,7.894,2.576,11.412c0.728,1.251,1.727,2.342,2.551,3.54
		c0.381,0.555,1.057,1.463,0.875,1.741c-0.465,0.716-1.258,1.417-2.061,1.661c-0.938,0.285-2.025,0.086-3.049,0.088
		C1818.061,28.958,1816.168,28.956,1814.326,28.956z M1796.543,26.235c8.514,0,16.695,0,25.158,0
		c-3.602-4.65-4.818-9.76-4.932-15.211c-0.07-3.455-1.69-5.715-4.841-6.77c-3.384-1.133-7.284-0.164-9.093,2.493
		c-0.703,1.034-1.262,2.394-1.293,3.619C1801.395,16.046,1800.316,21.391,1796.543,26.235z"/>
</g>
<rect x="-3.258" y="-6.688" fill-rule="evenodd" clip-rule="evenodd" fill="#56B3E5" width="1933.499" height="1094.999"/>
<g>
	<path fill-rule="evenodd" clip-rule="evenodd" fill="#FFFFFF" d="M125.078,496.142c2.984-12.192,5.844-24.416,11.387-35.803
		c21.984-45.173,56.562-73.265,107.352-79.764c27.734-3.548,60.732,2.405,82.573,12.106c-6.753,5.486-13.507,10.383-19.581,16.013
		c-19.9,18.448-37.383,38.905-47.904,64.238c-6.275,15.105-9.4,31.399-6.689,47.538c1.703,10.149,7.926,19.342,14.799,27.478
		c0.242,0.287,0.593,0.511,0.764,0.831c7.824,14.834,20.364,22.147,36.863,23.257c1.469,0.099,3.154,0.409,4.313,1.226
		c9.199,6.486,17.723,2.832,26.449-1.256c6.127-2.871,12.514-5.201,18.836-7.643c5.711-2.209,9.873-5.619,12.086-11.698
		c2.973-8.173,7.816-15.453,12.656-22.646c3.553-5.286,4.57-10.618,3.367-17.081c-1.748-9.393-3.002-18.926-2.77-28.597
		c0.149-6.157-2.361-11.212-7.809-14.75c-6.482-4.207-12.778-8.741-17.842-14.677c-6.497-7.616-15.648-8.177-24.541-9.738
		c-9.809-1.721-19.621-3.568-28.818-7.652c-0.514-0.229-1.115-0.293-1.59-0.578c-2.688-1.612-7.215-2.438-7.143-5.642
		c0.086-3.858,4.416-6.208,6.84-9.256c1.061-1.333,2.314-0.064,3.473,0.577c26.309,14.556,53.092,15.932,80.492,3.062
		c11.715-5.501,22.809-12.468,35.887-14.801c14.905-2.66,24.205,2.546,29.062,16.877c0.646,1.907,1.413,2.99,3.587,2.445
		c19.199-4.804,32.346,5.486,42.266,19.309c16.931,23.588,14.811,49.3,4.734,75.205c-3.057-16.79-13.58-28.931-24.678-40.613
		c-13.068-13.755-23.854-28.601-24.789-48.12c-1.988-0.615-2.455,0.444-2.834,1.171c-5.203,9.981-13.943,10.558-23.342,8.448
		c-13.174-2.96-26.012-7.717-39.91-6.187c-4.928,0.542-9.578,1.747-14.156,3.563c-3.595,1.427-4.045,2.959-1.465,6.112
		c7.382,9.023,16.666,15.093,27.555,18.918c15.613,5.486,31.592,9.974,46.459,17.48c10.635,5.369,18.051,13.277,21.418,24.878
		c2.095,7.228,0.26,13.53-4.502,18.865c-2.9,3.249-3.146,4.898,1.008,7.105c9.393,4.987,15.264,13.168,19.463,22.734
		c1.014,2.309,1.236,4.198-0.68,6.152c-8.311,8.475-17.43,15.976-27.38,23.608c-4.1-16.203-4.833-31.614,0.236-47.034
		c1.921-5.844,1.159-7.338-4.997-7.167c-9.277,0.257-14.221-4.711-17.145-12.699c-2.521-6.885-4.465-13.988-8.031-20.474
		c-5.648-10.271-13.995-16.961-25.641-19.935c-3.633,18.093-1.387,35.044,6.1,51.507c5.641,12.403,13.695,23.397,19.953,35.419
		c2.172,4.167,4.221,8.423,5.982,12.775c6.09,15.024,0.264,28.092-15.055,33.737c-2.213,0.816-2.457,1.711-1.634,3.69
		c5.538,13.347,3.468,26.524-0.847,39.698c-0.971,2.963-1.93,3.896-5.514,3.477c-11.379-1.337-22.842-2.092-34.295-2.605
		c-4.15-0.188-4.238-1.411-2.707-4.55c7.496-15.367,19.07-27.005,33.301-36.07c3.793-2.415,4.527-3.507,0.439-6.512
		c-8.15-5.989-10.43-15.848-5.938-25.822c5.112-11.356,6.101-22.8,2.267-34.609c-1.502-4.624-2.936-10.72-8.174-11.076
		c-4.23-0.287-6.09,5.492-8.059,9.229c-9.195,17.46-12.861,36.413-14.553,55.839c-0.719,8.261-1.566,16.474-4.4,24.34
		c-4.993,13.869-15.883,19.721-29.871,15.369c-3.84-1.193-4.684,0.895-6.046,3.014c-9.472,14.735-22.677,24.938-38.47,32.129
		c-3.26,1.482-5.271,1.396-7.467-1.903c-5.945-8.937-12.199-17.673-18.549-26.327c-2.168-2.956-1.657-4.557,1.43-6.102
		c6.699-3.353,13.928-4.303,21.23-5.225c11.666-1.476,23.301-0.307,34.928,0.222c4.576,0.209,6.076-0.88,5.264-5.58
		c-1.816-10.511,2.193-18.325,11.584-23.35c10.012-5.36,17.834-12.569,20.629-24.1c0.18-0.731,0.449-1.444,0.566-2.183
		c1.404-8.751,0.611-8.895-7.746-6.659c-12.715,3.399-21.084,12.745-30.643,20.532c-12.285,10.009-24.328,20.454-40.581,23.518
		c-8.083,1.522-16.201,1.227-23.894-1.877c-6.283-2.533-11.365-6.599-13.789-13.338c-0.893-2.482-2.002-5.369-5.555-4.146
		c-21.228,7.306-40.133,0.323-58.15-9.996c-27.84-15.947-45.645-39.296-50.516-71.614c-0.072-0.482-0.596-0.897-0.91-1.344
		C125.078,512.737,125.078,504.44,125.078,496.142z M166.623,544.137c0.707,2.167,0.898,2.866,1.16,3.535
		c5.93,15.009,18.422,21.558,33.07,24.137c15.738,2.77,27.426,10.788,35.859,23.961c2.227,3.478,3.477,3.499,6.604,0.561
		c9.359-8.791,15.656-9.438,27.117-3.769c2.861,1.416,5.553,3.176,8.359,4.705c9.417,5.129,20.775,3.542,27.599-3.576
		c2.839-2.963,3.233-4.829-0.835-7.165c-9.916-5.69-20.436-8.543-31.842-7.866c-14.271,0.847-28.523,1.389-42.713-1.058
		c-10.178-1.756-19.553-4.716-23.461-15.751c-2.908-8.214-2.859-8.232-11.775-8.09c-0.189,0.002-0.377-0.001-0.564,0.001
		C185.088,553.86,176.223,549.984,166.623,544.137z M167.367,491.968c-1.674,4.225-1.541,7.675-0.947,11.291
		c1.922,11.681,8.91,19.627,18.519,25.673c8.163,5.136,16.173,10.448,21.271,18.945c1.584,2.641,2.566,1.509,4.266,0.252
		c5.988-4.438,12.597-4.563,18.882-0.558c4.667,2.975,8.345,7.041,11.763,11.286c5.225,6.493,12.377,8.943,20.176,9.654
		c5.051,0.461,5.865-1.139,3.502-5.516c-5.777-10.705-14.695-17.482-26.431-20.373c-7.466-1.839-15.099-2.99-22.562-4.828
		c-9.432-2.324-15.516-8.974-14.465-16.821c0.691-5.171-1.334-6.339-5.498-6.666c-5.403-0.424-10.092-2.734-14.581-5.584
		C175.027,504.77,171.162,498.813,167.367,491.968z M187.617,456.829c-3.34,4.976-5.006,8.948-4.957,13.698
		c0.098,8.931,4.295,15.886,10.379,21.843c4.838,4.737,8.611,10.057,10.012,16.697c0.713,3.383,2.506,4.189,5.561,4.073
		c9.264-0.354,16.041,3.985,20.158,11.976c2.867,5.563,7.557,8.145,12.947,10.113c1.971,0.721,4.49,1.449,5.93,0.012
		c1.779-1.778-0.316-3.849-1.235-5.52c-5.72-10.395-15.423-16.28-25.341-21.798c-8.554-4.757-10.998-8.786-9.458-18.219
		c0.542-3.306-0.608-4.34-3.356-5.221c-5.342-1.712-9.779-4.865-13.104-9.417C191.459,470.008,189.365,464.209,187.617,456.829z
		 M214.127,438.725c-4.773,5.66-4.873,11.544-3.744,17.621c1.607,8.638,5.547,16.803,5.242,25.829
		c-0.09,2.695,2.078,2.925,3.834,3.226c5.125,0.877,7.747,3.944,8.891,8.878c1.51,6.513,5.363,11.555,10.861,15.259
		c1.445,0.975,2.955,3.152,4.881,1.926c1.754-1.118,0.92-3.459,0.773-5.254c-0.121-1.475-0.605-2.945-1.102-4.358
		c-2.348-6.714-6.852-12.096-11.346-17.368c-4.811-5.64-6.113-11.487-2.641-18.126c1.111-2.127,1.441-4.093-0.92-5.286
		C219.918,456.556,216.566,448.328,214.127,438.725z M250.729,475.643c-0.251-1.851-0.486-3.704-0.756-5.553
		c-1.855-12.683-10.004-23.493-10.828-36.516c-0.17-2.671-1.857-1.649-3.061-0.49c-2.666,2.57-3.135,5.97-2.904,9.342
		c0.398,5.878,3.691,11.44,1.738,17.631c-0.543,1.721,1.188,2.402,2.567,3.163c5.946,3.275,8.265,8.296,6.943,14.955
		c-0.444,2.24-0.778,4.471-0.212,6.688c0.3,1.186,0.422,2.886,2.072,2.96c1.277,0.058,1.668-1.307,2.058-2.337
		C249.545,482.32,250.658,479.13,250.729,475.643z M256.649,459.434c4.087-10.094,3.976-22.448-0.075-29.218
		C249.018,436.549,249.57,448.515,256.649,459.434z M268.326,441.698c2.008-3.172,3.889-6.148,5.773-9.123
		c0.4-0.632,0.871-1.23,1.197-1.898c0.381-0.773,1.242-1.566,0.383-2.483c-0.738-0.789-1.664-0.486-2.613-0.309
		C267.93,428.845,265.522,435.367,268.326,441.698z"/>
	<path fill-rule="evenodd" clip-rule="evenodd" fill="#FFFFFF" d="M800.588,802.78c0-20.158,0-40.316,0-60.586
		c-2.247-0.223-2.857,1.701-3.85,2.771c-8.557,9.219-18.537,14.227-31.295,10.371c-12.613-3.813-16.732-14.317-19.004-25.737
		c-1.205-6.055-1.828-12.332-1.808-18.506c0.085-26.382-0.796-52.776,0.56-79.145c0.359-6.966,1.705-13.806,4.463-20.293
		c5.896-13.868,19.977-19.332,34.269-13.263c6.927,2.941,12.181,7.99,16.89,13.648c1.327-0.557,0.869-1.631,0.883-2.46
		c0.18-11.44,0.17-11.441,11.373-11.44c3.96,0,7.941,0.271,11.871-0.076c4.068-0.357,5.01,1.176,4.99,5.071
		c-0.154,29.787-0.107,59.575-0.08,89.364c0.031,36.759,0.104,73.519,0.158,110.279C820.201,802.78,810.395,802.78,800.588,802.78z
		 M800.584,676.503c0-12.607,0-25.215,0-37.822c0-8.508-4.781-14.131-13.303-15.479c-4.895-0.775-8.477,1.162-10.4,5.747
		c-1.617,3.851-2.283,7.948-2.297,12.109c-0.077,22.953-0.121,45.905-0.138,68.86c-0.002,4.351,0.598,8.636,2.316,12.671
		c2.175,5.111,6.493,7.353,11.817,6.267c6.804-1.388,11.988-6.167,11.996-11.146C800.598,703.975,800.584,690.238,800.584,676.503z"
		/>
	<path fill-rule="evenodd" clip-rule="evenodd" fill="#FFFFFF" d="M1777.078,372.808c-3.629,10.462-4.639,21.481-6.725,32.263
		c-8.434,43.574-16.598,87.2-24.998,130.781c-1.244,6.455-3.619,12.601-6.586,18.53c-6.234,12.468-16.58,18.527-30.098,19.768
		c-2.809,0.258-5.658,0.307-8.474,0.158c-9.192-0.49-7.687,0.863-7.81-7.988c-0.068-5.09-0.025-10.182-0.002-15.273
		c0.01-1.633-0.41-3.081,2.459-3.186c19.389-0.713,25.617-7.987,23.959-27.544c-1.625-19.194-6.453-37.813-10.27-56.607
		c-6.438-31.683-13.059-63.328-19.725-95.595c8.943,0,17.58-0.01,26.215,0.004c3.266,0.005,2.629,2.82,2.881,4.551
		c2.104,14.341,4.012,28.71,6.012,43.067c3.479,24.979,6.979,49.954,10.492,74.928c0.043,0.297,0.391,0.551,1.326,1.801
		c1.018-9.059,1.969-17.243,2.857-25.433c3.45-31.827,6.91-63.652,10.27-95.488c0.281-2.665,1.313-3.533,3.902-3.479
		c8.104,0.167,16.209,0.158,24.313,0.218C1777.078,369.791,1777.078,371.299,1777.078,372.808z"/>
	<path fill-rule="evenodd" clip-rule="evenodd" fill="#FFFFFF" d="M574.285,301.522c-1.002,2.36-0.491,4.842-0.491,7.258
		c-0.028,150.034-0.015,300.067-0.147,450.1c-0.002,2.358,2.383,7.067-2.613,6.91c-4.447-0.142-2.117-4.554-2.119-6.828
		c-0.135-150.221-0.121-300.442-0.131-450.665c0-2.258-0.099-4.517-0.154-6.775C570.516,301.522,572.4,301.522,574.285,301.522z"/>
	<path fill-rule="evenodd" clip-rule="evenodd" fill="#FFFFFF" d="M704.893,465.178c0.432-4.545,0.828-9.093,1.299-13.635
		c2.93-28.305,9.648-55.952,14.637-83.898c2.977-16.664,6.41-33.246,9.357-49.914c0.566-3.204,1.82-3.866,4.74-3.823
		c10.178,0.149,20.369,0.266,30.539-0.045c4.057-0.124,4.484,1.543,4.473,4.917c-0.105,29.035-0.061,58.069-0.061,87.104
		c-0.002,37.33-0.123,74.662,0.137,111.99c0.035,5.176-1.443,6.506-6.311,6.116c-5.244-0.42-10.559-0.271-15.826-0.025
		c-3.412,0.158-4.547-0.895-4.545-4.425c0.016-26.199-0.553-52.404-0.177-78.596c0.372-25.977,1.603-51.941,2.534-77.909
		c0.188-5.175,0.971-10.333-0.354-15.635c-2.326,12.11-4.666,24.216-6.976,36.33c-8.622,45.254-17.302,90.499-25.72,135.791
		c-0.701,3.767-2.141,4.439-5.479,4.446c-11.209,0.022-11.018,0.1-12.936-10.997c-8.039-46.516-16.201-93.011-24.326-139.514
		c-1.771-10.144-3.57-20.283-5.623-31.942c0,11.479-0.133,21.394,0.031,31.302c0.27,16.382,0.915,32.76,1.071,49.143
		c0.31,32.224,0.312,64.452,0.657,96.676c0.045,4.128-0.811,5.68-5.207,5.368c-5.816-0.412-11.685-0.206-17.525-0.064
		c-2.643,0.065-3.928-0.742-3.582-3.516c0.092-0.743,0.012-1.507,0.012-2.261c0-66.176,0.057-132.352-0.12-198.528
		c-0.013-4.784,1.225-5.96,5.88-5.786c10.166,0.379,20.359,0.233,30.537,0.047c3.109-0.057,4.148,0.989,4.656,4.014
		c6.582,39.139,13.426,78.233,19.902,117.389c1.626,9.824,2.18,19.826,3.227,29.747
		C704.177,465.088,704.535,465.133,704.893,465.178z"/>
	<path fill-rule="evenodd" clip-rule="evenodd" fill="#FFFFFF" d="M1556.219,414.116c14.563,6.688,20.156,18.833,21.98,33.404
		c1.602,12.793,1.58,25.534-1.189,38.188c-4.568,20.88-17.031,32.966-38.033,36.329c-19.271,3.085-38.738,1.5-58.121,1.875
		c-2.084,0.041-3.217-0.665-3.104-2.903c0.066-1.316,0.01-2.639,0.01-3.958c0-65.607,0.068-131.214-0.135-196.82
		c-0.016-5.28,1.436-6.556,6.506-6.372c17.123,0.622,34.309-0.851,51.393,1.251c15.621,1.923,29.999,6.656,35.959,22.973
		c7.121,19.5,6.83,39.53,0.52,59.265C1569.561,404.997,1563.734,410.229,1556.219,414.116z M1509.09,462.61
		c0,6.029,0,12.057,0,18.086c0,17.243,0,17.243,17.393,15.417c9.805-1.03,16.004-5.93,18.611-15.444
		c3.133-11.444,3.242-23.114,0.828-34.679c-1.816-8.702-7.197-14.067-16.264-15.805c-5.648-1.082-11.266-0.426-16.881-0.843
		c-3.074-0.227-3.793,0.993-3.744,3.88C1509.189,443.017,1509.093,452.814,1509.09,462.61z M1509.09,370.787
		c0,5.272,0,10.544,0,15.817c0,17.067,0.262,17.285,17.378,14.335c0.735-0.127,1.437-0.441,2.169-0.593
		c7.66-1.575,12.275-6.532,14.049-13.805c2.434-9.967,2.65-20.132,0.301-30.164c-2.291-9.788-8.303-14.674-18.309-15.271
		c-3.943-0.235-7.914,0.047-11.857-0.193c-3.018-0.184-3.848,0.975-3.791,3.888C1509.194,353.461,1509.088,362.124,1509.09,370.787z
		"/>
	<path fill-rule="evenodd" clip-rule="evenodd" fill="#FFFFFF" d="M1321.691,616.64c5.273-5.81,9.336-10.479,14.33-14.213
		c15.432-11.533,30.499-7.063,37.078,11.042c0.313,0.856,0.664,1.697,1.121,2.852c4.211-4.115,8.086-8.073,12.148-11.823
		c3.771-3.479,8.088-6.213,13.08-7.577c11.451-3.128,21.592,2.249,25.703,13.486c3.697,10.1,3.877,20.712,3.943,31.212
		c0.225,35.826,0.012,71.656,0.186,107.482c0.022,4.26-1.084,5.558-5.344,5.299c-6.198-0.375-12.457-0.384-18.654,0.003
		c-4.26,0.267-5.303-1.025-5.279-5.263c0.184-35.45,0.133-70.901,0.058-106.352c-0.007-3.556-0.294-7.19-1.069-10.648
		c-1.857-8.296-9.299-10.757-15.896-5.326c-4.297,3.533-6.984,7.467-6.918,13.846c0.383,36.012,0.115,72.031,0.275,108.046
		c0.021,4.261-0.781,6.055-5.479,5.707c-6.001-0.446-12.08-0.429-18.086-0.006c-4.627,0.327-5.947-0.917-5.914-5.751
		c0.236-34.883,0.116-69.769,0.143-104.653c0.002-4.165-0.152-8.307-1.258-12.333c-2.07-7.545-8.383-9.977-14.795-5.552
		c-4.978,3.435-7.949,7.608-7.883,14.458c0.355,36.201,0.086,72.408,0.277,108.612c0.021,4.296-1.096,5.462-5.295,5.214
		c-6.389-0.375-12.84-0.432-19.221,0.017c-4.519,0.318-5.122-1.413-5.109-5.394c0.137-44.502,0.078-89.003,0.1-133.505
		c0.004-5.456-1.916-12.798,0.84-15.874c3.186-3.555,10.66-1.015,16.266-1.106c10.656-0.173,10.658-0.05,10.652,10.575
		C1321.691,611.147,1321.691,613.178,1321.691,616.64z"/>
	<path fill-rule="evenodd" clip-rule="evenodd" fill="#FFFFFF" d="M714.682,754.515c-5.053-0.221-11.318,1.286-14.805-1.165
		c-3.262-2.294-1.967-9.026-2.57-13.824c-0.986-7.843-2.246-15.66-2.922-23.528c-0.283-3.309-1.498-4.026-4.504-3.956
		c-7.533,0.175-15.08,0.226-22.611-0.018c-3.424-0.11-4.488,1.051-4.793,4.401c-0.988,10.869-2.436,21.695-3.5,32.559
		c-0.398,4.039-1.824,5.715-6.246,5.44c-7.133-0.444-14.318-0.219-21.477-0.071c-2.818,0.059-3.949-0.361-3.453-3.692
		c7.8-52.088,15.469-104.196,23.148-156.3c2.223-15.072,4.469-30.141,6.51-45.236c0.451-3.331,1.43-4.708,5.129-4.606
		c10.547,0.286,21.113,0.292,31.658-0.004c3.695-0.104,4.809,1.291,5.301,4.586c3.834,25.673,7.764,51.335,11.703,76.993
		c5.422,35.308,10.877,70.61,16.318,105.914c0.945,6.137,1.836,12.279,2.867,18.401c0.467,2.769-0.018,4.177-3.311,3.96
		c-4.129-0.271-8.289-0.065-12.436-0.065C714.686,754.374,714.684,754.444,714.682,754.515z M679.348,563.226
		c-0.271-0.037-0.545-0.075-0.818-0.113c-0.359,1.756-0.873,3.494-1.05,5.269c-3.751,37.402-7.423,74.813-11.261,112.207
		c-0.309,3.026,0.721,3.479,3.275,3.417c5.268-0.127,10.57-0.396,15.799,0.065c4.986,0.44,5.77-1.222,5.242-5.919
		c-2.053-18.303-3.625-36.658-5.389-54.992C683.221,603.18,681.281,583.204,679.348,563.226z"/>
	<path fill-rule="evenodd" clip-rule="evenodd" fill="#FFFFFF" d="M164.469,412.224c9.135-14.813,21.619-26.535,35.188-37.048
		c31.467-24.385,67.428-36.355,107.045-38.816c60.797-3.776,111.066,17.97,152.799,61.331c0.522,0.542,1.026,1.107,1.473,1.711
		c0.209,0.283,0.261,0.682,0.475,1.287c-9.441,4.134-19.557,5.405-29.58,5.737c-33.68,1.115-66.275-4.538-97.564-17.253
		c-41.277-16.774-82.973-20.645-125.23-3.78c-13.566,5.415-25.785,13.195-37.08,22.445c-2.172,1.777-4.497,3.367-6.75,5.043
		C164.984,412.661,164.729,412.442,164.469,412.224z"/>
	<path fill-rule="evenodd" clip-rule="evenodd" fill="#FFFFFF" d="M909.375,736.167c-5.898,6.1-10.68,11.123-16.68,14.871
		c-6.93,4.327-14.318,5.497-22.186,4.078c-9.727-1.756-15.702-9.398-17.883-22.097c-1.379-8.024-1.609-16.128-1.648-24.194
		c-0.18-34.871,0.03-69.744-0.189-104.615c-0.031-4.891,1.5-6.082,6.061-5.797c6.006,0.374,12.08,0.397,18.082-0.021
		c4.641-0.325,5.594,1.405,5.572,5.729c-0.168,35.061-0.109,70.121-0.096,105.182c0,4.325,0.042,8.649,1.447,12.838
		c1.748,5.202,5.301,7.521,10.744,7.083c7.848-0.63,15.303-8.619,15.303-16.445c0.002-36.19,0.102-72.384-0.119-108.574
		c-0.029-4.848,1.387-6.105,5.996-5.809c6.198,0.4,12.441,0.258,18.654,0.051c3.301-0.111,4.629,0.703,4.621,4.342
		c-0.111,49.198-0.107,98.397-0.006,147.595c0.008,3.427-1.324,4.058-4.324,3.975c-6.404-0.179-12.82-0.199-19.223,0.009
		c-3.145,0.103-4.395-0.783-4.189-4.088C909.574,746.032,909.375,741.76,909.375,736.167z"/>
	<path fill-rule="evenodd" clip-rule="evenodd" fill="#FFFFFF" d="M1308.498,451.483c-8.482,0.004-16.967,0.073-25.449-0.037
		c-2.658-0.034-4.133,0.354-4.063,3.608c0.232,10.551-0.215,21.127,0.326,31.656c0.559,10.85,7.508,16.563,16.929,14.856
		c6.372-1.155,10.333-5.475,11.179-13.09c0.583-5.223,0.547-10.525,0.566-15.794c0.012-2.631,0.852-3.65,3.607-3.588
		c7.16,0.159,14.325,0.059,21.488,0.046c1.557-0.003,3.24-0.063,3.246,2.09c0.035,15.202-0.293,30.516-11.582,42.41
		c-13.24,13.949-29.922,15.641-47.443,10.827c-17.285-4.75-23.6-18.692-26.305-34.69c-2.72-16.074-1.256-32.354-1.291-48.539
		c-0.031-14.462-1.229-29.005,2.18-43.338c4.813-20.223,16.979-31.097,36.164-31.985c24.752-1.147,38.619,7.493,45.447,28.353
		c4.895,14.948,4.639,30.413,4.568,45.861c-0.049,11.349-0.008,11.35-11.471,11.35
		C1320.561,451.479,1314.531,451.479,1308.498,451.483z M1292.574,426.938c4.631,0,8.391-0.095,12.146,0.034
		c2.422,0.083,3.398-0.857,3.32-3.267c-0.219-6.563,0.016-13.161-0.588-19.683c-0.813-8.793-5.365-13.087-13.08-13.271
		c-8.918-0.213-13.443,3.49-14.924,12.599c-0.477,2.942-0.445,6-0.357,8.996c0.139,4.658-1.99,10.625,0.822,13.617
		C1282.783,429.02,1288.822,426.43,1292.574,426.938z"/>
	<path fill-rule="evenodd" clip-rule="evenodd" fill="#FFFFFF" d="M1134.83,451.485c-8.291-0.005-16.584,0.13-24.871-0.068
		c-3.502-0.084-5.119,0.656-4.894,4.636c0.616,10.892-0.882,21.857,0.894,32.711c1.43,8.723,5.945,12.908,13.619,13.022
		c7.811,0.117,12.08-3.739,14.104-12.531c1.248-5.416,0.625-10.887,0.621-16.326c-0.004-2.922,0.799-3.936,3.818-3.846
		c6.963,0.207,13.941,0.086,20.914,0.058c1.969-0.008,3.645-0.148,3.688,2.763c0.141,9.84-0.229,19.625-3.76,28.929
		c-7.205,18.981-26.457,29.019-48.266,25.384c-20.328-3.39-32.149-17.036-33.893-40.372c-1.982-26.5-2.193-53.096,0.075-79.562
		c1.481-17.279,7.825-32.382,26.438-38.266c10.291-3.253,20.873-3.375,31.174-0.442c14.203,4.042,21.781,14.697,25.855,28.22
		c5.195,17.258,3.834,35.047,4.072,52.706c0.045,3.237-2.033,2.999-4.152,2.996C1151.789,451.484,1143.309,451.49,1134.83,451.485z
		 M1119.013,426.939c4.644,0,8.415-0.054,12.183,0.022c1.937,0.04,3.334-0.215,3.191-2.67c-0.436-7.5,0.918-15.076-0.982-22.519
		c-2.113-8.273-5.98-11.231-14.498-11.02c-7.234,0.179-11.469,3.936-12.828,11.703c-0.551,3.137-0.938,6.362-0.865,9.534
		c0.113,4.828-2.15,11.005,1.016,14.11C1109.133,428.948,1115.216,426.565,1119.013,426.939z"/>
	<path fill-rule="evenodd" clip-rule="evenodd" fill="#FFFFFF" d="M930.186,385.784c4.842-4.615,8.57-8.546,12.697-12.001
		c4.939-4.135,10.406-7.521,17.117-7.917c16.098-0.949,24.754,7.003,27.289,24.823c0.932,6.546,1.299,13.115,1.301,19.71
		c0.018,35.999-0.072,71.998,0.111,107.996c0.023,4.451-1.125,5.885-5.6,5.598c-6.008-0.386-12.078-0.398-18.082,0.01
		c-4.686,0.32-5.994-1.13-5.969-5.873c0.201-35.621,0.117-71.244,0.102-106.867c0-3.57,0.055-7.134-1.111-10.616
		c-1.973-5.901-5.379-8.222-11.453-7.558c-7.686,0.84-14.738,8.677-14.74,16.383c0,36.375-0.066,72.752,0.093,109.127
		c0.017,4.063-0.72,5.695-5.171,5.403c-6.383-0.419-12.83-0.401-19.213-0.004c-4.346,0.27-5.261-1.168-5.238-5.339
		c0.184-32.794,0.1-65.59,0.1-98.385c0-15.832,0.1-31.666-0.074-47.496c-0.039-3.531,0.68-4.975,4.566-4.767
		c6.389,0.34,12.816,0.251,19.217,0.022c3.268-0.117,4.287,1.022,4.113,4.188C930.012,376.342,930.186,380.486,930.186,385.784z"/>
	<path fill-rule="evenodd" clip-rule="evenodd" fill="#FFFFFF" d="M1243.521,735.938c-5.217,5.475-9.268,9.866-14.165,13.313
		c-5.665,3.979-11.792,6.723-18.845,6.48c-13.104-0.443-19.803-6.097-23.027-18.987c-1.844-7.367-2.352-14.86-2.355-22.408
		c-0.016-36.751,0.065-73.503-0.1-110.254c-0.021-4.313,0.914-5.998,5.52-5.683c6.003,0.411,12.072,0.371,18.08-0.001
		c4.447-0.274,5.701,1.106,5.678,5.617c-0.193,34.112-0.141,68.226-0.068,102.339c0.01,5.245-0.09,10.544,1.512,15.669
		c1.642,5.253,5.18,7.568,10.631,7.218c7.619-0.488,15.49-8.733,15.49-16.318c0.002-36.375,0.066-72.75-0.092-109.123
		c-0.016-4.049,0.697-5.706,5.166-5.41c6.381,0.424,12.811,0.238,19.215,0.055c3.203-0.092,4.686,0.55,4.678,4.277
		c-0.115,49.19-0.107,98.38-0.012,147.569c0.005,3.302-1.094,4.176-4.225,4.074c-6.4-0.206-12.818-0.188-19.221-0.005
		c-2.912,0.081-4.061-0.784-3.914-3.809C1243.68,746.239,1243.521,741.909,1243.521,735.938z"/>
	<path fill-rule="evenodd" clip-rule="evenodd" fill="#FFFFFF" d="M881.568,446.341c-0.314,14.488,0.613,29.009-1.609,43.439
		c-4.43,28.768-23.016,39.728-50.402,36.308c-20.496-2.559-31.598-15.012-34.689-36.379c-1.873-12.962-1.262-25.966-1.168-38.949
		c0.115-15.811-1.063-31.655,1.125-47.433c4.537-32.712,37.588-48.885,66.328-32.31c11.586,6.682,16.346,17.772,18.584,30.205
		C882.428,416.159,881.266,431.286,881.568,446.341z M823.057,445.594c0,9.42-0.094,18.839,0.033,28.257
		c0.076,5.622-0.67,11.293,0.881,16.856c2.115,7.578,6.377,11.104,13.57,11.081c7.119-0.022,11.682-3.652,13.463-11.214
		c0.727-3.078,0.973-6.332,0.984-9.506c0.076-23.358,0.053-46.718,0.023-70.076c-0.004-3.761-0.185-7.518-1.434-11.133
		c-2.273-6.564-5.938-9.109-13.168-9.108c-7.242,0.001-10.824,2.571-13.096,9.213c-1.121,3.274-1.262,6.631-1.26,10.028
		C823.059,421.859,823.056,433.727,823.057,445.594z"/>
	<path fill-rule="evenodd" clip-rule="evenodd" fill="#FFFFFF" d="M1013.416,739.341c-6.598,7.766-13.147,13.694-22.151,15.781
		c-19.339,4.483-35.579-7.496-37.95-27.625c-2.746-23.328,5.517-42.034,23.422-56.78c9.65-7.947,20.428-14.106,31.781-19.21
		c3.271-1.469,4.602-3.269,4.242-6.789c-0.416-4.11-0.113-8.32-0.781-12.377c-0.947-5.762-3.947-10.125-10.156-11.402
		c-5.986-1.23-12.268,1.504-15.613,6.746c-1.859,2.917-2.982,6.18-3.197,9.529c-0.199,3.074-1.078,4.141-4.281,4.018
		c-6.777-0.259-13.572-0.204-20.355-0.023c-3.055,0.081-3.596-0.852-3.258-3.838c3.154-27.95,22.889-43.627,51.893-41.023
		c22.127,1.986,33.356,14.973,34.574,40.263c1.344,27.878,0.376,55.777,0.605,83.666c0.086,10.362,0.172,20.728,2.287,30.91
		c0.597,2.876-0.438,3.163-2.736,3.143c-7.352-0.065-14.707-0.141-22.057,0.032c-2.961,0.068-3.893-1.117-4.176-3.895
		C1015.17,747.143,1014.297,743.875,1013.416,739.341z M1012.754,696.699c0-6.205-0.072-12.409,0.031-18.612
		c0.051-2.961-0.609-3.7-3.482-2.124c-7.469,4.1-14.473,8.776-19.943,15.388c-6.918,8.361-9.375,17.896-6.389,28.437
		c1.955,6.908,7.461,10.354,14.021,9.388c8.307-1.225,15.766-9.916,15.768-18.376C1012.76,706.099,1012.76,701.398,1012.754,696.699
		z"/>
	<path fill-rule="evenodd" clip-rule="evenodd" fill="#FFFFFF" d="M1649.783,509.466c-3.303,3.625-6.417,7.111-10.287,9.806
		c-20.377,14.19-45.51,3.529-49.039-20.988c-3.193-22.175,3.654-40.801,20.445-55.731c10.367-9.222,22.293-15.988,34.789-21.765
		c3.037-1.405,4.412-2.985,4.098-6.317c-0.373-3.931-0.193-7.922-0.697-11.83c-0.873-6.784-4.6-10.969-10.16-11.988
		c-7.064-1.294-13.063,1.269-16.297,7.267c-1.145,2.12-2.469,4.585-2.381,6.839c0.224,5.662-2.701,6.316-7.295,6.07
		c-5.826-0.311-11.682-0.161-17.522-0.039c-2.889,0.062-3.858-0.651-3.501-3.89c3.609-32.697,35.779-51.163,66.096-37.881
		c10.229,4.481,15.42,12.847,18.168,23.065c1.963,7.299,2.656,14.792,2.637,22.367c-0.059,22.804,0.02,45.607-0.037,68.411
		c-0.029,12.439,0.234,24.879,2.406,37.134c0.715,4.025-0.924,3.958-3.701,3.929c-6.596-0.072-13.195-0.177-19.787,0.031
		c-3.418,0.109-5.004-0.728-5.441-4.511C1651.908,516.258,1651.943,512.746,1649.783,509.466z M1649.779,443.763
		c-9.779,4.676-17.943,9.924-24.123,17.766c-5.887,7.467-8.348,15.971-6.369,25.403c1.734,8.242,6.398,12.152,13.381,11.688
		c6.936-0.462,16.916-8.505,17.029-14.377C1649.957,471.086,1649.779,457.922,1649.779,443.763z"/>
	<path fill-rule="evenodd" clip-rule="evenodd" fill="#FFFFFF" d="M1390.853,492.02c3.909-36.123,7.956-72.23,11.667-108.374
		c1.592-15.51,1.277-15.598,16.767-15.505c4.106,0.025,9.679-1.821,11.925,0.807c2.24,2.625-0.691,7.751-1.447,11.754
		c-9.732,51.563-19.521,103.117-29.346,154.664c-1.092,5.744-3.094,11.223-5.459,16.576c-6.371,14.396-17.584,21.561-33.117,22.261
		c-3.383,0.153-6.783-0.051-10.17,0.031c-2.686,0.066-4.176-0.658-4.084-3.799c0.186-6.406,0.044-12.822,0.053-19.233
		c0.002-1.728-0.092-3.053,2.564-3.251c19.701-1.471,25.773-9.243,23.512-29.179c-2.318-20.422-7.267-40.338-11.322-60.424
		c-5.809-28.755-11.742-57.485-17.824-86.184c-0.709-3.348-0.242-4.234,3.186-4.125c6.781,0.217,13.589,0.317,20.357-0.038
		c3.674-0.193,4.461,1.573,4.86,4.504c3.825,27.973,7.675,55.942,11.561,83.906c1.649,11.855,3.399,23.697,5.103,35.544
		C1390.043,491.978,1390.447,491.999,1390.853,492.02z"/>
	<path fill-rule="evenodd" clip-rule="evenodd" fill="#FFFFFF" d="M1014.438,445.605c0-18.201-0.125-33.29,0.09-48.373
		c0.053-3.741-1.041-4.691-4.71-4.676c-12.185,0.052-12.185-0.101-12.185-12.36c-0.002-11.972,0.002-12.152,11.895-11.992
		c3.961,0.053,5.111-0.995,5.008-4.988c-0.283-10.742,0.113-21.501-0.203-32.241c-0.121-4.165,1.318-4.994,5.104-4.821
		c6.588,0.301,13.207,0.284,19.795,0.002c3.623-0.155,4.824,0.81,4.729,4.611c-0.268,10.742,0.146,21.503-0.21,32.241
		c-0.145,4.409,1.273,5.541,5.389,5.17c3.928-0.354,7.918,0.036,11.873-0.115c2.389-0.092,3.336,0.619,3.27,3.153
		c-0.154,6.03-0.189,12.073,0.012,18.101c0.1,2.945-1.225,3.444-3.711,3.37c-4.332-0.131-8.682,0.132-13.008-0.101
		c-3.031-0.164-3.771,0.967-3.764,3.861c0.096,29.795-0.07,59.592,0.129,89.386c0.078,11.749,4.197,15.362,15.697,14.107
		c4.479-0.489,5.596,0.873,5.258,5.031c-0.318,3.935-0.551,7.989,0.045,11.858c0.93,6.067-2.129,7.987-7.305,8.605
		c-6.586,0.787-13.184,0.961-19.697-0.22c-13.584-2.46-20.553-11.467-22.41-27.909
		C1013.467,479.057,1015.004,460.757,1014.438,445.605z"/>
	<path fill-rule="evenodd" clip-rule="evenodd" fill="#FFFFFF" d="M1090.865,615.73c4.225-4.369,7.365-8.99,11.891-12.362
		c5.248-3.914,11.158-6.004,17.646-6.888c2.994-0.408,4.086,0.142,4.027,3.308c-0.154,8.097-0.137,16.202-0.002,24.302
		c0.045,2.732-0.578,3.501-3.514,3.065c-21.609-3.21-28.127,2.442-28.191,24.564c-0.096,32.405-0.129,64.813,0.088,97.217
		c0.031,4.586-1.336,5.714-5.641,5.458c-6.008-0.357-12.074-0.401-18.074,0.01c-4.551,0.313-5.592-1.253-5.574-5.627
		c0.156-43.71,0.096-87.42,0.096-131.131c0-5.087,0.125-10.178-0.047-15.261c-0.1-2.898,0.834-4.029,3.85-3.946
		c6.589,0.179,13.191,0.198,19.779,0.01c3.178-0.092,3.793,1.356,3.703,4.085C1090.76,606.928,1090.865,611.33,1090.865,615.73z"/>
	<path fill-rule="evenodd" clip-rule="evenodd" fill="#FFFFFF" d="M1209.066,385.719c7.072-10.617,15.75-17.757,28.281-19.68
		c3.859-0.591,5.893-0.093,5.611,4.694c-0.432,7.326-0.26,14.7-0.047,22.046c0.096,3.261-0.818,4.358-4.133,3.752
		c-4.811-0.882-9.625-1.262-14.578-0.341c-6.328,1.177-9.977,4.829-11.656,10.793c-1.289,4.583-1.387,9.291-1.387,14.01
		c0.01,32.421-0.07,64.843,0.098,97.263c0.023,4.283-0.863,6.035-5.514,5.748c-6.572-0.406-13.191-0.223-19.783-0.053
		c-3.006,0.078-4.311-0.568-4.303-3.993c0.105-49.386,0.084-98.771,0.037-148.157c-0.002-2.413,0.244-3.846,3.271-3.759
		c6.969,0.2,13.949,0.148,20.922,0.017c2.438-0.046,3.313,0.708,3.227,3.197C1208.949,376.071,1209.066,380.897,1209.066,385.719z"
		/>
	<path fill-rule="evenodd" clip-rule="evenodd" fill="#FFFFFF" d="M321.002,722.729c-26.717,5.651-49.893-1.944-70.498-19.023
		c-16.5-13.675-28.789-30.738-38.828-49.401c-7.893-14.675-18.434-26.942-30.922-37.74c-1.068-0.926-2.578-1.617-2.82-3.817
		c12.02,0.669,23.33,3.569,34.17,8.31c22.754,9.949,39.791,26.737,54.493,46.173c7.716,10.2,14.942,20.771,22.601,31.017
		C297.447,709.287,307.311,718.344,321.002,722.729z"/>
	<path fill-rule="evenodd" clip-rule="evenodd" fill="#FFFFFF" d="M1134.206,676.553c0-24.124,0.147-48.25-0.126-72.37
		c-0.055-4.886,1.445-6.084,6.023-5.785c6.006,0.391,12.063,0.295,18.082,0.026c3.676-0.163,4.792,0.948,4.752,4.726
		c-0.193,19.221-0.088,38.445-0.088,57.669c0,29.4-0.078,58.801,0.088,88.2c0.021,4.011-0.65,5.722-5.141,5.393
		c-5.998-0.44-12.068-0.381-18.077-0.016c-4.333,0.263-5.68-0.909-5.632-5.475C1134.336,724.801,1134.206,700.675,1134.206,676.553z
		"/>
	<path fill-rule="evenodd" clip-rule="evenodd" fill="#FFFFFF" d="M462.438,659.861c-10.357,17.347-25.373,28.335-44.15,34.208
		c-25.877,8.092-51.895,7.254-77.805-0.018c-14.186-3.982-28.635-6.068-43.316-6.755c-2.395-0.111-4.799-0.016-8.83-0.016
		c7.518-7.429,15.371-11.198,23.418-14.353c13.033-5.106,26.676-7.416,40.676-8.295c19.998-1.254,39.702,1.04,59.508,3.19
		c16.257,1.767,32.356,0.34,47.203-7.677C459.908,659.733,460.637,658.935,462.438,659.861z"/>
	<path fill-rule="evenodd" clip-rule="evenodd" fill="#FFFFFF" d="M510.188,499.237c6.939,20.13,5.721,38.902,1.292,57.621
		c-2.114,8.946-4.815,17.777-7.688,26.516c-4.293,13.055-13.896,22.274-23.865,30.953c-11.391,9.918-23.68,18.478-37.943,24.104
		c-7,2.762-12.938,7.686-18.226,13.155c-2.462,2.546-4.813,5.196-7.616,8.236c-1.768-2.714-1.093-4.477-0.787-6.229
		c2.896-16.542,11.906-29.938,22.18-42.596c10.238-12.61,21.824-23.944,34.098-34.566c21.055-18.223,31.912-41.925,37.029-68.726
		C509.113,505.319,509.523,502.925,510.188,499.237z"/>
	<path fill-rule="evenodd" clip-rule="evenodd" fill="#FFFFFF" d="M128.076,565.661c14.26,6.782,24.422,16.735,32.631,28.964
		c9.684,14.425,12.311,31.393,17.213,47.528c3.557,11.689,7.164,23.32,13.84,34.072
		C161.221,658.709,133.992,611.083,128.076,565.661z"/>
	<path fill-rule="evenodd" clip-rule="evenodd" fill="#FFFFFF" d="M1162.436,559.071c0,4.859,1.869,11.244-0.51,14.161
		c-2.537,3.109-9.186,0.929-14.021,0.909c-4.449-0.019-10.354,2.068-12.947-0.934c-2.178-2.519-0.836-8.252-0.703-12.552
		c0.16-5.21-2.305-12.123,1.037-15.125c2.863-2.572,9.65-0.873,14.703-0.895c12.855-0.057,12.855-0.019,12.855,12.735
		c0,0.564,0,1.131,0,1.697C1162.711,559.07,1162.572,559.071,1162.436,559.071z"/>
	<path fill-rule="evenodd" clip-rule="evenodd" fill="#FFFFFF" d="M379.203,706.026c-21.045,12.976-41.266,18.972-64.406,7.956
		c7.621-3.704,13.838-8.124,19.443-13.38c1.051-0.984,2.043-1.393,3.529-0.962C350.77,703.409,364.326,703.738,379.203,706.026z"/>
	<path fill-rule="evenodd" clip-rule="evenodd" fill="#FFFFFF" d="M231.476,692.674c-17.183,1.063-36.458-14.69-42.542-34.06
		c2.969,0.176,6.04,0.946,8.864,0.412c9.245-1.748,14.329,2.5,18.491,10.335C220.495,677.278,226.055,684.476,231.476,692.674z"/>
	<path fill-rule="evenodd" clip-rule="evenodd" fill="#FFFFFF" d="M483.734,619.451c-0.004,16.442-13.133,33.404-28.992,37.738
		c-3.186,0.87-3.607,0.653-3.316-2.943c0.848-10.474,3.768-18.692,14.938-22.726c6.557-2.367,11.041-8.791,17.428-12.014
		L483.734,619.451z"/>
	<path fill-rule="evenodd" clip-rule="evenodd" fill="#FFFFFF" d="M165.242,412.881c-0.58,0.986-0.84,2.316-2.43,2.327
		c-0.453-1.617,0.785-2.197,1.656-2.983C164.729,412.442,164.984,412.661,165.242,412.881z"/>
	<path fill-rule="evenodd" clip-rule="evenodd" fill="#FFFFFF" d="M483.791,619.507c0.068-0.152,0.137-0.305,0.207-0.457
		c-0.088,0.135-0.176,0.268-0.264,0.402C483.734,619.451,483.791,619.507,483.791,619.507z"/>
</g>
</svg>
