<?xml version="1.0" encoding="utf-8"?>
<!-- Generator: Adobe Illustrator 16.0.0, SVG Export Plug-In . SVG Version: 6.00 Build 0)  -->
<!DOCTYPE svg PUBLIC "-//W3C//DTD SVG 1.1//EN" "http://www.w3.org/Graphics/SVG/1.1/DTD/svg11.dtd">
<svg version="1.1" id="Layer_1" xmlns="http://www.w3.org/2000/svg" xmlns:xlink="http://www.w3.org/1999/xlink" x="0px" y="0px"
	 width="50px" height="50px" viewBox="0 0 50 50" enable-background="new 0 0 50 50" xml:space="preserve">
<path fill-rule="evenodd" clip-rule="evenodd" fill="#56B3E5" d="M0.703,20.963c0.372-1.518,0.727-3.039,1.417-4.456
	c2.737-5.622,7.041-9.12,13.363-9.928c3.452-0.442,7.559,0.299,10.279,1.507c-0.841,0.683-1.682,1.292-2.438,1.993
	c-2.478,2.296-4.654,4.843-5.964,7.995c-0.781,1.882-1.169,3.909-0.833,5.918c0.212,1.263,0.987,2.408,1.843,3.42
	c0.029,0.036,0.074,0.063,0.095,0.104c0.974,1.847,2.534,2.758,4.588,2.895c0.183,0.013,0.393,0.053,0.537,0.153
	c1.145,0.808,2.206,0.353,3.292-0.157c0.763-0.356,1.558-0.647,2.345-0.95c0.711-0.275,1.229-0.7,1.504-1.456
	c0.37-1.018,0.972-1.924,1.575-2.819c0.442-0.658,0.569-1.321,0.418-2.127c-0.217-1.168-0.373-2.356-0.345-3.559
	c0.019-0.767-0.293-1.396-0.972-1.837c-0.806-0.523-1.591-1.088-2.22-1.826c-0.809-0.948-1.948-1.019-3.056-1.213
	c-1.22-0.215-2.441-0.444-3.587-0.952c-0.064-0.028-0.138-0.036-0.198-0.071c-0.334-0.201-0.897-0.305-0.888-0.704
	c0.01-0.479,0.549-0.771,0.851-1.151c0.132-0.166,0.288-0.008,0.433,0.072c3.274,1.813,6.608,1.983,10.019,0.381
	c1.458-0.685,2.839-1.553,4.466-1.844c1.856-0.329,3.014,0.318,3.619,2.103c0.079,0.236,0.175,0.372,0.445,0.305
	c2.39-0.6,4.027,0.683,5.262,2.403c2.107,2.937,1.843,6.137,0.589,9.36c-0.38-2.089-1.69-3.601-3.072-5.054
	c-1.627-1.713-2.969-3.562-3.085-5.991c-0.248-0.076-0.306,0.056-0.354,0.146c-0.647,1.241-1.735,1.313-2.905,1.051
	c-1.64-0.368-3.237-0.96-4.968-0.77c-0.613,0.067-1.192,0.218-1.762,0.444c-0.448,0.176-0.504,0.367-0.183,0.761
	c0.918,1.123,2.075,1.877,3.43,2.354c1.943,0.684,3.932,1.243,5.782,2.176c1.324,0.669,2.248,1.653,2.667,3.098
	c0.26,0.899,0.032,1.684-0.561,2.349c-0.361,0.404-0.392,0.609,0.125,0.883c1.169,0.622,1.9,1.64,2.423,2.831
	c0.126,0.287,0.154,0.522-0.084,0.766c-1.035,1.055-2.17,1.988-3.409,2.938c-0.51-2.017-0.602-3.936,0.03-5.855
	c0.239-0.727,0.144-0.912-0.623-0.891c-1.155,0.03-1.77-0.587-2.134-1.581c-0.313-0.857-0.555-1.741-1-2.549
	c-0.703-1.278-1.741-2.111-3.192-2.481c-0.452,2.253-0.172,4.361,0.759,6.411c0.703,1.544,1.705,2.912,2.483,4.409
	c0.271,0.52,0.526,1.048,0.745,1.591c0.758,1.87,0.033,3.497-1.873,4.198c-0.276,0.103-0.306,0.214-0.205,0.46
	c0.69,1.662,0.432,3.302-0.105,4.942c-0.121,0.368-0.24,0.483-0.687,0.433c-1.416-0.167-2.843-0.261-4.269-0.324
	c-0.517-0.024-0.528-0.176-0.337-0.566c0.933-1.914,2.374-3.361,4.146-4.49c0.472-0.301,0.563-0.437,0.054-0.81
	c-1.014-0.747-1.298-1.974-0.739-3.216c0.636-1.412,0.759-2.838,0.282-4.309c-0.187-0.575-0.365-1.334-1.018-1.378
	c-0.526-0.036-0.758,0.684-1.003,1.149c-1.144,2.173-1.601,4.532-1.811,6.95c-0.09,1.028-0.196,2.051-0.548,3.03
	c-0.622,1.726-1.978,2.454-3.718,1.912c-0.479-0.147-0.583,0.111-0.753,0.375c-1.179,1.835-2.823,3.105-4.789,3.999
	c-0.406,0.185-0.656,0.175-0.93-0.236c-0.74-1.112-1.519-2.199-2.309-3.277c-0.27-0.368-0.207-0.566,0.177-0.759
	c0.834-0.417,1.734-0.535,2.643-0.65c1.453-0.185,2.9-0.038,4.348,0.027c0.57,0.026,0.756-0.109,0.655-0.695
	c-0.226-1.308,0.273-2.28,1.442-2.905c1.246-0.667,2.219-1.565,2.568-3.001c0.022-0.09,0.056-0.18,0.07-0.271
	c0.175-1.089,0.076-1.106-0.964-0.829c-1.583,0.424-2.625,1.587-3.815,2.557c-1.529,1.245-3.028,2.546-5.051,2.927
	c-1.006,0.189-2.016,0.153-2.974-0.232c-0.782-0.315-1.414-0.822-1.716-1.661c-0.111-0.309-0.25-0.669-0.692-0.517
	c-2.642,0.909-4.996,0.04-7.238-1.244c-3.465-1.984-5.682-4.892-6.288-8.914c-0.009-0.06-0.074-0.111-0.113-0.167
	C0.703,23.029,0.703,21.997,0.703,20.963z M5.874,26.938c0.088,0.271,0.112,0.357,0.145,0.44c0.738,1.869,2.292,2.684,4.117,3.005
	c1.958,0.344,3.414,1.343,4.463,2.982c0.276,0.434,0.433,0.436,0.822,0.07c1.165-1.096,1.949-1.176,3.375-0.47
	c0.356,0.176,0.691,0.396,1.041,0.586c1.171,0.639,2.585,0.441,3.435-0.446c0.353-0.367,0.402-0.6-0.104-0.891
	c-1.234-0.709-2.544-1.063-3.963-0.979c-1.777,0.105-3.551,0.173-5.317-0.131c-1.267-0.219-2.433-0.588-2.92-1.961
	c-0.362-1.022-0.355-1.025-1.466-1.008c-0.023,0-0.046,0-0.071,0C8.173,28.148,7.07,27.666,5.874,26.938z M5.967,20.445
	c-0.208,0.523-0.192,0.955-0.118,1.405c0.24,1.453,1.109,2.441,2.305,3.194c1.016,0.64,2.014,1.301,2.648,2.358
	c0.197,0.329,0.319,0.188,0.531,0.032c0.746-0.553,1.568-0.568,2.35-0.07c0.582,0.371,1.04,0.876,1.465,1.405
	c0.649,0.808,1.54,1.112,2.511,1.201c0.628,0.058,0.73-0.142,0.436-0.687c-0.719-1.332-1.83-2.176-3.291-2.536
	c-0.929-0.229-1.879-0.372-2.808-0.601c-1.174-0.289-1.932-1.116-1.8-2.094c0.085-0.644-0.166-0.788-0.685-0.83
	c-0.672-0.053-1.256-0.34-1.814-0.694C6.92,22.039,6.439,21.296,5.967,20.445z M8.487,16.07c-0.416,0.619-0.623,1.113-0.616,1.705
	c0.012,1.111,0.534,1.978,1.292,2.719c0.602,0.59,1.072,1.252,1.247,2.078c0.088,0.422,0.312,0.521,0.692,0.508
	c1.153-0.045,1.997,0.496,2.509,1.489c0.357,0.694,0.941,1.015,1.612,1.261c0.245,0.089,0.559,0.18,0.738,0.002
	c0.221-0.223-0.04-0.479-0.154-0.689c-0.712-1.293-1.92-2.025-3.154-2.712c-1.064-0.593-1.369-1.094-1.177-2.269
	c0.068-0.411-0.076-0.54-0.418-0.649c-0.665-0.213-1.217-0.605-1.631-1.172C8.966,17.711,8.706,16.988,8.487,16.07z M11.788,13.816
	c-0.595,0.704-0.607,1.438-0.466,2.194c0.199,1.074,0.69,2.091,0.652,3.214c-0.01,0.336,0.259,0.364,0.478,0.402
	c0.638,0.108,0.964,0.49,1.107,1.104c0.188,0.812,0.667,1.438,1.352,1.899c0.179,0.121,0.367,0.393,0.607,0.24
	c0.218-0.139,0.115-0.431,0.096-0.654c-0.014-0.184-0.075-0.366-0.136-0.542c-0.292-0.836-0.853-1.507-1.413-2.162
	c-0.599-0.701-0.761-1.431-0.329-2.256c0.139-0.265,0.18-0.51-0.115-0.659C12.509,16.035,12.092,15.013,11.788,13.816z
	 M16.344,18.411c-0.032-0.229-0.061-0.46-0.094-0.69c-0.231-1.579-1.245-2.924-1.348-4.545c-0.021-0.333-0.23-0.205-0.381-0.062
	c-0.332,0.32-0.39,0.743-0.361,1.163c0.049,0.732,0.459,1.425,0.216,2.195c-0.068,0.214,0.148,0.299,0.32,0.393
	c0.74,0.408,1.028,1.032,0.864,1.862c-0.055,0.279-0.097,0.557-0.026,0.831c0.037,0.148,0.052,0.36,0.258,0.369
	c0.16,0.008,0.208-0.161,0.256-0.291C16.197,19.243,16.335,18.846,16.344,18.411z M17.081,16.395
	c0.508-1.256,0.495-2.794-0.009-3.637C16.131,13.546,16.2,15.035,17.081,16.395z M18.534,14.188c0.25-0.396,0.484-0.767,0.719-1.136
	c0.05-0.079,0.108-0.153,0.149-0.237c0.048-0.096,0.155-0.195,0.048-0.309c-0.092-0.098-0.208-0.061-0.325-0.039
	C18.485,12.587,18.185,13.399,18.534,14.188z"/>
<path fill-rule="evenodd" clip-rule="evenodd" fill="#56B3E5" d="M5.606,10.519c1.137-1.845,2.691-3.304,4.38-4.612
	c3.916-3.035,8.393-4.525,13.324-4.831c7.567-0.47,13.825,2.236,19.02,7.634c0.065,0.067,0.128,0.139,0.183,0.213
	c0.026,0.036,0.032,0.085,0.059,0.16c-1.175,0.515-2.435,0.673-3.682,0.715c-4.192,0.139-8.25-0.564-12.145-2.148
	c-5.138-2.088-10.328-2.569-15.588-0.471C9.469,7.853,7.949,8.82,6.542,9.971c-0.27,0.223-0.56,0.421-0.84,0.629
	C5.67,10.572,5.639,10.545,5.606,10.519z"/>
<path fill-rule="evenodd" clip-rule="evenodd" fill="#56B3E5" d="M25.091,49.169c-3.326,0.702-6.211-0.242-8.776-2.369
	c-2.053-1.701-3.583-3.825-4.833-6.149c-0.982-1.825-2.294-3.353-3.849-4.696c-0.133-0.117-0.321-0.202-0.351-0.476
	c1.496,0.083,2.904,0.444,4.252,1.033c2.833,1.239,4.954,3.329,6.784,5.749c0.961,1.269,1.86,2.585,2.813,3.861
	C22.159,47.495,23.387,48.623,25.091,49.169z"/>
<path fill-rule="evenodd" clip-rule="evenodd" fill="#56B3E5" d="M42.696,41.344c-1.289,2.159-3.158,3.526-5.495,4.257
	c-3.221,1.008-6.46,0.904-9.685-0.002c-1.766-0.495-3.565-0.755-5.392-0.841c-0.298-0.014-0.598-0.002-1.099-0.002
	c0.935-0.924,1.912-1.393,2.915-1.787c1.622-0.634,3.32-0.922,5.063-1.031c2.489-0.156,4.942,0.13,7.408,0.397
	c2.023,0.22,4.027,0.042,5.875-0.955C42.382,41.327,42.473,41.229,42.696,41.344z"/>
<path fill-rule="evenodd" clip-rule="evenodd" fill="#56B3E5" d="M48.641,21.348c0.863,2.508,0.711,4.844,0.161,7.175
	c-0.264,1.113-0.599,2.212-0.958,3.3c-0.534,1.624-1.729,2.772-2.97,3.853c-1.418,1.235-2.948,2.301-4.723,3.001
	c-0.871,0.343-1.611,0.955-2.269,1.637c-0.307,0.317-0.599,0.647-0.948,1.026c-0.219-0.338-0.136-0.558-0.098-0.776
	c0.36-2.059,1.482-3.726,2.761-5.302c1.274-1.569,2.716-2.98,4.245-4.302c2.62-2.27,3.972-5.22,4.609-8.555
	C48.506,22.105,48.557,21.809,48.641,21.348z"/>
<path fill-rule="evenodd" clip-rule="evenodd" fill="#56B3E5" d="M1.077,29.617c1.774,0.844,3.039,2.083,4.062,3.605
	c1.205,1.796,1.532,3.908,2.143,5.916c0.442,1.455,0.892,2.903,1.723,4.241C5.202,41.2,1.813,35.271,1.077,29.617z"/>
<path fill-rule="evenodd" clip-rule="evenodd" fill="#56B3E5" d="M32.336,47.089c-2.62,1.616-5.137,2.362-8.018,0.99
	c0.949-0.461,1.723-1.01,2.42-1.665c0.131-0.123,0.254-0.173,0.439-0.12C28.797,46.764,30.483,46.806,32.336,47.089z"/>
<path fill-rule="evenodd" clip-rule="evenodd" fill="#56B3E5" d="M13.947,45.427c-2.138,0.133-4.538-1.828-5.295-4.239
	c0.369,0.022,0.752,0.118,1.103,0.052c1.151-0.218,1.784,0.311,2.302,1.287C12.581,43.511,13.272,44.407,13.947,45.427z"/>
<path fill-rule="evenodd" clip-rule="evenodd" fill="#56B3E5" d="M45.348,36.313c0,2.048-1.635,4.159-3.609,4.698
	c-0.396,0.108-0.449,0.081-0.413-0.367c0.106-1.303,0.469-2.326,1.859-2.828c0.816-0.295,1.374-1.095,2.17-1.496L45.348,36.313z"/>
<path fill-rule="evenodd" clip-rule="evenodd" fill="#56B3E5" d="M5.702,10.6C5.63,10.722,5.598,10.889,5.4,10.89
	c-0.056-0.202,0.098-0.274,0.207-0.371C5.639,10.545,5.67,10.572,5.702,10.6z"/>
<path fill-rule="evenodd" clip-rule="evenodd" fill="#56B3E5" d="M45.355,36.319c0.008-0.019,0.016-0.037,0.025-0.056
	c-0.011,0.016-0.021,0.033-0.032,0.05C45.348,36.313,45.355,36.319,45.355,36.319z"/>
</svg>
