<?xml version="1.0" encoding="utf-8"?>
<!-- Generator: Adobe Illustrator 16.0.0, SVG Export Plug-In . SVG Version: 6.00 Build 0)  -->
<!DOCTYPE svg PUBLIC "-//W3C//DTD SVG 1.1//EN" "http://www.w3.org/Graphics/SVG/1.1/DTD/svg11.dtd">
<svg version="1.1" id="Layer_1" xmlns="http://www.w3.org/2000/svg" xmlns:xlink="http://www.w3.org/1999/xlink" x="0px" y="0px"
	 width="1920px" height="1080px" viewBox="0 0 1920 1080" enable-background="new 0 0 1920 1080" xml:space="preserve">
<rect x="-11.647" y="-3" fill="#B5B5B6" width="1942.647" height="1096"/>
<g>
	<path fill="#FFFFFF" stroke="#FFFFFF" stroke-width="12" stroke-miterlimit="10" d="M236.441,622.897v-23.54
		c2.693,2.379,5.924,4.519,9.689,6.42c3.763,1.902,7.728,3.508,11.888,4.815c4.161,1.308,8.34,2.318,12.542,3.031
		c4.2,0.714,8.084,1.07,11.651,1.07c12.284,0,21.459-2.277,27.522-6.836c6.063-4.558,9.095-11.116,9.095-19.676
		c0-4.596-1.011-8.6-3.031-12.007c-2.021-3.407-4.815-6.52-8.382-9.333c-3.566-2.813-7.787-5.509-12.661-8.084
		s-10.126-5.291-15.752-8.144c-5.944-3.012-11.493-6.063-16.644-9.154c-5.153-3.091-9.63-6.498-13.434-10.225
		c-3.804-3.725-6.797-7.945-8.976-12.661c-2.181-4.715-3.269-10.243-3.269-16.585c0-7.767,1.704-14.522,5.112-20.27
		c3.407-5.746,7.886-10.48,13.435-14.207c5.546-3.725,11.868-6.498,18.962-8.322c7.092-1.822,14.326-2.734,21.697-2.734
		c16.802,0,29.047,2.021,36.736,6.063v22.47c-10.066-6.974-22.986-10.462-38.757-10.462c-4.36,0-8.72,0.457-13.077,1.367
		c-4.36,0.911-8.244,2.397-11.651,4.458c-3.408,2.062-6.182,4.716-8.322,7.965c-2.14,3.25-3.21,7.212-3.21,11.888
		c0,4.359,0.812,8.125,2.437,11.294c1.624,3.17,4.021,6.063,7.193,8.679c3.169,2.616,7.033,5.153,11.591,7.609
		c4.557,2.457,9.808,5.153,15.752,8.084c6.103,3.013,11.889,6.182,17.357,9.511s10.264,7.015,14.386,11.057
		c4.12,4.042,7.389,8.521,9.808,13.434c2.417,4.915,3.626,10.542,3.626,16.882c0,8.401-1.646,15.515-4.934,21.34
		c-3.29,5.826-7.728,10.563-13.315,14.207c-5.587,3.646-12.027,6.283-19.318,7.906c-7.293,1.623-14.98,2.438-23.064,2.438
		c-2.695,0-6.024-0.22-9.986-0.654c-3.964-0.436-8.006-1.07-12.126-1.902c-4.122-0.832-8.025-1.861-11.71-3.091
		C241.613,625.771,238.659,624.403,236.441,622.897z"/>
	<path fill="#FFFFFF" stroke="#FFFFFF" stroke-width="12" stroke-miterlimit="10" d="M427.609,628.604
		c-4.598,2.537-10.66,3.805-18.189,3.805c-21.321,0-31.98-11.889-31.98-35.666v-72.044h-20.924v-16.644h20.924v-29.722l19.497-6.301
		v36.022h30.672v16.644h-30.672v68.597c0,8.163,1.386,13.988,4.161,17.477c2.773,3.488,7.371,5.23,13.791,5.23
		c4.914,0,9.154-1.348,12.721-4.042V628.604z"/>
	<path fill="#FFFFFF" stroke="#FFFFFF" stroke-width="12" stroke-miterlimit="10" d="M551.488,573.798h-85.954
		c0.315,13.553,3.962,24.015,10.938,31.386c6.974,7.371,16.564,11.057,28.771,11.057c13.711,0,26.313-4.518,37.806-13.554v18.309
		c-10.7,7.769-24.847,11.651-42.442,11.651c-17.199,0-30.713-5.528-40.54-16.585c-9.829-11.057-14.742-26.61-14.742-46.663
		c0-18.942,5.368-34.376,16.109-46.306c10.739-11.928,24.074-17.893,40.005-17.893s28.254,5.153,36.974,15.456
		c8.718,10.303,13.077,24.609,13.077,42.917V573.798z M531.515,557.272c-0.08-11.253-2.794-20.013-8.144-26.273
		c-5.35-6.26-12.78-9.393-22.291-9.393c-9.195,0-17.001,3.29-23.42,9.868c-6.42,6.579-10.384,15.178-11.889,25.798H531.515z"/>
	<path fill="#FFFFFF" stroke="#FFFFFF" stroke-width="12" stroke-miterlimit="10" d="M678.815,573.798H592.86
		c0.316,13.553,3.962,24.015,10.938,31.386c6.973,7.371,16.564,11.057,28.77,11.057c13.711,0,26.313-4.518,37.806-13.554v18.309
		c-10.699,7.769-24.847,11.651-42.442,11.651c-17.2,0-30.713-5.528-40.54-16.585c-9.829-11.057-14.742-26.61-14.742-46.663
		c0-18.942,5.368-34.376,16.109-46.306c10.739-11.928,24.074-17.893,40.005-17.893c15.931,0,28.253,5.153,36.973,15.456
		c8.717,10.303,13.078,24.609,13.078,42.917V573.798z M658.842,557.272c-0.08-11.253-2.793-20.013-8.144-26.273
		c-5.35-6.26-12.78-9.393-22.291-9.393c-9.195,0-17,3.29-23.42,9.868c-6.42,6.579-10.384,15.178-11.889,25.798H658.842z"/>
	<path fill="#FFFFFF" stroke="#FFFFFF" stroke-width="12" stroke-miterlimit="10" d="M881.158,629.793h-19.498v-69.905
		c0-13.474-2.08-23.222-6.241-29.246c-4.161-6.022-11.157-9.036-20.983-9.036c-8.322,0-15.396,3.805-21.221,11.413
		c-5.826,7.609-8.738,16.724-8.738,27.344v69.43H784.98V557.51c0-23.936-9.234-35.903-27.701-35.903
		c-8.56,0-15.615,3.587-21.162,10.76c-5.549,7.174-8.322,16.507-8.322,27.997v69.43h-19.497V508.054h19.497v19.26h0.476
		c8.638-14.742,21.24-22.113,37.806-22.113c8.322,0,15.574,2.318,21.756,6.955s10.421,10.72,12.721,18.249
		c9.036-16.803,22.508-25.204,40.421-25.204c26.788,0,40.183,16.525,40.183,49.575V629.793z"/>
	<path fill="#FFFFFF" stroke="#FFFFFF" stroke-width="12" stroke-miterlimit="10" d="M979.358,622.897v-23.54
		c2.693,2.379,5.924,4.519,9.689,6.42c3.763,1.902,7.728,3.508,11.888,4.815c4.161,1.308,8.34,2.318,12.542,3.031
		c4.2,0.714,8.084,1.07,11.651,1.07c12.284,0,21.458-2.277,27.522-6.836c6.063-4.558,9.095-11.116,9.095-19.676
		c0-4.596-1.011-8.6-3.031-12.007c-2.021-3.407-4.815-6.52-8.382-9.333c-3.566-2.813-7.787-5.509-12.661-8.084
		c-4.875-2.575-10.126-5.291-15.752-8.144c-5.944-3.012-11.493-6.063-16.644-9.154c-5.153-3.091-9.63-6.498-13.434-10.225
		c-3.804-3.725-6.797-7.945-8.976-12.661c-2.181-4.715-3.269-10.243-3.269-16.585c0-7.767,1.704-14.522,5.112-20.27
		c3.407-5.746,7.886-10.48,13.435-14.207c5.546-3.725,11.868-6.498,18.962-8.322c7.092-1.822,14.326-2.734,21.697-2.734
		c16.802,0,29.047,2.021,36.736,6.063v22.47c-10.066-6.974-22.986-10.462-38.757-10.462c-4.36,0-8.72,0.457-13.078,1.367
		c-4.36,0.911-8.244,2.397-11.651,4.458c-3.409,2.062-6.182,4.716-8.322,7.965c-2.14,3.25-3.21,7.212-3.21,11.888
		c0,4.359,0.812,8.125,2.437,11.294c1.624,3.17,4.021,6.063,7.192,8.679c3.169,2.616,7.033,5.153,11.592,7.609
		c4.557,2.457,9.808,5.153,15.752,8.084c6.103,3.013,11.889,6.182,17.357,9.511s10.264,7.015,14.385,11.057
		c4.12,4.042,7.389,8.521,9.808,13.434c2.417,4.915,3.626,10.542,3.626,16.882c0,8.401-1.646,15.515-4.934,21.34
		c-3.29,5.826-7.728,10.563-13.315,14.207c-5.587,3.646-12.028,6.283-19.319,7.906c-7.293,1.623-14.979,2.438-23.064,2.438
		c-2.695,0-6.024-0.22-9.986-0.654c-3.964-0.436-8.006-1.07-12.126-1.902c-4.122-0.832-8.025-1.861-11.71-3.091
		C984.529,625.771,981.576,624.403,979.358,622.897z"/>
	<path fill="#FFFFFF" stroke="#FFFFFF" stroke-width="12" stroke-miterlimit="10" d="M1212.493,629.793h-19.497v-19.26h-0.476
		c-8.084,14.742-20.608,22.113-37.568,22.113c-29.008,0-43.512-17.278-43.512-51.835v-72.758h19.378v69.667
		c0,25.68,9.827,38.52,29.484,38.52c9.511,0,17.336-3.508,23.479-10.521c6.141-7.015,9.214-16.188,9.214-27.522v-70.143h19.497
		V629.793z"/>
	<path fill="#FFFFFF" stroke="#FFFFFF" stroke-width="12" stroke-miterlimit="10" d="M1271.817,612.197h-0.476v73.591h-19.497
		V508.054h19.497v21.399h0.476c9.589-16.168,23.617-24.253,42.085-24.253c15.693,0,27.938,5.451,36.736,16.347
		c8.797,10.898,13.196,25.501,13.196,43.809c0,20.37-4.954,36.677-14.861,48.922c-9.909,12.245-23.461,18.368-40.659,18.368
		C1292.542,632.646,1280.376,625.83,1271.817,612.197z M1271.341,563.098v17.001c0,10.065,3.27,18.605,9.808,25.62
		c6.539,7.014,14.841,10.521,24.907,10.521c11.809,0,21.061-4.518,27.76-13.554c6.696-9.035,10.046-21.596,10.046-37.687
		c0-13.553-3.132-24.173-9.393-31.861c-6.262-7.687-14.741-11.532-25.441-11.532c-11.335,0-20.448,3.943-27.344,11.829
		C1274.789,541.323,1271.341,551.209,1271.341,563.098z"/>
	<path fill="#FFFFFF" stroke="#FFFFFF" stroke-width="12" stroke-miterlimit="10" d="M1414.955,612.197h-0.476v73.591h-19.497
		V508.054h19.497v21.399h0.476c9.589-16.168,23.617-24.253,42.085-24.253c15.693,0,27.938,5.451,36.736,16.347
		c8.797,10.898,13.196,25.501,13.196,43.809c0,20.37-4.954,36.677-14.861,48.922c-9.908,12.245-23.461,18.368-40.659,18.368
		C1435.68,632.646,1423.515,625.83,1414.955,612.197z M1414.479,563.098v17.001c0,10.065,3.27,18.605,9.808,25.62
		c6.539,7.014,14.84,10.521,24.907,10.521c11.809,0,21.061-4.518,27.76-13.554C1483.65,593.651,1487,581.091,1487,565
		c0-13.553-3.132-24.173-9.392-31.861c-6.262-7.687-14.742-11.532-25.441-11.532c-11.335,0-20.448,3.943-27.344,11.829
		C1417.927,541.323,1414.479,551.209,1414.479,563.098z"/>
	<path fill="#FFFFFF" stroke="#FFFFFF" stroke-width="12" stroke-miterlimit="10" d="M1557.618,629.793h-19.498V449.562h19.498
		V629.793z"/>
	<path fill="#FFFFFF" stroke="#FFFFFF" stroke-width="12" stroke-miterlimit="10" d="M1693.98,508.054l-55.995,141.236
		c-9.986,25.204-24.015,37.806-42.085,37.806c-5.073,0-9.314-0.517-12.721-1.546v-17.476c4.2,1.426,8.043,2.14,11.532,2.14
		c9.827,0,17.197-5.866,22.113-17.595l9.749-23.064l-47.554-121.501h21.637l32.931,93.683c0.396,1.188,1.228,4.279,2.497,9.272
		h0.713c0.396-1.902,1.189-4.914,2.378-9.035l34.596-93.92H1693.98z"/>
</g>
</svg>
