<?xml version="1.0" encoding="utf-8"?>
<!-- Generator: Adobe Illustrator 16.0.0, SVG Export Plug-In . SVG Version: 6.00 Build 0)  -->
<!DOCTYPE svg PUBLIC "-//W3C//DTD SVG 1.1//EN" "http://www.w3.org/Graphics/SVG/1.1/DTD/svg11.dtd">
<svg version="1.1" id="Layer_1" xmlns="http://www.w3.org/2000/svg" xmlns:xlink="http://www.w3.org/1999/xlink" x="0px" y="0px"
	 width="1920px" height="1080px" viewBox="0 0 1920 1080" enable-background="new 0 0 1920 1080" xml:space="preserve">
<g>
	<path fill="#EB2629" d="M208.365,538.363c0-127.761,103.553-231.309,231.324-231.309c127.747,0,231.336,103.547,231.336,231.309
		c0,127.75-103.589,231.324-231.336,231.324C311.918,769.687,208.365,666.113,208.365,538.363"/>
	<g transform="matrix(.21929 0 0 -.2193 -42.509 129.2)">
		<g>
			<defs>
				<path id="SVGID_16_" d="M1144.037-1865.694c0,582.622,472.232,1054.814,1054.842,1054.814
					c582.576,0,1054.959-472.198,1054.959-1054.814c0-582.544-472.383-1054.827-1054.959-1054.827
					C1616.27-2920.521,1144.037-2448.238,1144.037-1865.694"/>
			</defs>
			<clipPath id="SVGID_2_">
				<use xlink:href="#SVGID_16_"  overflow="visible"/>
			</clipPath>
			<g clip-path="url(#SVGID_2_)">
				<path fill="#CDCDCE" d="M2557.691-3296.04c-32.705,150.158-222.305,490.17-294.193,633.951
					c-71.824,143.795-143.816,346.45-111.119,477.242c5.869,23.757-62.307,205.007-42.637,217.782
					c152.518,99.58,192.793-10.83,253.918,33.781c31.529,23.078,74.076-18.966,85.086,19.206
					c39.188,137.231-54.514,376.375-159.059,480.934c-34.068,34.113-86.447,55.475-145.564,66.877
					c-22.641,31.054-59.283,60.878-111.119,88.411c-57.947,30.78-183.564,71.433-248.818,82.258
					c-45.139,7.403-55.279-5.232-74.553-8.416c17.941-1.562,103.262-43.726,119.936-46.201
					c-16.674-11.199-65.49,0.527-96.584-13.443c-15.719-7.067-27.432-34.04-27.373-46.771c89.096,8.978,228.057,0.25,310.096-36.271
					c-65.33-7.407-164.629-15.67-207.35-38.172c-124.166-65.446-178.93-218.224-146.33-401.281
					c32.793-182.952,176.582-849.725,222.338-1071.968c45.785-222.296-98.102-366.081-189.545-405.251l98.105-6.595l-32.762-71.927
					c117.65-13.025,248.418,26.117,248.418,26.117c-26.186-71.863-202.635-98.072-202.635-98.072s84.988-26.075,222.221,26.197
					c74.098,28.204,148.174,56.528,222.201,84.954l65.428-169.903l124.232,124.144l52.277-130.734
					c-0.008,0.005,97.99,32.715,65.393,183.151"/>
				<path fill="#FFFFFF" d="M2586.369-3267.406c-32.633,150.287-222.246,490.303-294.197,634.084
					c-71.898,143.786-143.793,346.473-111.123,477.153c6.004,23.726,6.133,120.924,25.828,133.824
					c152.553,99.58,141.713,3.313,202.844,47.951c31.525,22.986,56.73,50.822,67.686,89.048
					c39.297,137.271-54.414,376.378-159,481.001c-34.068,34.048-86.408,55.463-145.457,66.756
					c-22.797,31.158-59.439,60.979-111.285,88.519c-97.723,51.954-218.893,72.652-331.129,52.286
					c17.975-1.677,59.033-38.753,75.609-41.223c-25.055-16.95-91.631-14.769-91.234-52.469
					c89.154,8.875,186.824-5.228,268.992-41.703c-65.336-7.4-126.137-23.541-168.875-46.063
					c-124.211-65.331-156.902-196.069-124.211-379.165c32.674-183.073,176.551-849.768,222.242-1072.006
					c45.727-222.237-98.031-366.023-189.568-405.253l98.088-6.526l-32.678-72.046c117.594-12.923,248.424,26.235,248.424,26.235
					c-26.178-71.996-202.725-98.006-202.725-98.006s84.975-26.233,222.332,26.197c137.26,52.241,222.232,84.862,222.232,84.862
					l65.344-169.912l124.17,124.175l52.371-130.731C2521.066-3450.41,2619.066-3417.676,2586.369-3267.406"/>
				<path fill="#1072BA" d="M1834.822-1766.488c0,37.88,30.756,68.662,68.742,68.662c37.896,0,68.563-30.782,68.563-68.662
					c0-38.005-30.666-68.676-68.563-68.676C1865.578-1835.164,1834.822-1804.484,1834.822-1766.488"/>
				<path fill="#FFFFFF" d="M1916.186-1743.604c0,9.85,7.98,17.834,17.84,17.834c9.85,0,17.83-7.984,17.83-17.834l0,0
					c-0.035-9.857-8.02-17.839-17.879-17.857C1924.143-1761.425,1916.186-1753.44,1916.186-1743.604"/>
				<path fill="#1072BA" d="M2303.426-1725.738c0,32.483,26.465,58.928,58.992,58.928c32.611,0,58.971-26.453,58.971-58.928
					c0-32.681-26.359-59.088-58.971-59.088C2329.891-1784.826,2303.426-1758.419,2303.426-1725.738"/>
				<path fill="#FFFFFF" d="M2373.352-1706.185c0,8.457,6.867,15.294,15.283,15.294c8.395,0.021,15.23-6.771,15.248-15.178
					c0-0.038,0-0.08,0-0.116c0.035-8.381-6.734-15.207-15.098-15.233c-0.053,0-0.111,0-0.15,0
					C2380.219-1721.418,2373.352-1714.641,2373.352-1706.185"/>
				<path fill="#1D8DCD" d="M1923.016-1567.52c0,0-51.76,23.365-101.994-8.221c-50.229-31.586-48.438-63.91-48.438-63.91
					s-26.701,59.546,44.541,88.647C1888.352-1521.755,1923.016-1567.52,1923.016-1567.52 M2397.941-1562.866
					c0,0-37.189,21.268-66.006,20.943c-59.309-0.807-75.52-27.021-75.52-27.021s9.988,62.443,85.869,49.963
					C2383.309-1525.818,2397.941-1562.866,2397.941-1562.866"/>
			</g>
		</g>
	</g>
	<path fill="none" stroke="#FFFFFF" stroke-width="4.5405" d="M214.791,540.149c0-125.213,101.477-226.682,226.669-226.682
		S668.17,414.936,668.17,540.149c0,125.185-101.505,226.696-226.704,226.696S214.791,665.334,214.791,540.149z"/>
	<path fill="#FDD20A" d="M418.013,574.409c1.522-9.225,25.363-26.688,42.244-27.744c16.914-1.056,22.188-0.82,36.295-4.188
		c14.104-3.383,50.49-12.434,60.553-17.089c10.075-4.654,52.762,2.313,22.668,19.083c-13.031,7.293-48.127,20.681-73.189,28.156
		c-25.057,7.495-40.234-7.156-48.57,5.161c-6.611,9.796-1.347,23.201,28.579,25.987c40.421,3.751,79.19-18.193,83.448-6.544
		c4.296,11.649-34.738,26.217-58.506,26.682c-23.742,0.453-71.617-15.698-78.771-20.687
		C425.607,598.222,416.02,586.573,418.013,574.409"/>
	<g transform="matrix(.21929 0 0 -.2193 -42.509 129.2)">
		<g>
			<defs>
				<path id="SVGID_18_" d="M2159.467-2552.3c0,0-251.078,133.916-255.254,79.593c-4.23-54.419,0-276.189,29.266-292.991
					c29.33-16.728,238.582,108.767,238.582,108.767L2159.467-2552.3L2159.467-2552.3z"/>
			</defs>
			<clipPath id="SVGID_3_">
				<use xlink:href="#SVGID_18_"  overflow="visible"/>
			</clipPath>
			<g clip-path="url(#SVGID_3_)">
				
					<linearGradient id="SVGID_5_" gradientUnits="userSpaceOnUse" x1="-30664.4863" y1="-36511.0703" x2="-30663.8691" y2="-36511.0703" gradientTransform="matrix(20.9897 0 0 -20.9906 645538.3125 -769003.3125)">
					<stop  offset="0" style="stop-color:#B4D66F"/>
					<stop  offset="0.691" style="stop-color:#12B24B"/>
					<stop  offset="0.691" style="stop-color:#12B24B"/>
					<stop  offset="1" style="stop-color:#12B24B"/>
				</linearGradient>
				<path fill="url(#SVGID_5_)" d="M2159.467-2552.3c0,0-251.078,133.916-255.254,79.593c-4.23-54.419,0-276.189,29.266-292.991
					c29.33-16.728,238.582,108.767,238.582,108.767L2159.467-2552.3L2159.467-2552.3z"/>
			</g>
		</g>
	</g>
	<g transform="matrix(.21929 0 0 -.2193 -42.509 129.2)">
		<g>
			<defs>
				<path id="SVGID_21_" d="M2255.709-2543.858c0,0,171.629,129.745,209.277,121.355c37.676-8.405,46.021-276.188,12.492-288.863
					c-33.475-12.469-229.857,67.994-229.857,67.994L2255.709-2543.858z"/>
			</defs>
			<clipPath id="SVGID_7_">
				<use xlink:href="#SVGID_21_"  overflow="visible"/>
			</clipPath>
			<g clip-path="url(#SVGID_7_)">
				
					<linearGradient id="SVGID_9_" gradientUnits="userSpaceOnUse" x1="-30612.1523" y1="-36483.0625" x2="-30611.5352" y2="-36483.0625" gradientTransform="matrix(19.5579 0 0 -19.5588 600955.9375 -716133.0625)">
					<stop  offset="0" style="stop-color:#B4D66F"/>
					<stop  offset="0.691" style="stop-color:#12B24B"/>
					<stop  offset="0.691" style="stop-color:#12B24B"/>
					<stop  offset="1" style="stop-color:#12B24B"/>
				</linearGradient>
				<path fill="url(#SVGID_9_)" d="M2255.709-2543.858c0,0,171.629,129.745,209.277,121.355
					c37.676-8.405,46.021-276.188,12.492-288.863c-33.475-12.469-229.857,67.994-229.857,67.994L2255.709-2543.858z"/>
			</g>
		</g>
	</g>
	<g transform="matrix(.21929 0 0 -.2193 -42.509 129.2)">
		<g>
			<defs>
				<path id="SVGID_24_" d="M2109.258-2552.3c0-87.797-12.523-125.539,25.125-133.884c37.666-8.388,108.76,0,133.91,16.734
					c25.09,16.766,4.143,129.681-4.203,150.711C2255.709-2497.885,2109.258-2514.65,2109.258-2552.3"/>
			</defs>
			<clipPath id="SVGID_11_">
				<use xlink:href="#SVGID_24_"  overflow="visible"/>
			</clipPath>
			<g clip-path="url(#SVGID_11_)">
				
					<linearGradient id="SVGID_13_" gradientUnits="userSpaceOnUse" x1="-30192.8027" y1="-36309.0234" x2="-30192.1855" y2="-36309.0234" gradientTransform="matrix(13.485 0 0 -13.4856 409256 -492248.75)">
					<stop  offset="0" style="stop-color:#73C164"/>
					<stop  offset="1" style="stop-color:#12B24B"/>
				</linearGradient>
				<path fill="url(#SVGID_13_)" d="M2109.258-2552.3c0-87.797-12.523-125.539,25.125-133.884c37.666-8.388,108.76,0,133.91,16.734
					c25.09,16.766,4.143,129.681-4.203,150.711C2255.709-2497.885,2109.258-2514.65,2109.258-2552.3"/>
			</g>
		</g>
	</g>
	<path fill="none" stroke="#EB2629" stroke-width="3.3983" d="M209.317,540.837c0-127.749,103.566-231.322,231.302-231.322
		c127.733,0,231.322,103.56,231.322,231.322c0,127.748-103.583,231.322-231.322,231.322c-127.741,0-231.302-103.56-231.302-231.33
		V540.837z"/>
	<g>
		<path fill="#010101" stroke="#010101" stroke-width="0.6145" d="M836.549,560.795c0,13.046,1.313,22.833,3.932,29.314
			c2.633,6.502,6.6,11.565,11.935,15.192c5.33,3.626,11.963,5.439,19.916,5.439c7.952,0,14.566-1.805,19.84-5.439
			c5.277-3.626,9.227-8.647,11.851-15.06c2.627-6.418,3.938-15.943,3.938-28.606v-45.049H897.2v42.889
			c0,11.484-0.521,18.999-1.57,22.535c-1.416,4.975-4.375,9.371-8.453,12.553c-4.086,3.181-9.053,4.765-14.909,4.765
			c-5.855,0-10.899-1.632-15.131-4.905c-4.229-3.271-7.091-7.696-8.597-13.337c-1.01-3.94-1.502-11.143-1.502-21.604v-42.896
			h-10.477v44.215h-0.013V560.795z M1001.519,524.227c-3.496-2.98-7.762-5.391-12.784-7.245c-5.005-1.853-10.3-2.793-15.635-2.778
			c-8.601,0-16.374,2.132-23.319,6.411c-6.954,4.271-12.416,10.226-16.395,17.839c-3.983,7.614-5.961,15.88-5.961,24.766
			c0,13.218,4.252,24.451,12.747,33.676c8.502,9.219,19.2,13.832,32.108,13.832c8.398,0,15.885-1.814,22.459-5.453
			c6.527-3.592,11.958-8.888,15.713-15.324l-8.33-6.163c-7.594,10.733-17.375,16.089-29.356,16.089
			c-6.544,0-12.45-1.626-17.714-4.891c-5.268-3.265-9.414-7.842-12.436-13.753c-3.004-5.84-4.553-12.315-4.521-18.882
			c0-10.281,3.279-19.034,9.844-26.23c6.569-7.19,14.814-10.788,24.758-10.788c12.434,0,22.242,5.369,29.426,16.089l8.33-5.814
			C1007.992,531.007,1005.019,527.208,1001.519,524.227L1001.519,524.227z M1030.478,608.358h10.469v-41.214l40.93,41.214h14.964
			l-47.489-47.98l44.822-43.805h-15.381l-37.846,36.977v-72.391h-10.461v127.193L1030.478,608.358z M1160.991,608.358
			c13.754,0,24.439-2.243,32.059-6.745c7.628-4.495,13.832-11.469,18.604-20.91c4.771-9.446,7.168-20.381,7.168-32.802
			c0-14.4-3.016-26.8-9.037-37.198c-6.024-10.406-14.399-17.707-25.092-21.925c-7.451-2.986-19.422-4.474-35.92-4.474h-22.883
			v124.047h35.102V608.358z M1136.462,496.497h7.801c15.859,0,27.246,1.181,34.151,3.542c9.188,3.14,16.381,8.954,21.533,17.437
			c5.142,8.474,7.725,18.7,7.725,30.655c0,11.405-2.381,21.049-7.128,28.94c-4.75,7.891-11.273,13.351-19.588,16.379
			c-5.904,2.14-16.486,3.204-31.74,3.204h-12.754V496.497z M1237.104,560.795c0,13.046,1.32,22.833,3.939,29.314
			c2.631,6.502,6.6,11.565,11.92,15.192c5.328,3.626,11.963,5.439,19.92,5.439c7.945,0,14.563-1.805,19.844-5.439
			c5.266-3.626,9.219-8.647,11.848-15.06c2.629-6.418,3.936-15.943,3.936-28.606v-45.049h-10.761v42.889
			c0,11.484-0.528,18.999-1.57,22.535c-1.414,4.976-4.374,9.373-8.456,12.553c-4.083,3.181-9.05,4.765-14.898,4.765
			c-5.863,0-10.907-1.632-15.143-4.905c-4.227-3.265-7.087-7.696-8.594-13.337c-1-3.94-1.501-11.143-1.501-21.604v-42.896h-10.476
			v44.215L1237.104,560.795z M1402.073,524.227c-3.502-2.98-7.76-5.391-12.78-7.245c-5.007-1.853-10.301-2.793-15.64-2.778
			c-8.591,0-16.37,2.132-23.323,6.411c-6.955,4.271-12.416,10.226-16.396,17.839c-3.975,7.646-6.02,16.147-5.953,24.766
			c0,13.218,4.244,24.451,12.74,33.676c8.5,9.219,19.198,13.832,32.092,13.832c8.406,0,15.895-1.814,22.461-5.453
			c6.534-3.588,11.971-8.885,15.726-15.324l-8.336-6.163c-7.584,10.733-17.365,16.089-29.356,16.089
			c-6.536,0-12.436-1.626-17.714-4.891c-5.259-3.265-9.403-7.842-12.435-13.753c-3.002-5.839-4.56-12.315-4.531-18.882
			c0-10.281,3.288-19.034,9.846-26.23c6.571-7.19,14.816-10.788,24.759-10.788c12.435,0,22.248,5.369,29.434,16.089l8.325-5.814
			C1408.548,531.007,1405.573,527.208,1402.073,524.227L1402.073,524.227z"/>
		<path fill="#119A48" stroke="#119A48" stroke-width="0.6145" d="M1663.554,529.645c-7.504,9.337-11.27,20.361-11.27,33.08
			c0,12.817,3.961,24.036,11.907,33.623c7.939,9.6,18.163,14.393,30.689,14.393c12.47,0,22.681-4.792,30.622-14.386
			c7.931-9.594,11.898-20.806,11.898-33.629c0-12.781-3.75-23.833-11.266-33.169c-8.267-10.24-18.688-15.352-31.262-15.352
			c-12.615,0-23.061,5.14-31.32,15.435V529.645z M1717.298,536.614c6.286,7.259,9.434,16.04,9.434,26.341
			c0.051,6.443-1.418,12.807-4.286,18.575c-2.85,5.744-6.719,10.176-11.579,13.303c-4.771,3.093-10.342,4.72-16.027,4.682
			c-5.682,0.038-11.251-1.59-16.02-4.682c-4.86-3.126-8.723-7.559-11.586-13.303c-2.865-5.771-4.335-12.134-4.293-18.575
			c0-10.295,3.135-19.082,9.398-26.341c6.266-7.26,13.77-10.893,22.492-10.893C1703.53,525.72,1711.005,529.353,1717.298,536.614z"
			/>
		<path fill="#010101" stroke="#010101" stroke-width="0.6145" d="M1431.035,608.358h10.475v-41.214l40.924,41.214h14.962
			l-47.486-47.98l44.818-43.805h-15.379l-37.839,36.977v-72.391h-10.475v127.193V608.358z"/>
		<path fill="#119A48" stroke="#119A48" stroke-width="0.6145" d="M1606.304,486.855c-8.273-3.802-17.277-5.746-26.383-5.697
			c-11.546,0-21.889,2.862-31.036,8.566c-9.149,5.703-16.345,13.622-21.592,23.743c-5.251,10.122-7.87,21.063-7.87,32.824
			c0,15.796,4.57,29.717,13.727,41.749c11.895,15.636,28.045,23.451,48.431,23.451c16.79,0,30.213-5.641,40.229-16.921
			c10.024-11.289,15.074-26.536,15.184-45.716h-47.512v11.991h35.148c-1.459,11.489-6.107,20.825-13.961,28.029
			c-7.854,7.218-17.451,10.815-28.803,10.815c-9.108,0.067-18.05-2.437-25.801-7.225c-7.857-4.8-14.004-11.42-18.449-19.825
			c-4.391-8.188-6.682-17.337-6.669-26.626c0-9.122,2.139-17.77,6.438-25.953c4.158-8.033,10.449-14.763,18.183-19.451
			c7.821-4.779,16.058-7.177,24.708-7.177c6.944,0,14.08,1.758,21.41,5.28c7.321,3.507,14.061,8.669,20.206,15.477l8.546-9.106
			c-7.852-8.357-15.896-14.443-24.135-18.236V486.855z"/>
		<path fill="#010101" stroke="#010101" stroke-width="0.6145" d="M760.427,608.358c13.756,0,24.439-2.243,32.075-6.745
			c7.619-4.495,13.823-11.469,18.595-20.91c4.771-9.446,7.154-20.381,7.154-32.802c0-14.4-3.008-26.8-9.029-37.198
			c-6.023-10.406-14.387-17.707-25.084-21.925c-7.454-2.986-19.424-4.474-35.924-4.474h-22.889v124.047h35.102V608.358z
			 M735.901,496.497h7.807c15.85,0,27.238,1.181,34.14,3.542c9.206,3.14,16.382,8.954,21.538,17.437
			c5.154,8.474,7.723,18.7,7.723,30.655c0,11.405-2.375,21.049-7.125,28.94c-4.748,7.891-11.283,13.351-19.585,16.379
			c-5.903,2.14-16.482,3.204-31.745,3.204h-12.752V496.497z"/>
	</g>
</g>
</svg>
