<?xml version="1.0" encoding="utf-8"?>
<!-- Generator: Adobe Illustrator 16.0.0, SVG Export Plug-In . SVG Version: 6.00 Build 0)  -->
<!DOCTYPE svg PUBLIC "-//W3C//DTD SVG 1.1//EN" "http://www.w3.org/Graphics/SVG/1.1/DTD/svg11.dtd">
<svg version="1.1" id="Layer_1" xmlns="http://www.w3.org/2000/svg" xmlns:xlink="http://www.w3.org/1999/xlink" x="0px" y="0px"
	 width="1920px" height="1080px" viewBox="0 0 1920 1080" enable-background="new 0 0 1920 1080" xml:space="preserve">
<rect x="-10.295" y="-12.404" fill-rule="evenodd" clip-rule="evenodd" fill="#119A48" stroke="#119A48" stroke-width="0.6145" width="1936.295" height="1099.404"/>
<g>
	<g>
		<g>
			<path fill="#FFFFFF" d="M828.55,531.795c0,13.046,1.313,22.834,3.932,29.314c2.633,6.502,6.6,11.565,11.935,15.191
				c5.33,3.627,11.963,5.439,19.916,5.439c7.952,0,14.566-1.805,19.84-5.439c5.277-3.626,9.227-8.646,11.851-15.059
				c2.627-6.419,3.938-15.943,3.938-28.607v-45.049h-10.76v42.889c0,11.484-0.521,18.999-1.57,22.535
				c-1.416,4.975-4.375,9.371-8.453,12.553c-4.086,3.181-9.053,4.766-14.909,4.766c-5.855,0-10.899-1.633-15.131-4.905
				c-4.229-3.271-7.091-7.696-8.597-13.337c-1.01-3.939-1.502-11.143-1.502-21.604v-42.896h-10.477v44.215h-0.013V531.795z
				 M993.52,495.228c-3.496-2.98-7.762-5.391-12.784-7.245c-5.005-1.853-10.3-2.793-15.635-2.778
				c-8.601,0-16.374,2.132-23.319,6.411c-6.954,4.271-12.416,10.226-16.395,17.839c-3.983,7.614-5.961,15.88-5.961,24.766
				c0,13.218,4.252,24.451,12.747,33.676c8.502,9.22,19.2,13.832,32.108,13.832c8.398,0,15.885-1.814,22.459-5.453
				c6.527-3.592,11.958-8.888,15.713-15.324l-8.33-6.163c-7.594,10.733-17.375,16.09-29.356,16.09
				c-6.544,0-12.45-1.627-17.714-4.891c-5.268-3.266-9.414-7.843-12.436-13.754c-3.004-5.84-4.553-12.315-4.521-18.882
				c0-10.281,3.279-19.034,9.844-26.23c6.569-7.19,14.814-10.788,24.758-10.788c12.434,0,22.242,5.369,29.426,16.089l8.33-5.814
				C999.993,502.007,997.02,498.208,993.52,495.228L993.52,495.228z M1022.479,579.357h10.469v-41.213l40.93,41.213h14.964
				l-47.489-47.98l44.822-43.805h-15.381l-37.846,36.977v-72.391h-10.461v127.193L1022.479,579.357z M1152.992,579.357
				c13.754,0,24.439-2.242,32.059-6.744c7.628-4.495,13.832-11.469,18.604-20.91c4.771-9.446,7.168-20.381,7.168-32.802
				c0-14.4-3.016-26.8-9.037-37.198c-6.024-10.406-14.399-17.707-25.092-21.925c-7.451-2.986-19.422-4.474-35.92-4.474h-22.883
				v124.047h35.102V579.357z M1128.463,467.497h7.801c15.859,0,27.246,1.181,34.151,3.542c9.188,3.14,16.381,8.954,21.533,17.437
				c5.142,8.474,7.725,18.7,7.725,30.655c0,11.405-2.381,21.049-7.128,28.94c-4.75,7.891-11.273,13.351-19.588,16.379
				c-5.904,2.14-16.486,3.204-31.74,3.204h-12.754V467.497z M1229.105,531.795c0,13.046,1.32,22.834,3.939,29.314
				c2.631,6.502,6.6,11.565,11.92,15.191c5.328,3.627,11.963,5.439,19.92,5.439c7.945,0,14.563-1.805,19.844-5.439
				c5.266-3.626,9.219-8.646,11.848-15.059c2.629-6.419,3.936-15.943,3.936-28.607v-45.049h-10.761v42.889
				c0,11.484-0.528,18.999-1.57,22.535c-1.414,4.976-4.374,9.373-8.456,12.553c-4.083,3.181-9.05,4.766-14.898,4.766
				c-5.863,0-10.907-1.633-15.143-4.905c-4.227-3.265-7.087-7.696-8.594-13.337c-1-3.939-1.501-11.143-1.501-21.604v-42.896h-10.476
				v44.215L1229.105,531.795z M1394.074,495.228c-3.502-2.98-7.76-5.391-12.78-7.245c-5.007-1.853-10.301-2.793-15.64-2.778
				c-8.591,0-16.37,2.132-23.323,6.411c-6.955,4.271-12.416,10.226-16.396,17.839c-3.975,7.646-6.02,16.147-5.953,24.766
				c0,13.218,4.244,24.451,12.74,33.676c8.5,9.22,19.198,13.832,32.092,13.832c8.406,0,15.895-1.814,22.461-5.453
				c6.534-3.589,11.971-8.886,15.726-15.324l-8.336-6.163c-7.584,10.733-17.365,16.09-29.356,16.09
				c-6.536,0-12.436-1.627-17.714-4.891c-5.259-3.266-9.403-7.843-12.435-13.754c-3.002-5.839-4.56-12.315-4.531-18.882
				c0-10.281,3.288-19.034,9.846-26.23c6.571-7.19,14.816-10.788,24.759-10.788c12.435,0,22.248,5.369,29.434,16.089l8.325-5.814
				C1400.549,502.007,1397.574,498.208,1394.074,495.228L1394.074,495.228z"/>
			<path fill="#FFFFFF" d="M1655.555,500.646c-7.504,9.337-11.27,20.361-11.27,33.079c0,12.817,3.961,24.036,11.907,33.623
				c7.939,9.6,18.163,14.393,30.689,14.393c12.47,0,22.681-4.793,30.622-14.386c7.931-9.594,11.898-20.806,11.898-33.63
				c0-12.78-3.75-23.833-11.266-33.169c-8.267-10.24-18.688-15.352-31.262-15.352c-12.615,0-23.061,5.14-31.32,15.435V500.646z
				 M1709.299,507.614c6.286,7.259,9.434,16.04,9.434,26.341c0.051,6.443-1.418,12.807-4.286,18.575
				c-2.85,5.744-6.719,10.177-11.579,13.303c-4.771,3.093-10.342,4.72-16.027,4.682c-5.682,0.038-11.251-1.59-16.02-4.682
				c-4.86-3.126-8.723-7.559-11.586-13.303c-2.865-5.771-4.335-12.134-4.293-18.575c0-10.295,3.135-19.082,9.398-26.341
				c6.266-7.26,13.77-10.893,22.492-10.893C1695.531,496.721,1703.006,500.354,1709.299,507.614z"/>
			<path fill="#FFFFFF" d="M1423.036,579.357h10.475v-41.213l40.924,41.213h14.962l-47.486-47.98l44.818-43.805h-15.379
				l-37.839,36.977v-72.391h-10.475v127.193V579.357z"/>
			<path fill="#FFFFFF" d="M1598.305,457.855c-8.273-3.802-17.277-5.746-26.383-5.697c-11.546,0-21.889,2.862-31.036,8.566
				c-9.149,5.703-16.345,13.622-21.592,23.743c-5.251,10.122-7.87,21.063-7.87,32.824c0,15.796,4.57,29.717,13.727,41.748
				c11.895,15.637,28.045,23.451,48.431,23.451c16.79,0,30.213-5.641,40.229-16.921c10.024-11.289,15.074-26.536,15.184-45.716
				h-47.512v11.99h35.148c-1.459,11.488-6.107,20.825-13.961,28.029c-7.854,7.218-17.451,10.815-28.803,10.815
				c-9.108,0.067-18.05-2.437-25.801-7.225c-7.857-4.8-14.004-11.42-18.449-19.825c-4.391-8.188-6.682-17.337-6.669-26.626
				c0-9.122,2.139-17.77,6.438-25.953c4.158-8.033,10.449-14.763,18.183-19.451c7.821-4.779,16.058-7.177,24.708-7.177
				c6.944,0,14.08,1.758,21.41,5.28c7.321,3.507,14.061,8.669,20.206,15.477l8.546-9.106c-7.852-8.357-15.896-14.443-24.135-18.236
				V457.855z"/>
			<path fill="#FFFFFF" d="M752.428,579.357c13.756,0,24.439-2.242,32.075-6.744c7.619-4.495,13.823-11.469,18.595-20.91
				c4.771-9.446,7.154-20.381,7.154-32.802c0-14.4-3.008-26.8-9.029-37.198c-6.023-10.406-14.387-17.707-25.084-21.925
				c-7.454-2.986-19.424-4.474-35.924-4.474h-22.889v124.047h35.102V579.357z M727.902,467.497h7.807
				c15.85,0,27.238,1.181,34.14,3.542c9.206,3.14,16.382,8.954,21.538,17.437c5.154,8.474,7.723,18.7,7.723,30.655
				c0,11.405-2.375,21.049-7.125,28.94c-4.748,7.891-11.283,13.351-19.585,16.379c-5.903,2.14-16.482,3.204-31.745,3.204h-12.752
				V467.497z"/>
		</g>
	</g>
	<g>
		<path fill-rule="evenodd" clip-rule="evenodd" fill="none" d="M174.533,270.401c169.011,0,338.021,0,507.032,0
			c0,159.394,0,318.787,0,478.181c-169.011,0-338.021,0-507.032,0C174.533,589.188,174.533,429.795,174.533,270.401z
			 M204.297,512.227c-0.203,125.644,101.465,228,226.795,228.331C557.01,740.89,659.57,638.979,659.807,513.29
			c0.237-125.71-101.643-228.166-226.997-228.474C306.49,284.504,204.293,387.039,204.297,512.227z"/>
		<path fill-rule="evenodd" clip-rule="evenodd" fill="#FFFFFF" d="M204.297,512.227C204.293,387.039,306.49,284.504,432.81,284.815
			c125.354,0.309,227.234,102.764,226.997,228.474c-0.236,125.689-102.797,227.6-228.715,227.268
			C305.762,740.227,204.094,637.87,204.297,512.227z M491.652,516.718c0.141-1.427,0.115-2.416,0.348-3.338
			c2.326-9.21,1.318-18.418-0.321-27.536c-3.526-19.604-10.915-37.739-20.991-54.906c-9.26-15.777-22.465-26.126-40.146-30.684
			c-3.57-0.92-6.431-2.382-8.719-5.449c-1.943-2.606-4.496-4.819-7.016-6.924c-12.69-10.6-27.203-18.04-42.506-24.015
			c-10.246-4.001-20.824-6.79-31.92-6.344c-4.84,0.192-9.625,1.482-14.463,2.016c-5.049,0.556-9.408,1.81-11.8,6.983
			c-1.101,2.381-3.021,4.38-4.54,6.573c-0.363,0.525-0.604,1.137-1.102,2.099c3.125-0.162,5.852,0.043,8.422-0.496
			c10.172-2.134,20.329-1.957,30.464-0.059c5.985,1.122,11.897,2.64,17.843,3.981c-1.645,1.346-3.236,2.108-4.857,2.798
			c-7.946,3.377-15.97,6.394-24.777,6.66c-4.153,0.126-7.976,1.588-11.496,3.822c-1.762,1.118-2.863,2.504-2.576,4.755
			c10.447-0.94,20.688-2.174,30.964-2.702c10.356-0.532,20.726-0.124,31.409,2.866c-4.41,0.854-8.258,1.49-12.057,2.352
			c-13.823,3.138-26.537,8.627-36.953,18.494c-13.303,12.604-18.639,28.769-20.369,46.517c-1.172,12.004,0.303,23.84,2.339,35.578
			c4.235,24.4,8.367,48.835,13.407,73.074c9.213,44.304,19.047,88.479,28.693,132.691c0.201,0.921,1.127,2.094,1.982,2.401
			c13.896,4.988,28.092,8.821,42.756,10.814c14.332,1.947,28.721,2.72,43.131,1.426c8.811-0.791,17.563-2.229,27.077-3.473
			c-8.857-12.229-16.739-24.141-23.855-37.396c5.373,2.16,9.944,4.348,14.733,5.84c7,2.182,14.098,4.144,21.271,5.643
			c3.628,0.759,5.221-0.778,6.547-4.375c0.396-1.076,0.848-2.2,0.906-3.32c0.391-7.449,1.043-14.909,0.911-22.353
			c-0.152-8.604-0.516-17.256-2.982-25.623c-2-6.778-4.159-8.152-10.639-5.315c-6.558,2.873-12.921,6.296-19.054,9.999
			c-6.065,3.664-11.737,7.979-17.58,12.009c-1.918-4.426-2.314-4.599-7.357-4.605c-0.75-0.001-1.887-0.875-2.18-1.61
			c-1.443-3.623-2.74-7.311-3.945-11.021c-4.914-15.14-8.066-30.578-7.572-46.592c0.078-2.538,0.531-5.064,0.836-7.825
			c1.945,0.864,3.488,1.529,5.014,2.231c12.834,5.908,25.907,11.192,39.625,14.689c9.613,2.449,19.418,4.208,29.275,2.162
			c12.669-2.631,25.257-5.701,37.793-8.923c6.625-1.702,13.094-4.132,18.371-8.731c1.477-1.286,2.881-3.078,3.444-4.906
			c1.274-4.142-1.813-7.702-6.835-7.517c-8.078,0.3-16.152,0.951-24.199,1.76c-12.729,1.279-25.407,3.148-38.156,4.143
			c-12.488,0.976-24.136-2.434-34.791-8.946c-4.758-2.907-7.928-7.091-8.343-12.93c-0.194-2.747,1.103-4.907,3.3-4.833
			c7.9,0.264,15.842,0.303,23.678,1.199c6.883,0.786,13.602,1.12,20.354-0.607c24.235-6.196,47.506-15.082,70.213-25.448
			c4.795-2.189,9.24-5.287,13.541-8.392c5.992-4.325,3.715-10.817-2.145-12.379c-6.205-1.654-12.787-3.059-19.119-2.766
			c-7.26,0.337-14.547,2.236-21.61,4.21C519.498,508.031,505.814,512.419,491.652,516.718z"/>
		<path fill-rule="evenodd" clip-rule="evenodd" fill="none" d="M491.652,516.718c14.162-4.299,27.846-8.687,41.675-12.553
			c7.063-1.974,14.351-3.873,21.61-4.21c6.332-0.293,12.914,1.111,19.119,2.766c5.859,1.562,8.137,8.054,2.145,12.379
			c-4.301,3.104-8.746,6.203-13.541,8.392c-22.707,10.366-45.978,19.252-70.213,25.448c-6.752,1.728-13.471,1.394-20.354,0.607
			c-7.836-0.896-15.777-0.936-23.678-1.199c-2.197-0.074-3.494,2.086-3.3,4.833c0.415,5.839,3.585,10.022,8.343,12.93
			c10.655,6.513,22.303,9.922,34.791,8.946c12.749-0.994,25.428-2.863,38.156-4.143c8.047-0.809,16.121-1.46,24.199-1.76
			c5.021-0.186,8.109,3.375,6.835,7.517c-0.563,1.828-1.968,3.62-3.444,4.906c-5.277,4.6-11.746,7.029-18.371,8.731
			c-12.536,3.222-25.124,6.292-37.793,8.923c-9.857,2.046-19.662,0.287-29.275-2.162c-13.718-3.497-26.791-8.781-39.625-14.689
			c-1.525-0.702-3.068-1.367-5.014-2.231c-0.305,2.761-0.758,5.287-0.836,7.825c-0.494,16.014,2.658,31.452,7.572,46.592
			c1.205,3.71,2.502,7.397,3.945,11.021c0.293,0.735,1.43,1.609,2.18,1.61c5.043,0.007,5.439,0.18,7.357,4.604
			c5.843-4.029,11.515-8.344,17.58-12.008c6.133-3.703,12.496-7.126,19.054-9.999c6.479-2.837,8.639-1.463,10.639,5.315
			c2.467,8.367,2.83,17.02,2.982,25.623c0.132,7.443-0.521,14.903-0.911,22.353c-0.059,1.12-0.51,2.244-0.906,3.32
			c-1.326,3.597-2.919,5.134-6.547,4.375c-7.174-1.499-14.271-3.461-21.271-5.643c-4.789-1.492-9.36-3.68-14.733-5.84
			c7.116,13.255,14.998,25.167,23.855,37.396c-9.514,1.243-18.267,2.682-27.077,3.473c-14.41,1.294-28.799,0.521-43.131-1.426
			c-14.664-1.993-28.859-5.826-42.756-10.814c-0.855-0.308-1.781-1.48-1.982-2.401c-9.646-44.212-19.48-88.388-28.693-132.691
			c-5.04-24.239-9.172-48.674-13.407-73.074c-2.036-11.737-3.511-23.573-2.339-35.578c1.73-17.749,7.066-33.914,20.369-46.517
			c10.416-9.867,23.13-15.356,36.953-18.494c3.799-0.862,7.646-1.498,12.057-2.352c-10.684-2.99-21.053-3.398-31.409-2.866
			c-10.276,0.528-20.517,1.761-30.964,2.702c-0.287-2.25,0.814-3.637,2.576-4.755c3.521-2.234,7.343-3.696,11.496-3.822
			c8.808-0.267,16.831-3.283,24.777-6.66c1.621-0.689,3.213-1.452,4.857-2.798c-5.945-1.341-11.857-2.859-17.843-3.981
			c-10.135-1.898-20.292-2.075-30.464,0.059c-2.57,0.539-5.297,0.334-8.422,0.496c0.498-0.962,0.738-1.573,1.102-2.099
			c1.519-2.193,3.439-4.192,4.54-6.573c2.392-5.174,6.751-6.428,11.8-6.983c4.838-0.533,9.623-1.823,14.463-2.016
			c11.096-0.445,21.674,2.343,31.92,6.344c15.303,5.975,29.815,13.416,42.506,24.015c2.52,2.104,5.072,4.317,7.016,6.924
			c2.288,3.067,5.148,4.529,8.719,5.449c17.682,4.558,30.887,14.907,40.146,30.684c10.076,17.167,17.465,35.302,20.991,54.906
			c1.64,9.117,2.647,18.325,0.321,27.536C491.768,514.302,491.793,515.291,491.652,516.718z M367.454,477.132
			c-6.632,0.029-14.569,8.201-14.546,14.975c0.023,6.807,7.949,14.66,14.774,14.64c6.74-0.02,14.724-8.018,14.742-14.769
			C382.443,485.17,374.308,477.103,367.454,477.132z M455.018,482.89c0.009,7.368,5.757,13.028,13.234,13.036
			c6.465,0.005,12.439-6.318,12.405-13.13c-0.03-6.473-6.401-12.839-12.808-12.8C460.768,470.039,455.008,475.825,455.018,482.89z
			 M371.814,448.145c-3.596-5.765-14.393-7.525-21.902-3.99c-8.931,4.205-12.775,10.738-10.152,18.346
			c0.734-8.449,7.207-10.748,12.887-13.692C358.706,445.667,365.104,445.952,371.814,448.145z M444.315,447.332
			c4.435-4.285,9.603-4.593,14.756-4.879c5.318-0.294,10.217,1.388,15.132,3.649c-1.578-4.75-7.509-8.42-13.424-8.529
			C452.119,437.415,446.937,440.337,444.315,447.332z"/>
		<path fill-rule="evenodd" clip-rule="evenodd" fill="#FFFFFF" d="M367.454,477.132c6.854-0.029,14.989,8.038,14.971,14.845
			c-0.019,6.751-8.002,14.75-14.742,14.769c-6.825,0.021-14.751-7.833-14.774-14.64
			C352.885,485.333,360.822,477.161,367.454,477.132z M374.256,491.065c2.635-0.015,4.242-1.524,4.298-4.037
			c0.058-2.64-1.407-4.04-4.179-3.992c-2.638,0.046-3.736,1.273-3.677,4.105C370.757,489.909,371.818,491.079,374.256,491.065z"/>
		<path fill-rule="evenodd" clip-rule="evenodd" fill="#FFFFFF" d="M455.018,482.89c-0.01-7.065,5.75-12.851,12.832-12.894
			c6.406-0.039,12.777,6.327,12.808,12.8c0.034,6.813-5.94,13.135-12.405,13.13C460.774,495.918,455.026,490.258,455.018,482.89z
			 M469.902,479.02c0.003,1.997,0.217,3.8,2.613,3.979c2.229,0.167,3.963-1.505,4.006-3.683c0.038-1.833-1.538-3.16-3.791-3.142
			C470.793,476.191,469.752,477.108,469.902,479.02z"/>
		<path fill-rule="evenodd" clip-rule="evenodd" fill="#FFFFFF" d="M371.814,448.145c-6.71-2.193-13.108-2.478-19.168,0.665
			c-5.68,2.944-12.152,5.243-12.887,13.692c-2.623-7.608,1.222-14.141,10.152-18.346C357.422,440.62,368.219,442.38,371.814,448.145
			z"/>
		<path fill-rule="evenodd" clip-rule="evenodd" fill="#FFFFFF" d="M444.315,447.332c2.621-6.995,7.804-9.917,16.464-9.759
			c5.915,0.109,11.846,3.778,13.424,8.529c-4.915-2.261-9.813-3.943-15.132-3.649C453.918,442.739,448.75,443.047,444.315,447.332z"
			/>
		<path fill-rule="evenodd" clip-rule="evenodd" fill="none" d="M374.256,491.065c-2.438,0.014-3.499-1.156-3.558-3.924
			c-0.06-2.832,1.039-4.06,3.677-4.105c2.771-0.048,4.236,1.352,4.179,3.992C378.498,489.541,376.891,491.051,374.256,491.065z"/>
		<path fill-rule="evenodd" clip-rule="evenodd" fill="none" d="M469.902,479.02c-0.15-1.911,0.891-2.828,2.828-2.845
			c2.253-0.019,3.829,1.308,3.791,3.142c-0.043,2.177-1.776,3.85-4.006,3.683C470.119,482.819,469.905,481.017,469.902,479.02z"/>
	</g>
</g>
</svg>
