<?xml version="1.0" encoding="utf-8"?>
<!-- Generator: Adobe Illustrator 16.0.0, SVG Export Plug-In . SVG Version: 6.00 Build 0)  -->
<!DOCTYPE svg PUBLIC "-//W3C//DTD SVG 1.1//EN" "http://www.w3.org/Graphics/SVG/1.1/DTD/svg11.dtd">
<svg version="1.1" id="Layer_1" xmlns="http://www.w3.org/2000/svg" xmlns:xlink="http://www.w3.org/1999/xlink" x="0px" y="0px"
	 width="50px" height="50px" viewBox="0 0 50 50" enable-background="new 0 0 50 50" xml:space="preserve">
<g>
	<path fill-rule="evenodd" clip-rule="evenodd" fill="none" d="M-2.104-0.585c17.867,0,35.736,0,53.604,0
		c0,16.852,0,33.703,0,50.553c-17.867,0-35.736,0-53.604,0C-2.104,33.117-2.104,16.266-2.104-0.585z M1.044,24.98
		C1.022,38.263,11.77,49.084,25.02,49.119C38.331,49.155,49.175,38.38,49.2,25.093c0.024-13.29-10.746-24.122-23.998-24.153
		C11.847,0.906,1.042,11.746,1.044,24.98z"/>
	<path fill-rule="evenodd" clip-rule="evenodd" fill="#119A48" stroke="#119A48" stroke-width="0.6145" d="M1.044,24.98
		C1.042,11.746,11.847,0.906,25.202,0.939C38.454,0.971,49.224,11.803,49.2,25.093C49.175,38.38,38.331,49.155,25.02,49.119
		C11.77,49.084,1.022,38.263,1.044,24.98z M31.423,25.455c0.014-0.15,0.013-0.255,0.036-0.353c0.246-0.974,0.14-1.947-0.034-2.911
		c-0.373-2.072-1.154-3.99-2.219-5.806c-0.979-1.667-2.375-2.761-4.244-3.243c-0.378-0.096-0.68-0.251-0.922-0.576
		c-0.205-0.275-0.476-0.509-0.742-0.732c-1.341-1.121-2.877-1.907-4.495-2.539c-1.083-0.423-2.201-0.718-3.374-0.67
		c-0.513,0.02-1.017,0.156-1.529,0.213c-0.533,0.059-0.995,0.191-1.247,0.738c-0.117,0.251-0.319,0.463-0.48,0.695
		c-0.04,0.056-0.064,0.12-0.117,0.222c0.331-0.017,0.619,0.004,0.891-0.053c1.075-0.226,2.149-0.207,3.22-0.006
		c0.633,0.119,1.258,0.279,1.886,0.421c-0.172,0.143-0.341,0.223-0.513,0.296c-0.839,0.358-1.688,0.676-2.619,0.704
		c-0.439,0.014-0.844,0.168-1.215,0.404c-0.186,0.119-0.302,0.265-0.272,0.503c1.104-0.1,2.186-0.23,3.273-0.286
		c1.094-0.056,2.19-0.014,3.321,0.303c-0.466,0.089-0.874,0.158-1.275,0.248c-1.461,0.333-2.805,0.913-3.906,1.956
		c-1.407,1.333-1.971,3.042-2.154,4.918c-0.124,1.27,0.033,2.521,0.248,3.761c0.448,2.58,0.884,5.163,1.417,7.726
		c0.974,4.683,2.014,9.354,3.033,14.028c0.022,0.097,0.12,0.221,0.21,0.253c1.469,0.527,2.97,0.933,4.52,1.143
		c1.516,0.206,3.037,0.288,4.56,0.151c0.931-0.083,1.857-0.235,2.863-0.367c-0.937-1.293-1.77-2.552-2.522-3.954
		c0.569,0.229,1.052,0.46,1.558,0.619c0.739,0.23,1.49,0.437,2.249,0.595c0.384,0.081,0.553-0.082,0.693-0.462
		c0.041-0.114,0.089-0.233,0.096-0.352c0.042-0.788,0.11-1.575,0.097-2.363c-0.017-0.91-0.055-1.823-0.316-2.709
		c-0.211-0.716-0.439-0.862-1.125-0.561c-0.693,0.304-1.365,0.665-2.014,1.057c-0.641,0.387-1.241,0.843-1.858,1.27
		c-0.203-0.469-0.245-0.487-0.779-0.487c-0.079,0-0.2-0.093-0.231-0.171c-0.152-0.382-0.289-0.772-0.416-1.164
		c-0.519-1.601-0.853-3.233-0.8-4.926c0.008-0.269,0.056-0.536,0.089-0.828c0.204,0.091,0.367,0.161,0.53,0.236
		c1.356,0.625,2.738,1.183,4.189,1.553c1.016,0.259,2.053,0.445,3.095,0.228c1.339-0.277,2.669-0.602,3.996-0.942
		c0.699-0.181,1.384-0.438,1.942-0.923c0.155-0.137,0.304-0.326,0.364-0.519c0.134-0.438-0.192-0.814-0.723-0.794
		c-0.854,0.031-1.708,0.101-2.558,0.186c-1.346,0.135-2.686,0.333-4.034,0.437c-1.319,0.104-2.551-0.257-3.679-0.946
		c-0.502-0.306-0.837-0.749-0.881-1.366c-0.021-0.291,0.116-0.519,0.348-0.51c0.835,0.027,1.675,0.032,2.505,0.126
		c0.727,0.083,1.438,0.118,2.15-0.064c2.563-0.655,5.023-1.594,7.424-2.69c0.506-0.232,0.976-0.559,1.431-0.887
		c0.634-0.458,0.392-1.144-0.226-1.31c-0.657-0.174-1.352-0.323-2.022-0.292c-0.768,0.036-1.538,0.236-2.284,0.445
		C34.366,24.537,32.92,25.001,31.423,25.455z"/>
	<path fill-rule="evenodd" clip-rule="evenodd" fill="none" d="M31.423,25.455c1.497-0.454,2.943-0.918,4.406-1.327
		c0.747-0.209,1.517-0.41,2.284-0.445c0.67-0.031,1.365,0.118,2.022,0.292c0.618,0.166,0.86,0.852,0.226,1.31
		c-0.455,0.328-0.925,0.655-1.431,0.887c-2.401,1.096-4.861,2.035-7.424,2.69c-0.712,0.183-1.424,0.147-2.15,0.064
		c-0.83-0.095-1.669-0.099-2.505-0.126c-0.231-0.009-0.369,0.219-0.348,0.51c0.044,0.617,0.379,1.06,0.881,1.366
		c1.127,0.689,2.359,1.05,3.679,0.946c1.349-0.104,2.688-0.302,4.034-0.437c0.85-0.085,1.704-0.155,2.558-0.186
		c0.531-0.02,0.856,0.356,0.723,0.794c-0.06,0.193-0.209,0.382-0.364,0.519c-0.558,0.485-1.243,0.742-1.942,0.923
		c-1.327,0.341-2.656,0.666-3.996,0.942c-1.042,0.217-2.079,0.031-3.095-0.228c-1.451-0.37-2.833-0.929-4.189-1.553
		c-0.163-0.075-0.326-0.145-0.53-0.236c-0.033,0.292-0.081,0.559-0.089,0.828c-0.052,1.693,0.281,3.325,0.8,4.926
		c0.127,0.392,0.264,0.782,0.416,1.164c0.031,0.078,0.152,0.17,0.231,0.171c0.534,0,0.576,0.018,0.779,0.486
		c0.617-0.425,1.217-0.882,1.858-1.269c0.648-0.392,1.321-0.753,2.014-1.057c0.686-0.301,0.914-0.155,1.125,0.561
		c0.261,0.886,0.299,1.799,0.316,2.709c0.013,0.788-0.055,1.575-0.097,2.363c-0.006,0.119-0.055,0.238-0.096,0.352
		c-0.14,0.38-0.309,0.542-0.693,0.462c-0.759-0.158-1.509-0.365-2.249-0.595c-0.506-0.158-0.989-0.39-1.558-0.619
		c0.753,1.402,1.586,2.661,2.522,3.954c-1.005,0.131-1.932,0.284-2.863,0.367c-1.523,0.137-3.044,0.055-4.56-0.151
		c-1.55-0.21-3.051-0.616-4.52-1.143c-0.09-0.032-0.188-0.156-0.21-0.253c-1.019-4.674-2.059-9.345-3.033-14.028
		c-0.533-2.563-0.969-5.146-1.417-7.726c-0.215-1.24-0.372-2.491-0.248-3.761c0.183-1.876,0.747-3.584,2.154-4.918
		c1.101-1.042,2.445-1.623,3.906-1.956c0.401-0.09,0.81-0.158,1.275-0.248c-1.13-0.317-2.227-0.359-3.321-0.303
		c-1.087,0.056-2.169,0.186-3.273,0.286c-0.03-0.238,0.086-0.384,0.272-0.503c0.371-0.236,0.775-0.39,1.215-0.404
		c0.931-0.028,1.78-0.346,2.619-0.704c0.171-0.073,0.34-0.153,0.513-0.296c-0.628-0.142-1.252-0.302-1.886-0.421
		c-1.071-0.2-2.145-0.219-3.22,0.006c-0.272,0.057-0.56,0.036-0.891,0.053c0.053-0.102,0.077-0.167,0.117-0.222
		c0.161-0.232,0.363-0.443,0.48-0.695c0.252-0.547,0.714-0.679,1.247-0.738c0.512-0.057,1.016-0.193,1.529-0.213
		c1.173-0.047,2.292,0.248,3.374,0.67c1.618,0.632,3.153,1.418,4.495,2.539c0.266,0.223,0.537,0.457,0.742,0.732
		c0.242,0.325,0.544,0.48,0.922,0.576c1.869,0.482,3.265,1.576,4.244,3.243c1.065,1.816,1.847,3.733,2.219,5.806
		c0.174,0.964,0.28,1.938,0.034,2.911C31.436,25.2,31.437,25.305,31.423,25.455z M18.293,21.271
		c-0.701,0.003-1.541,0.867-1.539,1.583c0.003,0.719,0.841,1.549,1.562,1.547c0.713-0.002,1.558-0.847,1.559-1.562
		C19.876,22.12,19.018,21.268,18.293,21.271z M27.549,21.879c0.001,0.779,0.609,1.377,1.4,1.378c0.683,0,1.314-0.668,1.312-1.387
		c-0.004-0.686-0.677-1.358-1.355-1.354C28.157,20.521,27.549,21.132,27.549,21.879z M18.753,18.206
		c-0.379-0.61-1.521-0.795-2.316-0.422c-0.944,0.445-1.349,1.135-1.072,1.939c0.077-0.893,0.761-1.136,1.361-1.447
		C17.368,17.944,18.044,17.974,18.753,18.206z M26.418,18.12c0.47-0.453,1.015-0.484,1.56-0.516c0.563-0.031,1.08,0.147,1.601,0.386
		c-0.167-0.502-0.795-0.891-1.42-0.902C27.243,17.071,26.695,17.38,26.418,18.12z"/>
	<path fill-rule="evenodd" clip-rule="evenodd" fill="#119A48" d="M18.293,21.271c0.724-0.002,1.583,0.85,1.582,1.569
		c-0.001,0.714-0.846,1.559-1.559,1.562c-0.72,0.002-1.559-0.828-1.562-1.547C16.752,22.137,17.592,21.273,18.293,21.271z
		 M19.011,22.744c0.278-0.002,0.448-0.162,0.455-0.426c0.007-0.28-0.149-0.428-0.441-0.423c-0.279,0.005-0.396,0.135-0.389,0.434
		C18.642,22.621,18.755,22.745,19.011,22.744z"/>
	<path fill-rule="evenodd" clip-rule="evenodd" fill="#119A48" d="M27.549,21.879c0-0.747,0.608-1.358,1.357-1.363
		c0.678-0.004,1.351,0.668,1.355,1.354c0.003,0.719-0.629,1.387-1.312,1.387C28.158,23.256,27.55,22.658,27.549,21.879z
		 M29.124,21.47c0,0.211,0.022,0.402,0.276,0.421c0.235,0.017,0.418-0.159,0.423-0.389c0.003-0.195-0.164-0.335-0.4-0.333
		C29.218,21.171,29.108,21.268,29.124,21.47z"/>
	<path fill-rule="evenodd" clip-rule="evenodd" fill="#119A48" d="M18.753,18.206c-0.709-0.232-1.385-0.262-2.027,0.07
		c-0.6,0.311-1.284,0.555-1.361,1.447c-0.277-0.805,0.128-1.495,1.072-1.939C17.232,17.411,18.374,17.596,18.753,18.206z"/>
	<path fill-rule="evenodd" clip-rule="evenodd" fill="#119A48" d="M26.418,18.12c0.277-0.739,0.825-1.048,1.74-1.032
		c0.625,0.011,1.253,0.4,1.42,0.902c-0.521-0.238-1.038-0.417-1.601-0.386C27.433,17.635,26.888,17.667,26.418,18.12z"/>
	<path fill-rule="evenodd" clip-rule="evenodd" fill="none" d="M19.011,22.744c-0.256,0.001-0.369-0.123-0.376-0.415
		c-0.006-0.299,0.11-0.429,0.389-0.434c0.292-0.005,0.448,0.143,0.441,0.423C19.459,22.582,19.29,22.741,19.011,22.744z"/>
	<path fill-rule="evenodd" clip-rule="evenodd" fill="none" d="M29.124,21.47c-0.016-0.202,0.094-0.299,0.299-0.3
		c0.237-0.002,0.404,0.138,0.4,0.333c-0.005,0.23-0.188,0.406-0.423,0.389C29.146,21.872,29.124,21.681,29.124,21.47z"/>
</g>
</svg>
