<?xml version="1.0" encoding="utf-8"?>
<!-- Generator: Adobe Illustrator 16.0.0, SVG Export Plug-In . SVG Version: 6.00 Build 0)  -->
<!DOCTYPE svg PUBLIC "-//W3C//DTD SVG 1.1//EN" "http://www.w3.org/Graphics/SVG/1.1/DTD/svg11.dtd">
<svg version="1.1" id="Layer_1" xmlns="http://www.w3.org/2000/svg" xmlns:xlink="http://www.w3.org/1999/xlink" x="0px" y="0px"
	 width="1920px" height="1080px" viewBox="0 0 1920 1080" enable-background="new 0 0 1920 1080" xml:space="preserve">
<rect x="-6.161" y="-9.459" fill="#333333" width="1936.647" height="1097.5"/>
<g>
	<g>
		<path fill-rule="evenodd" clip-rule="evenodd" fill="#FFFFFF" d="M1632.264,628.396c-7.729,0-15.165,0-22.935,0
			c-0.51-7.686-3.645-13.881-11.626-14.949c-5.312-0.711-11.033-0.021-16.309,1.188c-4.225,0.969-6.516,4.778-6.888,9.313
			c-0.367,4.454,1.597,7.918,5.397,9.808c5.352,2.66,11,4.719,16.503,7.076c6.848,2.934,14.035,5.293,20.438,9.002
			c11.572,6.704,17.172,17.154,15.508,30.654c-1.741,14.117-11.097,21.578-24.039,24.816c-14.496,3.625-28.803,2.877-42.324-4.184
			c-12.029-6.281-18.793-17.475-18.168-30.037c7.547,0,15.113,0,22.89,0c0.263,1.439,0.528,2.844,0.776,4.25
			c1.136,6.443,4.842,11.123,11.188,12.087c5.934,0.9,12.202,0.807,18.155-0.037c4.575-0.649,7.606-4.278,8.077-9.268
			c0.48-5.093-1.008-9.553-5.743-11.903c-5.223-2.594-10.817-4.43-16.151-6.816c-7.729-3.457-16.024-6.152-22.923-10.862
			c-19.687-13.446-17.225-39.685,4.43-49.711c14.228-6.587,28.994-6.813,43.558-1.007
			C1625.024,602.977,1633.323,615.742,1632.264,628.396z"/>
		<path fill-rule="evenodd" clip-rule="evenodd" fill="#FFFFFF" d="M291.488,671.052c7.547,0,15.115,0,23.001,0
			c0.413,8.753,4.062,15.371,13.131,16.784c5.227,0.813,10.78,0.555,16.045-0.204c4.817-0.696,8.138-4.046,8.781-9.181
			c0.682-5.447-1.067-10.061-6.151-12.547c-4.981-2.437-10.3-4.174-15.373-6.438c-7.864-3.506-16.324-6.205-23.331-11.002
			c-19.515-13.357-17.161-39.398,4.211-49.486c14.34-6.768,29.246-7.006,43.951-1.122c12.966,5.188,21.416,18.334,19.981,30.74
			c-3.684,0-7.452,0-11.22,0c-3.788,0-7.574,0-11.296,0c-1.633-14.063-11.021-18.431-26.339-14.877
			c-4.74,1.1-7.959,4.392-8.723,9.455c-0.786,5.212,1.727,8.982,6.134,11.144c5.106,2.504,10.547,4.317,15.795,6.541
			c6.861,2.904,14.042,5.292,20.43,9.023c11.543,6.741,17.117,17.207,15.401,30.707c-1.792,14.114-11.188,21.502-24.122,24.742
			c-14.195,3.559-28.228,2.789-41.553-3.822C297.818,695.345,290.496,683.4,291.488,671.052z"/>
		<path fill-rule="evenodd" clip-rule="evenodd" fill="#FFFFFF" d="M1087.54,705.352c-7.604,0-14.933,0.115-22.25-0.124
			c-1.1-0.035-2.675-1.517-3.128-2.681c-2.124-5.459-3.815-11.086-5.947-16.541c-0.444-1.139-2.083-2.559-3.19-2.576
			c-12.03-0.186-24.063-0.116-36.417-0.116c-2.143,6.288-4.373,12.469-6.325,18.735c-0.778,2.5-1.963,3.445-4.642,3.371
			c-6.881-0.189-13.771-0.063-21.315-0.063c0.569-1.799,0.933-3.149,1.419-4.453c12.614-33.784,25.272-67.553,37.804-101.366
			c1.023-2.763,2.27-3.944,5.344-3.765c4.975,0.291,9.989-0.093,14.964,0.191c1.35,0.078,3.379,1.246,3.818,2.4
			c13.211,34.816,26.262,69.691,39.325,104.563C1087.241,703.576,1087.309,704.289,1087.54,705.352z M1049.11,664.416
			c-4.289-12.828-8.483-25.377-12.956-38.758c-0.716,1.559-1.132,2.279-1.391,3.055c-3.94,11.781-7.861,23.57-11.902,35.703
			C1031.825,664.416,1040.242,664.416,1049.11,664.416z"/>
		<path fill-rule="evenodd" clip-rule="evenodd" fill="#FFFFFF" d="M606.524,657.627c0,9.888,0,19.207,0,29.006
			c16.679,0,33.204,0,50.081,0c0,6.379,0,12.287,0,18.463c-24.562,0-49.008,0-73.719,0c0-36.278,0-72.361,0-108.846
			c24.365,0,48.787,0,73.528,0c0,5.84,0,11.767,0,18.203c-16.576,0-33.086,0-49.875,0c0,8.645,0,16.788,0,25.333
			c14.163,0,28.211,0,42.636,0c0,6.013,0,11.64,0,17.841C635.068,657.627,620.925,657.627,606.524,657.627z"/>
		<path fill-rule="evenodd" clip-rule="evenodd" fill="#FFFFFF" d="M1419.296,704.99c0-36.267,0-72.352,0-108.788
			c24.482,0,48.924,0,73.706,0c0,5.884,0,11.807,0,18.149c-16.641,0-33.173,0-50.075,0c0,8.658,0,16.906,0,25.514
			c14.209,0,28.263,0,42.673,0c0,5.976,0,11.606,0,17.748c-14.174,0-28.323,0-42.755,0c0,9.822,0,19.146,0,29.028
			c16.731,0,33.371,0,50.287,0c0,6.36,0,12.168,0,18.349C1468.721,704.99,1444.289,704.99,1419.296,704.99z"/>
		<path fill-rule="evenodd" clip-rule="evenodd" fill="#FFFFFF" d="M460.346,667.904c0,6.158,0,12.291,0,18.424
			c0,6.145,0,12.287,0,18.728c-7.912,0-15.447,0-23.233,0c0-36.284,0-72.362,0-108.825c1.057-0.123,2.164-0.359,3.27-0.361
			c14.834-0.021,29.67-0.195,44.501,0.034c25.743,0.397,43.08,24.165,35.067,48.099c-4.614,13.779-15.322,20.551-28.978,22.365
			C481.141,667.676,471.1,667.424,460.346,667.904z M460.521,648.029c8.427,0,16.485,0.556,24.43-0.153
			c8.176-0.729,12.588-6.124,13.014-13.994c0.493-9.121-3.89-17.032-11.7-18.274c-8.38-1.33-17.021-1.012-25.744-1.422
			C460.521,626.148,460.521,637.098,460.521,648.029z"/>
		<path fill-rule="evenodd" clip-rule="evenodd" fill="#FFFFFF" d="M802.693,632.846c-7.741,0-15.188,0-22.94,0
			c-0.349-1.48-0.792-2.984-1.049-4.517c-2.017-12.019-10.724-16.526-22.797-15.112c-11.336,1.326-16.56,7.283-18.675,20.551
			c-1.95,12.234-1.846,24.572,0.527,36.802c3.531,18.197,19.007,20.589,31.679,15.571c5.028-1.99,7.524-6.347,8.849-11.392
			c0.481-1.831,0.782-3.71,1.211-5.792c7.671,0,15.203,0,23.125,0c-0.896,12.72-5.742,22.809-15.899,30.295
			c-15.34,11.304-47.377,11.814-61.743-5.689c-7.472-9.104-11.187-19.515-12.137-31.033c-1.239-15.027-1.355-29.995,5.459-43.996
			c7.795-16.018,20.749-24.254,38.568-24.365c5.224-0.032,10.617,0.245,15.652,1.502
			C790.449,600.147,800.782,613.01,802.693,632.846z"/>
		<path fill-rule="evenodd" clip-rule="evenodd" fill="#FFFFFF" d="M1229.077,632.852c-8.006,0-15.457,0-23.193,0
			c-0.254-1.322-0.524-2.592-0.741-3.871c-2.134-12.613-9.903-16.563-22.293-15.945c-10.096,0.502-16.136,6.713-18.263,16.266
			c-3.199,14.361-3.19,28.904,0.03,43.244c4.052,18.039,22.223,18.266,32.542,12.842c5.099-2.682,7.161-7.689,7.853-13.099
			c0.358-2.798,1.342-3.757,4.13-3.688c6.437,0.158,12.882,0.05,19.74,0.05c-0.547,10.894-4.128,19.861-11.672,27.138
			c-6.465,6.236-14.335,9.652-23.121,10.785c-9.523,1.227-19.03,1.23-28.121-2.592c-12.519-5.265-20.421-14.894-24.055-27.6
			c-4.812-16.829-5.059-34.045-0.059-50.859c10.499-35.303,48.494-37.363,69.053-24.826
			C1222.549,607.795,1227.718,619.029,1229.077,632.852z"/>
		<path fill-rule="evenodd" clip-rule="evenodd" fill="#FFFFFF" d="M943.909,614.451c-11.054,0-21.86,0-33.205,0
			c0,30.375,0,60.376,0,90.639c-8.085,0-15.628,0-23.597,0c0-30.107,0-60.009,0-90.398c-11.05,0-21.691,0-32.645,0
			c0-6.405,0-12.33,0-18.549c29.769,0,59.481,0,89.446,0C943.909,602.111,943.909,607.928,943.909,614.451z"/>
		<path fill-rule="evenodd" clip-rule="evenodd" fill="#FFFFFF" d="M1312.571,686.743c16.348,0,31.883,0,47.803,0
			c0,6.185,0,12.103,0,18.321c-23.564,0-47.095,0-70.857,0c0-36.379,0-72.578,0-108.994c7.686,0,15.117,0,23.054,0
			C1312.571,626.153,1312.571,656.156,1312.571,686.743z"/>
	</g>
	<g>
		<path fill-rule="evenodd" clip-rule="evenodd" fill="#FFFFFF" d="M962.663,307.977c44.044-68.46,125.908-66.021,170.468-23.715
			c43.594,41.39,44.145,112.926,1.384,156.748c-40.124,41.122-125.292,49.793-171.86-22.008
			c-47.219,72.47-132.557,62.391-171.915,22c-42.634-43.75-42.148-115.274,1.473-156.752
			C836.08,242.542,917.828,238.815,962.663,307.977z M1057.368,444.684c44.755,0.209,81.302-36.092,81.561-81.009
			c0.251-44.396-36.599-81.712-80.958-81.98c-44.232-0.269-81.337,36.743-81.559,81.359
			C976.186,407.847,1012.513,444.475,1057.368,444.684z M867.276,444.684c44.698,0.26,81.374-36.123,81.624-80.971
			c0.246-44.427-36.55-81.723-80.922-82.019c-44.2-0.298-81.351,36.724-81.593,81.311
			C786.138,407.803,822.406,444.423,867.276,444.684z"/>
		<path fill-rule="evenodd" clip-rule="evenodd" fill="#FFFFFF" d="M1057.807,424.19c0-4.48,0-8.288,0-12.655
			c28.019-3.563,44.366-18.977,47.449-47.921c4.343,0,8.345,0,12.347,0C1121.769,394.104,1090.3,426.451,1057.807,424.19z"/>
		<path fill-rule="evenodd" clip-rule="evenodd" fill="#FFFFFF" d="M1030.867,349.837c-7.882,0.192-14.127-5.964-14.065-13.868
			c0.055-7.25,6.188-13.549,13.373-13.736c7.169-0.189,13.647,5.82,14.062,13.043
			C1044.687,343.156,1038.731,349.644,1030.867,349.837z"/>
		<path fill-rule="evenodd" clip-rule="evenodd" fill="#FFFFFF" d="M867.767,424.243c0-4.477,0-8.282,0-12.722
			c28.012-3.508,44.347-18.957,47.52-47.895c4.545,0,8.78,0,13.003,0C928.892,397.316,900.028,426.363,867.767,424.243z"/>
		<path fill-rule="evenodd" clip-rule="evenodd" fill="#FFFFFF" d="M854.208,335.552c0.273,7.931-5.77,14.251-13.652,14.285
			c-7.51,0.032-13.479-5.681-13.783-13.19c-0.309-7.613,6.101-14.377,13.656-14.416C847.615,322.194,853.962,328.33,854.208,335.552
			z"/>
	</g>
</g>
<rect x="-1728.67" y="567.377" fill-rule="evenodd" clip-rule="evenodd" fill="none" width="1916.375" height="575.904"/>
<text transform="matrix(1 0 0 1 -1728.6704 805.9434)" fill="#FFFFFF" font-family="'Impact'" font-size="301.6056">Stats</text>
</svg>
