<?xml version="1.0" encoding="utf-8"?>
<!-- Generator: Adobe Illustrator 16.0.0, SVG Export Plug-In . SVG Version: 6.00 Build 0)  -->
<!DOCTYPE svg PUBLIC "-//W3C//DTD SVG 1.1//EN" "http://www.w3.org/Graphics/SVG/1.1/DTD/svg11.dtd">
<svg version="1.1" id="Layer_1" xmlns="http://www.w3.org/2000/svg" xmlns:xlink="http://www.w3.org/1999/xlink" x="0px" y="0px"
	 width="800px" height="176px" viewBox="0 0 800 176" enable-background="new 0 0 800 176" xml:space="preserve">
<g>
	<path fill="#666565" d="M53.115,141.209c-6.583,0-12.334-0.697-17.258-2.091c-4.923-1.393-9.059-3.381-12.409-5.958
		c-3.347-2.582-5.915-5.693-7.693-9.342c-1.779-3.645-2.818-7.751-3.111-12.319h7.025c0.712,4.39,2.044,8.036,4.004,10.941
		c1.955,2.906,4.373,5.219,7.247,6.938c2.875,1.721,6.15,2.936,9.832,3.647c3.675,0.711,7.589,1.067,11.742,1.067
		c4.328,0,8.228-0.459,11.698-1.38c3.464-0.918,6.435-2.253,8.897-4.001c2.457-1.75,4.341-3.855,5.645-6.317
		c1.304-2.459,1.956-5.231,1.956-8.316c0-3.26-0.565-6.003-1.691-8.229c-1.125-2.221-3.021-4.164-5.692-5.825
		c-2.666-1.659-6.179-3.143-10.536-4.447c-4.365-1.304-9.774-2.638-16.237-4.003c-5.337-1.186-9.918-2.549-13.746-4.092
		c-3.82-1.541-6.978-3.336-9.469-5.381c-2.491-2.047-4.332-4.389-5.518-7.029c-1.185-2.637-1.781-5.705-1.781-9.205
		c0-3.794,0.804-7.264,2.404-10.408c1.601-3.142,3.871-5.84,6.804-8.094c2.934-2.253,6.463-4.003,10.587-5.249
		c4.121-1.245,8.67-1.868,13.652-1.868c4.98,0,9.548,0.58,13.702,1.734c4.146,1.159,7.785,2.833,10.893,5.027
		c3.115,2.194,5.634,4.863,7.565,8.005c1.924,3.144,3.156,6.702,3.69,10.674h-6.849c-0.653-2.608-1.72-5.039-3.201-7.294
		c-1.485-2.252-3.399-4.195-5.738-5.825c-2.344-1.632-5.134-2.906-8.365-3.827c-3.23-0.919-6.923-1.378-11.073-1.378
		c-8.717,0-15.314,1.601-19.794,4.803c-4.473,3.202-6.713,7.592-6.713,13.166c0,2.549,0.415,4.773,1.245,6.67
		c0.827,1.899,2.237,3.602,4.228,5.116c1.984,1.51,4.609,2.846,7.871,4c3.259,1.158,7.324,2.241,12.184,3.249
		c2.848,0.593,5.785,1.216,8.809,1.867c3.024,0.654,5.977,1.424,8.852,2.313c2.875,0.889,5.615,1.988,8.227,3.292
		c2.607,1.305,4.879,2.907,6.803,4.803c1.93,1.899,3.472,4.167,4.627,6.806c1.154,2.638,1.735,5.768,1.735,9.384
		c0,4.152-0.876,7.96-2.623,11.431c-1.749,3.468-4.181,6.463-7.296,8.982c-3.116,2.521-6.819,4.478-11.116,5.871
		C62.827,140.513,58.154,141.209,53.115,141.209z"/>
	<path fill="#666565" d="M178.585,49.144h-34.068v90.287h-7.117V49.144h-33.714v-7.117h74.898V49.144z"/>
	<path fill="#666565" d="M268.565,139.431h-70.364V42.027h67.96v7.117h-60.843v36.025h57.017v7.117h-57.017v40.029h63.247V139.431z"
		/>
	<path fill="#666565" d="M362.811,139.431h-70.364V42.027h67.961v7.117h-60.844v36.025h57.02v7.117h-57.02v40.029h63.247V139.431z"
		/>
	<path fill="#666565" d="M477.251,139.431h-7.116V53.68l-35.05,85.75h-7.474l-34.956-85.75v85.75h-7.116V42.027h10.318
		l35.493,88.508l35.755-88.508h10.146V139.431z"/>
	<path fill="#40BADC" d="M503.893,42.027h35.404c4.744,0,9.309,0.387,13.698,1.157c4.385,0.771,8.257,2.178,11.61,4.226
		c3.348,2.045,6.016,4.818,8.003,8.316c1.989,3.5,2.98,7.948,2.98,13.343c0,9.548-3.01,16.812-9.031,21.792
		c-6.018,4.982-14.81,7.473-26.372,7.473h-29.175v41.096h-7.118V42.027z M511.011,91.218h29.444c4.98,0,9.218-0.474,12.718-1.424
		c3.496-0.947,6.357-2.342,8.587-4.18c2.223-1.837,3.835-4.106,4.843-6.806c1.01-2.698,1.515-5.825,1.515-9.383
		c0-4.328-0.76-7.828-2.27-10.497c-1.512-2.668-3.558-4.729-6.136-6.181c-2.578-1.454-5.563-2.417-8.938-2.892
		c-3.384-0.473-6.943-0.711-10.675-0.711h-29.088V91.218z"/>
	<path fill="#40BADC" d="M608.283,139.431h-7.116V42.027h7.116V139.431z"/>
</g>
</svg>
