<?xml version="1.0" encoding="utf-8"?>
<!-- Generator: Adobe Illustrator 16.0.0, SVG Export Plug-In . SVG Version: 6.00 Build 0)  -->
<!DOCTYPE svg PUBLIC "-//W3C//DTD SVG 1.1//EN" "http://www.w3.org/Graphics/SVG/1.1/DTD/svg11.dtd">
<svg version="1.1" id="Layer_1" xmlns="http://www.w3.org/2000/svg" xmlns:xlink="http://www.w3.org/1999/xlink" x="0px" y="0px"
	 width="1920px" height="1080px" viewBox="0 0 1920 1080" enable-background="new 0 0 1920 1080" xml:space="preserve">
<rect x="-6.551" y="-7.968" fill="#0E122C" width="1937.551" height="1094.477"/>
<g>
	<path fill-rule="evenodd" clip-rule="evenodd" fill="#FFFFFF" d="M239.359,491.563c1.43,14.146,2.766,27.383,4.104,40.619
		c0.818,0.043,1.635,0.088,2.453,0.131c2.428-6.906,4.885-13.803,7.275-20.719c4.785-13.826,11.561-17.725,25.639-13.771
		c2.492,0.703,5.012,3.883,6.105,6.504c3.791,9.08,6.959,18.416,12.898,27.664c1.498-13.064,2.998-26.127,4.672-40.709
		c-5.424-0.244-10.547,0.922-13.984-0.973c-4.412-2.432-10.355-7.35-10.314-11.137c0.043-3.818,6.254-10.301,10.375-10.828
		c11.824-1.51,24.004-1.199,35.945-0.305c4.039,0.303,9.912,3.748,11.098,7.111c1.305,3.693-1.453,9.1-3.145,13.488
		c-1.738,4.502-5.713,8.488-6.318,13.018c-3.768,28.176-6.865,56.443-10.248,85.25c-4.354,0.508-7.967,0.938-11.58,1.35
		c-10.236,1.17-16.857-1.918-19.801-13.057c-3.357-12.725-8.576-24.959-13.9-39.988c-5.463,16.535-10.35,30.596-14.736,44.811
		c-4.398,14.256-15.846,6.264-24.059,7.639c-8.283,1.393-7.084-5.969-7.65-11.076c-2.643-23.84-4.813-47.748-8.188-71.482
		c-0.869-6.111-5.926-11.523-8.244-17.568c-1.527-3.984-3.213-9.17-1.84-12.627c1.271-3.203,6.383-6.533,10.043-6.826
		c11.113-0.896,22.344-0.246,33.529-0.406c8.119-0.117,14.363,2.613,14.414,11.533c0.049,8.957-6.229,11.754-14.322,11.641
		C247.109,490.814,244.633,491.178,239.359,491.563z"/>
	<path fill-rule="evenodd" clip-rule="evenodd" fill="#FFFFFF" d="M388.852,560.471c5.975,4.994,11.898,7.859,14.428,12.549
		c3.668,6.807-2.492,14.174-11.615,14.613c-9.908,0.477-20.014,1.133-29.721-0.346c-4.578-0.697-10.584-5.533-11.881-9.742
		c-0.943-3.068,4.613-8.293,7.551-12.352c2.041-2.824,6.504-5.264,6.559-7.943c0.514-24.777,0.305-49.566,0.305-74.996
		c-3.484-0.664-7.014-0.289-8.682-1.873c-3.545-3.367-9.035-8.355-8.371-11.576c0.871-4.223,6.496-9.754,10.811-10.506
		c9.211-1.604,18.893-0.49,29.828-0.49c0,14.453,0,28.316,0,39.563c15.887,0,30.676-2.123,44.533,0.561
		c15.867,3.074,22.701,14.654,23.016,30.98c0.213,11.137,0.041,22.283,0.041,32.523c4.965,3.072,9.881,4.771,12.766,8.188
		c6.021,7.121,1.359,16.996-8.543,17.957c-8.609,0.838-17.363,0.096-26.049,0.359c-8.041,0.246-16.76-1.068-16.938-10.064
		c-0.105-5.398,6.559-10.932,10.178-16.406c1.301,0.598,2.604,1.195,3.908,1.791c0-10.297-0.242-20.6,0.08-30.885
		c0.238-7.578-3.379-11.088-10.363-13.016c-16.205-4.477-31.76,6.855-31.834,23.631
		C388.828,549.578,388.852,556.168,388.852,560.471z"/>
	<path fill-rule="evenodd" clip-rule="evenodd" fill="#FFFFFF" d="M1108.75,591.936c-8.684-2.17-17.307-4.648-26.08-6.35
		c-3.432-0.666-7.514-0.398-10.75,0.859c-9.221,3.578-16.162,0.643-17.227-8.998c-0.855-7.738-0.928-15.813,0.398-23.436
		c0.6-3.443,5.176-8.229,8.434-8.652c4.025-0.525,10.178,1.607,12.604,4.754c12.596,16.338,30.418,21.547,48.488,12.336
		c3.658-1.863,8.883-6.545,8.465-9.137c-0.623-3.885-4.986-8.924-8.842-10.199c-10.482-3.459-21.611-4.91-32.332-7.736
		c-5.912-1.559-11.951-3.545-17.188-6.611c-12.842-7.518-18.461-21.385-15.09-35.002c3.584-14.467,18.965-27.727,35.678-28.076
		c10.805-0.227,21.666,3.068,32.539,4.486c2.76,0.359,5.938,0.219,8.463-0.818c8.9-3.648,15.076-1.26,16.256,8.277
		c1.057,8.531,1.141,17.455-0.252,25.891c-0.598,3.605-5.957,8.854-9.299,8.965c-4.201,0.137-10.496-3.16-12.502-6.828
		c-8.844-16.188-24.143-22.07-39.561-13.189c-3.525,2.033-8.09,6.865-7.73,9.881c0.457,3.824,4.826,9.055,8.6,10.258
		c10.914,3.484,22.426,5.047,33.609,7.74c23.449,5.646,34.732,19.969,31.824,39.979c-2.342,16.119-19.961,29.117-40.639,29.939
		c-2.48,0.1-4.969,0.014-7.453,0.014C1109.027,590.834,1108.889,591.383,1108.75,591.936z"/>
	<path fill-rule="evenodd" clip-rule="evenodd" fill="#FFFFFF" d="M883.121,552.775c-29.963,0-57.162,0-84.822,0
		c5.916,10.898,20.807,16.074,36.686,13.758c11.406-1.666,22.842-3.768,34.303-4.037c4.057-0.096,11.678,4.76,11.604,7.168
		c-0.145,4.521-3.711,11.387-7.584,12.93c-21.498,8.559-44.121,11.018-66.676,5.307c-24.346-6.166-38.67-25.383-37.324-47.459
		c1.354-22.102,20.467-41.596,44.26-45.145c29.346-4.375,54.777,7.074,64.379,30.33C881.223,533.568,881.33,542.82,883.121,552.775z
		 M798.168,533.813c18.736,0,36.492,0,54.832,0C839.496,513.197,812.02,513.318,798.168,533.813z"/>
	<path fill-rule="evenodd" clip-rule="evenodd" fill="#FFFFFF" d="M590.141,560.076c7.637,5.529,14.748,8.184,16.656,12.926
		c1.324,3.291-3.74,12.846-7.326,13.682c-9.035,2.102-18.879,1.301-28.336,0.67c-2.783-0.186-5.346-3.691-8.654-6.154
		c-13.498,8.844-29.908,12.602-47.563,6.488c-11.191-3.871-19.938-11.105-21.471-23.354c-1.475-11.82,4.943-21.688,14.797-26.621
		c10.322-5.174,22.143-7.832,33.602-10.096c7.453-1.471,15.436-0.275,26.131-0.275c-7.941-9.396-15.936-9.949-24.34-8.73
		c-8.537,1.238-16.975,3.17-25.512,4.377c-7.008,0.99-13.695-1.586-13.229-9.063c0.297-4.725,4.928-11.633,9.221-13.217
		c17.629-6.504,36.131-8.637,54.527-3.01c15.168,4.643,21.32,13.57,21.473,29.279C590.234,538.93,590.141,550.879,590.141,560.076z
		 M566.85,554.861c-23.242-7.379-37.852-5.277-48.215,6.414C531.465,569.83,555.225,567.029,566.85,554.861z"/>
	<path fill-rule="evenodd" clip-rule="evenodd" fill="#FFFFFF" d="M1538.406,580.27c-15.529,10.254-32.027,13.57-49.6,7.391
		c-10.715-3.768-19.064-10.936-20.891-22.549c-1.863-11.855,4.391-21.75,14.09-26.992c9.811-5.301,21.188-8.313,32.238-10.512
		c8.143-1.619,16.867-0.318,27.85-0.318c-8.066-9.645-16.188-9.779-24.674-8.506c-8.939,1.344-17.859,3.912-26.768,3.828
		c-3.936-0.033-10.27-4.748-11.057-8.322c-0.82-3.725,2.703-11.262,6.102-12.59c19.176-7.49,39.234-9.996,59.266-3.523
		c13.508,4.365,19.51,13.742,19.693,28.193c0.156,11.975,0.031,23.957,0.031,36.824c3.484,0.615,7.484,0.143,9.367,1.918
		c3.508,3.305,7.789,7.85,7.936,12.014c0.121,3.367-4.977,9.395-8.432,9.932c-9.295,1.441-18.973,0.971-28.436,0.33
		C1543.004,587.246,1541.143,583.303,1538.406,580.27z M1491.516,560.936c17.305,8.979,42.592,4.727,48.627-7.109
		C1523.367,549.41,1507.332,548.156,1491.516,560.936z"/>
	<path fill-rule="evenodd" clip-rule="evenodd" fill="#FFFFFF" d="M1364.088,563.059c9.164,2.033,17.166,5.145,15.303,15.156
		c-1.684,9.045-9.645,10.08-17.668,9.738c-6.615-0.285-13.252-0.168-19.877-0.039c-7.982,0.152-16.721-0.934-16.199-10.543
		c0.299-5.473,6.867-10.605,10.611-15.887c1.342,0.646,2.686,1.295,4.027,1.941c0-11.949,0.33-23.914-0.26-35.838
		c-0.127-2.582-3.803-4.855-5.396-7.535c-2.537-4.268-7.029-9.172-6.346-13.035c0.648-3.682,6.746-8.9,10.654-9.082
		c18.471-0.863,36.928-1.199,55.434-2.459c22.076-1.506,35.619,13.105,35.973,34.965c0.113,7.037,0.018,14.08,0.092,21.121
		c0.066,6.361-1.299,12.811,7.822,15.572c2.6,0.787,4.926,8.584,4.146,12.527c-0.641,3.227-5.859,7.404-9.443,7.828
		c-9.395,1.109-19.111,1.225-28.477,0.023c-3.926-0.506-9.352-4.779-10.338-8.367c-0.992-3.619,1.555-11.055,4.516-12.361
		c7.549-3.326,7.475-8.676,7.369-14.93c-0.1-5.797-0.404-11.639,0.16-17.385c1.393-14.248-8.834-16.777-19.205-15.891
		c-15.678,1.338-22.908,10.252-22.898,25.973C1364.094,550.33,1364.088,556.104,1364.088,563.059z"/>
	<path fill-rule="evenodd" clip-rule="evenodd" fill="#FFFFFF" d="M1245.609,590.627c-4.936-0.363-10.008-0.119-14.783-1.191
		c-26.305-5.914-44.098-27.238-41.627-49.432c2.793-25.072,25.709-44.213,52.629-45.119c18.439-0.617,34.668,4.271,46.979,17.863
		c12.188,13.459,16.67,29.766,9.121,47.135c-8.371,19.258-24.721,27.951-44.859,30.412c-2.443,0.301-4.959,0.041-7.439,0.041
		C1245.623,590.434,1245.615,590.531,1245.609,590.627z M1245.76,566.902c16.82-0.342,31.375-11.77,30.91-24.27
		c-0.482-13.016-15.039-24.4-31.25-24.443c-16.715-0.039-31.629,11.994-31.512,25.432
		C1214.016,555.979,1229.416,567.236,1245.76,566.902z"/>
	<path fill-rule="evenodd" clip-rule="evenodd" fill="#FFFFFF" d="M1633.961,521.111c-2.133-0.168-4.178-0.48-6.219-0.459
		c-8.313,0.098-13.928-3.213-13.586-12.186c0.32-8.303,5.973-11,13.602-10.941c7.029,0.053,14.17-0.977,21.057-0.029
		c4.727,0.65,9.1,3.859,15.07,6.58c8.693-2.469,20.164-7.809,31.826-8.27c7.346-0.293,15.775,5.748,22.109,10.918
		c2.604,2.127,2.994,10.947,0.725,13.959c-2.354,3.127-11.096,5.6-13.682,3.721c-18.178-13.188-29.203,2.131-39.248,11.176
		c-5.898,5.313-5.285,17.854-8.061,28.979c13.869,0,23.717-0.033,33.563,0.014c7.809,0.035,12.82,3.547,12.729,11.785
		c-0.092,8.271-5.295,11.516-13.031,11.516c-22.754,0-45.506-0.029-68.264,0.014c-8.316,0.018-13.848-3.326-13.551-12.26
		c0.273-8.268,5.777-11.234,13.449-11.113c3.299,0.053,6.598,0.01,11.512,0.01C1633.961,550.316,1633.961,536.35,1633.961,521.111z"
		/>
	<path fill-rule="evenodd" clip-rule="evenodd" fill="#FFFFFF" d="M699.01,562.051c14.08,2.502,26.365,3.363,37.443,7.473
		c3.246,1.205,3.063,11.645,4.531,18.207c-30.275,0-59.111-0.096-87.947,0.064c-8.727,0.045-16.523-1.4-16.287-12.059
		c0.219-9.861,7.678-11.402,15.918-11.154c7.316,0.221,14.648,0.045,22.699,0.045c0-28.406,0-55.484,0-83.887
		c-6.361,0-12.039,0-17.717,0c-7.9,0.004-13.906-4.035-12.348-11.676c0.893-4.371,7.365-10.275,11.828-10.746
		c13.424-1.418,27.098-0.51,41.879-0.51C699.01,493.35,699.01,527.918,699.01,562.051z"/>
</g>
</svg>
