<?xml version="1.0" encoding="utf-8"?>
<!-- Generator: Adobe Illustrator 16.0.0, SVG Export Plug-In . SVG Version: 6.00 Build 0)  -->
<!DOCTYPE svg PUBLIC "-//W3C//DTD SVG 1.1//EN" "http://www.w3.org/Graphics/SVG/1.1/DTD/svg11.dtd">
<svg version="1.1" id="Layer_1" xmlns="http://www.w3.org/2000/svg" xmlns:xlink="http://www.w3.org/1999/xlink" x="0px" y="0px"
	 width="50px" height="50px" viewBox="0 0 50 50" enable-background="new 0 0 50 50" xml:space="preserve">
<g>
	<path fill-rule="evenodd" clip-rule="evenodd" fill="none" d="M-1.25,51c0-17.495,0-34.99,0-52.495c17.387,0,34.776,0,52.181,0
		c0,17.492,0,34.993,0,52.495C33.543,51,16.148,51-1.25,51z M22.69,10.842c-7.349,1.294-12.283,7.864-11.868,15.011
		c0.372,6.394,5.215,11.937,11.561,13.136c6.537,1.236,13.047-2.15,15.751-8.158c2.497-5.55,0.947-11.566-1.979-14.723
		c-1.21,0.967-2.422,1.937-3.669,2.934c1.52,1.957,2.291,4.12,2.109,6.582c-0.181,2.474-1.175,4.574-2.976,6.263
		c-3.195,2.999-7.885,3.438-11.585,1.128c-3.598-2.246-5.304-6.726-4.09-10.737c0.955-3.155,4.446-6.483,6.774-6.419
		c0,1.485-0.01,2.973,0.007,4.459c0.004,0.356-0.1,0.569-0.396,0.791c-1.591,1.196-2.284,2.813-1.9,4.765
		c0.369,1.882,1.56,3.136,3.406,3.671c2.21,0.64,4.521-0.435,5.538-2.502c1.028-2.089,0.438-4.498-1.486-5.922
		c-0.315-0.232-0.414-0.462-0.413-0.834c0.01-6.075,0.009-12.15,0.007-18.227c0-0.84-0.007-0.856-0.84-0.896
		C19.933,0.841,13.986,2.809,9.048,7.375c-5.706,5.276-8.289,11.892-7.657,19.647c0.54,6.613,3.422,12.14,8.575,16.29
		c6.883,5.544,14.673,6.92,23.051,4.08c9.042-3.064,15.316-11.468,15.87-21.005c0.29-4.986-0.875-9.635-3.499-13.896
		c-0.511-0.829-1.096-1.611-1.667-2.444c-1.294,1.037-2.518,2.017-3.741,2.997c6.487,8.019,4.961,19.198-1.5,25.479
		c-6.375,6.196-16.134,7.267-23.56,2.532C7.302,36.196,4.255,27.028,7.073,18.783C9.969,10.305,17.685,6.458,22.69,6.147
		C22.69,7.7,22.69,9.252,22.69,10.842z"/>
	<path fill-rule="evenodd" clip-rule="evenodd" fill="#074F72" d="M22.69,10.842c0-1.59,0-3.142,0-4.694
		C17.685,6.458,9.969,10.305,7.073,18.783c-2.817,8.245,0.229,17.413,7.848,22.271c7.425,4.734,17.184,3.664,23.56-2.532
		c6.46-6.28,7.986-17.46,1.5-25.479c1.224-0.98,2.447-1.96,3.741-2.997c0.571,0.833,1.156,1.615,1.667,2.444
		c2.625,4.262,3.789,8.91,3.499,13.896c-0.554,9.537-6.828,17.94-15.87,21.005c-8.378,2.84-16.168,1.464-23.051-4.08
		c-5.153-4.15-8.035-9.677-8.575-16.29C0.759,19.267,3.342,12.651,9.048,7.375c4.938-4.566,10.885-6.534,17.594-6.213
		c0.833,0.04,0.84,0.057,0.84,0.896c0.002,6.076,0.003,12.151-0.007,18.227c-0.001,0.372,0.098,0.602,0.413,0.834
		c1.924,1.424,2.514,3.833,1.486,5.922c-1.017,2.067-3.328,3.142-5.538,2.502c-1.847-0.535-3.037-1.789-3.406-3.671
		c-0.384-1.952,0.31-3.568,1.9-4.765c0.296-0.222,0.4-0.435,0.396-0.791c-0.018-1.486-0.007-2.974-0.007-4.459
		c-2.328-0.064-5.819,3.264-6.774,6.419c-1.214,4.012,0.492,8.491,4.09,10.737c3.701,2.311,8.39,1.871,11.585-1.128
		c1.8-1.688,2.794-3.789,2.976-6.263c0.181-2.462-0.589-4.625-2.109-6.582c1.248-0.997,2.459-1.967,3.669-2.934
		c2.927,3.156,4.477,9.173,1.979,14.723c-2.704,6.008-9.214,9.395-15.751,8.158c-6.346-1.199-11.189-6.742-11.561-13.136
		C10.407,18.706,15.341,12.136,22.69,10.842z"/>
</g>
</svg>
