<?xml version="1.0" encoding="utf-8"?>
<!-- Generator: Adobe Illustrator 16.0.0, SVG Export Plug-In . SVG Version: 6.00 Build 0)  -->
<!DOCTYPE svg PUBLIC "-//W3C//DTD SVG 1.1//EN" "http://www.w3.org/Graphics/SVG/1.1/DTD/svg11.dtd">
<svg version="1.1" id="Layer_1" xmlns="http://www.w3.org/2000/svg" xmlns:xlink="http://www.w3.org/1999/xlink" x="0px" y="0px"
	 width="1920px" height="1080px" viewBox="0 0 1920 1080" enable-background="new 0 0 1920 1080" xml:space="preserve">
<rect x="-3" y="-3.25" fill-rule="evenodd" clip-rule="evenodd" fill="#EE2828" width="1931.333" height="1086.917"/>
<g>
	<g>
		<path fill-rule="evenodd" clip-rule="evenodd" fill="#FFFFFF" d="M221.166,511.974c0-52.181-0.021-104.361,0.014-156.541
			c0.01-14.409,3.812-16.608,16.538-9.538c94.843,52.687,189.673,105.398,284.487,158.139c3.934,2.188,9.396,3.683,9.288,9.181
			c-0.106,5.403-5.531,6.91-9.476,9.103c-94.822,52.728-189.658,105.429-284.511,158.098c-12.487,6.934-16.321,4.584-16.329-9.919
			C221.148,617.655,221.166,564.815,221.166,511.974z"/>
		<path fill-rule="evenodd" clip-rule="evenodd" fill="#FFFFFF" d="M1264.763,365.821c19.341,0,37.807,0,57.323,0
			c1.012,37.423,0.752,74.557-1.759,111.337c2.757,1.491,3.633-0.233,4.596-1.389c38.165-45.79,104.815-37.28,128.126,17.618
			c18.008,42.412,18.035,86.597,0.397,129.154c-22.105,53.337-86.423,64.749-127.097,23.641c-6.042-6.108-8.441-3.967-10.883,2.479
			c-2.203,5.816-4.645,11.543-7.029,17.429c-14.5,0-28.667,0-43.674,0C1264.763,566.182,1264.763,466.382,1264.763,365.821z
			 M1405.503,557.616c-0.226-13.87-0.86-27.668-6.691-40.612c-7.838-17.4-20.29-24.529-40.428-23.116
			c-16.444,1.153-28.408,10.686-32.413,28.356c-5.447,24.033-5.585,48.411,0.909,72.342c4.898,18.054,16.849,27.309,34.705,28.535
			c16.939,1.163,29.473-6.933,37.02-23.943C1404.487,585.92,1405.333,571.816,1405.503,557.616z"/>
		<path fill-rule="evenodd" clip-rule="evenodd" fill="#FFFFFF" d="M1143.077,451.284c20.283,0,39.002,0,58.276,0
			c0,71.65,0,142.806,0,214.526c-14.786,0-29.191,0-44.337,0c-2.739-8.725-5.566-17.733-8.239-26.246
			c-2.679-0.946-3.884,0.111-4.915,1.471c-19.832,26.156-47.651,32.12-77.813,28.463c-40.422-4.901-61.921-27.811-63.206-69.228
			c-1.515-48.834-0.361-97.754-0.332-146.637c0-0.585,0.442-1.168,0.896-2.293c18.761,0,37.711,0,56.582,0
			c1.94,3.873,1.106,7.557,1.113,11.093c0.072,36.335,0.04,72.67,0.051,109.004c0.001,4.955-0.065,9.917,0.164,14.862
			c0.958,20.674,10.993,34.583,26.494,36.898c23.756,3.547,41.72-5.646,49.016-25.59c4.688-12.813,6.234-26.252,6.241-39.86
			c0.017-31.711,0.008-63.422,0.01-95.132C1143.077,459.055,1143.077,455.494,1143.077,451.284z"/>
		<path fill-rule="evenodd" clip-rule="evenodd" fill="#FFFFFF" d="M1700.271,573.463c-46.75,0-92.588,0-138.395,0
			c-0.792,31.147,19.58,52.636,50.4,53.58c23.072,0.706,45.221-3.947,66.588-12.563c2.671-1.078,5.097-3.098,9.38-2.386
			c0,13.305,0.015,26.728-0.008,40.15c-0.007,4.447-3.915,4.903-6.752,6.094c-27.456,11.523-56.175,13.693-85.456,11.05
			c-8.526-0.769-16.956-2.299-25.184-4.875c-33.984-10.641-55.718-33.301-64.535-67.566c-6.775-26.333-6.175-52.979,1.029-79.289
			c11.836-43.229,44.353-68.879,89.232-70.768c11.615-0.489,23.146,0.177,34.467,2.652c40.477,8.845,66.107,39.17,68.844,80.955
			C1700.788,544.308,1701.666,558.105,1700.271,573.463z M1645.297,533.573c-0.064-28.716-16.684-46.291-42.358-45.459
			c-23.719,0.77-40.897,20.452-39.251,45.459C1590.873,533.573,1618.087,533.573,1645.297,533.573z"/>
		<path fill-rule="evenodd" clip-rule="evenodd" fill="#FFFFFF" d="M897.063,666.748c-20.394,0-39.138,0-58.991,0
			c0-77.038,0-153.829,0-231.953c-26.245,0-51.426,0-77.119,0c0-17.009,0-32.684,0-48.952c70.838,0,141.329,0,212.379,0
			c0,16.089,0,31.756,0,48.359c-25.328,0-50.283,0-76.269,0C897.063,511.908,897.063,588.696,897.063,666.748z"/>
	</g>
</g>
</svg>
