<?xml version="1.0" encoding="utf-8"?>
<!-- Generator: Adobe Illustrator 16.0.0, SVG Export Plug-In . SVG Version: 6.00 Build 0)  -->
<!DOCTYPE svg PUBLIC "-//W3C//DTD SVG 1.1//EN" "http://www.w3.org/Graphics/SVG/1.1/DTD/svg11.dtd">
<svg version="1.1" id="Layer_1" xmlns="http://www.w3.org/2000/svg" xmlns:xlink="http://www.w3.org/1999/xlink" x="0px" y="0px"
	 width="50px" height="50px" viewBox="0 0 50 50" enable-background="new 0 0 50 50" xml:space="preserve">
<g>
	<g>
		<path fill-rule="evenodd" clip-rule="evenodd" fill="#EE2828" d="M0.167,23.425c0-2.072,0-4.144,0-6.216
			c0-0.572,0.152-0.659,0.655-0.378c3.767,2.091,7.532,4.185,11.297,6.278c0.156,0.087,0.372,0.147,0.368,0.365
			c-0.004,0.214-0.219,0.274-0.375,0.361c-3.765,2.092-7.53,4.186-11.296,6.277c-0.496,0.275-0.648,0.182-0.648-0.394
			C0.166,27.62,0.167,25.522,0.167,23.425z"/>
		<path fill-rule="evenodd" clip-rule="evenodd" fill="#EE2828" d="M33.018,17.622c0.768,0,1.501,0,2.276,0
			c0.041,1.486,0.031,2.96-0.069,4.421c0.108,0.058,0.143-0.01,0.182-0.056c1.516-1.818,4.162-1.48,5.087,0.7
			c0.715,1.683,0.716,3.438,0.015,5.127c-0.876,2.118-3.431,2.572-5.045,0.939c-0.24-0.242-0.335-0.157-0.432,0.098
			c-0.088,0.231-0.185,0.458-0.28,0.692c-0.577,0-1.138,0-1.734,0C33.018,25.577,33.018,21.615,33.018,17.622z M38.606,25.236
			c-0.01-0.55-0.034-1.098-0.266-1.612c-0.312-0.691-0.806-0.974-1.606-0.917c-0.651,0.045-1.127,0.424-1.287,1.126
			c-0.215,0.954-0.221,1.921,0.037,2.872c0.195,0.717,0.669,1.084,1.377,1.132c0.674,0.046,1.172-0.275,1.47-0.951
			C38.565,26.36,38.6,25.801,38.606,25.236z"/>
		<path fill-rule="evenodd" clip-rule="evenodd" fill="#EE2828" d="M28.188,21.015c0.804,0,1.548,0,2.313,0c0,2.844,0,5.669,0,8.518
			c-0.588,0-1.16,0-1.761,0c-0.11-0.347-0.222-0.705-0.328-1.042c-0.105-0.038-0.153,0.005-0.195,0.058
			c-0.787,1.039-1.891,1.276-3.088,1.13c-1.605-0.196-2.459-1.104-2.51-2.749c-0.061-1.938-0.014-3.881-0.013-5.822
			c0-0.022,0.018-0.046,0.035-0.09c0.745,0,1.497,0,2.247,0c0.076,0.153,0.044,0.3,0.044,0.441c0.003,1.442,0.002,2.884,0.002,4.327
			c0,0.197-0.002,0.395,0.006,0.589c0.039,0.822,0.437,1.374,1.053,1.465c0.942,0.142,1.656-0.224,1.945-1.016
			c0.187-0.508,0.249-1.042,0.249-1.583c0.001-1.259,0-2.518,0.001-3.777C28.188,21.324,28.188,21.183,28.188,21.015z"/>
		<path fill-rule="evenodd" clip-rule="evenodd" fill="#EE2828" d="M50.31,25.866c-1.857,0-3.677,0-5.496,0
			c-0.031,1.236,0.778,2.089,2.001,2.126c0.916,0.029,1.795-0.157,2.644-0.498c0.106-0.043,0.202-0.123,0.372-0.095
			c0,0.528,0.001,1.062,0,1.594c-0.001,0.177-0.156,0.195-0.268,0.242c-1.091,0.458-2.231,0.544-3.394,0.439
			c-0.339-0.03-0.673-0.091-1-0.194c-1.35-0.422-2.212-1.321-2.562-2.681c-0.27-1.046-0.245-2.104,0.041-3.149
			c0.471-1.716,1.761-2.734,3.542-2.809c0.461-0.02,0.919,0.008,1.369,0.105c1.607,0.351,2.625,1.555,2.734,3.214
			C50.331,24.708,50.364,25.256,50.31,25.866z M48.126,24.282c-0.002-1.14-0.662-1.838-1.682-1.805
			c-0.942,0.03-1.623,0.812-1.558,1.805C45.965,24.282,47.046,24.282,48.126,24.282z"/>
		<path fill-rule="evenodd" clip-rule="evenodd" fill="#EE2828" d="M18.419,29.57c-0.81,0-1.554,0-2.342,0c0-3.059,0-6.108,0-9.21
			c-1.042,0-2.042,0-3.062,0c0-0.675,0-1.296,0-1.943c2.812,0,5.61,0,8.431,0c0,0.639,0,1.261,0,1.92c-1.005,0-1.997,0-3.028,0
			C18.419,23.422,18.419,26.471,18.419,29.57z"/>
	</g>
</g>
</svg>
