<?xml version="1.0" encoding="utf-8"?>
<!-- Generator: Adobe Illustrator 16.0.0, SVG Export Plug-In . SVG Version: 6.00 Build 0)  -->
<!DOCTYPE svg PUBLIC "-//W3C//DTD SVG 1.1//EN" "http://www.w3.org/Graphics/SVG/1.1/DTD/svg11.dtd">
<svg version="1.1" id="Layer_1" xmlns="http://www.w3.org/2000/svg" xmlns:xlink="http://www.w3.org/1999/xlink" x="0px" y="0px"
	 width="1920px" height="1080px" viewBox="0 0 1920 1080" enable-background="new 0 0 1920 1080" xml:space="preserve">
<rect x="-6.601" y="-7.936" fill="#14AF4B" width="1933.647" height="1096"/>
<rect x="211.33" y="567.377" fill-rule="evenodd" clip-rule="evenodd" fill="none" width="1916.375" height="575.904"/>
<text transform="matrix(1 0 0 1 211.3296 805.9434)" fill="#FFFFFF" font-family="'Impact'" font-size="301.6056">Stats</text>
<g>
	<path fill-rule="evenodd" clip-rule="evenodd" fill="#FFFFFF" d="M1646.755,589.006c0-66.25,0-132.484-0.014-198.72
		c0-1.949-0.04-3.958-0.485-5.847c-2.778-11.381-11.611-18.326-23.344-18.361c-18.22-0.025-36.412,0-54.645,0
		c-15.428,0-25.205,9.738-25.205,25.083c0,33.419,0,66.843,0,100.255c0,31.975,0,63.936,0,95.897c0,66.642,0,133.286,0,199.913
		c0,14.518,10.019,24.626,24.49,24.626c18.206,0.052,36.438-0.177,54.645,0.079c14.322,0.231,24.72-11.268,24.679-24.556
		C1646.62,721.268,1646.755,655.135,1646.755,589.006z M1482.754,662.969c0-41.704,0.014-83.396,0-125.088
		c0-14.146-9.858-24.105-23.897-24.105c-18.515-0.049-37.059-0.049-55.575,0c-1.86,0-3.749,0-5.542,0.377
		c-11.139,2.379-18.679,11.691-18.679,23.121c-0.013,42.521,0,85.061,0,127.59c0,40.774,0,81.568-0.013,122.33
		c0,14.713,9.979,24.659,24.76,24.679c18.017,0,36.007,0.032,54.01,0c15.132-0.02,24.936-9.864,24.936-25.05
		C1482.768,745.535,1482.754,704.256,1482.754,662.969z M1069.833,533.498c-4.733,2.4-9.346,4.719-13.945,7.04
		c-15.697,7.854-31.381,15.71-47.065,23.552c-14.779,7.397-29.574,14.76-44.313,22.178c-1.848,0.91-3.25,1.287-5.22-0.297
		c-7.471-6.008-16.223-8.18-25.623-6.741c-16.25,2.481-27.982,16.505-28.022,32.917c-0.028,16.298,11.597,29.987,27.793,32.792
		c20.256,3.478,39.001-12.576,38.691-33.364c-0.015-2.301,0.66-3.492,2.696-4.491c9.116-4.39,18.152-8.927,27.201-13.452
		c25.461-12.758,50.936-25.527,76.464-38.198c0.795-0.425,2.266-0.114,3.169,0.378c2.778,1.504,5.299,3.62,8.213,4.848
		c14.079,5.86,29.061,2.043,38.853-9.75c1.051-1.287,2.022-1.828,3.911-1.334c7.862,2.115,15.792,3.93,23.694,5.905
		c24.693,6.19,49.372,12.429,74.064,18.523c2.387,0.586,3.533,1.437,4.1,4.011c3.883,17.756,19.918,28.586,37.909,25.84
		c19.756-3.007,32.542-23.878,26.175-42.817c-0.58-1.618-0.35-2.435,0.998-3.615c12.542-11.118,24.963-22.353,37.41-33.552
		c12.986-11.699,25.933-23.402,38.933-35.096c12.582-11.369,25.232-22.686,37.774-34.113c1.483-1.355,2.482-1.422,4.262-0.639
		c8.227,3.58,16.682,3.834,25.003,0.408c17.234-7.139,24.867-23.979,19.432-41.967c-0.298-0.984,0-2.697,0.701-3.352
		c9.724-9.418,19.595-18.697,29.412-28.037c13.878-13.161,27.795-26.297,41.686-39.473c14.686-13.963,29.385-27.908,44.017-41.92
		c1.632-1.564,2.873-1.701,5.071-0.945c13.054,4.402,25.002,2.286,34.955-7.416c9.076-8.854,11.976-19.924,8.819-32.137
		c-4.76-18.293-23.56-28.92-41.617-23.419c-18.192,5.571-27.767,24.087-22.049,42.097c0.688,2.207,0.296,3.479-1.335,5.029
		c-19.352,18.229-38.624,36.533-57.895,54.842c-18.907,17.929-37.801,35.892-56.614,53.922c-1.524,1.437-2.629,1.571-4.558,0.885
		c-11.746-4.215-22.993-2.941-32.703,4.963c-10.506,8.488-14.848,19.891-11.558,33.133c1.187,4.62-0.364,6.695-3.263,9.292
		c-23.236,20.694-46.418,41.448-69.56,62.249c-14.078,12.646-28.063,25.416-42.075,38.134c-1.052,0.984-1.929,1.213-3.452,0.477
		c-6.244-3.021-12.879-3.513-19.649-2.306c-8.968,1.652-15.927,6.501-21.227,13.717c-9.332-2.334-18.557-4.588-27.753-6.905
		c-9.17-2.299-18.368-4.64-27.565-6.958c-15.307-3.838-30.6-7.607-45.865-11.559c-1.053-0.262-2.44-1.375-2.603-2.286
		c-1.228-6.474-4.059-12.036-8.428-16.972c-13.89-15.712-40.809-13.553-52.069,4.133
		C1070.925,518.381,1069.213,525.616,1069.833,533.498z M1051.088,711.848c0,25.34-0.015,50.673,0.013,76.065
		c0.041,13.966,10.073,23.939,24.113,23.939c18.395,0.052,36.815,0.052,55.237,0c14.254,0,24.355-10.121,24.355-24.444
		c-0.027-50.106-0.256-100.186,0-150.271c0.081-14.631-10.788-25.428-25.313-25.198c-17.802,0.257-35.616,0.229-53.404,0
		c-15.157-0.181-25.394,11.543-25.137,25.083C1051.425,661.955,1051.088,686.912,1051.088,711.848z M1215.129,736.6
		c0,16.777,0,33.526,0,50.283c0,15.204,9.763,24.97,24.948,24.989c17.895,0,35.805,0.032,53.714,0
		c15.131-0.02,24.962-9.852,24.962-25.036c0-18.01-0.014-36.008-0.014-54.005c0-15.953,0.095-31.88-0.013-47.799
		c-0.094-13.474-9.656-23.419-22.832-23.546c-19.258-0.184-38.488-0.197-57.732-0.021c-13.392,0.102-23.02,10.221-23.033,23.613
		C1215.088,702.26,1215.129,719.439,1215.129,736.6z M887.167,752.934c0,11.691,0,23.383,0,35.095
		c0.027,13.815,9.993,23.81,23.884,23.824c18.516,0.052,37.059,0.052,55.575,0c13.796-0.015,23.991-9.893,24.085-23.763
		c0.149-23.385,0.014-46.77,0.041-70.168c0.014-13.41-10.734-23.943-24.059-23.875c-18.624,0.08-37.248-0.068-55.885,0.047
		c-13.958,0.102-23.627,10.074-23.641,24.072C887.167,729.743,887.167,741.34,887.167,752.934z"/>
	<path fill-rule="evenodd" clip-rule="evenodd" fill="#FFFFFF" d="M1646.755,589.006c0,66.129-0.135,132.262,0.121,198.37
		c0.041,13.288-10.357,24.787-24.679,24.556c-18.206-0.256-36.438-0.027-54.645-0.079c-14.471,0-24.49-10.108-24.49-24.626
		c0-66.627,0-133.271,0-199.913c0-31.962,0-63.923,0-95.897c0-33.412,0-66.836,0-100.255c0-15.345,9.777-25.083,25.205-25.083
		c18.233,0,36.425-0.025,54.645,0c11.732,0.035,20.565,6.98,23.344,18.361c0.445,1.889,0.485,3.897,0.485,5.847
		C1646.755,456.521,1646.755,522.756,1646.755,589.006z"/>
	<path fill-rule="evenodd" clip-rule="evenodd" fill="#FFFFFF" d="M1482.754,662.969c0,41.287,0.014,82.566,0,123.854
		c0,15.186-9.804,25.03-24.936,25.05c-18.002,0.032-35.993,0-54.01,0c-14.781-0.02-24.76-9.966-24.76-24.679
		c0.013-40.762,0.013-81.556,0.013-122.33c0-42.529-0.013-85.068,0-127.59c0-11.43,7.54-20.742,18.679-23.121
		c1.793-0.377,3.682-0.377,5.542-0.377c18.516-0.049,37.06-0.049,55.575,0c14.039,0,23.897,9.959,23.897,24.105
		C1482.768,579.572,1482.754,621.265,1482.754,662.969z"/>
	<path fill-rule="evenodd" clip-rule="evenodd" fill="#FFFFFF" d="M1069.833,533.498c-0.62-7.882,1.092-15.117,5.381-21.848
		c11.26-17.686,38.179-19.845,52.069-4.133c4.369,4.936,7.2,10.498,8.428,16.972c0.163,0.911,1.55,2.024,2.603,2.286
		c15.266,3.951,30.559,7.721,45.865,11.559c9.197,2.318,18.395,4.659,27.565,6.958c9.197,2.317,18.422,4.571,27.753,6.905
		c5.3-7.216,12.258-12.064,21.227-13.717c6.771-1.207,13.405-0.715,19.649,2.306c1.523,0.736,2.4,0.508,3.452-0.477
		c14.012-12.718,27.997-25.487,42.075-38.134c23.142-20.801,46.324-41.555,69.56-62.249c2.899-2.597,4.45-4.672,3.263-9.292
		c-3.29-13.242,1.052-24.645,11.558-33.133c9.71-7.904,20.957-9.178,32.703-4.963c1.929,0.687,3.034,0.552,4.558-0.885
		c18.813-18.03,37.707-35.993,56.614-53.922c19.271-18.309,38.542-36.613,57.895-54.842c1.631-1.55,2.023-2.822,1.335-5.029
		c-5.718-18.01,3.856-36.525,22.049-42.097c18.058-5.501,36.857,5.126,41.617,23.419c3.156,12.213,0.257,23.283-8.819,32.137
		c-9.953,9.702-21.901,11.818-34.955,7.416c-2.198-0.756-3.439-0.619-5.071,0.945c-14.632,14.012-29.332,27.957-44.017,41.92
		c-13.891,13.176-27.808,26.312-41.686,39.473c-9.817,9.34-19.688,18.619-29.412,28.037c-0.701,0.654-0.999,2.367-0.701,3.352
		c5.435,17.988-2.198,34.828-19.432,41.967c-8.322,3.426-16.777,3.172-25.003-0.408c-1.78-0.783-2.778-0.717-4.262,0.639
		c-12.542,11.428-25.192,22.744-37.774,34.113c-13,11.693-25.947,23.396-38.933,35.096c-12.447,11.199-24.868,22.434-37.41,33.552
		c-1.348,1.181-1.578,1.997-0.998,3.615c6.366,18.939-6.419,39.811-26.175,42.817c-17.991,2.746-34.025-8.084-37.909-25.84
		c-0.566-2.574-1.713-3.425-4.1-4.011c-24.692-6.095-49.372-12.333-74.064-18.523c-7.902-1.976-15.832-3.79-23.694-5.905
		c-1.888-0.494-2.86,0.047-3.911,1.334c-9.792,11.793-24.774,15.61-38.853,9.75c-2.914-1.228-5.435-3.344-8.213-4.848
		c-0.904-0.492-2.374-0.803-3.169-0.378c-25.528,12.671-51.003,25.44-76.464,38.198c-9.049,4.525-18.085,9.063-27.201,13.452
		c-2.037,0.999-2.711,2.19-2.696,4.491c0.31,20.788-18.436,36.842-38.691,33.364c-16.196-2.805-27.821-16.494-27.793-32.792
		c0.04-16.412,11.772-30.436,28.022-32.917c9.4-1.438,18.152,0.733,25.623,6.741c1.97,1.584,3.372,1.207,5.22,0.297
		c14.74-7.418,29.534-14.78,44.313-22.178c15.685-7.842,31.368-15.697,47.065-23.552
		C1060.487,538.217,1065.1,535.898,1069.833,533.498z"/>
	<path fill-rule="evenodd" clip-rule="evenodd" fill="#FFFFFF" d="M1051.088,711.848c0-24.936,0.337-49.893-0.135-74.826
		c-0.256-13.54,9.98-25.264,25.137-25.083c17.788,0.229,35.603,0.257,53.404,0c14.524-0.229,25.394,10.567,25.313,25.198
		c-0.256,50.086-0.027,100.165,0,150.271c0,14.323-10.101,24.444-24.355,24.444c-18.422,0.052-36.843,0.052-55.237,0
		c-14.04,0-24.072-9.974-24.113-23.939C1051.073,762.521,1051.088,737.188,1051.088,711.848z"/>
	<path fill-rule="evenodd" clip-rule="evenodd" fill="#FFFFFF" d="M1215.129,736.6c0-17.16-0.042-34.34,0-51.521
		c0.013-13.393,9.641-23.512,23.033-23.613c19.244-0.176,38.475-0.162,57.732,0.021c13.176,0.127,22.737,10.072,22.832,23.546
		c0.108,15.919,0.013,31.846,0.013,47.799c0,17.997,0.014,35.995,0.014,54.005c0,15.185-9.831,25.017-24.962,25.036
		c-17.909,0.032-35.819,0-53.714,0c-15.185-0.02-24.948-9.785-24.948-24.989C1215.129,770.126,1215.129,753.377,1215.129,736.6z"/>
	<path fill-rule="evenodd" clip-rule="evenodd" fill="#FFFFFF" d="M887.167,752.934c0-11.594,0-23.19,0-34.768
		c0.014-13.998,9.684-23.971,23.641-24.072c18.637-0.115,37.261,0.033,55.885-0.047c13.324-0.068,24.072,10.465,24.059,23.875
		c-0.027,23.398,0.108,46.783-0.041,70.168c-0.094,13.87-10.289,23.748-24.085,23.763c-18.516,0.052-37.059,0.052-55.575,0
		c-13.891-0.015-23.856-10.009-23.884-23.824C887.167,776.316,887.167,764.625,887.167,752.934z"/>
</g>
</svg>
