<?xml version="1.0" encoding="utf-8"?>
<!-- Generator: Adobe Illustrator 16.0.0, SVG Export Plug-In . SVG Version: 6.00 Build 0)  -->
<!DOCTYPE svg PUBLIC "-//W3C//DTD SVG 1.1//EN" "http://www.w3.org/Graphics/SVG/1.1/DTD/svg11.dtd">
<svg version="1.1" id="Layer_1" xmlns="http://www.w3.org/2000/svg" xmlns:xlink="http://www.w3.org/1999/xlink" x="0px" y="0px"
	 width="50px" height="50px" viewBox="0 0 50 50" enable-background="new 0 0 50 50" xml:space="preserve">
<g>
	<path fill-rule="evenodd" clip-rule="evenodd" fill="none" d="M49.281,48.912c-16.094,0-32.188,0-48.281,0
		C1,32.818,1,16.726,1,0.631c16.094,0,32.188,0,48.281,0C49.281,16.726,49.281,32.818,49.281,48.912z M47.76,28.339
		c0-3.962,0-7.923-0.001-11.883c0-0.117-0.002-0.237-0.029-0.35c-0.166-0.681-0.694-1.096-1.396-1.098
		c-1.09-0.002-2.178-0.001-3.268,0c-0.923,0-1.508,0.581-1.508,1.5c0,1.998,0,3.997,0,5.995c0,1.912,0,3.823,0,5.734
		c0,3.985,0,7.971,0,11.955c0,0.868,0.6,1.473,1.465,1.473c1.089,0.003,2.179-0.011,3.268,0.005
		c0.856,0.014,1.479-0.674,1.476-1.469C47.752,36.248,47.76,32.293,47.76,28.339z M37.952,32.762c0-2.494,0.001-4.987,0-7.48
		c0-0.846-0.589-1.441-1.429-1.441c-1.107-0.003-2.216-0.003-3.323,0c-0.111,0-0.225,0-0.332,0.022
		c-0.666,0.143-1.116,0.699-1.116,1.383c-0.001,2.543,0,5.087,0,7.63c0,2.438,0,4.878-0.001,7.315c0,0.88,0.597,1.475,1.48,1.476
		c1.077,0,2.153,0.002,3.229,0c0.905-0.001,1.491-0.59,1.491-1.498C37.953,37.699,37.952,35.23,37.952,32.762z M13.26,25.02
		c-0.283,0.144-0.559,0.282-0.834,0.421c-0.938,0.47-1.877,0.939-2.814,1.408c-0.884,0.442-1.769,0.883-2.65,1.326
		c-0.11,0.055-0.194,0.077-0.312-0.018c-0.447-0.359-0.971-0.489-1.532-0.403c-0.972,0.148-1.674,0.987-1.676,1.969
		c-0.002,0.975,0.693,1.793,1.662,1.961c1.211,0.208,2.332-0.752,2.313-1.995c-0.001-0.138,0.039-0.209,0.161-0.269
		c0.545-0.263,1.086-0.534,1.627-0.805c1.522-0.763,3.046-1.526,4.572-2.284c0.048-0.025,0.136-0.007,0.189,0.022
		c0.166,0.09,0.317,0.217,0.491,0.29c0.842,0.351,1.738,0.122,2.323-0.583c0.063-0.077,0.121-0.109,0.234-0.08
		c0.47,0.127,0.944,0.235,1.417,0.354c1.477,0.37,2.952,0.743,4.429,1.107c0.143,0.035,0.211,0.086,0.245,0.24
		c0.232,1.062,1.191,1.709,2.267,1.545c1.182-0.18,1.946-1.428,1.565-2.561c-0.034-0.097-0.021-0.146,0.06-0.216
		c0.75-0.665,1.493-1.337,2.237-2.007c0.776-0.699,1.551-1.399,2.328-2.099c0.753-0.68,1.509-1.356,2.259-2.04
		c0.089-0.081,0.148-0.085,0.255-0.038c0.492,0.214,0.998,0.229,1.495,0.024c1.031-0.427,1.487-1.434,1.162-2.51
		c-0.018-0.059,0-0.161,0.042-0.2c0.582-0.563,1.172-1.119,1.759-1.676c0.83-0.787,1.662-1.573,2.493-2.361
		c0.878-0.834,1.757-1.668,2.632-2.507c0.098-0.094,0.172-0.101,0.304-0.057c0.78,0.264,1.495,0.137,2.09-0.443
		c0.543-0.529,0.717-1.192,0.527-1.923c-0.284-1.093-1.408-1.729-2.488-1.399c-1.088,0.333-1.66,1.44-1.318,2.517
		c0.041,0.132,0.018,0.208-0.08,0.301c-1.157,1.09-2.31,2.185-3.462,3.279c-1.131,1.073-2.261,2.146-3.386,3.225
		c-0.091,0.086-0.157,0.094-0.272,0.054c-0.702-0.253-1.375-0.176-1.956,0.296c-0.628,0.508-0.888,1.19-0.69,1.982
		c0.07,0.276-0.022,0.4-0.195,0.555c-1.39,1.238-2.776,2.479-4.16,3.723c-0.842,0.756-1.678,1.52-2.516,2.28
		c-0.063,0.059-0.115,0.072-0.207,0.028c-0.373-0.181-0.77-0.21-1.175-0.138c-0.536,0.099-0.952,0.389-1.27,0.82
		c-0.558-0.14-1.109-0.274-1.659-0.413c-0.549-0.138-1.099-0.277-1.648-0.416c-0.915-0.229-1.83-0.455-2.743-0.691
		c-0.063-0.016-0.146-0.082-0.155-0.137c-0.073-0.387-0.243-0.72-0.504-1.015c-0.831-0.939-2.44-0.811-3.114,0.247
		C13.325,24.115,13.223,24.548,13.26,25.02z M12.139,35.685c0,1.516-0.001,3.03,0.001,4.549c0.002,0.835,0.603,1.432,1.441,1.432
		c1.101,0.003,2.202,0.003,3.304,0c0.853,0,1.456-0.605,1.456-1.462c-0.001-2.996-0.015-5.991,0-8.986
		c0.005-0.875-0.645-1.521-1.514-1.507c-1.064,0.016-2.13,0.014-3.193,0c-0.906-0.011-1.519,0.69-1.503,1.5
		C12.159,32.701,12.139,34.193,12.139,35.685z M21.948,37.165c0,1.003,0,2.005,0,3.007c0,0.909,0.584,1.493,1.492,1.494
		c1.07,0,2.141,0.002,3.212,0c0.905-0.001,1.493-0.589,1.493-1.497c0-1.077-0.001-2.153-0.001-3.229
		c0-0.954,0.006-1.906-0.001-2.858c-0.006-0.806-0.577-1.4-1.365-1.408c-1.151-0.011-2.302-0.012-3.452-0.001
		c-0.801,0.006-1.377,0.611-1.378,1.412C21.946,35.111,21.948,36.139,21.948,37.165z M2.336,38.142c0,0.699,0,1.398,0,2.099
		c0.002,0.826,0.598,1.424,1.429,1.425c1.107,0.003,2.216,0.003,3.323,0c0.825-0.001,1.435-0.592,1.44-1.421
		c0.009-1.398,0.001-2.797,0.002-4.196c0.001-0.802-0.642-1.432-1.438-1.428c-1.113,0.005-2.228-0.004-3.342,0.003
		c-0.835,0.006-1.413,0.603-1.414,1.439C2.336,36.755,2.336,37.448,2.336,38.142z"/>
	<path fill-rule="evenodd" clip-rule="evenodd" fill="#F6881F" d="M47.76,28.339c0,3.954-0.008,7.909,0.007,11.862
		c0.003,0.795-0.619,1.482-1.476,1.469c-1.089-0.016-2.179-0.002-3.268-0.005c-0.865,0-1.465-0.604-1.465-1.473
		c0-3.984,0-7.97,0-11.955c0-1.911,0-3.822,0-5.734c0-1.998,0-3.997,0-5.995c0-0.919,0.585-1.5,1.508-1.5
		c1.09-0.001,2.178-0.002,3.268,0c0.701,0.001,1.229,0.417,1.396,1.098c0.027,0.112,0.029,0.233,0.029,0.35
		C47.76,20.416,47.76,24.377,47.76,28.339z"/>
	<path fill-rule="evenodd" clip-rule="evenodd" fill="#F6881F" d="M37.952,32.762c0,2.469,0.001,4.938,0,7.406
		c0,0.908-0.586,1.497-1.491,1.498c-1.076,0.002-2.152,0-3.229,0c-0.884-0.001-1.48-0.596-1.48-1.476
		c0.001-2.438,0.001-4.877,0.001-7.315c0-2.543-0.001-5.087,0-7.63c0-0.684,0.45-1.24,1.116-1.383
		c0.107-0.022,0.221-0.022,0.332-0.022c1.107-0.003,2.216-0.003,3.323,0c0.84,0,1.429,0.596,1.429,1.441
		C37.953,27.774,37.952,30.268,37.952,32.762z"/>
	<path fill-rule="evenodd" clip-rule="evenodd" fill="#F6881F" d="M13.26,25.02c-0.037-0.472,0.065-0.904,0.321-1.307
		c0.674-1.058,2.283-1.187,3.114-0.247c0.261,0.295,0.431,0.628,0.504,1.015c0.01,0.055,0.093,0.121,0.155,0.137
		c0.913,0.236,1.828,0.462,2.743,0.691c0.55,0.139,1.1,0.278,1.648,0.416c0.55,0.139,1.102,0.273,1.659,0.413
		c0.317-0.432,0.733-0.722,1.27-0.82c0.405-0.072,0.802-0.043,1.175,0.138c0.092,0.044,0.144,0.03,0.207-0.028
		c0.838-0.761,1.674-1.524,2.516-2.28c1.384-1.244,2.771-2.485,4.16-3.723c0.173-0.155,0.266-0.279,0.195-0.555
		c-0.197-0.792,0.063-1.474,0.69-1.982c0.581-0.472,1.254-0.549,1.956-0.296c0.115,0.041,0.182,0.033,0.272-0.054
		c1.125-1.078,2.255-2.151,3.386-3.225c1.152-1.094,2.305-2.188,3.462-3.279c0.098-0.093,0.121-0.169,0.08-0.301
		c-0.342-1.077,0.23-2.184,1.318-2.517c1.08-0.33,2.204,0.307,2.488,1.399c0.189,0.731,0.016,1.394-0.527,1.923
		c-0.595,0.58-1.31,0.707-2.09,0.443c-0.132-0.044-0.206-0.038-0.304,0.057c-0.875,0.838-1.754,1.672-2.632,2.507
		c-0.831,0.788-1.663,1.574-2.493,2.361c-0.587,0.558-1.177,1.113-1.759,1.676c-0.042,0.039-0.06,0.142-0.042,0.2
		c0.325,1.076-0.131,2.083-1.162,2.51c-0.497,0.205-1.003,0.189-1.495-0.024c-0.106-0.047-0.166-0.043-0.255,0.038
		c-0.75,0.684-1.506,1.36-2.259,2.04c-0.777,0.699-1.552,1.399-2.328,2.099c-0.744,0.67-1.487,1.342-2.237,2.007
		c-0.08,0.07-0.094,0.119-0.06,0.216c0.381,1.133-0.384,2.381-1.565,2.561c-1.075,0.164-2.034-0.483-2.267-1.545
		c-0.034-0.154-0.103-0.205-0.245-0.24c-1.477-0.364-2.952-0.737-4.429-1.107c-0.473-0.118-0.947-0.227-1.417-0.354
		c-0.113-0.029-0.171,0.003-0.234,0.08c-0.585,0.705-1.481,0.934-2.323,0.583c-0.174-0.073-0.325-0.2-0.491-0.29
		c-0.054-0.029-0.142-0.048-0.189-0.022c-1.526,0.758-3.05,1.521-4.572,2.284c-0.541,0.271-1.082,0.542-1.627,0.805
		c-0.122,0.06-0.162,0.131-0.161,0.269c0.019,1.243-1.103,2.203-2.313,1.995c-0.969-0.168-1.664-0.986-1.662-1.961
		c0.002-0.981,0.704-1.82,1.676-1.969c0.562-0.086,1.085,0.044,1.532,0.403c0.117,0.095,0.201,0.072,0.312,0.018
		c0.882-0.443,1.767-0.884,2.65-1.326c0.938-0.469,1.876-0.938,2.814-1.408C12.701,25.302,12.977,25.163,13.26,25.02z"/>
	<path fill-rule="evenodd" clip-rule="evenodd" fill="#F6881F" d="M12.139,35.685c0-1.491,0.021-2.983-0.008-4.475
		c-0.016-0.81,0.597-1.511,1.503-1.5c1.063,0.014,2.129,0.016,3.193,0c0.869-0.014,1.519,0.632,1.514,1.507
		c-0.015,2.995-0.001,5.99,0,8.986c0,0.856-0.604,1.462-1.456,1.462c-1.102,0.003-2.203,0.003-3.304,0
		c-0.839,0-1.439-0.597-1.441-1.432C12.138,38.715,12.139,37.2,12.139,35.685z"/>
	<path fill-rule="evenodd" clip-rule="evenodd" fill="#F6881F" d="M21.948,37.165c0-1.026-0.002-2.054,0-3.081
		c0.001-0.801,0.577-1.406,1.378-1.412c1.15-0.011,2.301-0.01,3.452,0.001c0.788,0.008,1.359,0.603,1.365,1.408
		c0.007,0.952,0.001,1.904,0.001,2.858c0,1.076,0.001,2.152,0.001,3.229c0,0.908-0.588,1.496-1.493,1.497
		c-1.071,0.002-2.142,0-3.212,0c-0.908-0.001-1.492-0.585-1.492-1.494C21.948,39.17,21.948,38.168,21.948,37.165z"/>
	<path fill-rule="evenodd" clip-rule="evenodd" fill="#F6881F" d="M2.336,38.142c0-0.693,0-1.387,0-2.079
		c0.001-0.837,0.579-1.434,1.414-1.439c1.114-0.007,2.229,0.002,3.342-0.003c0.797-0.004,1.439,0.626,1.438,1.428
		c-0.001,1.399,0.007,2.798-0.002,4.196c-0.006,0.829-0.615,1.42-1.44,1.421c-1.107,0.003-2.216,0.003-3.323,0
		c-0.831-0.001-1.427-0.599-1.429-1.425C2.336,39.54,2.336,38.841,2.336,38.142z"/>
</g>
</svg>
