<?xml version="1.0" encoding="utf-8"?>
<!-- Generator: Adobe Illustrator 16.0.0, SVG Export Plug-In . SVG Version: 6.00 Build 0)  -->
<!DOCTYPE svg PUBLIC "-//W3C//DTD SVG 1.1//EN" "http://www.w3.org/Graphics/SVG/1.1/DTD/svg11.dtd">
<svg version="1.1" id="Layer_1" xmlns="http://www.w3.org/2000/svg" xmlns:xlink="http://www.w3.org/1999/xlink" x="0px" y="0px"
	 width="1920px" height="1080px" viewBox="0 0 1920 1080" enable-background="new 0 0 1920 1080" xml:space="preserve">
<rect x="-4.9" y="-14.708" fill-rule="evenodd" clip-rule="evenodd" fill="#5E9FD6" width="1930.825" height="1105.514"/>
<g>
	<path fill-rule="evenodd" clip-rule="evenodd" fill="none" d="M978.646,760.26c-276.563,0-553.127-0.041-829.689,0.186
		c-8.275,0.006-11.213-0.963-11.186-10.486c0.393-141.029,0.385-282.063,0.002-423.093c-0.022-8.941,2.374-10.055,10.445-10.052
		c553.52,0.211,1107.038,0.206,1660.557,0.037c7.66-0.003,10.651,0.504,10.623,9.866c-0.43,141.423-0.396,282.849-0.05,424.271
		c0.021,8.396-2.109,9.477-9.835,9.471C1532.557,760.219,1255.601,760.26,978.646,760.26z M499.683,543.981
		c2.224,0.288,4.957,1.493,5.754-1.849c1.034-4.343,0.502-8.368-2.74-12.03c-12.278-13.856-25.245-26.867-41.41-36.284
		c-5.777-3.366-11.672-6.051-18.286-7.688c-15.129-3.743-28.796,1.915-42.379,6.329c-40.405,13.135-77.927,33.094-115.646,52.143
		c-32.531,16.429-64.422,20.529-98.446,6.957c-2.973-1.186-7.449-5.406-10.18-0.436c-2.193,3.988,0.155,8.111,3.221,11.688
		c11.792,13.755,25.585,25.278,39.135,37.216c22.276,19.627,45.789,20.311,72.025,9.695c29.818-12.062,58.914-25.61,88.089-39.089
		c22.999-10.626,44.685-24.71,70.519-28.556C466.283,539.554,482.952,541.82,499.683,543.981z M208.825,657.472
		c1.226,6.144,4.763,9.774,8.112,13.35c8.594,9.173,18.23,17.224,27.557,25.63c17.297,15.596,35.57,17.15,56.518,8.792
		c26.586-10.611,52.765-22.086,78.097-35.339c24.036-12.573,48.475-21.866,76.367-18.211c5.683,0.746,11.302,3.492,17.256,1.932
		c1.337-4.32-1.732-6.786-3.699-9.482c-27.052-37.073-52.281-44.461-94.541-26.265c-32.716,14.084-64.918,29.37-97.287,44.255
		c-7.716,3.546-15.669,4.101-24.03,4.23C238.058,666.596,224.546,659.18,208.825,657.472z M207.538,442.406
		c10.209,15.743,23.577,26.349,36.324,37.827c17.989,16.201,36.994,17.526,58.509,8.782c25.761-10.469,51.357-21.31,75.81-34.522
		c28.028-15.143,56.935-24.012,89.052-16.852c2.195,0.489,4.72,1.388,6.295-2.01c-1.254-2.114-2.464-4.557-4.035-6.741
		c-26.955-37.468-52.041-45.097-94.43-27.008c-31.65,13.506-62.848,28.124-93.892,42.985c-15.975,7.648-31.694,6.882-48.07,2.717
		C225.309,445.604,217.86,441.657,207.538,442.406z M974.016,531.671c-0.541-2.188-0.976-3.212-1.019-4.249
		c-0.237-5.648,0.02-10.662-8.635-10.296c-9.233,0.392-6.042,6.588-6.077,10.779c-0.237,28.261,0.057,56.528-0.258,84.788
		c-0.073,6.489,1.578,8.863,8.415,8.719c6.252-0.137,9.044-1.239,8.87-8.344c-0.469-19.225-0.166-38.467-0.158-57.702
		c0.007-14.229,11.021-25.59,25.309-26.12c12.843-0.478,19.26,6.427,19.835,23.401c0.677,19.995,0.602,40.03,0.328,60.042
		c-0.091,6.61,1.845,8.754,8.587,8.729c6.61-0.025,8.831-1.837,8.688-8.634c-0.413-19.617-0.064-39.251-0.197-58.878
		c-0.035-4.899,0.594-9.153,4.44-12.774c8.22-7.738,16.844-15.44,28.974-10.723c11.534,4.485,11.542,15.644,11.985,25.96
		c0.101,2.352,0.016,4.711,0.017,7.064c0,16.881,0.211,33.764-0.113,50.638c-0.112,5.746,1.909,8.063,7.402,7.064
		c3.601-0.654,9.74,2.73,9.601-4.731c-0.46-25.09,2.561-50.378-1.563-75.226c-4.188-25.246-27.816-34.04-48.942-19.255
		c-5.026,3.517-9.564,7.731-14.37,11.661C1019.381,509.092,1003.911,508.493,974.016,531.671z M1629.284,531.55
		c-0.456-2.237-0.868-3.312-0.861-4.383c0.042-6.014-0.539-10.487-8.872-10.008c-9.251,0.53-5.751,6.919-5.793,11.004
		c-0.281,28.261,0.064,56.528-0.299,84.786c-0.087,6.857,2.236,8.421,8.683,8.465c6.639,0.044,8.761-1.834,8.609-8.602
		c-0.431-19.225-0.157-38.468-0.148-57.703c0.008-14.076,11.275-25.465,25.564-25.863c12.793-0.358,19.023,6.509,19.602,23.656
		c0.662,19.605,0.578,39.246,0.313,58.867c-0.09,6.684,1.032,9.641,8.832,9.738c8.473,0.107,8.418-4.131,8.36-10.152
		c-0.185-18.842-0.122-37.686-0.046-56.528c0.051-12.286,12.928-25.074,25.568-25.581c12.036-0.48,18.549,6.973,19.669,22.673
		c0.222,3.127,0.1,6.276,0.101,9.417c0.009,17.666,0.242,35.334-0.12,52.991c-0.124,6.102,2.494,7.647,7.674,6.822
		c3.649-0.584,9.565,2.493,9.384-5.003c-0.605-25.084,2.557-50.373-1.663-75.215c-4.189-24.66-27.386-33.597-48.152-19.561
		c-5.346,3.614-10.122,8.075-15.203,12.184C1675.139,509.195,1660.357,508.659,1629.284,531.55z M1563.719,609.761
		c2.703,2.386,2.118,5.377,2.795,7.968c1.552,5.951,6.367,2.803,9.755,3.343c3.687,0.589,4.656-1.889,4.541-5.079
		c-0.865-24.291,2.48-48.765-1.893-72.863c-3.59-19.788-15.731-28.656-35.87-28.091c-11.211,0.314-21.391,4.196-31.261,9.182
		c-4.022,2.033-7.681,3.386-4.178,9.348c2.867,4.878,5.129,5.722,10.016,2.826c4.657-2.761,9.822-5.02,15.055-6.386
		c15.508-4.049,26.224,1.757,29.717,14.88c1.884,7.081,0.654,10.819-7.399,11.657c-13.276,1.378-26.343,4.156-38.203,10.603
		c-14.731,8.011-20.406,24.15-14.256,39.287c5.365,13.205,20.943,19.804,36.519,15.987
		C1548.388,620.135,1555.666,614.046,1563.719,609.761z M1447.916,574.036c4.712,0,9.423,0,14.135,0
		c23.708,0,24.776-1.356,19.852-25.221c-5.098-24.706-25.604-38.425-48.378-32.496c-21.183,5.513-32.374,20.415-35.795,40.763
		c-3.688,21.937-0.383,42.788,19.161,57.034c17.98,13.11,37.259,11.421,56.854,3.081c5.869-2.496,4.163-5.15,2.089-8.938
		c-3.674-6.712-7.368-1.22-10.632,0.071c-24.571,9.718-46.838-1.668-51.216-26.205c-1.065-5.965,0.055-8.629,6.849-8.221
		C1429.833,574.443,1438.885,574.038,1447.916,574.036z M790.84,574.036c6.282,0,12.565,0,18.848,0c18.652,0,18.652,0,16.663-18.946
		c-3.254-30.971-28.486-47.706-55.775-36.993c-27.118,10.645-39.153,49.043-24.901,78.707c11.555,24.048,41.471,34.8,72.056,20.143
		c3.813-1.826,3.992-3.39,2.43-7.167c-3.001-7.258-6.991-3.582-11.142-1.88c-23.597,9.661-44.246,0.662-50.6-21.786
		c-2.318-8.187-2.374-13.568,8.882-12.252C775.048,574.768,782.987,574.036,790.84,574.036z M896.358,574.033
		c9.407,0,18.817,0.047,28.224-0.027c3.379-0.025,6.771,0.766,7.934-4.496c3.769-17.052-7.01-42.342-21.794-49.915
		c-17.182-8.802-37.548-4.677-51.238,10.378c-16.511,18.159-18.79,51.766-4.914,72.493c13.276,19.833,38.064,26.355,63.811,16.282
		c3.271-1.281,10.773-0.055,7.739-8.308c-2.844-7.73-7.084-4.348-11.81-2.389c-24.326,10.086-44.812-0.062-50.785-24.57
		c-1.633-6.704-1.534-10.263,6.972-9.596C879.069,574.559,887.733,574.036,896.358,574.033z M615.153,623.533
		c25.414,0.057,39.512-9.585,42.707-25.514c3.086-15.382-4.616-25.791-25.128-34.194c-6.499-2.661-12.993-5.374-19.297-8.459
		c-6.599-3.231-10.423-8.447-8.687-16.162c1.786-7.929,7.317-11.537,15.169-12.318c8.161-0.813,15.687,1.146,22.244,5.729
		c5.914,4.135,7.398-0.829,9.894-3.956c4.029-5.041-0.98-5.66-3.721-7.103c-10.686-5.627-22.009-8.221-33.995-5.728
		c-15.455,3.211-24.628,12.159-26.155,24.887c-1.577,13.159,4.753,22.302,20.384,29.321c8.181,3.677,16.647,6.809,24.529,11.033
		c6.633,3.556,10.757,9.381,8.611,17.525c-2.152,8.174-7.98,12.148-16.193,13.049c-10.642,1.165-20.504-1.415-28.643-8.032
		c-5.972-4.856-7.706-0.774-10.744,2.92c-5.008,6.086,0.834,7.297,4.095,9.011C599.664,620.516,609.762,623.419,615.153,623.533z
		 M1199.097,623.544c23.928,0.013,38.01-9.685,41.152-25.64c3.02-15.338-4.721-25.725-25.263-34.137
		c-6.499-2.662-12.993-5.375-19.292-8.467c-6.618-3.248-10.353-8.527-8.562-16.214c1.842-7.908,7.41-11.46,15.263-12.21
		c8.169-0.78,15.648,1.243,22.23,5.797c5.968,4.13,7.398-1.026,9.839-4.124c4.062-5.15-1.243-5.657-3.881-7.041
		c-10.682-5.605-22.005-8.195-33.999-5.646c-15.484,3.29-24.572,12.191-26.05,24.971c-1.519,13.132,4.844,22.248,20.497,29.264
		c8.184,3.668,16.656,6.788,24.526,11.034c6.626,3.575,10.694,9.446,8.482,17.578c-2.218,8.156-8.065,12.067-16.283,12.945
		c-10.658,1.139-20.502-1.489-28.624-8.109c-6.125-4.99-7.705-0.442-10.7,3.092c-4.312,5.078-0.204,6.527,3.23,8.4
		C1181.433,620.37,1191.86,623.299,1199.097,623.544z M1264.237,565.46c0.062,0,0.125,0,0.188,0c0,9.399-0.45,18.83,0.088,28.2
		c1.345,23.412,16.41,34.267,39.235,28.272c2.628-0.69,8.896,1.849,7.179-5.776c-1.292-5.745-3.513-5.848-8.846-4.959
		c-13.954,2.329-20.261-3.479-20.609-18.124c-0.315-13.314-0.135-26.642-0.055-39.965c0.044-7.411-2.192-16.423,1.214-21.779
		c3.443-5.416,13.052-1.317,19.906-2.09c0.389-0.043,0.787-0.047,1.174-0.015c4.319,0.362,5.24-2.137,5.208-5.817
		c-0.03-3.521-0.59-5.828-5.002-6.117c-7.287-0.477-17.16,3.566-21.154-1.921c-3.597-4.941-1.309-14.268-1.35-21.66
		c-0.026-4.729-3.114-4.896-6.34-4.549c-3.032,0.326-7.536-2.023-8.112,3.757c-0.466,4.677-1.427,9.368-1.29,14.027
		c0.221,7.543-1.766,11.968-10.489,10.802c-4.018-0.538-6.439,1.436-6.583,6.128c-0.163,5.334,3.021,5.832,6.763,5.297
		c7.492-1.07,9.44,2.242,9.007,9.261C1263.817,547.408,1264.237,556.446,1264.237,565.46z M682.33,565.781
		c0,8.623-0.203,17.252,0.037,25.871c0.707,25.302,16.41,36.752,40.929,30.045c3.103-0.85,7.57,0.076,5.592-5.936
		c-1.418-4.307-2.606-5.721-8.008-4.775c-14.844,2.592-21.162-3.1-21.498-18.288c-0.33-14.888-0.081-29.79-0.082-44.687
		c-0.002-18.442,0.001-18.375,18.055-18.825c4.218-0.104,9.847,2.056,9.682-6.073c-0.168-8.272-6.053-5.539-10.064-5.645
		c-17.506-0.461-17.509-0.338-17.672-18.067c-0.007-0.783-0.098-1.582,0.013-2.351c1.441-9.994-5.609-8.513-11.145-7.682
		c-5.846,0.878-2.887,6.299-3.625,9.648c-1.864,8.47,2.42,20.954-13.937,19.088c-3.305-0.376-3.801,3.14-3.904,6.094
		c-0.119,3.449,1.355,5.537,4.74,4.935c11.592-2.059,11.37,5.076,10.955,13.129C681.994,550.084,682.31,557.941,682.33,565.781z
		 M1348.456,536.125c-0.448-4.958-0.775-6.838-0.757-8.717c0.056-5.87-0.027-10.619-8.552-10.257
		c-9.231,0.392-5.937,6.695-5.974,10.851c-0.251,28.251,0.064,56.51-0.275,84.759c-0.08,6.616,1.701,8.786,8.487,8.655
		c6.323-0.124,9.003-1.393,8.802-8.404c-0.483-16.863-0.221-33.746-0.136-50.619c0.089-18.016,11.581-29.995,29.676-30.667
		c3.831-0.143,6.469-0.042,7.743-4.77c2.47-9.169-0.385-12.807-10.577-11.868C1364.501,516.229,1357.178,525.013,1348.456,536.125z"
		/>
	<path fill-rule="evenodd" clip-rule="evenodd" fill="#FFFFFF" d="M499.683,543.981c-16.73-2.161-33.4-4.428-50.344-1.903
		c-25.834,3.846-47.521,17.93-70.519,28.556c-29.175,13.479-58.271,27.027-88.089,39.089c-26.236,10.615-49.749,9.932-72.025-9.695
		c-13.55-11.938-27.343-23.461-39.135-37.216c-3.066-3.577-5.414-7.7-3.221-11.688c2.731-4.971,7.207-0.75,10.18,0.436
		c34.023,13.572,65.915,9.472,98.446-6.957c37.719-19.049,75.241-39.008,115.646-52.143c13.583-4.415,27.25-10.072,42.379-6.329
		c6.614,1.637,12.509,4.322,18.286,7.688c16.166,9.417,29.132,22.428,41.41,36.284c3.242,3.662,3.774,7.688,2.74,12.03
		C504.64,545.475,501.907,544.27,499.683,543.981z"/>
	<path fill-rule="evenodd" clip-rule="evenodd" fill="#FFFFFF" d="M208.825,657.472c15.72,1.708,29.232,9.124,44.35,8.892
		c8.361-0.13,16.314-0.685,24.03-4.23c32.369-14.885,64.571-30.171,97.287-44.255c42.259-18.196,67.489-10.809,94.541,26.265
		c1.967,2.696,5.036,5.162,3.699,9.482c-5.954,1.561-11.573-1.186-17.256-1.932c-27.892-3.655-52.332,5.638-76.367,18.211
		c-25.332,13.253-51.511,24.728-78.097,35.339c-20.948,8.358-39.22,6.804-56.518-8.792c-9.326-8.406-18.963-16.457-27.557-25.63
		C213.588,667.246,210.051,663.615,208.825,657.472z"/>
	<path fill-rule="evenodd" clip-rule="evenodd" fill="#FFFFFF" d="M207.538,442.406c10.322-0.75,17.77,3.197,25.563,5.179
		c16.376,4.165,32.095,4.931,48.07-2.717c31.044-14.861,62.242-29.479,93.892-42.985c42.39-18.089,67.475-10.46,94.43,27.008
		c1.571,2.184,2.781,4.627,4.035,6.741c-1.575,3.398-4.1,2.499-6.295,2.01c-32.117-7.16-61.024,1.709-89.052,16.852
		c-24.453,13.212-50.049,24.053-75.81,34.522c-21.515,8.745-40.52,7.419-58.509-8.782
		C231.115,468.755,217.748,458.149,207.538,442.406z"/>
	<path fill-rule="evenodd" clip-rule="evenodd" fill="#FFFFFF" d="M974.016,531.671c29.895-23.178,45.365-22.579,61.123,1.914
		c4.806-3.929,9.344-8.144,14.37-11.661c21.126-14.784,44.753-5.991,48.942,19.255c4.124,24.848,1.103,50.136,1.563,75.226
		c0.138,7.462-6,4.077-9.601,4.731c-5.494,0.998-7.514-1.318-7.402-7.064c0.324-16.874,0.113-33.757,0.113-50.638
		c-0.001-2.354,0.084-4.713-0.017-7.064c-0.443-10.316-0.451-21.475-11.985-25.96c-12.131-4.718-20.754,2.984-28.974,10.723
		c-3.845,3.621-4.474,7.875-4.44,12.774c0.133,19.627-0.216,39.261,0.197,58.878c0.143,6.797-2.078,8.608-8.688,8.634
		c-6.742,0.024-8.678-2.119-8.587-8.729c0.274-20.012,0.349-40.047-0.328-60.042c-0.575-16.975-6.992-23.879-19.835-23.401
		c-14.288,0.53-25.302,11.891-25.309,26.12c-0.008,19.235-0.312,38.478,0.158,57.702c0.174,7.104-2.618,8.207-8.87,8.344
		c-6.836,0.145-8.487-2.229-8.415-8.719c0.314-28.26,0.021-56.527,0.258-84.788c0.034-4.191-3.156-10.388,6.077-10.779
		c8.655-0.366,8.398,4.647,8.635,10.296C973.041,528.459,973.476,529.482,974.016,531.671z"/>
	<path fill-rule="evenodd" clip-rule="evenodd" fill="#FFFFFF" d="M1629.284,531.55c31.074-22.891,45.855-22.354,61.202,2.005
		c5.082-4.109,9.857-8.57,15.203-12.184c20.766-14.036,43.963-5.099,48.152,19.561c4.22,24.842,1.058,50.131,1.663,75.215
		c0.181,7.496-5.735,4.419-9.384,5.003c-5.18,0.825-7.798-0.721-7.674-6.822c0.362-17.657,0.128-35.325,0.12-52.991
		c-0.001-3.141,0.121-6.29-0.101-9.417c-1.12-15.7-7.633-23.153-19.669-22.673c-12.64,0.507-25.517,13.295-25.568,25.581
		c-0.076,18.843-0.139,37.687,0.046,56.528c0.058,6.021,0.113,10.26-8.36,10.152c-7.8-0.098-8.922-3.055-8.832-9.738
		c0.266-19.621,0.349-39.262-0.313-58.867c-0.579-17.147-6.809-24.014-19.602-23.656c-14.289,0.398-25.556,11.787-25.564,25.863
		c-0.009,19.235-0.283,38.479,0.148,57.703c0.152,6.768-1.971,8.646-8.609,8.602c-6.447-0.044-8.77-1.607-8.683-8.465
		c0.364-28.258,0.018-56.525,0.299-84.786c0.042-4.085-3.458-10.474,5.793-11.004c8.333-0.479,8.914,3.994,8.872,10.008
		C1628.415,528.238,1628.828,529.313,1629.284,531.55z"/>
	<path fill-rule="evenodd" clip-rule="evenodd" fill="#FFFFFF" d="M1563.719,609.761c-8.053,4.285-15.331,10.374-24.663,12.661
		c-15.576,3.816-31.154-2.782-36.519-15.987c-6.15-15.137-0.475-31.276,14.256-39.287c11.861-6.446,24.927-9.225,38.203-10.603
		c8.053-0.838,9.283-4.576,7.399-11.657c-3.493-13.123-14.208-18.929-29.717-14.88c-5.234,1.366-10.398,3.625-15.055,6.386
		c-4.886,2.896-7.149,2.053-10.016-2.826c-3.503-5.962,0.156-7.315,4.178-9.348c9.87-4.985,20.05-8.868,31.261-9.182
		c20.138-0.565,32.279,8.303,35.87,28.091c4.374,24.099,1.029,48.572,1.893,72.863c0.115,3.19-0.854,5.668-4.541,5.079
		c-3.388-0.54-8.204,2.608-9.755-3.343C1565.838,615.138,1566.422,612.146,1563.719,609.761z M1563.762,582.813
		c0-3.509-0.026-7.018,0.008-10.528c0.029-3.034-0.548-5.859-4.415-5.054c-12.496,2.603-25.59,3.807-35.892,12.484
		c-7.134,6.01-8.306,14.175-5.235,22.391c2.779,7.433,9.434,9.644,17.084,9.617C1552.357,611.66,1563.778,600.171,1563.762,582.813z
		"/>
	<path fill-rule="evenodd" clip-rule="evenodd" fill="#FFFFFF" d="M1447.916,574.036c-9.031,0.002-18.083,0.407-27.082-0.131
		c-6.794-0.408-7.914,2.256-6.849,8.221c4.378,24.537,26.645,35.923,51.216,26.205c3.265-1.291,6.958-6.783,10.632-0.071
		c2.073,3.788,3.779,6.442-2.089,8.938c-19.595,8.34-38.874,10.029-56.854-3.081c-19.543-14.246-22.849-35.098-19.161-57.034
		c3.421-20.349,14.613-35.25,35.795-40.763c22.774-5.929,43.28,7.79,48.378,32.496c4.924,23.864,3.856,25.221-19.852,25.221
		C1457.339,574.036,1452.628,574.036,1447.916,574.036z M1440.518,562.168c6.667,0,13.352-0.31,19.993,0.092
		c6.013,0.367,8.253-1.305,7.708-7.845c-1.188-14.267-8.719-25.187-19.951-27.329c-12.87-2.455-24.516,4.349-30.925,18.068
		c-7.033,15.054-5.854,17.014,10.234,17.018C1431.892,562.174,1436.206,562.172,1440.518,562.168z"/>
	<path fill-rule="evenodd" clip-rule="evenodd" fill="#FFFFFF" d="M790.84,574.036c-7.854,0-15.793,0.731-23.539-0.175
		c-11.256-1.316-11.2,4.065-8.882,12.252c6.354,22.448,27.003,31.447,50.6,21.786c4.151-1.702,8.141-5.378,11.142,1.88
		c1.562,3.777,1.383,5.341-2.43,7.167c-30.585,14.657-60.501,3.905-72.056-20.143c-14.252-29.664-2.217-68.063,24.901-78.707
		c27.289-10.713,52.522,6.022,55.775,36.993c1.989,18.946,1.989,18.946-16.663,18.946
		C803.405,574.036,797.123,574.036,790.84,574.036z M756.78,562.172c14.869,0,29.627,0.002,44.385,0
		c1.955,0,3.913,0.047,5.864-0.036c2.349-0.104,4.223-0.263,4.997-3.464c3.129-12.958-9.574-30.726-23.037-31.777
		C771.63,525.538,759.777,538.177,756.78,562.172z"/>
	<path fill-rule="evenodd" clip-rule="evenodd" fill="#FFFFFF" d="M896.358,574.033c-8.626,0.003-17.29,0.525-25.862-0.146
		c-8.506-0.667-8.605,2.892-6.972,9.596c5.973,24.509,26.459,34.656,50.785,24.57c4.727-1.959,8.967-5.342,11.81,2.389
		c3.034,8.253-4.468,7.026-7.739,8.308c-25.746,10.073-50.534,3.551-63.811-16.282c-13.876-20.728-11.598-54.334,4.914-72.493
		c13.69-15.056,34.056-19.181,51.238-10.378c14.784,7.573,25.563,32.863,21.794,49.915c-1.163,5.262-4.554,4.471-7.934,4.496
		C915.175,574.08,905.766,574.033,896.358,574.033z M889.896,562.159c7.427,0,14.855,0.015,22.282-0.006
		c2.79-0.009,5.123-0.013,5.615-4.038c1.105-9.014-5.581-24.31-13.651-28.378c-10.424-5.256-20.387-3.98-29.308,3.761
		c-5.174,4.491-7.938,10.458-10.487,16.677c-3.901,9.518-1.631,13.544,9.147,12.119
		C878.873,561.586,884.423,562.172,889.896,562.159z"/>
	<path fill-rule="evenodd" clip-rule="evenodd" fill="#FFFFFF" d="M615.153,623.533c-5.391-0.114-15.489-3.018-24.932-7.99
		c-3.261-1.714-9.103-2.925-4.095-9.011c3.038-3.694,4.772-7.776,10.744-2.92c8.139,6.617,18.001,9.197,28.643,8.032
		c8.213-0.9,14.04-4.875,16.193-13.049c2.146-8.145-1.978-13.97-8.611-17.525c-7.881-4.225-16.347-7.356-24.529-11.033
		c-15.631-7.02-21.961-16.162-20.384-29.321c1.526-12.728,10.7-21.675,26.155-24.887c11.987-2.493,23.309,0.101,33.995,5.728
		c2.741,1.442,7.75,2.062,3.721,7.103c-2.496,3.127-3.98,8.091-9.894,3.956c-6.557-4.583-14.083-6.542-22.244-5.729
		c-7.852,0.782-13.383,4.389-15.169,12.318c-1.736,7.714,2.088,12.93,8.687,16.162c6.304,3.085,12.798,5.798,19.297,8.459
		c20.512,8.403,28.213,18.813,25.128,34.194C654.666,613.948,640.568,623.59,615.153,623.533z"/>
	<path fill-rule="evenodd" clip-rule="evenodd" fill="#FFFFFF" d="M1199.097,623.544c-7.237-0.245-17.664-3.174-27.436-8.505
		c-3.435-1.873-7.542-3.322-3.23-8.4c2.995-3.534,4.576-8.082,10.7-3.092c8.122,6.62,17.966,9.248,28.624,8.109
		c8.218-0.878,14.065-4.789,16.283-12.945c2.212-8.132-1.856-14.003-8.482-17.578c-7.87-4.246-16.342-7.366-24.526-11.034
		c-15.652-7.016-22.015-16.132-20.497-29.264c1.478-12.78,10.566-21.682,26.05-24.971c11.994-2.549,23.317,0.041,33.999,5.646
		c2.638,1.384,7.943,1.891,3.881,7.041c-2.441,3.098-3.87,8.253-9.839,4.124c-6.582-4.554-14.061-6.578-22.23-5.797
		c-7.854,0.75-13.421,4.302-15.263,12.21c-1.791,7.687,1.944,12.966,8.562,16.214c6.3,3.092,12.794,5.805,19.292,8.467
		c20.542,8.412,28.283,18.799,25.263,34.137C1237.107,613.859,1223.025,623.557,1199.097,623.544z"/>
	<path fill-rule="evenodd" clip-rule="evenodd" fill="#FFFFFF" d="M1264.237,565.46c0-9.014-0.419-18.052,0.134-27.027
		c0.433-7.019-1.515-10.331-9.007-9.261c-3.742,0.535-6.926,0.037-6.763-5.297c0.144-4.692,2.565-6.666,6.583-6.128
		c8.724,1.166,10.71-3.259,10.489-10.802c-0.138-4.659,0.824-9.35,1.29-14.027c0.576-5.78,5.08-3.431,8.112-3.757
		c3.226-0.347,6.313-0.181,6.34,4.549c0.041,7.392-2.247,16.719,1.35,21.66c3.994,5.487,13.867,1.444,21.154,1.921
		c4.412,0.289,4.972,2.595,5.002,6.117c0.031,3.68-0.889,6.18-5.208,5.817c-0.388-0.032-0.786-0.028-1.174,0.015
		c-6.853,0.773-16.463-3.325-19.906,2.09c-3.406,5.356-1.17,14.368-1.214,21.779c-0.08,13.323-0.26,26.65,0.055,39.965
		c0.348,14.646,6.655,20.453,20.609,18.124c5.332-0.889,7.553-0.786,8.846,4.959c1.717,7.625-4.551,5.086-7.179,5.776
		c-22.825,5.994-37.89-4.86-39.235-28.272c-0.539-9.37-0.088-18.801-0.088-28.2C1264.361,565.46,1264.299,565.46,1264.237,565.46z"
		/>
	<path fill-rule="evenodd" clip-rule="evenodd" fill="#FFFFFF" d="M682.319,565.781c-0.009-7.84-0.325-15.697,0.078-23.518
		c0.414-8.053,0.637-15.188-10.955-13.129c-3.385,0.603-4.859-1.485-4.74-4.935c0.103-2.954,0.598-6.47,3.904-6.094
		c16.357,1.865,12.073-10.619,13.937-19.088c0.738-3.349-2.221-8.77,3.625-9.648c5.536-0.831,12.586-2.313,11.145,7.682
		c-0.111,0.769-0.02,1.567-0.013,2.351c0.164,17.729,0.167,17.605,17.672,18.067c4.011,0.106,9.896-2.627,10.064,5.645
		c0.166,8.129-5.464,5.969-9.682,6.073c-18.054,0.45-18.057,0.382-18.055,18.825c0.001,14.896-0.248,29.799,0.082,44.687
		c0.336,15.188,6.654,20.88,21.498,18.288c5.402-0.945,6.59,0.469,8.008,4.775c1.978,6.012-2.489,5.086-5.592,5.936
		c-24.52,6.707-40.222-4.743-40.929-30.045C682.127,583.033,682.33,574.404,682.319,565.781z"/>
	<path fill-rule="evenodd" clip-rule="evenodd" fill="#FFFFFF" d="M1348.456,536.125c8.722-11.112,16.045-19.896,28.437-21.037
		c10.193-0.939,13.047,2.699,10.577,11.868c-1.274,4.729-3.912,4.627-7.743,4.77c-18.095,0.671-29.587,12.651-29.676,30.667
		c-0.084,16.873-0.347,33.756,0.136,50.619c0.202,7.012-2.479,8.28-8.802,8.404c-6.787,0.131-8.567-2.039-8.487-8.655
		c0.339-28.249,0.024-56.508,0.275-84.759c0.037-4.155-3.257-10.458,5.974-10.851c8.525-0.362,8.609,4.387,8.552,10.257
		C1347.68,529.287,1348.007,531.167,1348.456,536.125z"/>
	<path fill-rule="evenodd" clip-rule="evenodd" fill="none" d="M1563.772,582.813c0.006,17.357-11.415,28.847-28.459,28.91
		c-7.65,0.026-14.305-2.185-17.084-9.617c-3.072-8.216-1.899-16.381,5.235-22.391c10.302-8.678,23.396-9.882,35.892-12.484
		c3.867-0.806,4.444,2.02,4.415,5.054C1563.737,575.796,1563.762,579.305,1563.772,582.813z"/>
	<path fill-rule="evenodd" clip-rule="evenodd" fill="none" d="M1440.518,562.172c-4.313,0-8.626,0.002-12.94,0
		c-16.088-0.004-17.267-1.964-10.234-17.018c6.409-13.719,18.055-20.522,30.925-18.068c11.231,2.142,18.763,13.062,19.951,27.329
		c0.545,6.54-1.695,8.212-7.708,7.845C1453.87,561.858,1447.185,562.168,1440.518,562.172z"/>
	<path fill-rule="evenodd" clip-rule="evenodd" fill="none" d="M756.78,562.172c2.998-23.995,14.851-36.634,32.21-35.277
		c13.462,1.052,26.166,18.819,23.037,31.777c-0.774,3.201-2.648,3.359-4.997,3.464c-1.951,0.083-3.91,0.036-5.864,0.036
		C786.406,562.174,771.648,562.172,756.78,562.172z"/>
	<path fill-rule="evenodd" clip-rule="evenodd" fill="none" d="M889.896,562.166c-5.473,0.006-11.023-0.58-16.401,0.129
		c-10.778,1.425-13.048-2.602-9.147-12.119c2.549-6.219,5.313-12.187,10.487-16.677c8.92-7.742,18.884-9.017,29.308-3.761
		c8.07,4.068,14.757,19.364,13.651,28.378c-0.493,4.025-2.825,4.029-5.615,4.038C904.751,562.174,897.323,562.159,889.896,562.166z"
		/>
</g>
</svg>
