<?xml version="1.0" encoding="utf-8"?>
<!-- Generator: Adobe Illustrator 16.0.0, SVG Export Plug-In . SVG Version: 6.00 Build 0)  -->
<!DOCTYPE svg PUBLIC "-//W3C//DTD SVG 1.1//EN" "http://www.w3.org/Graphics/SVG/1.1/DTD/svg11.dtd">
<svg version="1.1" id="Layer_1" xmlns="http://www.w3.org/2000/svg" xmlns:xlink="http://www.w3.org/1999/xlink" x="0px" y="0px"
	 width="50px" height="50px" viewBox="0 0 50 50" enable-background="new 0 0 50 50" xml:space="preserve">
<g>
	<path fill-rule="evenodd" clip-rule="evenodd" fill="#58A1D8" d="M48.21,24.004c-2.464-0.318-4.919-0.652-7.415-0.28
		c-3.804,0.566-6.998,2.64-10.385,4.205c-4.296,1.984-8.581,3.98-12.973,5.757c-3.863,1.563-7.325,1.462-10.607-1.429
		c-1.995-1.757-4.026-3.455-5.763-5.479c-0.452-0.528-0.797-1.135-0.475-1.721c0.403-0.732,1.062-0.112,1.5,0.063
		c5.01,1.998,9.707,1.394,14.497-1.025c5.556-2.806,11.082-5.744,17.031-7.68c2.001-0.648,4.014-1.481,6.242-0.931
		c0.974,0.24,1.843,0.637,2.693,1.131c2.381,1.387,4.29,3.303,6.099,5.344c0.477,0.54,0.555,1.133,0.403,1.772
		C48.94,24.225,48.539,24.046,48.21,24.004z"/>
	<path fill-rule="evenodd" clip-rule="evenodd" fill="#1D579E" d="M5.375,40.718c2.315,0.252,4.306,1.343,6.531,1.31
		c1.232-0.018,2.403-0.102,3.54-0.623c4.767-2.192,9.51-4.443,14.328-6.518c6.223-2.68,9.939-1.593,13.923,3.868
		c0.29,0.396,0.742,0.76,0.545,1.396c-0.877,0.23-1.705-0.174-2.542-0.283c-4.108-0.54-7.708,0.829-11.247,2.682
		c-3.73,1.952-7.586,3.642-11.502,5.204c-3.085,1.23-5.776,1.001-8.323-1.295c-1.373-1.238-2.792-2.424-4.058-3.774
		C6.077,42.157,5.557,41.622,5.375,40.718z"/>
	<path fill-rule="evenodd" clip-rule="evenodd" fill="#1D579E" d="M5.186,9.044c1.52-0.109,2.616,0.472,3.765,0.764
		c2.413,0.614,4.727,0.726,7.08-0.401c4.571-2.188,9.166-4.341,13.827-6.329c6.243-2.663,9.937-1.541,13.906,3.978
		c0.232,0.321,0.41,0.681,0.595,0.992c-0.232,0.501-0.604,0.368-0.927,0.296c-4.73-1.054-8.987,0.252-13.115,2.481
		c-3.602,1.945-7.371,3.543-11.165,5.084c-3.168,1.289-5.967,1.094-8.616-1.293C8.658,12.925,6.689,11.363,5.186,9.044z"/>
</g>
</svg>
