<?xml version="1.0" encoding="utf-8"?>
<!-- Generator: Adobe Illustrator 16.0.0, SVG Export Plug-In . SVG Version: 6.00 Build 0)  -->
<!DOCTYPE svg PUBLIC "-//W3C//DTD SVG 1.1//EN" "http://www.w3.org/Graphics/SVG/1.1/DTD/svg11.dtd">
<svg version="1.1" id="Layer_1" xmlns="http://www.w3.org/2000/svg" xmlns:xlink="http://www.w3.org/1999/xlink" x="0px" y="0px"
	 width="1920px" height="1080px" viewBox="0 0 1920 1080" enable-background="new 0 0 1920 1080" xml:space="preserve">
<rect x="-4.037" y="-10.994" fill="#4361AD" width="1936.646" height="1110"/>
<g>
	<path fill-rule="evenodd" clip-rule="evenodd" fill="#FFFFFF" d="M462.479,515.965c0-4.541,0.002-7.865,0-11.188
		c-0.018-39.782-0.24-79.567,0-119.349c0.283-47.479,36.621-84.78,85.311-88.042c43.381-2.906,84.846,30.791,90.574,75.453
		c2.428,18.927,1.238,38.337,1.426,57.529c0.246,25.011,0.258,50.023,0.291,75.035c0.004,2.433,0.037,5.159-1.002,7.215
		c-0.92,1.822-3.316,4.121-5.055,4.116c-12.801-0.034-25.598-0.878-38.396-0.915c-14.635-0.042-29.27,0.697-43.904,0.715
		c-17.564,0.021-35.129-0.414-52.695-0.553C487.166,515.889,475.303,515.965,462.479,515.965z"/>
	<path fill-rule="evenodd" clip-rule="evenodd" fill="#FFFFFF" d="M550.375,598.452c-35.533,0-71.066,0.1-106.598-0.053
		c-12.729-0.056-22.436-11.059-19.709-22.333c2.32-9.595,9.637-17.723,23.527-16.287c7.584,0.784,15.33-0.033,23.002-0.064
		c11.758-0.044,23.518-0.033,35.273-0.047c17.088-0.018,34.176-0.116,51.262-0.023c11.225,0.061,22.447,0.529,33.672,0.585
		c17.547,0.084,35.098-0.107,52.643-0.019c7.209,0.038,14.506-0.113,21.596,0.934c8.598,1.269,14.977,12.135,13.234,21.035
		c-2.012,10.287-9.625,16.243-21.305,16.268c-35.533,0.07-71.064,0.025-106.598,0.025
		C550.375,598.465,550.375,598.459,550.375,598.452z"/>
	<path fill-rule="evenodd" clip-rule="evenodd" fill="#FFFFFF" d="M604.078,612.223c8.18,0,16.377-0.252,24.557,0.322
		c1.012,0.072,2.744,4.57,2.75,7.031c0.188,68.242,0.293,136.486,0.158,204.73c-0.029,14.986-6.314,25.387-14.195,25.393
		c-7.527,0.006-13.861-10.461-13.889-24.6c-0.139-69.016-0.051-138.029-0.018-207.043
		C603.443,616.582,603.754,615.107,604.078,612.223z"/>
	<path fill-rule="evenodd" clip-rule="evenodd" fill="#FFFFFF" d="M498.355,612.125c0.25,4.174,0.502,6.434,0.502,8.693
		c0.016,67.459,0.076,134.916-0.047,202.373c-0.035,19.412-9.717,31.48-19.338,24.488c-6.299-4.572-8.807-13.648-8.807-24.896
		c-0.006-64.389,0.039-128.779,0.063-193.172c0.002-3.826-0.404-7.809,0.094-11.428c0.313-2.293,1.912-5.725,2.994-5.791
		C481.797,611.9,489.791,612.125,498.355,612.125z"/>
	<rect x="462.234" y="477.006" fill-rule="evenodd" clip-rule="evenodd" fill="#FFFFFF" width="177.375" height="64"/>
</g>
<g>
	<path fill="#FFFFFF" stroke="#FFFFFF" stroke-width="10" d="M779.654,597.518v-39.227c0-13.569,4.777-25.134,14.338-34.695
		c9.558-9.558,21.121-14.338,34.694-14.338c13.767,0,25.382,4.732,34.843,14.19c9.458,9.461,14.189,21.075,14.189,34.843v39.227
		c0,13.57-4.78,25.135-14.338,34.693c-9.561,9.561-21.125,14.338-34.694,14.338c-13.573,0-25.137-4.777-34.694-14.338
		C784.432,622.652,779.654,611.088,779.654,597.518z M858.105,597.518v-39.227c0-8.121-2.874-15.057-8.617-20.803
		c-5.746-5.742-12.682-8.617-20.802-8.617c-8.124,0-15.058,2.875-20.802,8.617c-5.746,5.746-8.618,12.682-8.618,20.803v39.227
		c0,8.223,2.847,15.18,8.544,20.875c5.695,5.697,12.652,8.543,20.876,8.543c8.12,0,15.056-2.871,20.802-8.617
		C855.231,612.575,858.105,605.64,858.105,597.518z"/>
	<path fill="#FFFFFF" stroke="#FFFFFF" stroke-width="10" d="M916.943,636.742V519.064c0-6.537,3.269-9.807,9.807-9.807h49.032
		c10.995,0,20.282,3.79,27.859,11.367c7.578,7.578,11.366,16.863,11.366,27.859v88.258c0,6.539-3.269,9.807-9.807,9.807
		c-6.537,0-9.806-3.268-9.806-9.807v-88.258c0-5.547-1.883-10.201-5.646-13.967c-3.765-3.764-8.421-5.646-13.967-5.646h-39.227
		v107.871c0,6.539-3.269,9.807-9.806,9.807C920.212,646.549,916.943,643.281,916.943,636.742z"/>
	<path fill="#FFFFFF" stroke="#FFFFFF" stroke-width="10" d="M1054.232,636.742c0-1.385,0.297-2.724,0.892-4.012l78.452-176.517
		c1.684-3.863,4.605-5.794,8.767-5.794c2.674,0,5.001,0.942,6.983,2.822c1.98,1.883,2.971,4.16,2.971,6.835
		c0,1.39-0.297,2.774-0.891,4.161l-78.453,176.517c-1.686,3.863-4.605,5.794-8.766,5.794c-2.674,0-5.003-0.966-6.982-2.896
		C1055.221,641.72,1054.232,639.418,1054.232,636.742z"/>
	<path fill="#FFFFFF" stroke="#FFFFFF" stroke-width="10" d="M1191.521,597.518v-39.227c0-13.569,4.778-25.134,14.339-34.695
		c9.558-9.558,21.122-14.338,34.694-14.338c13.767,0,25.382,4.732,34.842,14.19c9.459,9.461,14.189,21.075,14.189,34.843v39.227
		c0,13.57-4.779,25.135-14.338,34.693c-9.56,9.561-21.124,14.338-34.693,14.338c-13.572,0-25.137-4.777-34.694-14.338
		C1196.3,622.652,1191.521,611.088,1191.521,597.518z M1269.975,597.518v-39.227c0-8.121-2.875-15.057-8.619-20.803
		c-5.746-5.742-12.68-8.617-20.801-8.617c-8.123,0-15.059,2.875-20.802,8.617c-5.746,5.746-8.618,12.682-8.618,20.803v39.227
		c0,8.223,2.847,15.18,8.543,20.875c5.695,5.697,12.654,8.543,20.877,8.543c8.121,0,15.055-2.871,20.801-8.617
		C1267.1,612.575,1269.975,605.64,1269.975,597.518z"/>
	<path fill="#FFFFFF" stroke="#FFFFFF" stroke-width="10" d="M1338.618,509.258h9.806v-19.613c0-10.994,3.813-20.281,11.441-27.858
		c7.627-7.578,16.887-11.366,27.785-11.366h9.807c6.537,0,9.807,3.268,9.807,9.807c0,6.537-3.27,9.807-9.807,9.807h-9.807
		c-5.449,0-10.08,1.906-13.893,5.719c-3.814,3.815-5.721,8.447-5.721,13.893v19.613h29.42c6.537,0,9.807,3.27,9.807,9.807
		s-3.27,9.807-9.807,9.807h-29.42v107.871c0,6.539-3.269,9.807-9.807,9.807c-6.537,0-9.807-3.268-9.807-9.807V528.871h-9.806
		c-6.538,0-9.807-3.27-9.807-9.807S1332.08,509.258,1338.618,509.258z"/>
	<path fill="#FFFFFF" stroke="#FFFFFF" stroke-width="10" d="M1456.293,509.258h9.807v-19.613c0-10.994,3.813-20.281,11.441-27.858
		c7.627-7.578,16.887-11.366,27.785-11.366h9.807c6.537,0,9.807,3.268,9.807,9.807c0,6.537-3.27,9.807-9.807,9.807h-9.807
		c-5.449,0-10.081,1.906-13.893,5.719c-3.814,3.815-5.721,8.447-5.721,13.893v19.613h29.42c6.537,0,9.807,3.27,9.807,9.807
		s-3.27,9.807-9.807,9.807h-29.42v107.871c0,6.539-3.27,9.807-9.807,9.807s-9.807-3.268-9.807-9.807V528.871h-9.807
		c-6.537,0-9.807-3.27-9.807-9.807S1449.756,509.258,1456.293,509.258z"/>
</g>
</svg>
