<?xml version="1.0" encoding="utf-8"?>
<!-- Generator: Adobe Illustrator 16.0.0, SVG Export Plug-In . SVG Version: 6.00 Build 0)  -->
<!DOCTYPE svg PUBLIC "-//W3C//DTD SVG 1.1//EN" "http://www.w3.org/Graphics/SVG/1.1/DTD/svg11.dtd">
<svg version="1.1" id="Layer_1" xmlns="http://www.w3.org/2000/svg" xmlns:xlink="http://www.w3.org/1999/xlink" x="0px" y="0px"
	 width="1920px" height="1080px" viewBox="0 0 1920 1080" enable-background="new 0 0 1920 1080" xml:space="preserve">
<rect x="-4" y="0.346" fill="#58A1D8" width="1928.49" height="1082.654"/>
<g>
	<g>
		<path fill="#FFFFFF" d="M545.391,804.229c-7.106-2.584-13.566-7.106-18.735-12.921c-5.168-5.814-7.753-13.566-7.753-23.258
			c0-5.813,1.293-10.982,3.877-16.15c2.584-4.522,6.46-9.045,10.982-12.275c4.522-3.229,9.69-5.814,15.505-7.752
			s12.274-2.584,19.382-2.584c7.752,0,14.212,0.646,20.672,1.938c5.814,1.292,11.629,3.229,16.798,5.168
			c4.522,1.938,6.46,5.168,6.46,9.044c0,2.585-1.292,4.523-3.23,6.461c-1.938,1.292-4.521,2.584-7.105,2.584
			c-1.293,0-2.584,0-3.877-0.646c-9.69-3.876-20.027-6.461-31.655-6.461c-3.23,0-6.461,0.646-9.045,1.292
			c-3.229,0.646-5.814,1.938-8.398,3.23s-4.522,3.23-6.46,5.814c-1.938,2.584-2.584,5.814-2.584,9.045
			c0,5.814,1.938,10.336,5.168,12.92c3.23,3.23,7.106,5.169,10.336,6.461l29.072,10.982c9.045,3.23,16.797,8.398,21.965,14.859
			c5.814,6.46,8.398,14.213,8.398,22.611c0,5.813-1.291,11.628-3.876,16.797c-2.584,5.168-5.814,9.689-10.337,13.566
			c-4.521,3.877-9.689,6.461-15.504,9.045c-5.814,1.938-12.275,3.229-19.382,3.229c-7.753,0-15.505-0.646-21.965-1.938
			s-12.921-3.23-18.735-5.814c-3.876-1.938-6.461-4.522-6.461-9.045c0-2.584,0.646-4.522,3.23-6.46
			c1.938-1.938,4.522-2.584,7.753-2.584h1.938c0.646,0,1.291,0.646,1.938,0.646c5.168,1.938,10.337,3.876,15.505,5.169
			c5.169,1.292,10.982,1.938,17.443,1.938c7.106,0,13.566-1.938,18.735-5.814c5.814-3.876,8.398-9.044,8.398-15.504
			c0-5.814-1.293-10.983-4.523-14.214c-3.229-3.229-7.752-6.46-14.858-9.044L545.391,804.229z M651.986,682.773
			c0-2.583,1.293-5.168,3.23-7.105c1.938-1.938,4.522-2.584,7.106-2.584s5.169,0.646,7.106,2.584c1.938,1.938,3.23,3.876,3.23,7.105
			v49.746h35.532c2.584,0,5.168,0.646,7.106,2.584c1.938,1.938,3.23,3.876,3.23,6.46c0,2.585-1.293,4.522-3.23,6.46
			c-1.938,1.939-4.522,2.585-7.106,2.585H672.66v88.507c0,5.814,1.938,10.982,5.814,14.213c3.876,3.23,8.398,5.169,13.566,5.169
			c1.938,0,5.168,0,8.398-0.646c3.23-0.646,5.814-0.646,7.753-0.646c1.938,0,4.522,0.646,6.46,2.584
			c1.938,1.291,3.23,3.876,3.23,6.46c0,2.585-0.646,4.522-2.584,5.814c-1.292,1.938-3.877,2.584-6.461,3.23
			c-2.584,0.646-5.814,0.646-9.045,1.292c-3.229,0-5.813,0.646-9.044,0.646c-5.814,0-10.983-0.646-15.505-2.584
			c-5.168-1.938-9.045-4.522-12.921-7.753c-3.876-3.229-6.46-7.752-8.398-12.274s-3.229-10.336-3.229-15.505V682.773H651.986
			L651.986,682.773z M766.336,810.044v16.151c0,10.336,3.229,18.734,9.044,24.549c6.46,6.461,14.859,9.69,25.842,9.69
			c6.46,0,12.274-0.646,18.089-2.584s11.629-3.23,16.797-5.814c1.292-0.646,2.584-0.646,4.522-0.646
			c2.584,0,5.168,0.646,7.106,2.584c1.938,1.938,3.23,3.876,3.23,6.46c0,3.876-1.938,7.106-5.814,8.399
			c-7.106,3.229-14.213,5.813-21.319,7.105s-14.858,1.938-22.611,1.938c-8.398,0-16.151-1.292-23.257-3.876
			c-7.107-2.584-12.922-5.814-18.09-10.337s-8.398-9.69-11.629-16.151c-2.584-6.46-3.876-13.566-3.876-21.318v-43.932
			c0-7.752,1.292-14.858,3.876-21.318c2.584-6.461,6.461-11.629,11.629-16.151s10.982-8.398,18.09-10.337
			c7.105-2.584,14.858-3.876,23.257-3.876s16.151,1.292,22.611,3.876c7.106,2.584,12.921,5.814,17.442,10.337
			c5.169,4.522,8.398,9.69,11.629,16.151c2.584,6.46,3.877,13.566,3.877,21.318v14.859c0,3.876-1.293,7.106-3.877,9.69
			s-6.46,3.876-10.336,3.876L766.336,810.044L766.336,810.044z M836.754,780.326c0-10.337-3.23-18.089-9.045-23.903
			c-6.46-5.814-14.859-8.398-25.842-8.398s-19.381,2.584-25.841,8.398c-6.461,5.814-9.045,13.566-9.045,23.903v11.629h69.772
			V780.326L836.754,780.326z M910.402,810.044v16.151c0,10.336,3.229,18.734,9.044,24.549c6.46,6.461,14.859,9.69,25.842,9.69
			c6.46,0,12.274-0.646,18.089-2.584s11.629-3.23,16.797-5.814c1.293-0.646,2.584-0.646,4.522-0.646
			c2.585,0,5.169,0.646,7.106,2.584c1.938,1.938,3.23,3.876,3.23,6.46c0,3.876-1.938,7.106-5.814,8.399
			c-7.106,3.229-14.213,5.813-21.319,7.105s-14.858,1.938-22.611,1.938c-8.398,0-16.151-1.292-23.257-3.876
			c-7.107-2.584-12.922-5.814-18.09-10.337s-8.398-9.69-11.629-16.151c-2.584-6.46-3.876-13.566-3.876-21.318v-43.932
			c0-7.752,1.292-14.858,3.876-21.318c2.584-6.461,6.461-11.629,11.629-16.151s10.982-8.398,18.09-10.337
			c7.105-2.584,14.858-3.876,23.257-3.876s16.151,1.292,22.611,3.876c7.106,2.584,12.921,5.814,17.442,10.337
			c4.523,4.522,8.399,9.69,11.629,16.151c2.585,6.46,3.877,13.566,3.877,21.318v14.859c0,3.876-1.292,7.106-3.877,9.69
			c-2.584,2.584-6.46,3.876-10.336,3.876L910.402,810.044L910.402,810.044z M980.174,780.326c0-10.337-3.23-18.089-9.045-23.903
			c-6.46-5.814-14.858-8.398-25.841-8.398s-19.382,2.584-25.842,8.398s-9.044,13.566-9.044,23.903v11.629h70.418L980.174,780.326z
			 M1201.766,777.096c0-3.876-0.646-7.752-2.584-11.629c-1.293-3.876-3.877-6.46-6.461-9.69c-2.584-2.584-5.814-5.168-9.69-6.46
			s-7.753-2.584-11.629-2.584c-10.982,0-21.319,3.23-30.364,9.69v111.118c0,2.584-0.646,5.168-2.584,7.106
			c-1.938,1.938-3.876,2.584-6.46,2.584c-2.585,0-5.168-0.646-7.106-2.584s-2.584-3.876-2.584-7.106v-99.49
			c0-3.229-0.646-5.813-1.938-8.398c-1.292-2.584-3.229-4.521-5.813-6.46c-2.585-1.938-5.169-3.229-8.399-3.876
			c-3.229-0.646-6.46-1.292-9.69-1.292c-11.629,0-23.258,1.938-33.594,5.168v114.995c0,2.584-0.646,5.168-2.584,7.106
			c-1.938,1.938-4.522,2.584-7.107,2.584c-2.584,0-5.168-0.646-7.105-2.584c-1.938-1.938-2.584-3.876-2.584-7.106V749.963
			c0-2.585,0.646-5.169,2.584-7.107c1.291-2.584,3.876-3.876,6.46-4.521c7.106-2.584,14.858-4.522,21.966-5.814
			c7.106-1.292,14.858-1.938,23.257-1.938c7.106,0,13.567,1.292,19.382,3.876c5.813,2.584,10.982,5.814,14.858,9.691
			c5.814-3.877,12.274-7.107,19.381-9.691s14.214-3.229,21.319-3.229c6.461,0,12.921,1.292,19.381,3.876
			c5.814,2.584,10.983,5.814,15.506,10.336c4.521,4.523,8.398,9.691,10.982,15.506s3.876,12.274,3.876,18.734v89.8
			c0,2.584-0.646,5.168-2.585,7.106c-1.938,1.938-4.521,2.584-7.105,2.584s-5.168-0.646-7.106-2.584
			c-1.938-1.938-2.584-3.877-2.584-7.106v-92.384H1201.766L1201.766,777.096z M1283.813,698.926c-3.877,0-7.106-1.293-9.691-3.877
			c-2.584-2.584-3.876-5.814-3.876-9.045s1.292-6.46,3.876-9.044c2.585-2.584,5.814-3.876,9.691-3.876
			c3.876,0,7.105,1.292,9.69,3.876c2.584,2.584,3.876,5.813,3.876,9.044s-1.292,6.461-3.876,9.045
			C1290.918,697.633,1287.688,698.926,1283.813,698.926z M1273.476,739.625c0-2.584,1.292-5.168,3.23-7.105
			c1.938-1.938,4.522-2.584,7.106-2.584s5.168,0.646,7.105,2.584c1.938,1.938,3.23,3.876,3.23,7.105v128.563
			c0,2.584-1.292,5.168-3.23,7.106c-1.938,1.938-4.521,2.584-7.105,2.584s-5.168-0.646-7.106-2.584
			c-1.938-1.938-3.23-3.876-3.23-7.106V739.625z M1346.478,682.773c0-2.583,1.292-5.168,3.23-7.105s4.522-2.584,7.106-2.584
			s5.168,0.646,7.106,2.584s3.23,3.876,3.23,7.105v49.746h35.532c2.584,0,5.168,0.646,7.106,2.584
			c1.938,1.938,3.229,3.876,3.229,6.46c0,2.585-1.291,4.522-3.229,6.46c-1.938,1.939-4.522,2.585-7.106,2.585h-35.532v88.507
			c0,5.814,1.938,10.982,5.814,14.213s8.398,5.169,13.566,5.169c1.938,0,5.169,0,8.398-0.646c3.23-0.646,5.814-0.646,7.753-0.646
			c1.938,0,4.521,0.646,6.46,2.584c1.938,1.291,3.23,3.876,3.23,6.46c0,2.585-0.646,4.522-2.584,5.814
			c-1.292,1.938-3.876,2.584-6.46,3.23c-2.585,0.646-5.814,0.646-9.045,1.292c-3.23,0-5.814,0.646-9.045,0.646
			c-5.814,0-10.982-0.646-15.505-2.584c-5.168-1.938-9.044-4.522-12.921-7.753c-3.876-3.229-6.46-7.752-8.398-12.274
			c-1.938-4.522-3.23-10.336-3.23-15.505V682.773H1346.478L1346.478,682.773z"/>
		<path fill="#FFFFFF" d="M801.222,175.651c-20.027,16.797-40.7,37.47-49.099,62.666c-9.691,29.718,3.876,60.081,16.797,86.569
			c12.92,27.133,27.134,53.621,39.408,81.4c9.69,21.965,23.257,47.807,20.027,72.356c-2.585,17.442-8.398,34.24-11.629,51.683
			c-2.584,11.629,8.398,0,12.275-3.23c22.61-19.381,47.16-41.346,56.205-71.063c4.521-14.858,1.938-28.426-3.23-42.639
			c-5.169-13.566-10.982-26.487-16.797-40.054c-12.275-27.135-25.195-54.268-38.116-81.401c-5.169-9.69-10.337-20.027-14.859-30.364
			c-4.522-10.982-7.106-22.611-7.753-34.886c-0.646-9.69-0.646-18.735,0.646-28.426c0.646-7.106,2.584-13.566,3.23-20.673
			C808.975,173.713,805.744,172.422,801.222,175.651z M1097.107,175.651c-20.027,16.797-40.701,37.47-49.1,62.666
			c-9.689,29.718,3.877,60.081,16.797,86.569c12.922,27.133,27.134,53.621,39.408,81.4c9.691,21.965,23.258,47.807,20.027,72.356
			c-2.584,17.442-8.398,34.24-11.628,51.683c-2.585,11.629,8.398,0,12.274-3.23c22.611-19.381,47.161-41.346,56.205-71.063
			c4.522-14.858,1.938-28.426-3.23-42.639c-5.168-13.566-10.982-26.487-16.797-40.054c-12.274-27.135-25.195-54.268-38.116-81.401
			c-5.168-9.69-10.336-20.027-14.858-30.364c-4.522-10.982-7.106-22.611-7.753-34.886c-0.646-9.69-0.646-18.735,0.646-28.426
			c0.646-7.106,2.584-13.566,3.229-20.673C1104.859,173.713,1101.629,172.422,1097.107,175.651L1097.107,175.651z"/>
	</g>
	<path fill="#FFFFFF" d="M944.643,126.553c-22.611,18.735-47.161,41.347-60.729,67.834c-9.69,18.734-10.982,38.116-5.814,57.498
		c6.461,23.257,15.506,46.514,25.196,69.125c18.735,43.285,43.284,83.985,61.373,127.916c6.46,15.505,13.567,32.948,14.859,50.391
		c1.292,21.319-5.814,43.931-11.629,63.958c-1.292,5.814-5.168,13.567-4.522,19.382c0.646,4.521,3.23,2.584,5.814,0.646
		c10.982-8.398,21.965-18.089,31.656-27.78c26.487-25.195,56.852-58.789,54.268-98.197c-1.293-16.151-9.045-31.656-15.506-46.515
		c-7.105-17.442-14.858-34.24-22.611-51.037c-14.213-31.655-29.071-62.665-44.576-93.675c-5.168-10.983-11.629-21.32-15.505-32.303
		c-5.814-14.859-8.398-30.363-9.045-45.869c-0.646-11.628,0-23.902,1.292-35.531c0.646-7.753,3.23-14.859,3.23-22.611
		C954.333,122.676,950.457,122.03,944.643,126.553L944.643,126.553z"/>
</g>
</svg>
