<?xml version="1.0" encoding="utf-8"?>
<!-- Generator: Adobe Illustrator 16.0.0, SVG Export Plug-In . SVG Version: 6.00 Build 0)  -->
<!DOCTYPE svg PUBLIC "-//W3C//DTD SVG 1.1//EN" "http://www.w3.org/Graphics/SVG/1.1/DTD/svg11.dtd">
<svg version="1.1" id="Layer_1" xmlns="http://www.w3.org/2000/svg" xmlns:xlink="http://www.w3.org/1999/xlink" x="0px" y="0px"
	 width="50px" height="50px" viewBox="0 0 50 50" enable-background="new 0 0 50 50" xml:space="preserve">
<g>
	<path fill-rule="evenodd" clip-rule="evenodd" fill="#58A1D8" d="M25.469,49.154c0.152-1.027,0.166-2.103,0.488-3.075
		c1.313-3.977,0.883-7.743-0.881-11.507c-2.884-6.155-5.81-12.3-8.37-18.591c-2.375-5.844,0.492-12.839,6.106-15.717
		c0.309-0.158,1.048,0.471,1.554,0.79c0.081,0.054,0.026,0.404-0.032,0.598c-1.596,5.691,0.657,10.586,3.018,15.54
		c2.535,5.317,4.885,10.727,7.179,16.155c1.245,2.946,1.017,5.861-1.153,8.4c-2.27,2.658-4.576,5.282-6.865,7.92
		C26.162,49.497,25.819,49.326,25.469,49.154z"/>
	<path fill-rule="evenodd" clip-rule="evenodd" fill="#58A1D8" d="M8.353,8.859c-0.539,4.521,1.741,7.834,3.285,11.375
		c1.683,3.881,3.36,7.766,5.016,11.659c0.83,1.95,0.614,3.896-0.612,5.55c-1.443,1.941-3.091,3.738-4.738,5.519
		c-0.338,0.369-1.068,0.381-1.613,0.558c-0.044-0.511-0.24-1.065-0.103-1.525c1.098-3.803,0.56-7.354-1.181-10.892
		c-2.142-4.358-4.116-8.805-6.028-13.271C0.539,13.523,2.677,7.896,6.854,5.89c0.299-0.141,1.302,0.445,1.433,0.862
		C8.524,7.51,8.353,8.397,8.353,8.859z"/>
	<path fill-rule="evenodd" clip-rule="evenodd" fill="#58A1D8" d="M41.469,43.852c0.088-0.734,0.051-1.343,0.242-1.869
		c1.298-3.562,0.754-6.9-0.857-10.252c-2.162-4.496-4.281-9.021-6.147-13.642c-1.92-4.752-0.235-9.35,4.052-12.104
		c0.982-0.632,1.818-0.44,1.656,0.72c-1.104,7.836,4.029,13.614,6.549,20.245c0.791,2.073,1.601,4.137,2.323,6.233
		c0.191,0.557,0.296,1.295,0.09,1.815c-1.394,3.581-3.826,6.388-6.835,8.72C42.368,43.853,42.036,43.789,41.469,43.852z"/>
</g>
</svg>
